G04 ================== begin FILE IDENTIFICATION RECORD ==================*
G04 Layout Name:  X:/Range_Networks/SDR_Rev3_0043D/Gerber/RNRAD1-SDR-R3.brd*
G04 Film Name:    LAYER05*
G04 File Format:  Gerber RS274X*
G04 File Origin:  Cadence Allegro 16.3-S035*
G04 Origin Date:  Mon Aug 22 14:42:20 2011*
G04 *
G04 Layer:  VIA CLASS/L05_PWR*
G04 Layer:  PIN/L05_PWR*
G04 Layer:  ETCH/L05_PWR*
G04 Layer:  DRAWING FORMAT/L05_PWR*
G04 Layer:  DRAWING FORMAT/FILM_BLOCK_CHANGE*
G04 Layer:  DRAWING FORMAT/FILM_TITLE_BLOCK*
G04 Layer:  BOARD GEOMETRY/OUTLINE*
G04 *
G04 Offset:    (0.00 0.00)*
G04 Mirror:    No*
G04 Mode:      Negative*
G04 Rotation:  0*
G04 FullContactRelief:  No*
G04 UndefLineWidth:     6.00*
G04 ================== end FILE IDENTIFICATION RECORD ====================*
%FSLAX25Y25*MOIN*%
%IR0*IPPOS*OFA0.00000B0.00000*MIA0B0*SFA1.00000B1.00000*%
%ADD12C,.03*%
%ADD16C,.032*%
%ADD14C,.08*%
%ADD21C,.075*%
%ADD24O,.158X.079*%
%ADD23C,.077*%
%ADD22O,.079X.158*%
%AMMACRO10*
4,1,20,.07582,.06521,
.085992,.051053,
.093551,.035345,
.098267,.018564,
.099998,.001218,
.09869,-.016165,
.094384,-.033057,
.087209,-.048944,
.077385,-.063345,
.07582,-.06521,
.0829,-.0723,
.094195,-.056806,
.102629,-.039586,
.107944,-.021164,
.109979,-.002098,
.108672,.017032,
.104064,.035644,
.096293,.053172,
.085597,.069086,
.0829,.0723,
.07582,.06521,
0.0*
4,1,20,.06521,-.07582,
.051053,-.085992,
.035345,-.093551,
.018564,-.098267,
.001218,-.099998,
-.016165,-.09869,
-.033057,-.094384,
-.048944,-.087209,
-.063345,-.077385,
-.06521,-.07582,
-.0723,-.0829,
-.056806,-.094195,
-.039586,-.102629,
-.021164,-.107944,
-.002098,-.109979,
.017032,-.108672,
.035644,-.104064,
.053172,-.096293,
.069086,-.085597,
.0723,-.0829,
.06521,-.07582,
0.0*
4,1,20,-.07582,-.06521,
-.085992,-.051053,
-.093551,-.035345,
-.098267,-.018564,
-.099998,-.001218,
-.09869,.016165,
-.094384,.033057,
-.087209,.048944,
-.077385,.063345,
-.07582,.06521,
-.0829,.0723,
-.094195,.056806,
-.102629,.039586,
-.107944,.021164,
-.109979,.002098,
-.108672,-.017032,
-.104064,-.035644,
-.096293,-.053172,
-.085597,-.069086,
-.0829,-.0723,
-.07582,-.06521,
0.0*
4,1,20,-.06521,.07582,
-.051053,.085992,
-.035345,.093551,
-.018564,.098267,
-.001218,.099998,
.016165,.09869,
.033057,.094384,
.048944,.087209,
.063345,.077385,
.06521,.07582,
.0723,.0829,
.056806,.094195,
.039586,.102629,
.021164,.107944,
.002098,.109979,
-.017032,.108672,
-.035644,.104064,
-.053172,.096293,
-.069086,.085597,
-.0723,.0829,
-.06521,.07582,
0.0*
%
%ADD10MACRO10*%
%ADD18C,.13*%
%ADD25C,.131*%
%AMMACRO20*
4,1,16,.02584,.01524,
.028094,.010521,
.029494,.005483,
.029998,.000278,
.029591,-.004935,
.028284,-.009999,
.026118,-.014758,
.02584,-.01524,
.03309,-.02248,
.036491,-.016392,
.038783,-.009807,
.039897,-.002923,
.039798,.004049,
.038491,.010899,
.036013,.017417,
.03309,.02248,
.02584,.01524,
180.*
4,1,16,.01524,-.02584,
.010521,-.028094,
.005483,-.029494,
.000278,-.029998,
-.004935,-.029591,
-.009999,-.028284,
-.014758,-.026118,
-.01524,-.02584,
-.02248,-.03309,
-.016392,-.036491,
-.009807,-.038783,
-.002923,-.039897,
.004049,-.039798,
.010899,-.038491,
.017417,-.036013,
.02248,-.03309,
.01524,-.02584,
180.*
4,1,16,-.02584,-.01524,
-.028094,-.010521,
-.029494,-.005483,
-.029998,-.000278,
-.029591,.004935,
-.028284,.009999,
-.026118,.014758,
-.02584,.01524,
-.03309,.02248,
-.036491,.016392,
-.038783,.009807,
-.039897,.002923,
-.039798,-.004049,
-.038491,-.010899,
-.036013,-.017417,
-.03309,-.02248,
-.02584,-.01524,
180.*
4,1,16,-.01524,.02584,
-.010521,.028094,
-.005483,.029494,
-.000278,.029998,
.004935,.029591,
.009999,.028284,
.014758,.026118,
.01524,.02584,
.02248,.03309,
.016392,.036491,
.009807,.038783,
.002923,.039897,
-.004049,.039798,
-.010899,.038491,
-.017417,.036013,
-.02248,.03309,
-.01524,.02584,
180.*
%
%ADD20MACRO20*%
%ADD26C,.177*%
%ADD27C,.01*%
%ADD28C,.005*%
%ADD29C,.006*%
%ADD30C,.07006*%
G75*
%LPD*%
G75*
G36*
G01X-11000Y-11000D02*
X531000D01*
Y311000D01*
X-11000D01*
Y-11000D01*
G37*
%LPC*%
G75*
G36*
G01X-9500Y-9500D02*
Y309500D01*
X529500D01*
Y289500D01*
X527500Y287500D01*
X510000D01*
X495500Y302000D01*
X261500D01*
X246500Y287000D01*
X223500D01*
X218934Y291566D01*
X219017Y291728D01*
G03X216728Y294017I-1517J772D01*
G01X216566Y293934D01*
X208500Y302000D01*
X19000D01*
X15000Y298000D01*
Y231000D01*
X21000Y225000D01*
X90500D01*
X100500Y215000D01*
X126000D01*
X138500Y227500D01*
X150500D01*
X166000Y212000D01*
X178000D01*
X180000Y210000D01*
Y167500D01*
X178000Y165500D01*
X168500D01*
X166500Y167500D01*
X156000D01*
X153000Y164500D01*
Y153500D01*
X155000Y151500D01*
Y126000D01*
X144000Y115000D01*
X108925D01*
X108857Y115143D01*
G03X106143I-1357J-643D01*
G01X106075Y115000D01*
X102500D01*
X100000Y117500D01*
X90500D01*
X80000Y107000D01*
Y82500D01*
X72500Y75000D01*
X17500D01*
X15000Y72500D01*
Y42500D01*
X10500Y38000D01*
Y27000D01*
X15000Y22500D01*
Y3500D01*
X20500Y-2000D01*
X207000D01*
X221500Y12500D01*
X248000D01*
X262500Y-2000D01*
X497500D01*
X512000Y12500D01*
X527500D01*
X529500Y10500D01*
Y-9500D01*
X-9500D01*
G37*
G36*
G01X22000Y0D02*
X17000Y5000D01*
Y23500D01*
X12500Y28000D01*
Y37000D01*
X17000Y41500D01*
Y71000D01*
X18500Y72500D01*
X74000D01*
X82500Y81000D01*
Y106500D01*
X92000Y116000D01*
X98500D01*
X102000Y112500D01*
X145000D01*
X157000Y124500D01*
Y152500D01*
X155000Y154500D01*
Y163500D01*
X157000Y165500D01*
X166000D01*
X168000Y163500D01*
X179500D01*
X182500Y166500D01*
Y211000D01*
X179500Y214000D01*
X167500D01*
X142500Y239000D01*
Y297500D01*
X145000Y300000D01*
X207500D01*
X222500Y285000D01*
X247500D01*
X262500Y300000D01*
X455000D01*
X457500Y297500D01*
Y247500D01*
X455000Y245000D01*
X426000D01*
X403500Y222500D01*
X382500D01*
X380000Y225000D01*
Y244000D01*
X376500Y247500D01*
X354500D01*
X350000Y243000D01*
Y4000D01*
X346000Y0D01*
X264000D01*
X248500Y15500D01*
X247925D01*
X247857Y15643D01*
G03X245143I-1357J-643D01*
G01X245075Y15500D01*
X220500D01*
X205000Y0D01*
X22000D01*
G37*
G36*
G01X37007Y227750D02*
X27993D01*
X27940Y227929D01*
G03X25060I-1440J-429D01*
G01X25007Y227750D01*
X22750D01*
X17500Y233000D01*
Y297500D01*
X20000Y300000D01*
X135000D01*
X137500Y297500D01*
Y230000D01*
X125000Y217500D01*
X101500D01*
X91250Y227750D01*
X39993D01*
X39940Y227929D01*
G03X37060I-1440J-429D01*
G01X37007Y227750D01*
G37*
G36*
G01X457500Y144871D02*
Y130129D01*
X457441Y130059D01*
G03Y125729I2559J-2165D01*
G01X457500Y125659D01*
Y76000D01*
X449000Y67500D01*
X362500D01*
X352500Y77500D01*
Y240000D01*
X357500Y245000D01*
X375000D01*
X377500Y242500D01*
Y222500D01*
X380000Y220000D01*
X404500D01*
X427000Y242500D01*
X452500D01*
X457500Y237500D01*
Y149341D01*
X457441Y149271D01*
G03Y144941I2559J-2165D01*
G01X457500Y144871D01*
G37*
%LPD*%
G75*
G54D30*
X43600Y82164D03*
Y217900D03*
G36*
G01X20041Y105039D02*
G02X19961Y104959I-40J-40D01*
G01X19901Y105029D01*
G03X19971Y105099I99J-29D01*
G01X20041Y105039D01*
G37*
G36*
G01X16791Y109789D02*
G02X16711Y109709I-40J-40D01*
G01X16651Y109779D01*
G03X16721Y109849I99J-29D01*
G01X16791Y109789D01*
G37*
G36*
G01X42541Y47539D02*
G02X42461Y47459I-40J-40D01*
G01X42401Y47529D01*
G03X42471Y47599I99J-29D01*
G01X42541Y47539D01*
G37*
G36*
G01X31041Y92539D02*
G02X30961Y92459I-40J-40D01*
G01X30901Y92529D01*
G03X30971Y92599I99J-29D01*
G01X31041Y92539D01*
G37*
G36*
G01X28291Y109789D02*
G02X28211Y109709I-40J-40D01*
G01X28151Y109779D01*
G03X28221Y109849I99J-29D01*
G01X28291Y109789D01*
G37*
G36*
G01X25041Y105039D02*
G02X24961Y104959I-40J-40D01*
G01X24901Y105029D01*
G03X24971Y105099I99J-29D01*
G01X25041Y105039D01*
G37*
G36*
G01X34041Y110701D02*
G02X33961Y110621I-40J-40D01*
G01X33901Y110691D01*
G03X33971Y110761I99J-29D01*
G01X34041Y110701D01*
G37*
G36*
G01Y117000D02*
G02X33961Y116920I-40J-40D01*
G01X33901Y116990D01*
G03X33971Y117060I99J-29D01*
G01X34041Y117000D01*
G37*
G36*
G01Y189441D02*
G02X33961Y189361I-40J-40D01*
G01X33901Y189431D01*
G03X33971Y189501I99J-29D01*
G01X34041Y189441D01*
G37*
G36*
G01Y195740D02*
G02X33961Y195660I-40J-40D01*
G01X33901Y195730D01*
G03X33971Y195800I99J-29D01*
G01X34041Y195740D01*
G37*
G36*
G01Y183142D02*
G02X33961Y183062I-40J-40D01*
G01X33901Y183132D01*
G03X33971Y183202I99J-29D01*
G01X34041Y183142D01*
G37*
G36*
G01X34241Y208339D02*
G02X34161Y208259I-40J-40D01*
G01X34101Y208329D01*
G03X34171Y208399I99J-29D01*
G01X34241Y208339D01*
G37*
G36*
G01X34041Y202040D02*
G02X33961Y201960I-40J-40D01*
G01X33901Y202030D01*
G03X33971Y202100I99J-29D01*
G01X34041Y202040D01*
G37*
G36*
G01X56041Y47539D02*
G02X55961Y47459I-40J-40D01*
G01X55901Y47529D01*
G03X55971Y47599I99J-29D01*
G01X56041Y47539D01*
G37*
G36*
G01X62541D02*
G02X62461Y47459I-40J-40D01*
G01X62401Y47529D01*
G03X62471Y47599I99J-29D01*
G01X62541Y47539D01*
G37*
G36*
G01X49041D02*
G02X48961Y47459I-40J-40D01*
G01X48901Y47529D01*
G03X48971Y47599I99J-29D01*
G01X49041Y47539D01*
G37*
G36*
G01X45041Y120150D02*
G02X44961Y120070I-40J-40D01*
G01X44901Y120140D01*
G03X44971Y120210I99J-29D01*
G01X45041Y120150D01*
G37*
G36*
G01X58541Y101252D02*
G02X58461Y101172I-40J-40D01*
G01X58401Y101242D01*
G03X58471Y101312I99J-29D01*
G01X58541Y101252D01*
G37*
G36*
G01X45041D02*
G02X44961Y101172I-40J-40D01*
G01X44901Y101242D01*
G03X44971Y101312I99J-29D01*
G01X45041Y101252D01*
G37*
G36*
G01Y107551D02*
G02X44961Y107471I-40J-40D01*
G01X44901Y107541D01*
G03X44971Y107611I99J-29D01*
G01X45041Y107551D01*
G37*
G36*
G01X58541Y120150D02*
G02X58461Y120070I-40J-40D01*
G01X58401Y120140D01*
G03X58471Y120210I99J-29D01*
G01X58541Y120150D01*
G37*
G36*
G01Y110701D02*
G02X58461Y110621I-40J-40D01*
G01X58401Y110691D01*
G03X58471Y110761I99J-29D01*
G01X58541Y110701D01*
G37*
G36*
G01X44994Y179992D02*
G02X44914Y179912I-40J-40D01*
G01X44854Y179982D01*
G03X44924Y180052I99J-29D01*
G01X44994Y179992D01*
G37*
G36*
G01X45041Y198890D02*
G02X44961Y198810I-40J-40D01*
G01X44901Y198880D01*
G03X44971Y198950I99J-29D01*
G01X45041Y198890D01*
G37*
G36*
G01X58541Y189441D02*
G02X58461Y189361I-40J-40D01*
G01X58401Y189431D01*
G03X58471Y189501I99J-29D01*
G01X58541Y189441D01*
G37*
G36*
G01X45041Y192591D02*
G02X44961Y192511I-40J-40D01*
G01X44901Y192581D01*
G03X44971Y192651I99J-29D01*
G01X45041Y192591D01*
G37*
G36*
G01Y186291D02*
G02X44961Y186211I-40J-40D01*
G01X44901Y186281D01*
G03X44971Y186351I99J-29D01*
G01X45041Y186291D01*
G37*
G36*
G01X58541Y198890D02*
G02X58461Y198810I-40J-40D01*
G01X58401Y198880D01*
G03X58471Y198950I99J-29D01*
G01X58541Y198890D01*
G37*
G36*
G01X45041Y205189D02*
G02X44961Y205109I-40J-40D01*
G01X44901Y205179D01*
G03X44971Y205249I99J-29D01*
G01X45041Y205189D01*
G37*
G36*
G01X71541Y92539D02*
G02X71461Y92459I-40J-40D01*
G01X71401Y92529D01*
G03X71471Y92599I99J-29D01*
G01X71541Y92539D01*
G37*
G36*
G01X69041Y208339D02*
G02X68961Y208259I-40J-40D01*
G01X68901Y208329D01*
G03X68971Y208399I99J-29D01*
G01X69041Y208339D01*
G37*
G54D12*
X15000Y52500D03*
X20000D03*
X21000Y70000D03*
Y62500D03*
X5000Y77500D03*
X9000Y70000D03*
Y62500D03*
X5000Y82500D03*
X20000Y125000D03*
X5000Y160000D03*
Y165000D03*
X21000Y180000D03*
X9000D03*
X21000Y187500D03*
X5000Y200000D03*
Y195000D03*
X9000Y187500D03*
X5000Y235000D03*
Y230000D03*
X5500Y260000D03*
Y256250D03*
X5000Y242500D03*
Y247500D03*
Y277500D03*
Y272500D03*
X5500Y263750D03*
X27500Y48500D03*
X35000D03*
X25000Y77500D03*
Y95000D03*
Y90000D03*
Y82500D03*
Y125000D03*
X34000Y142158D03*
Y148457D03*
Y154756D03*
X25000Y160000D03*
Y165000D03*
Y200000D03*
Y195000D03*
Y212500D03*
Y207500D03*
X38500Y237500D03*
Y227500D03*
X25000Y235000D03*
Y230000D03*
X26500Y237500D03*
Y227500D03*
X25000Y242500D03*
Y247500D03*
X24500Y259500D03*
X53000Y115500D03*
X58500Y125500D03*
X51000Y132709D03*
X44992Y139008D03*
X58500Y136000D03*
X45000Y145308D03*
Y151607D03*
X58500Y146500D03*
Y150500D03*
X45000Y157906D03*
X58500Y157000D03*
Y169000D03*
X45000Y171500D03*
X58547Y179953D03*
X45000Y236050D03*
X56750Y230500D03*
X53000D03*
X45500Y245100D03*
X72500Y14000D03*
X75000Y52500D03*
X70000D03*
X69000Y98063D03*
Y103500D03*
Y108500D03*
Y113000D03*
Y118000D03*
Y135859D03*
X75000Y157000D03*
X72500Y159500D03*
X69000Y149000D03*
Y154000D03*
Y144000D03*
Y172500D03*
Y195701D03*
Y191500D03*
Y182000D03*
Y186252D03*
X69001Y202001D03*
X74000Y202000D03*
X80000Y234000D03*
X72500Y246000D03*
X80000D03*
X95000Y58500D03*
X85000D03*
X96500Y110500D03*
X92500Y140000D03*
X88000Y144000D03*
X85000Y146500D03*
X96500Y142000D03*
X92500Y160000D03*
X100000Y179500D03*
X95500Y167000D03*
X102500Y256500D03*
Y268500D03*
X98500Y282200D03*
X101000Y290000D03*
Y295000D03*
X107500Y110500D03*
Y114500D03*
Y134000D03*
Y138000D03*
Y152500D03*
X116000Y177000D03*
X107500Y170512D03*
Y162000D03*
X111000Y177000D03*
X107000Y187500D03*
X118500Y221500D03*
X119000Y256500D03*
X106000Y268500D03*
X118500Y286500D03*
X140000Y92500D03*
X136000D03*
X132500Y103000D03*
X140500D03*
X128500Y177000D03*
X136500Y187500D03*
X132500D03*
X129000Y224950D03*
X125000Y233500D03*
X140000Y247000D03*
X125000Y253000D03*
X140000Y253500D03*
X132000Y271950D03*
X128000Y291000D03*
X124000Y285000D03*
X157000Y10500D03*
X150500Y16083D03*
X153000Y10500D03*
X155000Y6500D03*
X150500Y38917D03*
X157500Y32500D03*
X162500D03*
X159950Y22050D03*
X151000Y50000D03*
X153543Y44500D03*
X148000Y92500D03*
X158000D03*
X144000Y88500D03*
X144500Y103000D03*
X157500Y108500D03*
X154500Y103000D03*
X157500Y162000D03*
X154500Y177000D03*
X147000Y187500D03*
X150500D03*
X147500Y220000D03*
Y212500D03*
X150000Y217500D03*
Y205000D03*
Y210000D03*
Y222500D03*
X168500Y27500D03*
X177500Y33500D03*
X174417Y38917D03*
X164500Y22000D03*
X168898D03*
X171457Y44500D03*
X168000Y169500D03*
X200000Y91929D03*
X199000Y85000D03*
X189000Y93898D03*
Y85000D03*
X200000Y106500D03*
X189000Y109500D03*
Y113000D03*
X200000Y128500D03*
Y132500D03*
Y150000D03*
X189000Y147347D03*
X200000Y159500D03*
X189000Y151000D03*
X200000Y171500D03*
X189000Y180000D03*
X200000Y175500D03*
Y163500D03*
Y189500D03*
X189000Y185500D03*
X200000Y185000D03*
X189000Y192500D03*
X200000Y197000D03*
X189000D03*
X200000Y201000D03*
X189000Y189000D03*
X185000Y216500D03*
X189000Y201500D03*
X200000Y205000D03*
X189000Y206500D03*
X200000Y209000D03*
X201000Y221000D03*
X185000Y223500D03*
X221000Y90000D03*
X220500Y210000D03*
X205000Y221000D03*
X242500Y59500D03*
Y54500D03*
X225000Y66000D03*
X238500Y90000D03*
X240000Y210000D03*
X246500Y15000D03*
X258500D03*
X246500Y40000D03*
X258500D03*
X262500Y59500D03*
Y54500D03*
X258500Y47500D03*
X246500D03*
X258000Y79000D03*
X254000D03*
X249173Y94000D03*
X252500D03*
X264000Y90000D03*
X246500D03*
X258500D03*
X258000Y210000D03*
X262000D03*
X249000Y221000D03*
X261000D03*
X253000D03*
X257047Y220953D03*
X252000Y210000D03*
X270827Y79000D03*
X272795Y90000D03*
X268000D03*
X264500Y103500D03*
X280500Y183500D03*
X269000Y221000D03*
X264921D03*
X272000Y210000D03*
X268000D03*
X283000Y235000D03*
X282500Y259000D03*
X283000Y246000D03*
X271000Y250000D03*
X303500Y90000D03*
X297000Y178500D03*
X287000Y181000D03*
X303500Y210000D03*
X294500D03*
X304000Y240000D03*
X292000Y235000D03*
X320000Y97835D03*
Y93898D03*
Y106500D03*
Y120000D03*
Y101772D03*
Y128500D03*
Y132500D03*
Y159500D03*
Y148950D03*
Y145079D03*
Y156500D03*
Y171500D03*
Y163000D03*
Y175500D03*
Y189000D03*
X316000Y252500D03*
Y245000D03*
X331000Y91000D03*
Y95866D03*
Y99803D03*
Y109500D03*
Y113300D03*
Y150550D03*
X330917Y186717D03*
X331000Y190500D03*
X343000Y220000D03*
Y225000D03*
X358500Y125690D03*
Y135925D03*
X358043Y158957D03*
X358000Y163000D03*
Y170000D03*
Y166500D03*
X353450Y229000D03*
Y244000D03*
X382500Y45000D03*
X377500D03*
Y65000D03*
X382500D03*
X371000Y113500D03*
Y120571D03*
X384500Y127500D03*
X373000Y123500D03*
X373500Y140000D03*
X371000Y152050D03*
X373000Y154500D03*
X371000Y157000D03*
X371500Y178500D03*
X371000Y171752D03*
X370984Y161516D03*
X370500Y198000D03*
X378000Y185500D03*
X370500Y222500D03*
Y237500D03*
X402500Y81500D03*
X386000Y102000D03*
X402500D03*
X393000D03*
X397500D03*
X398000Y114500D03*
X402000D03*
X387000Y140000D03*
Y133000D03*
X396280Y198000D03*
X393720Y185500D03*
X391161Y198000D03*
X388602Y185500D03*
X397450D03*
X403500Y237500D03*
Y232500D03*
Y227500D03*
Y222500D03*
X394500Y237500D03*
Y222500D03*
X403500Y247500D03*
X417500Y65500D03*
X422500Y81500D03*
X409000D03*
X415000Y92500D03*
X416752Y114500D03*
X419000Y118012D03*
Y135000D03*
Y123130D03*
Y128248D03*
Y158957D03*
Y146450D03*
Y166634D03*
X419311Y198000D03*
X419000Y184547D03*
X424500Y227500D03*
Y222500D03*
X415500Y257500D03*
Y262500D03*
X427500Y92500D03*
X431500Y116500D03*
Y120571D03*
X445000Y126000D03*
X431500Y141043D03*
Y130807D03*
Y125689D03*
X445000Y149000D03*
X431500Y165000D03*
Y187500D03*
X436500Y232500D03*
Y257500D03*
X447500Y52500D03*
X452500D03*
X451000Y245000D03*
G54D16*
X42500Y7500D03*
X27500Y30000D03*
X35000Y62500D03*
X34000Y136000D03*
Y129560D03*
Y161056D03*
Y170500D03*
X37500Y262500D03*
Y283000D03*
X49000Y7500D03*
X56000D03*
X62500D03*
Y62500D03*
X45000Y93500D03*
Y88615D03*
X58500Y93500D03*
Y88615D03*
X45000Y132500D03*
Y126500D03*
X58500Y129560D03*
Y164205D03*
X45000D03*
Y211449D03*
X58500Y212500D03*
X62500Y262500D03*
X72500Y2500D03*
Y165000D03*
X90000Y9500D03*
X84000D03*
X96000D03*
Y45500D03*
X90000D03*
X84000D03*
X85000Y77500D03*
X100000Y227500D03*
X87500Y262500D03*
X120500Y500D03*
X110000Y2500D03*
X115000Y50000D03*
X120500D03*
X117500Y110000D03*
X114000Y241500D03*
X121000D03*
Y248500D03*
X114000D03*
X117500Y245000D03*
X129500Y500D03*
X125000D03*
X137500Y2500D03*
X129500Y50000D03*
X125000D03*
X137500Y112500D03*
X157500Y240000D03*
X177500Y7500D03*
X175000Y105000D03*
X180000Y240000D03*
Y267500D03*
X198500Y7500D03*
X191500D03*
X185000D03*
X191500Y47500D03*
X198500D03*
X185000D03*
X197500Y292500D03*
X212500Y12500D03*
X205000Y7500D03*
Y47500D03*
X220000Y52500D03*
X212500Y135000D03*
Y160000D03*
Y182500D03*
X222500Y222500D03*
X207500Y240000D03*
X217500Y292500D03*
X243000Y31250D03*
X230000Y52500D03*
X225000Y51500D03*
X230000Y105000D03*
X242500Y130000D03*
Y160000D03*
Y182500D03*
Y240000D03*
X262500Y7500D03*
X257600Y20000D03*
X253000Y27500D03*
X262000D03*
Y23750D03*
X257600Y35000D03*
X262000Y31250D03*
X247400Y35000D03*
X260000Y267500D03*
Y292500D03*
X269500Y6500D03*
Y18500D03*
Y12500D03*
X267500Y38000D03*
Y32000D03*
Y26000D03*
Y44000D03*
Y51000D03*
Y57000D03*
Y69000D03*
Y63000D03*
X270000Y130000D03*
X272500Y160000D03*
Y182500D03*
X287500Y2500D03*
X302500Y105000D03*
Y130000D03*
Y160000D03*
Y190000D03*
Y225000D03*
X305500Y18500D03*
Y6500D03*
Y12500D03*
X307500Y38000D03*
Y32000D03*
Y26000D03*
Y51000D03*
Y57000D03*
Y44000D03*
Y69000D03*
Y63000D03*
X325000Y65000D03*
X342500Y82500D03*
X327500Y240000D03*
Y225000D03*
Y267500D03*
Y292500D03*
X352500Y65000D03*
X355000Y267500D03*
X377500Y2000D03*
X382500D03*
X380000Y33500D03*
X375000Y37500D03*
Y30000D03*
X370000Y250000D03*
X365000Y285000D03*
X405000Y11000D03*
X397500D03*
X405000Y18500D03*
X397500D03*
X405000Y33500D03*
X397500D03*
Y26000D03*
X405000D03*
X385000Y37500D03*
Y30000D03*
X405000Y41000D03*
X397500D03*
Y65500D03*
X385000Y152500D03*
X402500D03*
Y177500D03*
X385000D03*
X395000Y203500D03*
X385000Y267500D03*
X412500Y11000D03*
X420000D03*
X412500Y18500D03*
X420000D03*
X412500Y33500D03*
X420000D03*
Y26000D03*
X412500D03*
Y41000D03*
X420000D03*
X412500Y52000D03*
X422500D03*
X412500Y65500D03*
X422500Y69000D03*
Y65500D03*
X425000Y102500D03*
X412500Y267500D03*
Y292500D03*
X442500Y0D03*
X427500Y11000D03*
Y18500D03*
Y33500D03*
Y26000D03*
Y41000D03*
X431900Y58900D03*
X427500Y52000D03*
X442500Y42500D03*
X427500Y65500D03*
X437500Y87500D03*
X445000Y108000D03*
X440000Y180000D03*
X451000Y0D03*
X459000D03*
X464500Y59000D03*
X459000Y42500D03*
X451000D03*
X464500Y79000D03*
X457500Y66500D03*
Y72500D03*
X462500D03*
Y66500D03*
X460000Y167500D03*
Y200000D03*
X452500Y267500D03*
X475000Y0D03*
X483500D03*
X467500D03*
X468000Y51500D03*
X477900Y51600D03*
X483500Y42500D03*
X475000D03*
X467500D03*
Y86500D03*
X477900D03*
X482500Y282500D03*
X491500Y0D03*
X500000D03*
X488000Y51500D03*
X491000Y59000D03*
X500000Y42500D03*
X491500D03*
X491000Y79000D03*
X498000Y72500D03*
Y66500D03*
X493000Y72500D03*
Y66500D03*
X487500Y86500D03*
X520000Y25000D03*
Y110000D03*
Y162500D03*
Y210000D03*
Y255000D03*
G54D14*
X10000Y122500D03*
X43600Y82164D03*
Y217900D03*
X197500Y263000D03*
Y273000D03*
X207500Y263000D03*
X217500D03*
X207500Y273000D03*
X217500D03*
X235000Y67500D03*
X237500Y263000D03*
X227500Y273000D03*
X237500D03*
X267500Y282500D03*
X277500D03*
X267500Y292500D03*
X277500D03*
X287500Y282500D03*
Y292500D03*
X297500D03*
X307500Y282500D03*
Y292500D03*
X350000D03*
X360000D03*
X370000Y77500D03*
X380000D03*
Y292500D03*
X370000D03*
X390000D03*
X432500Y282500D03*
X442500D03*
X432500Y292500D03*
X442500D03*
X452500Y282500D03*
X462500D03*
X452500Y292500D03*
X462500D03*
X472500Y282500D03*
Y292500D03*
G54D21*
X460000Y127894D03*
Y147106D03*
G54D24*
X492911Y162504D03*
G54D22*
X481100Y144000D03*
X504722D03*
G54D23*
X472390Y215770D03*
Y205927D03*
X480264D03*
Y215770D03*
G54D10*
X0Y0D03*
Y300000D03*
X235000Y0D03*
Y300000D03*
X520000Y0D03*
Y300000D03*
G36*
G01X24960Y277460D02*
G02X25040Y277540I40J40D01*
G01X25100Y277470D01*
G03X25030Y277400I-99J29D01*
G01X24960Y277460D01*
G37*
G36*
G01Y272460D02*
G02X25040Y272540I40J40D01*
G01X25100Y272470D01*
G03X25030Y272400I-99J29D01*
G01X24960Y272460D01*
G37*
G36*
G01X169960Y217460D02*
G02X170040Y217540I40J40D01*
G01X170100Y217470D01*
G03X170030Y217400I-99J29D01*
G01X169960Y217460D01*
G37*
G36*
G01X172960Y216460D02*
G02X173040Y216540I40J40D01*
G01X173100Y216470D01*
G03X173030Y216400I-99J29D01*
G01X172960Y216460D01*
G37*
G36*
G01X169960Y204960D02*
G02X170040Y205040I40J40D01*
G01X170100Y204970D01*
G03X170030Y204900I-99J29D01*
G01X169960Y204960D01*
G37*
G36*
G01Y209960D02*
G02X170040Y210040I40J40D01*
G01X170100Y209970D01*
G03X170030Y209900I-99J29D01*
G01X169960Y209960D01*
G37*
G36*
G01Y222460D02*
G02X170040Y222540I40J40D01*
G01X170100Y222470D01*
G03X170030Y222400I-99J29D01*
G01X169960Y222460D01*
G37*
G36*
G01X172960Y223460D02*
G02X173040Y223540I40J40D01*
G01X173100Y223470D01*
G03X173030Y223400I-99J29D01*
G01X172960Y223460D01*
G37*
G36*
G01X342960Y234960D02*
G02X343040Y235040I40J40D01*
G01X343100Y234970D01*
G03X343030Y234900I-99J29D01*
G01X342960Y234960D01*
G37*
G36*
G01Y239960D02*
G02X343040Y240040I40J40D01*
G01X343100Y239970D01*
G03X343030Y239900I-99J29D01*
G01X342960Y239960D01*
G37*
G36*
G01X436460Y237460D02*
G02X436540Y237540I40J40D01*
G01X436600Y237470D01*
G03X436530Y237400I-99J29D01*
G01X436460Y237460D01*
G37*
G36*
G01Y252460D02*
G02X436540Y252540I40J40D01*
G01X436600Y252470D01*
G03X436530Y252400I-99J29D01*
G01X436460Y252460D01*
G37*
G36*
G01Y262460D02*
G02X436540Y262540I40J40D01*
G01X436600Y262470D01*
G03X436530Y262400I-99J29D01*
G01X436460Y262460D01*
G37*
G36*
G01X118240Y268460D02*
G02X118160Y268540I-40J40D01*
G01X118230Y268600D01*
G03X118300Y268530I-29J-99D01*
G01X118240Y268460D01*
G37*
G54D18*
X52500Y272500D03*
X62500Y282500D03*
X52500Y292500D03*
X72500Y272500D03*
Y292500D03*
X147500Y273500D03*
Y293500D03*
X167500Y273500D03*
X157500Y283500D03*
X167500Y293500D03*
G54D25*
X490933Y187148D03*
Y234550D03*
G54D20*
X227500Y263000D03*
X297500Y282500D03*
G54D26*
X520000Y53500D03*
Y84500D03*
G36*
G01X14960Y32540D02*
G02X15040Y32460I40J-40D01*
G01X14970Y32400D01*
G03X14900Y32470I29J99D01*
G01X14960Y32540D01*
G37*
G36*
G01X19960D02*
G02X20040Y32460I40J-40D01*
G01X19970Y32400D01*
G03X19900Y32470I29J99D01*
G01X19960Y32540D01*
G37*
G36*
G01X34960Y36540D02*
G02X35040Y36460I40J-40D01*
G01X34970Y36400D01*
G03X34900Y36470I29J99D01*
G01X34960Y36540D01*
G37*
G36*
G01X27460D02*
G02X27540Y36460I40J-40D01*
G01X27470Y36400D01*
G03X27400Y36470I29J99D01*
G01X27460Y36540D01*
G37*
G36*
G01X74960Y32540D02*
G02X75040Y32460I40J-40D01*
G01X74970Y32400D01*
G03X74900Y32470I29J99D01*
G01X74960Y32540D01*
G37*
G36*
G01X69960D02*
G02X70040Y32460I40J-40D01*
G01X69970Y32400D01*
G03X69900Y32470I29J99D01*
G01X69960Y32540D01*
G37*
G36*
G01X72460Y26040D02*
G02X72540Y25960I40J-40D01*
G01X72470Y25900D01*
G03X72400Y25970I29J99D01*
G01X72460Y26040D01*
G37*
G36*
G01X123960Y273040D02*
G02X124040Y272960I40J-40D01*
G01X123970Y272900D01*
G03X123900Y272970I29J99D01*
G01X123960Y273040D01*
G37*
G36*
G01X5040Y95040D02*
G02X4960Y94960I-40J-40D01*
G01X4900Y95030D01*
G03X4970Y95100I99J-29D01*
G01X5040Y95040D01*
G37*
G36*
G01Y90040D02*
G02X4960Y89960I-40J-40D01*
G01X4900Y90030D01*
G03X4970Y90100I99J-29D01*
G01X5040Y90040D01*
G37*
G36*
G01Y212540D02*
G02X4960Y212460I-40J-40D01*
G01X4900Y212530D01*
G03X4970Y212600I99J-29D01*
G01X5040Y212540D01*
G37*
G36*
G01Y207540D02*
G02X4960Y207460I-40J-40D01*
G01X4900Y207530D01*
G03X4970Y207600I99J-29D01*
G01X5040Y207540D01*
G37*
G36*
G01X34040Y98103D02*
G02X33960Y98023I-40J-40D01*
G01X33900Y98093D01*
G03X33970Y98163I99J-29D01*
G01X34040Y98103D01*
G37*
G36*
G01Y104403D02*
G02X33960Y104323I-40J-40D01*
G01X33900Y104393D01*
G03X33970Y104463I99J-29D01*
G01X34040Y104403D01*
G37*
G36*
G01X24540Y263790D02*
G02X24460Y263710I-40J-40D01*
G01X24400Y263780D01*
G03X24470Y263850I99J-29D01*
G01X24540Y263790D01*
G37*
G36*
G01X45040Y113852D02*
G02X44960Y113772I-40J-40D01*
G01X44900Y113842D01*
G03X44970Y113912I99J-29D01*
G01X45040Y113852D01*
G37*
G36*
G01X76540Y139540D02*
G02X76460Y139460I-40J-40D01*
G01X76400Y139530D01*
G03X76470Y139600I99J-29D01*
G01X76540Y139540D01*
G37*
G36*
G01Y133540D02*
G02X76460Y133460I-40J-40D01*
G01X76400Y133530D01*
G03X76470Y133600I99J-29D01*
G01X76540Y133540D01*
G37*
G36*
G01X96540Y114540D02*
G02X96460Y114460I-40J-40D01*
G01X96400Y114530D01*
G03X96470Y114600I99J-29D01*
G01X96540Y114540D01*
G37*
G36*
G01Y147040D02*
G02X96460Y146960I-40J-40D01*
G01X96400Y147030D01*
G03X96470Y147100I99J-29D01*
G01X96540Y147040D01*
G37*
G36*
G01Y160040D02*
G02X96460Y159960I-40J-40D01*
G01X96400Y160030D01*
G03X96470Y160100I99J-29D01*
G01X96540Y160040D01*
G37*
G36*
G01X107540Y106540D02*
G02X107460Y106460I-40J-40D01*
G01X107400Y106530D01*
G03X107470Y106600I99J-29D01*
G01X107540Y106540D01*
G37*
G36*
G01Y118540D02*
G02X107460Y118460I-40J-40D01*
G01X107400Y118530D01*
G03X107470Y118600I99J-29D01*
G01X107540Y118540D01*
G37*
G36*
G01Y130040D02*
G02X107460Y129960I-40J-40D01*
G01X107400Y130030D01*
G03X107470Y130100I99J-29D01*
G01X107540Y130040D01*
G37*
G36*
G01Y122540D02*
G02X107460Y122460I-40J-40D01*
G01X107400Y122530D01*
G03X107470Y122600I99J-29D01*
G01X107540Y122540D01*
G37*
G36*
G01Y126040D02*
G02X107460Y125960I-40J-40D01*
G01X107400Y126030D01*
G03X107470Y126100I99J-29D01*
G01X107540Y126040D01*
G37*
G36*
G01Y142040D02*
G02X107460Y141960I-40J-40D01*
G01X107400Y142030D01*
G03X107470Y142100I99J-29D01*
G01X107540Y142040D01*
G37*
G36*
G01Y156770D02*
G02X107460Y156690I-40J-40D01*
G01X107400Y156760D01*
G03X107470Y156830I99J-29D01*
G01X107540Y156770D01*
G37*
G36*
G01X119740Y177040D02*
G02X119660Y176960I-40J-40D01*
G01X119600Y177030D01*
G03X119670Y177100I99J-29D01*
G01X119740Y177040D01*
G37*
G36*
G01X107540Y175040D02*
G02X107460Y174960I-40J-40D01*
G01X107400Y175030D01*
G03X107470Y175100I99J-29D01*
G01X107540Y175040D01*
G37*
G36*
G01X112040Y221540D02*
G02X111960Y221460I-40J-40D01*
G01X111900Y221530D01*
G03X111970Y221600I99J-29D01*
G01X112040Y221540D01*
G37*
G36*
G01X114990Y208540D02*
G02X114910Y208460I-40J-40D01*
G01X114850Y208530D01*
G03X114920Y208600I99J-29D01*
G01X114990Y208540D01*
G37*
G36*
G01X121540Y233540D02*
G02X121460Y233460I-40J-40D01*
G01X121400Y233530D01*
G03X121470Y233600I99J-29D01*
G01X121540Y233540D01*
G37*
G36*
G01X111540D02*
G02X111460Y233460I-40J-40D01*
G01X111400Y233530D01*
G03X111470Y233600I99J-29D01*
G01X111540Y233540D01*
G37*
G36*
G01Y256540D02*
G02X111460Y256460I-40J-40D01*
G01X111400Y256530D01*
G03X111470Y256600I99J-29D01*
G01X111540Y256540D01*
G37*
G36*
G01X122040D02*
G02X121960Y256460I-40J-40D01*
G01X121900Y256530D01*
G03X121970Y256600I99J-29D01*
G01X122040Y256540D01*
G37*
G36*
G01X123540Y268540D02*
G02X123460Y268460I-40J-40D01*
G01X123400Y268530D01*
G03X123470Y268600I99J-29D01*
G01X123540Y268540D01*
G37*
G36*
G01X136540Y103040D02*
G02X136460Y102960I-40J-40D01*
G01X136400Y103030D01*
G03X136470Y103100I99J-29D01*
G01X136540Y103040D01*
G37*
G36*
G01X140040Y177040D02*
G02X139960Y176960I-40J-40D01*
G01X139900Y177030D01*
G03X139970Y177100I99J-29D01*
G01X140040Y177040D01*
G37*
G36*
G01X136540D02*
G02X136460Y176960I-40J-40D01*
G01X136400Y177030D01*
G03X136470Y177100I99J-29D01*
G01X136540Y177040D01*
G37*
G36*
G01X132540D02*
G02X132460Y176960I-40J-40D01*
G01X132400Y177030D01*
G03X132470Y177100I99J-29D01*
G01X132540Y177040D01*
G37*
G36*
G01Y197540D02*
G02X132460Y197460I-40J-40D01*
G01X132400Y197530D01*
G03X132470Y197600I99J-29D01*
G01X132540Y197540D01*
G37*
G36*
G01X143370Y187540D02*
G02X143290Y187460I-40J-40D01*
G01X143230Y187530D01*
G03X143300Y187600I99J-29D01*
G01X143370Y187540D01*
G37*
G36*
G01X126540D02*
G02X126460Y187460I-40J-40D01*
G01X126400Y187530D01*
G03X126470Y187600I99J-29D01*
G01X126540Y187540D01*
G37*
G36*
G01X125040Y221540D02*
G02X124960Y221460I-40J-40D01*
G01X124900Y221530D01*
G03X124970Y221600I99J-29D01*
G01X125040Y221540D01*
G37*
G36*
G01X135540Y220040D02*
G02X135460Y219960I-40J-40D01*
G01X135400Y220030D01*
G03X135470Y220100I99J-29D01*
G01X135540Y220040D01*
G37*
G36*
G01Y212540D02*
G02X135460Y212460I-40J-40D01*
G01X135400Y212530D01*
G03X135470Y212600I99J-29D01*
G01X135540Y212540D01*
G37*
G36*
G01X130090Y208540D02*
G02X130010Y208460I-40J-40D01*
G01X129950Y208530D01*
G03X130020Y208600I99J-29D01*
G01X130090Y208540D01*
G37*
G36*
G01X132540Y205040D02*
G02X132460Y204960I-40J-40D01*
G01X132400Y205030D01*
G03X132470Y205100I99J-29D01*
G01X132540Y205040D01*
G37*
G36*
G01X129040Y245040D02*
G02X128960Y244960I-40J-40D01*
G01X128900Y245030D01*
G03X128970Y245100I99J-29D01*
G01X129040Y245040D01*
G37*
G36*
G01X152040Y92540D02*
G02X151960Y92460I-40J-40D01*
G01X151900Y92530D01*
G03X151970Y92600I99J-29D01*
G01X152040Y92540D01*
G37*
G36*
G01X157540Y104540D02*
G02X157460Y104460I-40J-40D01*
G01X157400Y104530D01*
G03X157470Y104600I99J-29D01*
G01X157540Y104540D01*
G37*
G36*
G01X148540Y103040D02*
G02X148460Y102960I-40J-40D01*
G01X148400Y103030D01*
G03X148470Y103100I99J-29D01*
G01X148540Y103040D01*
G37*
G36*
G01X157540Y158040D02*
G02X157460Y157960I-40J-40D01*
G01X157400Y158030D01*
G03X157470Y158100I99J-29D01*
G01X157540Y158040D01*
G37*
G36*
G01X145040Y177040D02*
G02X144960Y176960I-40J-40D01*
G01X144900Y177030D01*
G03X144970Y177100I99J-29D01*
G01X145040Y177040D01*
G37*
G36*
G01X150540D02*
G02X150460Y176960I-40J-40D01*
G01X150400Y177030D01*
G03X150470Y177100I99J-29D01*
G01X150540Y177040D01*
G37*
G36*
G01X155040Y187540D02*
G02X154960Y187460I-40J-40D01*
G01X154900Y187530D01*
G03X154970Y187600I99J-29D01*
G01X155040Y187540D01*
G37*
G36*
G01X168040Y173540D02*
G02X167960Y173460I-40J-40D01*
G01X167900Y173530D01*
G03X167970Y173600I99J-29D01*
G01X168040Y173540D01*
G37*
G36*
G01X200040Y110540D02*
G02X199960Y110460I-40J-40D01*
G01X199900Y110530D01*
G03X199970Y110600I99J-29D01*
G01X200040Y110540D01*
G37*
G36*
G01Y154040D02*
G02X199960Y153960I-40J-40D01*
G01X199900Y154030D01*
G03X199970Y154100I99J-29D01*
G01X200040Y154040D01*
G37*
G36*
G01Y193540D02*
G02X199960Y193460I-40J-40D01*
G01X199900Y193530D01*
G03X199970Y193600I99J-29D01*
G01X200040Y193540D01*
G37*
G36*
G01X196490Y244990D02*
G02X196410Y244910I-40J-40D01*
G01X196350Y244980D01*
G03X196420Y245050I99J-29D01*
G01X196490Y244990D01*
G37*
G36*
G01X217040Y90040D02*
G02X216960Y89960I-40J-40D01*
G01X216900Y90030D01*
G03X216970Y90100I99J-29D01*
G01X217040Y90040D01*
G37*
G36*
G01X216540Y210040D02*
G02X216460Y209960I-40J-40D01*
G01X216400Y210030D01*
G03X216470Y210100I99J-29D01*
G01X216540Y210040D01*
G37*
G36*
G01X242540Y90040D02*
G02X242460Y89960I-40J-40D01*
G01X242400Y90030D01*
G03X242470Y90100I99J-29D01*
G01X242540Y90040D01*
G37*
G36*
G01X226540Y244990D02*
G02X226460Y244910I-40J-40D01*
G01X226400Y244980D01*
G03X226470Y245050I99J-29D01*
G01X226540Y244990D01*
G37*
G36*
G01X246040Y210040D02*
G02X245960Y209960I-40J-40D01*
G01X245900Y210030D01*
G03X245970Y210100I99J-29D01*
G01X246040Y210040D01*
G37*
G36*
G01X275540Y104040D02*
G02X275460Y103960I-40J-40D01*
G01X275400Y104030D01*
G03X275470Y104100I99J-29D01*
G01X275540Y104040D01*
G37*
G36*
G01X267040Y196540D02*
G02X266960Y196460I-40J-40D01*
G01X266900Y196530D01*
G03X266970Y196600I99J-29D01*
G01X267040Y196540D01*
G37*
G36*
G01X273540D02*
G02X273460Y196460I-40J-40D01*
G01X273400Y196530D01*
G03X273470Y196600I99J-29D01*
G01X273540Y196540D01*
G37*
G36*
G01X283040Y240040D02*
G02X282960Y239960I-40J-40D01*
G01X282900Y240030D01*
G03X282970Y240100I99J-29D01*
G01X283040Y240040D01*
G37*
G36*
G01X299540Y90040D02*
G02X299460Y89960I-40J-40D01*
G01X299400Y90030D01*
G03X299470Y90100I99J-29D01*
G01X299540Y90040D01*
G37*
G36*
G01Y210040D02*
G02X299460Y209960I-40J-40D01*
G01X299400Y210030D01*
G03X299470Y210100I99J-29D01*
G01X299540Y210040D01*
G37*
G36*
G01X292540Y259040D02*
G02X292460Y258960I-40J-40D01*
G01X292400Y259030D01*
G03X292470Y259100I99J-29D01*
G01X292540Y259040D01*
G37*
G36*
G01X304040Y252540D02*
G02X303960Y252460I-40J-40D01*
G01X303900Y252530D01*
G03X303970Y252600I99J-29D01*
G01X304040Y252540D01*
G37*
G36*
G01Y245040D02*
G02X303960Y244960I-40J-40D01*
G01X303900Y245030D01*
G03X303970Y245100I99J-29D01*
G01X304040Y245040D01*
G37*
G36*
G01X320040Y110540D02*
G02X319960Y110460I-40J-40D01*
G01X319900Y110530D01*
G03X319970Y110600I99J-29D01*
G01X320040Y110540D01*
G37*
G36*
G01Y152993D02*
G02X319960Y152913I-40J-40D01*
G01X319900Y152983D01*
G03X319970Y153053I99J-29D01*
G01X320040Y152993D01*
G37*
G36*
G01Y193040D02*
G02X319960Y192960I-40J-40D01*
G01X319900Y193030D01*
G03X319970Y193100I99J-29D01*
G01X320040Y193040D01*
G37*
G36*
G01X362040Y220040D02*
G02X361960Y219960I-40J-40D01*
G01X361900Y220030D01*
G03X361970Y220100I99J-29D01*
G01X362040Y220040D01*
G37*
G36*
G01Y240040D02*
G02X361960Y239960I-40J-40D01*
G01X361900Y240030D01*
G03X361970Y240100I99J-29D01*
G01X362040Y240040D01*
G37*
G36*
G01Y235040D02*
G02X361960Y234960I-40J-40D01*
G01X361900Y235030D01*
G03X361970Y235100I99J-29D01*
G01X362040Y235040D01*
G37*
G36*
G01Y225040D02*
G02X361960Y224960I-40J-40D01*
G01X361900Y225030D01*
G03X361970Y225100I99J-29D01*
G01X362040Y225040D01*
G37*
G36*
G01X384540Y120540D02*
G02X384460Y120460I-40J-40D01*
G01X384400Y120530D01*
G03X384470Y120600I99J-29D01*
G01X384540Y120540D01*
G37*
G36*
G01X371040Y117040D02*
G02X370960Y116960I-40J-40D01*
G01X370900Y117030D01*
G03X370970Y117100I99J-29D01*
G01X371040Y117040D01*
G37*
G36*
G01X382040Y102040D02*
G02X381960Y101960I-40J-40D01*
G01X381900Y102030D01*
G03X381970Y102100I99J-29D01*
G01X382040Y102040D01*
G37*
G36*
G01X371040Y148040D02*
G02X370960Y147960I-40J-40D01*
G01X370900Y148030D01*
G03X370970Y148100I99J-29D01*
G01X371040Y148040D01*
G37*
G36*
G01X373288Y185540D02*
G02X373208Y185460I-40J-40D01*
G01X373148Y185530D01*
G03X373218Y185600I99J-29D01*
G01X373288Y185540D01*
G37*
G36*
G01X371540Y182540D02*
G02X371460Y182460I-40J-40D01*
G01X371400Y182530D01*
G03X371470Y182600I99J-29D01*
G01X371540Y182540D01*
G37*
G36*
G01X399040Y133040D02*
G02X398960Y132960I-40J-40D01*
G01X398900Y133030D01*
G03X398970Y133100I99J-29D01*
G01X399040Y133040D01*
G37*
G36*
G01Y140040D02*
G02X398960Y139960I-40J-40D01*
G01X398900Y140030D01*
G03X398970Y140100I99J-29D01*
G01X399040Y140040D01*
G37*
G36*
G01X402590Y185540D02*
G02X402510Y185460I-40J-40D01*
G01X402450Y185530D01*
G03X402520Y185600I99J-29D01*
G01X402590Y185540D01*
G37*
G36*
G01X384990Y227490D02*
G02X384910Y227410I-40J-40D01*
G01X384850Y227480D01*
G03X384920Y227550I99J-29D01*
G01X384990Y227490D01*
G37*
G36*
G01Y242540D02*
G02X384910Y242460I-40J-40D01*
G01X384850Y242530D01*
G03X384920Y242600I99J-29D01*
G01X384990Y242540D01*
G37*
G36*
G01X419040Y151320D02*
G02X418960Y151240I-40J-40D01*
G01X418900Y151310D01*
G03X418970Y151380I99J-29D01*
G01X419040Y151320D01*
G37*
G36*
G01X414233Y198040D02*
G02X414153Y197960I-40J-40D01*
G01X414093Y198030D01*
G03X414163Y198100I99J-29D01*
G01X414233Y198040D01*
G37*
G36*
G01X431540Y111540D02*
G02X431460Y111460I-40J-40D01*
G01X431400Y111530D01*
G03X431470Y111600I99J-29D01*
G01X431540Y111540D01*
G37*
G36*
G01Y161040D02*
G02X431460Y160960I-40J-40D01*
G01X431400Y161030D01*
G03X431470Y161100I99J-29D01*
G01X431540Y161040D01*
G37*
G36*
G01X451040Y220040D02*
G02X450960Y219960I-40J-40D01*
G01X450900Y220030D01*
G03X450970Y220100I99J-29D01*
G01X451040Y220040D01*
G37*
G36*
G01Y227540D02*
G02X450960Y227460I-40J-40D01*
G01X450900Y227530D01*
G03X450970Y227600I99J-29D01*
G01X451040Y227540D01*
G37*
G36*
G01Y252540D02*
G02X450960Y252460I-40J-40D01*
G01X450900Y252530D01*
G03X450970Y252600I99J-29D01*
G01X451040Y252540D01*
G37*
%LPC*%
G75*
G54D27*
G01X56000Y-170500D02*
X173500D01*
G01X56000Y-167500D02*
X173500D01*
G54D28*
G01X28000Y-185500D02*
X485519Y-185493D01*
G54D29*
G01X-11000Y311000D02*
X531000D01*
Y-11000D01*
X-11000D01*
Y311000D01*
G01X38000Y-247974D02*
X485519D01*
G01X28000Y-248000D02*
X485519Y-247974D01*
Y-207974D01*
X28000Y-208000D01*
Y-248000D01*
G01Y-228000D02*
X485519Y-227974D01*
G01X28000Y-205500D02*
X485519Y-205493D01*
Y-144982D01*
X28000Y-145000D01*
Y-205500D01*
G01X57550Y-164500D02*
Y-152000D01*
X61425D01*
X62665Y-152625D01*
X63440Y-153458D01*
X63750Y-155125D01*
X63440Y-156792D01*
X62510Y-157833D01*
X61425Y-158458D01*
X57550D01*
G01X61425D02*
X63750Y-164500D01*
G01X73050D02*
X72120Y-164292D01*
X71190Y-163459D01*
X70570Y-162000D01*
X70260Y-160333D01*
X70570Y-158667D01*
X71190Y-157208D01*
X72120Y-156375D01*
X73050Y-156167D01*
X73980Y-156375D01*
X74910Y-157208D01*
X75530Y-158667D01*
X75685Y-160333D01*
X75530Y-162000D01*
X74910Y-163459D01*
X73980Y-164292D01*
X73050Y-164500D01*
G01X87930Y-157208D02*
X86845Y-156375D01*
X85915Y-156167D01*
X84675Y-156583D01*
X83745Y-157417D01*
X83125Y-158875D01*
X82970Y-160333D01*
X83125Y-161792D01*
X83745Y-163042D01*
X84675Y-164083D01*
X85915Y-164500D01*
X87000Y-164083D01*
X87930Y-163250D01*
G01X95215Y-164500D02*
Y-152000D01*
G01X100175Y-156167D02*
X95215Y-160958D01*
G01X97230Y-159083D02*
X100485Y-164500D01*
G01X107925Y-158875D02*
X112885D01*
X112420Y-157417D01*
X111645Y-156583D01*
X110560Y-156167D01*
X109475Y-156375D01*
X108545Y-157000D01*
X107925Y-158458D01*
X107615Y-159709D01*
Y-160958D01*
X107925Y-162208D01*
X108700Y-163459D01*
X109630Y-164292D01*
X110715Y-164500D01*
X111800Y-164083D01*
X112885Y-162834D01*
G01X122650Y-152000D02*
Y-164500D01*
G01X120480Y-156167D02*
X124820D01*
G01X150550Y-164500D02*
X144350D01*
Y-152000D01*
X150550D01*
G01X148070Y-158042D02*
X144350D01*
G01X155820Y-164500D02*
Y-152000D01*
X159850Y-162417D01*
X163880Y-152000D01*
Y-164500D01*
G01X168995Y-162834D02*
X170235Y-163875D01*
X171630Y-164500D01*
X172870D01*
X174110Y-163875D01*
X175040Y-162834D01*
X175505Y-161375D01*
X175195Y-159917D01*
X174420Y-158667D01*
X173025Y-157833D01*
X171165Y-157417D01*
X170080Y-156583D01*
X169615Y-155125D01*
X169925Y-153667D01*
X170700Y-152625D01*
X171785Y-152000D01*
X172870D01*
X173955Y-152417D01*
X174885Y-153458D01*
G01X86690Y-174400D02*
X87610D01*
G01X87150D02*
Y-177500D01*
G01X86690D02*
X87610D01*
G01X90250Y-174400D02*
Y-177500D01*
G01X89368Y-174400D02*
X91132D01*
G01X95990D02*
X96910D01*
G01X96450D02*
Y-177500D01*
G01X95990D02*
X96910D01*
G01X98745Y-177087D02*
X99052Y-177345D01*
X99397Y-177500D01*
X99703D01*
X100010Y-177345D01*
X100240Y-177087D01*
X100355Y-176725D01*
X100278Y-176363D01*
X100087Y-176053D01*
X99742Y-175847D01*
X99282Y-175743D01*
X99013Y-175537D01*
X98898Y-175175D01*
X98975Y-174813D01*
X99167Y-174555D01*
X99435Y-174400D01*
X99703D01*
X99972Y-174503D01*
X100202Y-174762D01*
G01X104983Y-177500D02*
Y-174400D01*
X105942D01*
X106248Y-174555D01*
X106440Y-174762D01*
X106517Y-175175D01*
X106440Y-175588D01*
X106210Y-175847D01*
X105942Y-176002D01*
X104983D01*
G01X105942D02*
X106517Y-177500D01*
G01X108850D02*
X108543Y-177448D01*
X108275Y-177242D01*
X108045Y-176932D01*
X107892Y-176570D01*
X107815Y-176157D01*
Y-175743D01*
X107892Y-175330D01*
X108045Y-174968D01*
X108275Y-174658D01*
X108543Y-174452D01*
X108850Y-174400D01*
X109157Y-174452D01*
X109425Y-174658D01*
X109655Y-174968D01*
X109808Y-175330D01*
X109885Y-175743D01*
Y-176157D01*
X109808Y-176570D01*
X109655Y-176932D01*
X109425Y-177242D01*
X109157Y-177448D01*
X108850Y-177500D01*
G01X112793Y-174658D02*
X112563Y-174503D01*
X112295Y-174400D01*
X111988D01*
X111643Y-174555D01*
X111375Y-174813D01*
X111183Y-175123D01*
X111030Y-175640D01*
X110992Y-176105D01*
X111068Y-176570D01*
X111183Y-176880D01*
X111413Y-177190D01*
X111682Y-177397D01*
X111950Y-177500D01*
X112218D01*
X112487Y-177397D01*
X112717Y-177242D01*
X112908Y-177035D01*
G01X114207Y-177500D02*
Y-174400D01*
G01X115663D02*
X114207Y-176312D01*
G01X115893Y-177500D02*
X114858Y-175433D01*
G01X118917Y-177500D02*
X117383D01*
Y-174400D01*
X118917D01*
G01X118303Y-175898D02*
X117383D01*
G01X121250Y-174400D02*
Y-177500D01*
G01X120368Y-174400D02*
X122132D01*
G01X126645Y-177087D02*
X126952Y-177345D01*
X127297Y-177500D01*
X127603D01*
X127910Y-177345D01*
X128140Y-177087D01*
X128255Y-176725D01*
X128178Y-176363D01*
X127987Y-176053D01*
X127642Y-175847D01*
X127182Y-175743D01*
X126913Y-175537D01*
X126798Y-175175D01*
X126875Y-174813D01*
X127067Y-174555D01*
X127335Y-174400D01*
X127603D01*
X127872Y-174503D01*
X128102Y-174762D01*
G01X131393Y-174658D02*
X131163Y-174503D01*
X130895Y-174400D01*
X130588D01*
X130243Y-174555D01*
X129975Y-174813D01*
X129783Y-175123D01*
X129630Y-175640D01*
X129592Y-176105D01*
X129668Y-176570D01*
X129783Y-176880D01*
X130013Y-177190D01*
X130282Y-177397D01*
X130550Y-177500D01*
X130818D01*
X131087Y-177397D01*
X131317Y-177242D01*
X131508Y-177035D01*
G01X133190Y-174400D02*
X134110D01*
G01X133650D02*
Y-177500D01*
G01X133190D02*
X134110D01*
G01X137517D02*
X135983D01*
Y-174400D01*
X137517D01*
G01X136903Y-175898D02*
X135983D01*
G01X138968Y-177500D02*
Y-174400D01*
X140732Y-177500D01*
Y-174400D01*
G01X143793Y-174658D02*
X143563Y-174503D01*
X143295Y-174400D01*
X142988D01*
X142643Y-174555D01*
X142375Y-174813D01*
X142183Y-175123D01*
X142030Y-175640D01*
X141992Y-176105D01*
X142068Y-176570D01*
X142183Y-176880D01*
X142413Y-177190D01*
X142682Y-177397D01*
X142950Y-177500D01*
X143218D01*
X143487Y-177397D01*
X143717Y-177242D01*
X143908Y-177035D01*
G01X146817Y-177500D02*
X145283D01*
Y-174400D01*
X146817D01*
G01X146203Y-175898D02*
X145283D01*
G01X203000Y-207974D02*
Y-247974D01*
G01Y-185493D02*
Y-205493D01*
G01Y-144982D02*
Y-185493D01*
G01X423000Y-207974D02*
Y-248000D01*
G01X41119Y-234760D02*
X41652Y-235218D01*
X42252Y-235493D01*
X42786D01*
X43319Y-235218D01*
X43719Y-234760D01*
X43919Y-234118D01*
X43786Y-233476D01*
X43452Y-232926D01*
X42852Y-232560D01*
X42052Y-232376D01*
X41586Y-232010D01*
X41386Y-231368D01*
X41519Y-230726D01*
X41852Y-230268D01*
X42319Y-229993D01*
X42786D01*
X43252Y-230176D01*
X43652Y-230635D01*
G01X48919Y-235493D02*
Y-231826D01*
G01Y-232468D02*
X48652Y-232101D01*
X48252Y-231918D01*
X47786Y-231826D01*
X47319Y-232010D01*
X46919Y-232376D01*
X46652Y-232926D01*
X46519Y-233660D01*
X46652Y-234393D01*
X46919Y-234943D01*
X47319Y-235310D01*
X47786Y-235493D01*
X48252Y-235401D01*
X48652Y-235126D01*
X48919Y-234760D01*
G01X52919Y-235493D02*
Y-229993D01*
G01X57119Y-233018D02*
X59252D01*
X59052Y-232376D01*
X58719Y-232010D01*
X58252Y-231826D01*
X57786Y-231918D01*
X57386Y-232193D01*
X57119Y-232835D01*
X56986Y-233385D01*
Y-233935D01*
X57119Y-234485D01*
X57452Y-235035D01*
X57852Y-235401D01*
X58319Y-235493D01*
X58786Y-235310D01*
X59252Y-234760D01*
G01X62319Y-234851D02*
X62652Y-235218D01*
X63119Y-235493D01*
X63519D01*
X63919Y-235310D01*
X64186Y-235035D01*
X64319Y-234668D01*
X64252Y-234118D01*
X63986Y-233843D01*
X62786Y-233293D01*
X62519Y-232651D01*
X62652Y-232193D01*
X62919Y-231918D01*
X63319Y-231826D01*
X63719Y-231918D01*
X64119Y-232193D01*
G01X74786Y-232285D02*
X74319Y-231918D01*
X73919Y-231826D01*
X73386Y-232010D01*
X72986Y-232376D01*
X72719Y-233018D01*
X72652Y-233660D01*
X72719Y-234301D01*
X72986Y-234851D01*
X73386Y-235310D01*
X73919Y-235493D01*
X74386Y-235310D01*
X74786Y-234943D01*
G01X78919Y-235493D02*
X78519Y-235401D01*
X78119Y-235035D01*
X77852Y-234393D01*
X77719Y-233660D01*
X77852Y-232926D01*
X78119Y-232285D01*
X78519Y-231918D01*
X78919Y-231826D01*
X79319Y-231918D01*
X79719Y-232285D01*
X79986Y-232926D01*
X80052Y-233660D01*
X79986Y-234393D01*
X79719Y-235035D01*
X79319Y-235401D01*
X78919Y-235493D01*
G01X82986D02*
Y-231826D01*
G01Y-232743D02*
X83252Y-232285D01*
X83652Y-231918D01*
X84186Y-231826D01*
X84652Y-231918D01*
X85052Y-232285D01*
X85252Y-232926D01*
Y-235493D01*
G01X89319Y-229993D02*
Y-235493D01*
G01X88386Y-231826D02*
X90252D01*
G01X95719Y-235493D02*
Y-231826D01*
G01Y-232468D02*
X95452Y-232101D01*
X95052Y-231918D01*
X94586Y-231826D01*
X94119Y-232010D01*
X93719Y-232376D01*
X93452Y-232926D01*
X93319Y-233660D01*
X93452Y-234393D01*
X93719Y-234943D01*
X94119Y-235310D01*
X94586Y-235493D01*
X95052Y-235401D01*
X95452Y-235126D01*
X95719Y-234760D01*
G01X100786Y-232285D02*
X100319Y-231918D01*
X99919Y-231826D01*
X99386Y-232010D01*
X98986Y-232376D01*
X98719Y-233018D01*
X98652Y-233660D01*
X98719Y-234301D01*
X98986Y-234851D01*
X99386Y-235310D01*
X99919Y-235493D01*
X100386Y-235310D01*
X100786Y-234943D01*
G01X104919Y-229993D02*
Y-235493D01*
G01X103986Y-231826D02*
X105852D01*
G01X110119Y-235676D02*
X109986Y-235585D01*
Y-235401D01*
X110119Y-235310D01*
X110252Y-235401D01*
Y-235585D01*
X110119Y-235676D01*
G01Y-233201D02*
X109986Y-233110D01*
Y-232926D01*
X110119Y-232835D01*
X110252Y-232926D01*
Y-233110D01*
X110119Y-233201D01*
G01X41186Y-209993D02*
Y-215493D01*
X43852D01*
G01X48919D02*
Y-211826D01*
G01Y-212468D02*
X48652Y-212101D01*
X48252Y-211918D01*
X47786Y-211826D01*
X47319Y-212010D01*
X46919Y-212376D01*
X46652Y-212926D01*
X46519Y-213660D01*
X46652Y-214393D01*
X46919Y-214943D01*
X47319Y-215310D01*
X47786Y-215493D01*
X48252Y-215401D01*
X48652Y-215126D01*
X48919Y-214760D01*
G01X51519Y-217143D02*
X51919Y-217326D01*
X52452Y-217143D01*
X52786Y-216776D01*
X53052Y-216318D01*
X53452Y-214851D01*
X54319Y-211826D01*
G01X52186D02*
X53452Y-214851D01*
G01X58119Y-215493D02*
X57719Y-215401D01*
X57319Y-215035D01*
X57052Y-214393D01*
X56919Y-213660D01*
X57052Y-212926D01*
X57319Y-212285D01*
X57719Y-211918D01*
X58119Y-211826D01*
X58519Y-211918D01*
X58919Y-212285D01*
X59186Y-212926D01*
X59252Y-213660D01*
X59186Y-214393D01*
X58919Y-215035D01*
X58519Y-215401D01*
X58119Y-215493D01*
G01X62186Y-211826D02*
Y-214393D01*
X62452Y-215035D01*
X62852Y-215401D01*
X63319Y-215493D01*
X63786Y-215401D01*
X64186Y-215035D01*
X64452Y-214393D01*
G01Y-215493D02*
Y-211826D01*
G01X68519Y-209993D02*
Y-215493D01*
G01X67586Y-211826D02*
X69452D01*
G01X80119Y-209993D02*
Y-215493D01*
G01Y-214668D02*
X79852Y-215126D01*
X79452Y-215401D01*
X78986Y-215493D01*
X78452Y-215310D01*
X78052Y-214851D01*
X77786Y-214301D01*
X77719Y-213660D01*
X77786Y-213018D01*
X78052Y-212468D01*
X78452Y-212010D01*
X78986Y-211826D01*
X79452Y-211918D01*
X79786Y-212101D01*
X80119Y-212468D01*
G01X83119Y-213018D02*
X85252D01*
X85052Y-212376D01*
X84719Y-212010D01*
X84252Y-211826D01*
X83786Y-211918D01*
X83386Y-212193D01*
X83119Y-212835D01*
X82986Y-213385D01*
Y-213935D01*
X83119Y-214485D01*
X83452Y-215035D01*
X83852Y-215401D01*
X84319Y-215493D01*
X84786Y-215310D01*
X85252Y-214760D01*
G01X88319Y-214851D02*
X88652Y-215218D01*
X89119Y-215493D01*
X89519D01*
X89919Y-215310D01*
X90186Y-215035D01*
X90319Y-214668D01*
X90252Y-214118D01*
X89986Y-213843D01*
X88786Y-213293D01*
X88519Y-212651D01*
X88652Y-212193D01*
X88919Y-211918D01*
X89319Y-211826D01*
X89719Y-211918D01*
X90119Y-212193D01*
G01X94519Y-211826D02*
Y-215493D01*
G01Y-210360D02*
X94386Y-210268D01*
Y-210085D01*
X94519Y-209993D01*
X94652Y-210085D01*
Y-210268D01*
X94519Y-210360D01*
G01X98786Y-216868D02*
X99252Y-217235D01*
X99786Y-217326D01*
X100252Y-217235D01*
X100652Y-216776D01*
X100919Y-216135D01*
Y-211826D01*
G01Y-212560D02*
X100652Y-212193D01*
X100252Y-211918D01*
X99786Y-211826D01*
X99252Y-212010D01*
X98919Y-212376D01*
X98652Y-213018D01*
X98519Y-213660D01*
X98586Y-214210D01*
X98852Y-214851D01*
X99252Y-215310D01*
X99786Y-215493D01*
X100186Y-215401D01*
X100652Y-215035D01*
X100919Y-214668D01*
G01X103786Y-215493D02*
Y-211826D01*
G01Y-212743D02*
X104052Y-212285D01*
X104452Y-211918D01*
X104986Y-211826D01*
X105452Y-211918D01*
X105852Y-212285D01*
X106052Y-212926D01*
Y-215493D01*
G01X109119Y-213018D02*
X111252D01*
X111052Y-212376D01*
X110719Y-212010D01*
X110252Y-211826D01*
X109786Y-211918D01*
X109386Y-212193D01*
X109119Y-212835D01*
X108986Y-213385D01*
Y-213935D01*
X109119Y-214485D01*
X109452Y-215035D01*
X109852Y-215401D01*
X110319Y-215493D01*
X110786Y-215310D01*
X111252Y-214760D01*
G01X114386Y-215493D02*
Y-211826D01*
G01Y-212560D02*
X114719Y-212193D01*
X115052Y-211918D01*
X115519Y-211826D01*
X115852Y-211918D01*
X116252Y-212193D01*
G01X120519Y-215676D02*
X120386Y-215585D01*
Y-215401D01*
X120519Y-215310D01*
X120652Y-215401D01*
Y-215585D01*
X120519Y-215676D01*
G01Y-213201D02*
X120386Y-213110D01*
Y-212926D01*
X120519Y-212835D01*
X120652Y-212926D01*
Y-213110D01*
X120519Y-213201D01*
G01X32667Y-198500D02*
Y-193000D01*
X34267D01*
X34800Y-193275D01*
X35200Y-193917D01*
X35333Y-194650D01*
X35200Y-195383D01*
X34867Y-195933D01*
X34267Y-196208D01*
X32667D01*
G01X40400Y-198500D02*
Y-194833D01*
G01Y-195475D02*
X40133Y-195108D01*
X39733Y-194925D01*
X39267Y-194833D01*
X38800Y-195017D01*
X38400Y-195383D01*
X38133Y-195933D01*
X38000Y-196667D01*
X38133Y-197400D01*
X38400Y-197950D01*
X38800Y-198317D01*
X39267Y-198500D01*
X39733Y-198408D01*
X40133Y-198133D01*
X40400Y-197767D01*
G01X43467Y-198500D02*
Y-194833D01*
G01Y-195567D02*
X43800Y-195200D01*
X44133Y-194925D01*
X44600Y-194833D01*
X44933Y-194925D01*
X45333Y-195200D01*
G01X49600Y-193000D02*
Y-198500D01*
G01X48667Y-194833D02*
X50533D01*
G01X58867Y-198500D02*
Y-194833D01*
G01Y-195750D02*
X59133Y-195292D01*
X59533Y-194925D01*
X60067Y-194833D01*
X60533Y-194925D01*
X60933Y-195292D01*
X61133Y-195933D01*
Y-198500D01*
G01X64067Y-194833D02*
Y-197400D01*
X64333Y-198042D01*
X64733Y-198408D01*
X65200Y-198500D01*
X65667Y-198408D01*
X66067Y-198042D01*
X66333Y-197400D01*
G01Y-198500D02*
Y-194833D01*
G01X68400Y-198500D02*
Y-194833D01*
G01Y-195842D02*
X68600Y-195383D01*
X68933Y-195017D01*
X69400Y-194833D01*
X69867Y-195017D01*
X70200Y-195383D01*
X70400Y-195842D01*
Y-198500D01*
G01Y-195842D02*
X70600Y-195383D01*
X70933Y-195017D01*
X71400Y-194833D01*
X71867Y-195017D01*
X72200Y-195383D01*
X72400Y-195933D01*
Y-198500D01*
G01X74400D02*
Y-193000D01*
G01Y-195750D02*
X74733Y-195200D01*
X75133Y-194925D01*
X75533Y-194833D01*
X76133Y-195017D01*
X76533Y-195383D01*
X76800Y-196025D01*
Y-196758D01*
X76667Y-197492D01*
X76400Y-198042D01*
X75933Y-198408D01*
X75533Y-198500D01*
X75133Y-198408D01*
X74733Y-198133D01*
X74400Y-197675D01*
G01X79800Y-196025D02*
X81933D01*
X81733Y-195383D01*
X81400Y-195017D01*
X80933Y-194833D01*
X80467Y-194925D01*
X80067Y-195200D01*
X79800Y-195842D01*
X79667Y-196392D01*
Y-196942D01*
X79800Y-197492D01*
X80133Y-198042D01*
X80533Y-198408D01*
X81000Y-198500D01*
X81467Y-198317D01*
X81933Y-197767D01*
G01X85067Y-198500D02*
Y-194833D01*
G01Y-195567D02*
X85400Y-195200D01*
X85733Y-194925D01*
X86200Y-194833D01*
X86533Y-194925D01*
X86933Y-195200D01*
G01X91200Y-198683D02*
X91067Y-198592D01*
Y-198408D01*
X91200Y-198317D01*
X91333Y-198408D01*
Y-198592D01*
X91200Y-198683D01*
G01Y-196208D02*
X91067Y-196117D01*
Y-195933D01*
X91200Y-195842D01*
X91333Y-195933D01*
Y-196117D01*
X91200Y-196208D01*
G01X112200Y-244267D02*
X112733Y-244725D01*
X113333Y-245000D01*
X113867D01*
X114400Y-244725D01*
X114800Y-244267D01*
X115000Y-243625D01*
X114867Y-242983D01*
X114533Y-242433D01*
X113933Y-242067D01*
X113133Y-241883D01*
X112667Y-241517D01*
X112467Y-240875D01*
X112600Y-240233D01*
X112933Y-239775D01*
X113400Y-239500D01*
X113867D01*
X114333Y-239683D01*
X114733Y-240142D01*
G01X119867Y-241792D02*
X119400Y-241425D01*
X119000Y-241333D01*
X118467Y-241517D01*
X118067Y-241883D01*
X117800Y-242525D01*
X117733Y-243167D01*
X117800Y-243808D01*
X118067Y-244358D01*
X118467Y-244817D01*
X119000Y-245000D01*
X119467Y-244817D01*
X119867Y-244450D01*
G01X124000Y-245000D02*
X123600Y-244908D01*
X123200Y-244542D01*
X122933Y-243900D01*
X122800Y-243167D01*
X122933Y-242433D01*
X123200Y-241792D01*
X123600Y-241425D01*
X124000Y-241333D01*
X124400Y-241425D01*
X124800Y-241792D01*
X125067Y-242433D01*
X125133Y-243167D01*
X125067Y-243900D01*
X124800Y-244542D01*
X124400Y-244908D01*
X124000Y-245000D01*
G01X129200Y-239500D02*
Y-245000D01*
G01X128267Y-241333D02*
X130133D01*
G01X134400Y-239500D02*
Y-245000D01*
G01X133467Y-241333D02*
X135333D01*
G01X143400Y-244267D02*
X143933Y-244725D01*
X144533Y-245000D01*
X145067D01*
X145600Y-244725D01*
X146000Y-244267D01*
X146200Y-243625D01*
X146067Y-242983D01*
X145733Y-242433D01*
X145133Y-242067D01*
X144333Y-241883D01*
X143867Y-241517D01*
X143667Y-240875D01*
X143800Y-240233D01*
X144133Y-239775D01*
X144600Y-239500D01*
X145067D01*
X145533Y-239683D01*
X145933Y-240142D01*
G01X151067Y-241792D02*
X150600Y-241425D01*
X150200Y-241333D01*
X149667Y-241517D01*
X149267Y-241883D01*
X149000Y-242525D01*
X148933Y-243167D01*
X149000Y-243808D01*
X149267Y-244358D01*
X149667Y-244817D01*
X150200Y-245000D01*
X150667Y-244817D01*
X151067Y-244450D01*
G01X154067Y-245000D02*
Y-239500D01*
G01Y-242158D02*
X154400Y-241700D01*
X154733Y-241425D01*
X155267Y-241333D01*
X155667Y-241425D01*
X156133Y-241792D01*
X156333Y-242342D01*
Y-245000D01*
G01X161600D02*
Y-241333D01*
G01Y-241975D02*
X161333Y-241608D01*
X160933Y-241425D01*
X160467Y-241333D01*
X160000Y-241517D01*
X159600Y-241883D01*
X159333Y-242433D01*
X159200Y-243167D01*
X159333Y-243900D01*
X159600Y-244450D01*
X160000Y-244817D01*
X160467Y-245000D01*
X160933Y-244908D01*
X161333Y-244633D01*
X161600Y-244267D01*
G01X164600Y-242525D02*
X166733D01*
X166533Y-241883D01*
X166200Y-241517D01*
X165733Y-241333D01*
X165267Y-241425D01*
X164867Y-241700D01*
X164600Y-242342D01*
X164467Y-242892D01*
Y-243442D01*
X164600Y-243992D01*
X164933Y-244542D01*
X165333Y-244908D01*
X165800Y-245000D01*
X166267Y-244817D01*
X166733Y-244267D01*
G01X170800Y-239500D02*
Y-245000D01*
G01X169867Y-241333D02*
X171733D01*
G01X175000D02*
X177000D01*
X175000Y-245000D01*
X177000D01*
G01X181200D02*
Y-239500D01*
G01X185400Y-242525D02*
X187533D01*
X187333Y-241883D01*
X187000Y-241517D01*
X186533Y-241333D01*
X186067Y-241425D01*
X185667Y-241700D01*
X185400Y-242342D01*
X185267Y-242892D01*
Y-243442D01*
X185400Y-243992D01*
X185733Y-244542D01*
X186133Y-244908D01*
X186600Y-245000D01*
X187067Y-244817D01*
X187533Y-244267D01*
G01X118033Y-225000D02*
Y-219500D01*
X119367D01*
X119900Y-219775D01*
X120300Y-220142D01*
X120633Y-220692D01*
X120900Y-221333D01*
X120967Y-222250D01*
X120900Y-223167D01*
X120633Y-223808D01*
X120300Y-224358D01*
X119900Y-224725D01*
X119367Y-225000D01*
X118033D01*
G01X124700D02*
X124300Y-224908D01*
X123900Y-224542D01*
X123633Y-223900D01*
X123500Y-223167D01*
X123633Y-222433D01*
X123900Y-221792D01*
X124300Y-221425D01*
X124700Y-221333D01*
X125100Y-221425D01*
X125500Y-221792D01*
X125767Y-222433D01*
X125833Y-223167D01*
X125767Y-223900D01*
X125500Y-224542D01*
X125100Y-224908D01*
X124700Y-225000D01*
G01X128767D02*
Y-221333D01*
G01Y-222250D02*
X129033Y-221792D01*
X129433Y-221425D01*
X129967Y-221333D01*
X130433Y-221425D01*
X130833Y-221792D01*
X131033Y-222433D01*
Y-225000D01*
G01X133967D02*
Y-221333D01*
G01Y-222250D02*
X134233Y-221792D01*
X134633Y-221425D01*
X135167Y-221333D01*
X135633Y-221425D01*
X136033Y-221792D01*
X136233Y-222433D01*
Y-225000D01*
G01X145900Y-222250D02*
X147233D01*
Y-223900D01*
X146833Y-224450D01*
X146367Y-224817D01*
X145700Y-225000D01*
X145033Y-224817D01*
X144567Y-224450D01*
X144167Y-223900D01*
X143900Y-223258D01*
X143767Y-222525D01*
Y-221883D01*
X143900Y-221333D01*
X144167Y-220692D01*
X144567Y-220142D01*
X144967Y-219775D01*
X145500Y-219500D01*
X145967D01*
X146500Y-219683D01*
X146900Y-220050D01*
G01X149767Y-225000D02*
Y-221333D01*
G01Y-222067D02*
X150100Y-221700D01*
X150433Y-221425D01*
X150900Y-221333D01*
X151233Y-221425D01*
X151633Y-221700D01*
G01X155900Y-221333D02*
Y-225000D01*
G01Y-219867D02*
X155767Y-219775D01*
Y-219592D01*
X155900Y-219500D01*
X156033Y-219592D01*
Y-219775D01*
X155900Y-219867D01*
G01X160167Y-226375D02*
X160633Y-226742D01*
X161167Y-226833D01*
X161633Y-226742D01*
X162033Y-226283D01*
X162300Y-225642D01*
Y-221333D01*
G01Y-222067D02*
X162033Y-221700D01*
X161633Y-221425D01*
X161167Y-221333D01*
X160633Y-221517D01*
X160300Y-221883D01*
X160033Y-222525D01*
X159900Y-223167D01*
X159967Y-223717D01*
X160233Y-224358D01*
X160633Y-224817D01*
X161167Y-225000D01*
X161567Y-224908D01*
X162033Y-224542D01*
X162300Y-224175D01*
G01X165300Y-224358D02*
X165633Y-224725D01*
X166100Y-225000D01*
X166500D01*
X166900Y-224817D01*
X167167Y-224542D01*
X167300Y-224175D01*
X167233Y-223625D01*
X166967Y-223350D01*
X165767Y-222800D01*
X165500Y-222158D01*
X165633Y-221700D01*
X165900Y-221425D01*
X166300Y-221333D01*
X166700Y-221425D01*
X167100Y-221700D01*
G01X170300Y-225000D02*
Y-219500D01*
G01Y-222250D02*
X170633Y-221700D01*
X171033Y-221425D01*
X171433Y-221333D01*
X172033Y-221517D01*
X172433Y-221883D01*
X172700Y-222525D01*
Y-223258D01*
X172567Y-223992D01*
X172300Y-224542D01*
X171833Y-224908D01*
X171433Y-225000D01*
X171033Y-224908D01*
X170633Y-224633D01*
X170300Y-224175D01*
G01X175300Y-226650D02*
X175700Y-226833D01*
X176233Y-226650D01*
X176567Y-226283D01*
X176833Y-225825D01*
X177233Y-224358D01*
X178100Y-221333D01*
G01X175967D02*
X177233Y-224358D01*
G01X111167Y-201000D02*
Y-195500D01*
X112833D01*
X113367Y-195775D01*
X113700Y-196142D01*
X113833Y-196875D01*
X113700Y-197608D01*
X113300Y-198067D01*
X112833Y-198342D01*
X111167D01*
G01X112833D02*
X113833Y-201000D01*
G01X116167D02*
Y-195500D01*
X119233Y-201000D01*
Y-195500D01*
G01X121567Y-201000D02*
Y-195500D01*
X123233D01*
X123767Y-195775D01*
X124100Y-196142D01*
X124233Y-196875D01*
X124100Y-197608D01*
X123700Y-198067D01*
X123233Y-198342D01*
X121567D01*
G01X123233D02*
X124233Y-201000D01*
G01X126433D02*
X128100Y-195500D01*
X129767Y-201000D01*
G01X129167Y-199075D02*
X127033D01*
G01X131833Y-201000D02*
Y-195500D01*
X133167D01*
X133700Y-195775D01*
X134100Y-196142D01*
X134433Y-196692D01*
X134700Y-197333D01*
X134767Y-198250D01*
X134700Y-199167D01*
X134433Y-199808D01*
X134100Y-200358D01*
X133700Y-200725D01*
X133167Y-201000D01*
X131833D01*
G01X138500D02*
Y-195500D01*
X137700Y-196600D01*
G01Y-201000D02*
X139300D01*
G01X142833Y-199167D02*
X144567D01*
G01X147500Y-200267D02*
X148033Y-200725D01*
X148633Y-201000D01*
X149167D01*
X149700Y-200725D01*
X150100Y-200267D01*
X150300Y-199625D01*
X150167Y-198983D01*
X149833Y-198433D01*
X149233Y-198067D01*
X148433Y-197883D01*
X147967Y-197517D01*
X147767Y-196875D01*
X147900Y-196233D01*
X148233Y-195775D01*
X148700Y-195500D01*
X149167D01*
X149633Y-195683D01*
X150033Y-196142D01*
G01X152633Y-201000D02*
Y-195500D01*
X153967D01*
X154500Y-195775D01*
X154900Y-196142D01*
X155233Y-196692D01*
X155500Y-197333D01*
X155567Y-198250D01*
X155500Y-199167D01*
X155233Y-199808D01*
X154900Y-200358D01*
X154500Y-200725D01*
X153967Y-201000D01*
X152633D01*
G01X157967D02*
Y-195500D01*
X159633D01*
X160167Y-195775D01*
X160500Y-196142D01*
X160633Y-196875D01*
X160500Y-197608D01*
X160100Y-198067D01*
X159633Y-198342D01*
X157967D01*
G01X159633D02*
X160633Y-201000D01*
G01X163633Y-199167D02*
X165367D01*
G01X168367Y-201000D02*
Y-195500D01*
X170033D01*
X170567Y-195775D01*
X170900Y-196142D01*
X171033Y-196875D01*
X170900Y-197608D01*
X170500Y-198067D01*
X170033Y-198342D01*
X168367D01*
G01X170033D02*
X171033Y-201000D01*
G01X173433Y-199900D02*
X173833Y-200542D01*
X174367Y-200908D01*
X174967Y-201000D01*
X175500Y-200908D01*
X176033Y-200450D01*
X176367Y-199900D01*
X176433Y-199350D01*
X176300Y-198708D01*
X175833Y-198250D01*
X175367Y-198067D01*
X174767D01*
G01X175367D02*
X175767Y-197792D01*
X176100Y-197333D01*
X176233Y-196783D01*
X176100Y-196233D01*
X175767Y-195775D01*
X175167Y-195500D01*
X174567Y-195592D01*
X173967Y-195958D01*
G01X213037Y-233060D02*
X213304Y-232785D01*
X213504Y-232326D01*
X213637Y-231685D01*
X213504Y-231135D01*
X213237Y-230768D01*
X212771Y-230493D01*
X210971D01*
Y-235993D01*
X213171D01*
X213637Y-235626D01*
X213904Y-235076D01*
X214037Y-234435D01*
X213904Y-233793D01*
X213504Y-233243D01*
X213037Y-233060D01*
X210971D01*
G01X217704Y-235993D02*
X217304Y-235901D01*
X216904Y-235535D01*
X216637Y-234893D01*
X216504Y-234160D01*
X216637Y-233426D01*
X216904Y-232785D01*
X217304Y-232418D01*
X217704Y-232326D01*
X218104Y-232418D01*
X218504Y-232785D01*
X218771Y-233426D01*
X218837Y-234160D01*
X218771Y-234893D01*
X218504Y-235535D01*
X218104Y-235901D01*
X217704Y-235993D01*
G01X224104D02*
Y-232326D01*
G01Y-232968D02*
X223837Y-232601D01*
X223437Y-232418D01*
X222971Y-232326D01*
X222504Y-232510D01*
X222104Y-232876D01*
X221837Y-233426D01*
X221704Y-234160D01*
X221837Y-234893D01*
X222104Y-235443D01*
X222504Y-235810D01*
X222971Y-235993D01*
X223437Y-235901D01*
X223837Y-235626D01*
X224104Y-235260D01*
G01X227171Y-235993D02*
Y-232326D01*
G01Y-233060D02*
X227504Y-232693D01*
X227837Y-232418D01*
X228304Y-232326D01*
X228637Y-232418D01*
X229037Y-232693D01*
G01X234504Y-230493D02*
Y-235993D01*
G01Y-235168D02*
X234237Y-235626D01*
X233837Y-235901D01*
X233371Y-235993D01*
X232837Y-235810D01*
X232437Y-235351D01*
X232171Y-234801D01*
X232104Y-234160D01*
X232171Y-233518D01*
X232437Y-232968D01*
X232837Y-232510D01*
X233371Y-232326D01*
X233837Y-232418D01*
X234171Y-232601D01*
X234504Y-232968D01*
G01X242571Y-235993D02*
Y-232326D01*
G01Y-233243D02*
X242837Y-232785D01*
X243237Y-232418D01*
X243771Y-232326D01*
X244237Y-232418D01*
X244637Y-232785D01*
X244837Y-233426D01*
Y-235993D01*
G01X250104D02*
Y-232326D01*
G01Y-232968D02*
X249837Y-232601D01*
X249437Y-232418D01*
X248971Y-232326D01*
X248504Y-232510D01*
X248104Y-232876D01*
X247837Y-233426D01*
X247704Y-234160D01*
X247837Y-234893D01*
X248104Y-235443D01*
X248504Y-235810D01*
X248971Y-235993D01*
X249437Y-235901D01*
X249837Y-235626D01*
X250104Y-235260D01*
G01X252104Y-235993D02*
Y-232326D01*
G01Y-233335D02*
X252304Y-232876D01*
X252637Y-232510D01*
X253104Y-232326D01*
X253571Y-232510D01*
X253904Y-232876D01*
X254104Y-233335D01*
Y-235993D01*
G01Y-233335D02*
X254304Y-232876D01*
X254637Y-232510D01*
X255104Y-232326D01*
X255571Y-232510D01*
X255904Y-232876D01*
X256104Y-233426D01*
Y-235993D01*
G01X258304Y-233518D02*
X260437D01*
X260237Y-232876D01*
X259904Y-232510D01*
X259437Y-232326D01*
X258971Y-232418D01*
X258571Y-232693D01*
X258304Y-233335D01*
X258171Y-233885D01*
Y-234435D01*
X258304Y-234985D01*
X258637Y-235535D01*
X259037Y-235901D01*
X259504Y-235993D01*
X259971Y-235810D01*
X260437Y-235260D01*
G01X264504Y-236176D02*
X264371Y-236085D01*
Y-235901D01*
X264504Y-235810D01*
X264637Y-235901D01*
Y-236085D01*
X264504Y-236176D01*
G01Y-233701D02*
X264371Y-233610D01*
Y-233426D01*
X264504Y-233335D01*
X264637Y-233426D01*
Y-233610D01*
X264504Y-233701D01*
G01X209541Y-215470D02*
Y-209970D01*
X210875D01*
X211408Y-210245D01*
X211808Y-210612D01*
X212141Y-211162D01*
X212408Y-211803D01*
X212475Y-212720D01*
X212408Y-213637D01*
X212141Y-214278D01*
X211808Y-214828D01*
X211408Y-215195D01*
X210875Y-215470D01*
X209541D01*
G01X215208Y-212995D02*
X217341D01*
X217141Y-212353D01*
X216808Y-211987D01*
X216341Y-211803D01*
X215875Y-211895D01*
X215475Y-212170D01*
X215208Y-212812D01*
X215075Y-213362D01*
Y-213912D01*
X215208Y-214462D01*
X215541Y-215012D01*
X215941Y-215378D01*
X216408Y-215470D01*
X216875Y-215287D01*
X217341Y-214737D01*
G01X220408Y-214828D02*
X220741Y-215195D01*
X221208Y-215470D01*
X221608D01*
X222008Y-215287D01*
X222275Y-215012D01*
X222408Y-214645D01*
X222341Y-214095D01*
X222075Y-213820D01*
X220875Y-213270D01*
X220608Y-212628D01*
X220741Y-212170D01*
X221008Y-211895D01*
X221408Y-211803D01*
X221808Y-211895D01*
X222208Y-212170D01*
G01X226608Y-211803D02*
Y-215470D01*
G01Y-210337D02*
X226475Y-210245D01*
Y-210062D01*
X226608Y-209970D01*
X226741Y-210062D01*
Y-210245D01*
X226608Y-210337D01*
G01X230875Y-216845D02*
X231341Y-217212D01*
X231875Y-217303D01*
X232341Y-217212D01*
X232741Y-216753D01*
X233008Y-216112D01*
Y-211803D01*
G01Y-212537D02*
X232741Y-212170D01*
X232341Y-211895D01*
X231875Y-211803D01*
X231341Y-211987D01*
X231008Y-212353D01*
X230741Y-212995D01*
X230608Y-213637D01*
X230675Y-214187D01*
X230941Y-214828D01*
X231341Y-215287D01*
X231875Y-215470D01*
X232275Y-215378D01*
X232741Y-215012D01*
X233008Y-214645D01*
G01X235875Y-215470D02*
Y-211803D01*
G01Y-212720D02*
X236141Y-212262D01*
X236541Y-211895D01*
X237075Y-211803D01*
X237541Y-211895D01*
X237941Y-212262D01*
X238141Y-212903D01*
Y-215470D01*
G01X246408Y-212995D02*
X248541D01*
X248341Y-212353D01*
X248008Y-211987D01*
X247541Y-211803D01*
X247075Y-211895D01*
X246675Y-212170D01*
X246408Y-212812D01*
X246275Y-213362D01*
Y-213912D01*
X246408Y-214462D01*
X246741Y-215012D01*
X247141Y-215378D01*
X247608Y-215470D01*
X248075Y-215287D01*
X248541Y-214737D01*
G01X251475Y-215470D02*
Y-211803D01*
G01Y-212720D02*
X251741Y-212262D01*
X252141Y-211895D01*
X252675Y-211803D01*
X253141Y-211895D01*
X253541Y-212262D01*
X253741Y-212903D01*
Y-215470D01*
G01X256875Y-216845D02*
X257341Y-217212D01*
X257875Y-217303D01*
X258341Y-217212D01*
X258741Y-216753D01*
X259008Y-216112D01*
Y-211803D01*
G01Y-212537D02*
X258741Y-212170D01*
X258341Y-211895D01*
X257875Y-211803D01*
X257341Y-211987D01*
X257008Y-212353D01*
X256741Y-212995D01*
X256608Y-213637D01*
X256675Y-214187D01*
X256941Y-214828D01*
X257341Y-215287D01*
X257875Y-215470D01*
X258275Y-215378D01*
X258741Y-215012D01*
X259008Y-214645D01*
G01X263008Y-211803D02*
Y-215470D01*
G01Y-210337D02*
X262875Y-210245D01*
Y-210062D01*
X263008Y-209970D01*
X263141Y-210062D01*
Y-210245D01*
X263008Y-210337D01*
G01X267075Y-215470D02*
Y-211803D01*
G01Y-212720D02*
X267341Y-212262D01*
X267741Y-211895D01*
X268275Y-211803D01*
X268741Y-211895D01*
X269141Y-212262D01*
X269341Y-212903D01*
Y-215470D01*
G01X272408Y-212995D02*
X274541D01*
X274341Y-212353D01*
X274008Y-211987D01*
X273541Y-211803D01*
X273075Y-211895D01*
X272675Y-212170D01*
X272408Y-212812D01*
X272275Y-213362D01*
Y-213912D01*
X272408Y-214462D01*
X272741Y-215012D01*
X273141Y-215378D01*
X273608Y-215470D01*
X274075Y-215287D01*
X274541Y-214737D01*
G01X277608Y-212995D02*
X279741D01*
X279541Y-212353D01*
X279208Y-211987D01*
X278741Y-211803D01*
X278275Y-211895D01*
X277875Y-212170D01*
X277608Y-212812D01*
X277475Y-213362D01*
Y-213912D01*
X277608Y-214462D01*
X277941Y-215012D01*
X278341Y-215378D01*
X278808Y-215470D01*
X279275Y-215287D01*
X279741Y-214737D01*
G01X282875Y-215470D02*
Y-211803D01*
G01Y-212537D02*
X283208Y-212170D01*
X283541Y-211895D01*
X284008Y-211803D01*
X284341Y-211895D01*
X284741Y-212170D01*
G01X289008Y-215653D02*
X288875Y-215562D01*
Y-215378D01*
X289008Y-215287D01*
X289141Y-215378D01*
Y-215562D01*
X289008Y-215653D01*
G01Y-213178D02*
X288875Y-213087D01*
Y-212903D01*
X289008Y-212812D01*
X289141Y-212903D01*
Y-213087D01*
X289008Y-213178D01*
G01X213333Y-177811D02*
X214133Y-181478D01*
X215000Y-177811D01*
X215867Y-181478D01*
X216667Y-177811D01*
G01X220200D02*
Y-181478D01*
G01Y-176345D02*
X220067Y-176253D01*
Y-176070D01*
X220200Y-175978D01*
X220333Y-176070D01*
Y-176253D01*
X220200Y-176345D01*
G01X225400Y-175978D02*
Y-181478D01*
G01X224467Y-177811D02*
X226333D01*
G01X229467Y-181478D02*
Y-175978D01*
G01Y-178636D02*
X229800Y-178178D01*
X230133Y-177903D01*
X230667Y-177811D01*
X231067Y-177903D01*
X231533Y-178270D01*
X231733Y-178820D01*
Y-181478D01*
G01X235800D02*
X235400Y-181386D01*
X235000Y-181020D01*
X234733Y-180378D01*
X234600Y-179645D01*
X234733Y-178911D01*
X235000Y-178270D01*
X235400Y-177903D01*
X235800Y-177811D01*
X236200Y-177903D01*
X236600Y-178270D01*
X236867Y-178911D01*
X236933Y-179645D01*
X236867Y-180378D01*
X236600Y-181020D01*
X236200Y-181386D01*
X235800Y-181478D01*
G01X239867Y-177811D02*
Y-180378D01*
X240133Y-181020D01*
X240533Y-181386D01*
X241000Y-181478D01*
X241467Y-181386D01*
X241867Y-181020D01*
X242133Y-180378D01*
G01Y-181478D02*
Y-177811D01*
G01X246200Y-175978D02*
Y-181478D01*
G01X245267Y-177811D02*
X247133D01*
G01X256600Y-175978D02*
Y-181478D01*
G01X255667Y-177811D02*
X257533D01*
G01X260667Y-181478D02*
Y-175978D01*
G01Y-178636D02*
X261000Y-178178D01*
X261333Y-177903D01*
X261867Y-177811D01*
X262267Y-177903D01*
X262733Y-178270D01*
X262933Y-178820D01*
Y-181478D01*
G01X266000Y-179003D02*
X268133D01*
X267933Y-178361D01*
X267600Y-177995D01*
X267133Y-177811D01*
X266667Y-177903D01*
X266267Y-178178D01*
X266000Y-178820D01*
X265867Y-179370D01*
Y-179920D01*
X266000Y-180470D01*
X266333Y-181020D01*
X266733Y-181386D01*
X267200Y-181478D01*
X267667Y-181295D01*
X268133Y-180745D01*
G01X276200Y-183311D02*
Y-177811D01*
G01Y-178636D02*
X276533Y-178178D01*
X276867Y-177903D01*
X277400Y-177811D01*
X277867Y-177903D01*
X278333Y-178361D01*
X278533Y-179003D01*
X278600Y-179645D01*
X278533Y-180286D01*
X278333Y-180928D01*
X277933Y-181295D01*
X277400Y-181478D01*
X276933Y-181386D01*
X276467Y-181111D01*
X276200Y-180745D01*
G01X281667Y-181478D02*
Y-177811D01*
G01Y-178545D02*
X282000Y-178178D01*
X282333Y-177903D01*
X282800Y-177811D01*
X283133Y-177903D01*
X283533Y-178178D01*
G01X287800Y-177811D02*
Y-181478D01*
G01Y-176345D02*
X287667Y-176253D01*
Y-176070D01*
X287800Y-175978D01*
X287933Y-176070D01*
Y-176253D01*
X287800Y-176345D01*
G01X293000Y-181478D02*
X292600Y-181386D01*
X292200Y-181020D01*
X291933Y-180378D01*
X291800Y-179645D01*
X291933Y-178911D01*
X292200Y-178270D01*
X292600Y-177903D01*
X293000Y-177811D01*
X293400Y-177903D01*
X293800Y-178270D01*
X294067Y-178911D01*
X294133Y-179645D01*
X294067Y-180378D01*
X293800Y-181020D01*
X293400Y-181386D01*
X293000Y-181478D01*
G01X297267D02*
Y-177811D01*
G01Y-178545D02*
X297600Y-178178D01*
X297933Y-177903D01*
X298400Y-177811D01*
X298733Y-177903D01*
X299133Y-178178D01*
G01X306933Y-177811D02*
X307733Y-181478D01*
X308600Y-177811D01*
X309467Y-181478D01*
X310267Y-177811D01*
G01X312867Y-181478D02*
Y-177811D01*
G01Y-178545D02*
X313200Y-178178D01*
X313533Y-177903D01*
X314000Y-177811D01*
X314333Y-177903D01*
X314733Y-178178D01*
G01X319000Y-177811D02*
Y-181478D01*
G01Y-176345D02*
X318867Y-176253D01*
Y-176070D01*
X319000Y-175978D01*
X319133Y-176070D01*
Y-176253D01*
X319000Y-176345D01*
G01X324200Y-175978D02*
Y-181478D01*
G01X323267Y-177811D02*
X325133D01*
G01X329400Y-175978D02*
Y-181478D01*
G01X328467Y-177811D02*
X330333D01*
G01X333600Y-179003D02*
X335733D01*
X335533Y-178361D01*
X335200Y-177995D01*
X334733Y-177811D01*
X334267Y-177903D01*
X333867Y-178178D01*
X333600Y-178820D01*
X333467Y-179370D01*
Y-179920D01*
X333600Y-180470D01*
X333933Y-181020D01*
X334333Y-181386D01*
X334800Y-181478D01*
X335267Y-181295D01*
X335733Y-180745D01*
G01X338667Y-181478D02*
Y-177811D01*
G01Y-178728D02*
X338933Y-178270D01*
X339333Y-177903D01*
X339867Y-177811D01*
X340333Y-177903D01*
X340733Y-178270D01*
X340933Y-178911D01*
Y-181478D01*
G01X351267Y-178270D02*
X350800Y-177903D01*
X350400Y-177811D01*
X349867Y-177995D01*
X349467Y-178361D01*
X349200Y-179003D01*
X349133Y-179645D01*
X349200Y-180286D01*
X349467Y-180836D01*
X349867Y-181295D01*
X350400Y-181478D01*
X350867Y-181295D01*
X351267Y-180928D01*
G01X355400Y-181478D02*
X355000Y-181386D01*
X354600Y-181020D01*
X354333Y-180378D01*
X354200Y-179645D01*
X354333Y-178911D01*
X354600Y-178270D01*
X355000Y-177903D01*
X355400Y-177811D01*
X355800Y-177903D01*
X356200Y-178270D01*
X356467Y-178911D01*
X356533Y-179645D01*
X356467Y-180378D01*
X356200Y-181020D01*
X355800Y-181386D01*
X355400Y-181478D01*
G01X359467D02*
Y-177811D01*
G01Y-178728D02*
X359733Y-178270D01*
X360133Y-177903D01*
X360667Y-177811D01*
X361133Y-177903D01*
X361533Y-178270D01*
X361733Y-178911D01*
Y-181478D01*
G01X364800Y-180836D02*
X365133Y-181203D01*
X365600Y-181478D01*
X366000D01*
X366400Y-181295D01*
X366667Y-181020D01*
X366800Y-180653D01*
X366733Y-180103D01*
X366467Y-179828D01*
X365267Y-179278D01*
X365000Y-178636D01*
X365133Y-178178D01*
X365400Y-177903D01*
X365800Y-177811D01*
X366200Y-177903D01*
X366600Y-178178D01*
G01X370000Y-179003D02*
X372133D01*
X371933Y-178361D01*
X371600Y-177995D01*
X371133Y-177811D01*
X370667Y-177903D01*
X370267Y-178178D01*
X370000Y-178820D01*
X369867Y-179370D01*
Y-179920D01*
X370000Y-180470D01*
X370333Y-181020D01*
X370733Y-181386D01*
X371200Y-181478D01*
X371667Y-181295D01*
X372133Y-180745D01*
G01X375067Y-181478D02*
Y-177811D01*
G01Y-178728D02*
X375333Y-178270D01*
X375733Y-177903D01*
X376267Y-177811D01*
X376733Y-177903D01*
X377133Y-178270D01*
X377333Y-178911D01*
Y-181478D01*
G01X381400Y-175978D02*
Y-181478D01*
G01X380467Y-177811D02*
X382333D01*
G01X391800Y-181478D02*
X391400Y-181386D01*
X391000Y-181020D01*
X390733Y-180378D01*
X390600Y-179645D01*
X390733Y-178911D01*
X391000Y-178270D01*
X391400Y-177903D01*
X391800Y-177811D01*
X392200Y-177903D01*
X392600Y-178270D01*
X392867Y-178911D01*
X392933Y-179645D01*
X392867Y-180378D01*
X392600Y-181020D01*
X392200Y-181386D01*
X391800Y-181478D01*
G01X396600D02*
Y-176803D01*
X396733Y-176345D01*
X397000Y-176070D01*
X397400Y-175978D01*
X397800Y-176161D01*
X398000Y-176620D01*
G01X397200Y-178178D02*
X395867D01*
G01X207683Y-187474D02*
Y-192974D01*
X210349D01*
G01X215416D02*
Y-189307D01*
G01Y-189949D02*
X215149Y-189582D01*
X214749Y-189399D01*
X214283Y-189307D01*
X213816Y-189491D01*
X213416Y-189857D01*
X213149Y-190407D01*
X213016Y-191141D01*
X213149Y-191874D01*
X213416Y-192424D01*
X213816Y-192791D01*
X214283Y-192974D01*
X214749Y-192882D01*
X215149Y-192607D01*
X215416Y-192241D01*
G01X218016Y-194624D02*
X218416Y-194807D01*
X218949Y-194624D01*
X219283Y-194257D01*
X219549Y-193799D01*
X219949Y-192332D01*
X220816Y-189307D01*
G01X218683D02*
X219949Y-192332D01*
G01X223616Y-190499D02*
X225749D01*
X225549Y-189857D01*
X225216Y-189491D01*
X224749Y-189307D01*
X224283Y-189399D01*
X223883Y-189674D01*
X223616Y-190316D01*
X223483Y-190866D01*
Y-191416D01*
X223616Y-191966D01*
X223949Y-192516D01*
X224349Y-192882D01*
X224816Y-192974D01*
X225283Y-192791D01*
X225749Y-192241D01*
G01X228883Y-192974D02*
Y-189307D01*
G01Y-190041D02*
X229216Y-189674D01*
X229549Y-189399D01*
X230016Y-189307D01*
X230349Y-189399D01*
X230749Y-189674D01*
G01X235016Y-193157D02*
X234883Y-193066D01*
Y-192882D01*
X235016Y-192791D01*
X235149Y-192882D01*
Y-193066D01*
X235016Y-193157D01*
G01Y-190682D02*
X234883Y-190591D01*
Y-190407D01*
X235016Y-190316D01*
X235149Y-190407D01*
Y-190591D01*
X235016Y-190682D01*
G01X213800Y-168311D02*
Y-162811D01*
G01Y-163636D02*
X214133Y-163178D01*
X214467Y-162903D01*
X215000Y-162811D01*
X215467Y-162903D01*
X215933Y-163361D01*
X216133Y-164003D01*
X216200Y-164645D01*
X216133Y-165286D01*
X215933Y-165928D01*
X215533Y-166295D01*
X215000Y-166478D01*
X214533Y-166386D01*
X214067Y-166111D01*
X213800Y-165745D01*
G01X219267Y-166478D02*
Y-162811D01*
G01Y-163545D02*
X219600Y-163178D01*
X219933Y-162903D01*
X220400Y-162811D01*
X220733Y-162903D01*
X221133Y-163178D01*
G01X225400Y-166478D02*
X225000Y-166386D01*
X224600Y-166020D01*
X224333Y-165378D01*
X224200Y-164645D01*
X224333Y-163911D01*
X224600Y-163270D01*
X225000Y-162903D01*
X225400Y-162811D01*
X225800Y-162903D01*
X226200Y-163270D01*
X226467Y-163911D01*
X226533Y-164645D01*
X226467Y-165378D01*
X226200Y-166020D01*
X225800Y-166386D01*
X225400Y-166478D01*
G01X229400Y-168311D02*
Y-162811D01*
G01Y-163636D02*
X229733Y-163178D01*
X230067Y-162903D01*
X230600Y-162811D01*
X231067Y-162903D01*
X231533Y-163361D01*
X231733Y-164003D01*
X231800Y-164645D01*
X231733Y-165286D01*
X231533Y-165928D01*
X231133Y-166295D01*
X230600Y-166478D01*
X230133Y-166386D01*
X229667Y-166111D01*
X229400Y-165745D01*
G01X234867Y-166478D02*
Y-162811D01*
G01Y-163545D02*
X235200Y-163178D01*
X235533Y-162903D01*
X236000Y-162811D01*
X236333Y-162903D01*
X236733Y-163178D01*
G01X241000Y-162811D02*
Y-166478D01*
G01Y-161345D02*
X240867Y-161253D01*
Y-161070D01*
X241000Y-160978D01*
X241133Y-161070D01*
Y-161253D01*
X241000Y-161345D01*
G01X245200Y-164003D02*
X247333D01*
X247133Y-163361D01*
X246800Y-162995D01*
X246333Y-162811D01*
X245867Y-162903D01*
X245467Y-163178D01*
X245200Y-163820D01*
X245067Y-164370D01*
Y-164920D01*
X245200Y-165470D01*
X245533Y-166020D01*
X245933Y-166386D01*
X246400Y-166478D01*
X246867Y-166295D01*
X247333Y-165745D01*
G01X251400Y-160978D02*
Y-166478D01*
G01X250467Y-162811D02*
X252333D01*
G01X257800Y-166478D02*
Y-162811D01*
G01Y-163453D02*
X257533Y-163086D01*
X257133Y-162903D01*
X256667Y-162811D01*
X256200Y-162995D01*
X255800Y-163361D01*
X255533Y-163911D01*
X255400Y-164645D01*
X255533Y-165378D01*
X255800Y-165928D01*
X256200Y-166295D01*
X256667Y-166478D01*
X257133Y-166386D01*
X257533Y-166111D01*
X257800Y-165745D01*
G01X260867Y-166478D02*
Y-162811D01*
G01Y-163545D02*
X261200Y-163178D01*
X261533Y-162903D01*
X262000Y-162811D01*
X262333Y-162903D01*
X262733Y-163178D01*
G01X265600Y-168128D02*
X266000Y-168311D01*
X266533Y-168128D01*
X266867Y-167761D01*
X267133Y-167303D01*
X267533Y-165836D01*
X268400Y-162811D01*
G01X266267D02*
X267533Y-165836D01*
G01X276200Y-168311D02*
Y-162811D01*
G01Y-163636D02*
X276533Y-163178D01*
X276867Y-162903D01*
X277400Y-162811D01*
X277867Y-162903D01*
X278333Y-163361D01*
X278533Y-164003D01*
X278600Y-164645D01*
X278533Y-165286D01*
X278333Y-165928D01*
X277933Y-166295D01*
X277400Y-166478D01*
X276933Y-166386D01*
X276467Y-166111D01*
X276200Y-165745D01*
G01X281667Y-166478D02*
Y-162811D01*
G01Y-163545D02*
X282000Y-163178D01*
X282333Y-162903D01*
X282800Y-162811D01*
X283133Y-162903D01*
X283533Y-163178D01*
G01X287800Y-166478D02*
X287400Y-166386D01*
X287000Y-166020D01*
X286733Y-165378D01*
X286600Y-164645D01*
X286733Y-163911D01*
X287000Y-163270D01*
X287400Y-162903D01*
X287800Y-162811D01*
X288200Y-162903D01*
X288600Y-163270D01*
X288867Y-163911D01*
X288933Y-164645D01*
X288867Y-165378D01*
X288600Y-166020D01*
X288200Y-166386D01*
X287800Y-166478D01*
G01X291800Y-168311D02*
Y-162811D01*
G01Y-163636D02*
X292133Y-163178D01*
X292467Y-162903D01*
X293000Y-162811D01*
X293467Y-162903D01*
X293933Y-163361D01*
X294133Y-164003D01*
X294200Y-164645D01*
X294133Y-165286D01*
X293933Y-165928D01*
X293533Y-166295D01*
X293000Y-166478D01*
X292533Y-166386D01*
X292067Y-166111D01*
X291800Y-165745D01*
G01X297200Y-164003D02*
X299333D01*
X299133Y-163361D01*
X298800Y-162995D01*
X298333Y-162811D01*
X297867Y-162903D01*
X297467Y-163178D01*
X297200Y-163820D01*
X297067Y-164370D01*
Y-164920D01*
X297200Y-165470D01*
X297533Y-166020D01*
X297933Y-166386D01*
X298400Y-166478D01*
X298867Y-166295D01*
X299333Y-165745D01*
G01X302467Y-166478D02*
Y-162811D01*
G01Y-163545D02*
X302800Y-163178D01*
X303133Y-162903D01*
X303600Y-162811D01*
X303933Y-162903D01*
X304333Y-163178D01*
G01X308600Y-160978D02*
Y-166478D01*
G01X307667Y-162811D02*
X309533D01*
G01X312400Y-168128D02*
X312800Y-168311D01*
X313333Y-168128D01*
X313667Y-167761D01*
X313933Y-167303D01*
X314333Y-165836D01*
X315200Y-162811D01*
G01X313067D02*
X314333Y-165836D01*
G01X324200Y-166478D02*
X323800Y-166386D01*
X323400Y-166020D01*
X323133Y-165378D01*
X323000Y-164645D01*
X323133Y-163911D01*
X323400Y-163270D01*
X323800Y-162903D01*
X324200Y-162811D01*
X324600Y-162903D01*
X325000Y-163270D01*
X325267Y-163911D01*
X325333Y-164645D01*
X325267Y-165378D01*
X325000Y-166020D01*
X324600Y-166386D01*
X324200Y-166478D01*
G01X329000D02*
Y-161803D01*
X329133Y-161345D01*
X329400Y-161070D01*
X329800Y-160978D01*
X330200Y-161161D01*
X330400Y-161620D01*
G01X329600Y-163178D02*
X328267D01*
G01X421467Y-166478D02*
Y-160978D01*
X424533Y-166478D01*
Y-160978D01*
G01X428200Y-166478D02*
X427800Y-166386D01*
X427400Y-166020D01*
X427133Y-165378D01*
X427000Y-164645D01*
X427133Y-163911D01*
X427400Y-163270D01*
X427800Y-162903D01*
X428200Y-162811D01*
X428600Y-162903D01*
X429000Y-163270D01*
X429267Y-163911D01*
X429333Y-164645D01*
X429267Y-165378D01*
X429000Y-166020D01*
X428600Y-166386D01*
X428200Y-166478D01*
G01X437400Y-168311D02*
Y-162811D01*
G01Y-163636D02*
X437733Y-163178D01*
X438067Y-162903D01*
X438600Y-162811D01*
X439067Y-162903D01*
X439533Y-163361D01*
X439733Y-164003D01*
X439800Y-164645D01*
X439733Y-165286D01*
X439533Y-165928D01*
X439133Y-166295D01*
X438600Y-166478D01*
X438133Y-166386D01*
X437667Y-166111D01*
X437400Y-165745D01*
G01X445000Y-166478D02*
Y-162811D01*
G01Y-163453D02*
X444733Y-163086D01*
X444333Y-162903D01*
X443867Y-162811D01*
X443400Y-162995D01*
X443000Y-163361D01*
X442733Y-163911D01*
X442600Y-164645D01*
X442733Y-165378D01*
X443000Y-165928D01*
X443400Y-166295D01*
X443867Y-166478D01*
X444333Y-166386D01*
X444733Y-166111D01*
X445000Y-165745D01*
G01X448067Y-166478D02*
Y-162811D01*
G01Y-163545D02*
X448400Y-163178D01*
X448733Y-162903D01*
X449200Y-162811D01*
X449533Y-162903D01*
X449933Y-163178D01*
G01X454200Y-160978D02*
Y-166478D01*
G01X453267Y-162811D02*
X455133D01*
G01X464600Y-166478D02*
X464200Y-166386D01*
X463800Y-166020D01*
X463533Y-165378D01*
X463400Y-164645D01*
X463533Y-163911D01*
X463800Y-163270D01*
X464200Y-162903D01*
X464600Y-162811D01*
X465000Y-162903D01*
X465400Y-163270D01*
X465667Y-163911D01*
X465733Y-164645D01*
X465667Y-165378D01*
X465400Y-166020D01*
X465000Y-166386D01*
X464600Y-166478D01*
G01X469400D02*
Y-161803D01*
X469533Y-161345D01*
X469800Y-161070D01*
X470200Y-160978D01*
X470600Y-161161D01*
X470800Y-161620D01*
G01X470000Y-163178D02*
X468667D01*
G01X215000Y-168497D02*
Y-173997D01*
G01X214067Y-170330D02*
X215933D01*
G01X219067Y-173997D02*
Y-168497D01*
G01Y-171155D02*
X219400Y-170697D01*
X219733Y-170422D01*
X220267Y-170330D01*
X220667Y-170422D01*
X221133Y-170789D01*
X221333Y-171339D01*
Y-173997D01*
G01X225400Y-170330D02*
Y-173997D01*
G01Y-168864D02*
X225267Y-168772D01*
Y-168589D01*
X225400Y-168497D01*
X225533Y-168589D01*
Y-168772D01*
X225400Y-168864D01*
G01X229600Y-173355D02*
X229933Y-173722D01*
X230400Y-173997D01*
X230800D01*
X231200Y-173814D01*
X231467Y-173539D01*
X231600Y-173172D01*
X231533Y-172622D01*
X231267Y-172347D01*
X230067Y-171797D01*
X229800Y-171155D01*
X229933Y-170697D01*
X230200Y-170422D01*
X230600Y-170330D01*
X231000Y-170422D01*
X231400Y-170697D01*
G01X242200Y-168497D02*
Y-173997D01*
G01Y-173172D02*
X241933Y-173630D01*
X241533Y-173905D01*
X241067Y-173997D01*
X240533Y-173814D01*
X240133Y-173355D01*
X239867Y-172805D01*
X239800Y-172164D01*
X239867Y-171522D01*
X240133Y-170972D01*
X240533Y-170514D01*
X241067Y-170330D01*
X241533Y-170422D01*
X241867Y-170605D01*
X242200Y-170972D01*
G01X246200Y-173997D02*
X245800Y-173905D01*
X245400Y-173539D01*
X245133Y-172897D01*
X245000Y-172164D01*
X245133Y-171430D01*
X245400Y-170789D01*
X245800Y-170422D01*
X246200Y-170330D01*
X246600Y-170422D01*
X247000Y-170789D01*
X247267Y-171430D01*
X247333Y-172164D01*
X247267Y-172897D01*
X247000Y-173539D01*
X246600Y-173905D01*
X246200Y-173997D01*
G01X252467Y-170789D02*
X252000Y-170422D01*
X251600Y-170330D01*
X251067Y-170514D01*
X250667Y-170880D01*
X250400Y-171522D01*
X250333Y-172164D01*
X250400Y-172805D01*
X250667Y-173355D01*
X251067Y-173814D01*
X251600Y-173997D01*
X252067Y-173814D01*
X252467Y-173447D01*
G01X255467Y-170330D02*
Y-172897D01*
X255733Y-173539D01*
X256133Y-173905D01*
X256600Y-173997D01*
X257067Y-173905D01*
X257467Y-173539D01*
X257733Y-172897D01*
G01Y-173997D02*
Y-170330D01*
G01X259800Y-173997D02*
Y-170330D01*
G01Y-171339D02*
X260000Y-170880D01*
X260333Y-170514D01*
X260800Y-170330D01*
X261267Y-170514D01*
X261600Y-170880D01*
X261800Y-171339D01*
Y-173997D01*
G01Y-171339D02*
X262000Y-170880D01*
X262333Y-170514D01*
X262800Y-170330D01*
X263267Y-170514D01*
X263600Y-170880D01*
X263800Y-171430D01*
Y-173997D01*
G01X266000Y-171522D02*
X268133D01*
X267933Y-170880D01*
X267600Y-170514D01*
X267133Y-170330D01*
X266667Y-170422D01*
X266267Y-170697D01*
X266000Y-171339D01*
X265867Y-171889D01*
Y-172439D01*
X266000Y-172989D01*
X266333Y-173539D01*
X266733Y-173905D01*
X267200Y-173997D01*
X267667Y-173814D01*
X268133Y-173264D01*
G01X271067Y-173997D02*
Y-170330D01*
G01Y-171247D02*
X271333Y-170789D01*
X271733Y-170422D01*
X272267Y-170330D01*
X272733Y-170422D01*
X273133Y-170789D01*
X273333Y-171430D01*
Y-173997D01*
G01X277400Y-168497D02*
Y-173997D01*
G01X276467Y-170330D02*
X278333D01*
G01X285800Y-173997D02*
Y-170330D01*
G01Y-171339D02*
X286000Y-170880D01*
X286333Y-170514D01*
X286800Y-170330D01*
X287267Y-170514D01*
X287600Y-170880D01*
X287800Y-171339D01*
Y-173997D01*
G01Y-171339D02*
X288000Y-170880D01*
X288333Y-170514D01*
X288800Y-170330D01*
X289267Y-170514D01*
X289600Y-170880D01*
X289800Y-171430D01*
Y-173997D01*
G01X294200D02*
Y-170330D01*
G01Y-170972D02*
X293933Y-170605D01*
X293533Y-170422D01*
X293067Y-170330D01*
X292600Y-170514D01*
X292200Y-170880D01*
X291933Y-171430D01*
X291800Y-172164D01*
X291933Y-172897D01*
X292200Y-173447D01*
X292600Y-173814D01*
X293067Y-173997D01*
X293533Y-173905D01*
X293933Y-173630D01*
X294200Y-173264D01*
G01X296800Y-175647D02*
X297200Y-175830D01*
X297733Y-175647D01*
X298067Y-175280D01*
X298333Y-174822D01*
X298733Y-173355D01*
X299600Y-170330D01*
G01X297467D02*
X298733Y-173355D01*
G01X307400Y-173997D02*
Y-168497D01*
G01Y-171247D02*
X307733Y-170697D01*
X308133Y-170422D01*
X308533Y-170330D01*
X309133Y-170514D01*
X309533Y-170880D01*
X309800Y-171522D01*
Y-172255D01*
X309667Y-172989D01*
X309400Y-173539D01*
X308933Y-173905D01*
X308533Y-173997D01*
X308133Y-173905D01*
X307733Y-173630D01*
X307400Y-173172D01*
G01X312800Y-171522D02*
X314933D01*
X314733Y-170880D01*
X314400Y-170514D01*
X313933Y-170330D01*
X313467Y-170422D01*
X313067Y-170697D01*
X312800Y-171339D01*
X312667Y-171889D01*
Y-172439D01*
X312800Y-172989D01*
X313133Y-173539D01*
X313533Y-173905D01*
X314000Y-173997D01*
X314467Y-173814D01*
X314933Y-173264D01*
G01X325400Y-168497D02*
Y-173997D01*
G01Y-173172D02*
X325133Y-173630D01*
X324733Y-173905D01*
X324267Y-173997D01*
X323733Y-173814D01*
X323333Y-173355D01*
X323067Y-172805D01*
X323000Y-172164D01*
X323067Y-171522D01*
X323333Y-170972D01*
X323733Y-170514D01*
X324267Y-170330D01*
X324733Y-170422D01*
X325067Y-170605D01*
X325400Y-170972D01*
G01X329400Y-170330D02*
Y-173997D01*
G01Y-168864D02*
X329267Y-168772D01*
Y-168589D01*
X329400Y-168497D01*
X329533Y-168589D01*
Y-168772D01*
X329400Y-168864D01*
G01X333600Y-173355D02*
X333933Y-173722D01*
X334400Y-173997D01*
X334800D01*
X335200Y-173814D01*
X335467Y-173539D01*
X335600Y-173172D01*
X335533Y-172622D01*
X335267Y-172347D01*
X334067Y-171797D01*
X333800Y-171155D01*
X333933Y-170697D01*
X334200Y-170422D01*
X334600Y-170330D01*
X335000Y-170422D01*
X335400Y-170697D01*
G01X340867Y-170789D02*
X340400Y-170422D01*
X340000Y-170330D01*
X339467Y-170514D01*
X339067Y-170880D01*
X338800Y-171522D01*
X338733Y-172164D01*
X338800Y-172805D01*
X339067Y-173355D01*
X339467Y-173814D01*
X340000Y-173997D01*
X340467Y-173814D01*
X340867Y-173447D01*
G01X345000Y-173997D02*
Y-168497D01*
G01X350200Y-173997D02*
X349800Y-173905D01*
X349400Y-173539D01*
X349133Y-172897D01*
X349000Y-172164D01*
X349133Y-171430D01*
X349400Y-170789D01*
X349800Y-170422D01*
X350200Y-170330D01*
X350600Y-170422D01*
X351000Y-170789D01*
X351267Y-171430D01*
X351333Y-172164D01*
X351267Y-172897D01*
X351000Y-173539D01*
X350600Y-173905D01*
X350200Y-173997D01*
G01X354400Y-173355D02*
X354733Y-173722D01*
X355200Y-173997D01*
X355600D01*
X356000Y-173814D01*
X356267Y-173539D01*
X356400Y-173172D01*
X356333Y-172622D01*
X356067Y-172347D01*
X354867Y-171797D01*
X354600Y-171155D01*
X354733Y-170697D01*
X355000Y-170422D01*
X355400Y-170330D01*
X355800Y-170422D01*
X356200Y-170697D01*
G01X359600Y-171522D02*
X361733D01*
X361533Y-170880D01*
X361200Y-170514D01*
X360733Y-170330D01*
X360267Y-170422D01*
X359867Y-170697D01*
X359600Y-171339D01*
X359467Y-171889D01*
Y-172439D01*
X359600Y-172989D01*
X359933Y-173539D01*
X360333Y-173905D01*
X360800Y-173997D01*
X361267Y-173814D01*
X361733Y-173264D01*
G01X367000Y-168497D02*
Y-173997D01*
G01Y-173172D02*
X366733Y-173630D01*
X366333Y-173905D01*
X365867Y-173997D01*
X365333Y-173814D01*
X364933Y-173355D01*
X364667Y-172805D01*
X364600Y-172164D01*
X364667Y-171522D01*
X364933Y-170972D01*
X365333Y-170514D01*
X365867Y-170330D01*
X366333Y-170422D01*
X366667Y-170605D01*
X367000Y-170972D01*
G01X376200Y-168497D02*
Y-173997D01*
G01X375267Y-170330D02*
X377133D01*
G01X381400Y-173997D02*
X381000Y-173905D01*
X380600Y-173539D01*
X380333Y-172897D01*
X380200Y-172164D01*
X380333Y-171430D01*
X380600Y-170789D01*
X381000Y-170422D01*
X381400Y-170330D01*
X381800Y-170422D01*
X382200Y-170789D01*
X382467Y-171430D01*
X382533Y-172164D01*
X382467Y-172897D01*
X382200Y-173539D01*
X381800Y-173905D01*
X381400Y-173997D01*
G01X391800Y-168497D02*
Y-173997D01*
G01X390867Y-170330D02*
X392733D01*
G01X395867Y-173997D02*
Y-168497D01*
G01Y-171155D02*
X396200Y-170697D01*
X396533Y-170422D01*
X397067Y-170330D01*
X397467Y-170422D01*
X397933Y-170789D01*
X398133Y-171339D01*
Y-173997D01*
G01X402200Y-170330D02*
Y-173997D01*
G01Y-168864D02*
X402067Y-168772D01*
Y-168589D01*
X402200Y-168497D01*
X402333Y-168589D01*
Y-168772D01*
X402200Y-168864D01*
G01X406467Y-173997D02*
Y-170330D01*
G01Y-171064D02*
X406800Y-170697D01*
X407133Y-170422D01*
X407600Y-170330D01*
X407933Y-170422D01*
X408333Y-170697D01*
G01X413800Y-168497D02*
Y-173997D01*
G01Y-173172D02*
X413533Y-173630D01*
X413133Y-173905D01*
X412667Y-173997D01*
X412133Y-173814D01*
X411733Y-173355D01*
X411467Y-172805D01*
X411400Y-172164D01*
X411467Y-171522D01*
X411733Y-170972D01*
X412133Y-170514D01*
X412667Y-170330D01*
X413133Y-170422D01*
X413467Y-170605D01*
X413800Y-170972D01*
G01X421800Y-175830D02*
Y-170330D01*
G01Y-171155D02*
X422133Y-170697D01*
X422467Y-170422D01*
X423000Y-170330D01*
X423467Y-170422D01*
X423933Y-170880D01*
X424133Y-171522D01*
X424200Y-172164D01*
X424133Y-172805D01*
X423933Y-173447D01*
X423533Y-173814D01*
X423000Y-173997D01*
X422533Y-173905D01*
X422067Y-173630D01*
X421800Y-173264D01*
G01X429400Y-173997D02*
Y-170330D01*
G01Y-170972D02*
X429133Y-170605D01*
X428733Y-170422D01*
X428267Y-170330D01*
X427800Y-170514D01*
X427400Y-170880D01*
X427133Y-171430D01*
X427000Y-172164D01*
X427133Y-172897D01*
X427400Y-173447D01*
X427800Y-173814D01*
X428267Y-173997D01*
X428733Y-173905D01*
X429133Y-173630D01*
X429400Y-173264D01*
G01X432467Y-173997D02*
Y-170330D01*
G01Y-171064D02*
X432800Y-170697D01*
X433133Y-170422D01*
X433600Y-170330D01*
X433933Y-170422D01*
X434333Y-170697D01*
G01X438600Y-168497D02*
Y-173997D01*
G01X437667Y-170330D02*
X439533D01*
G01X443800D02*
Y-173997D01*
G01Y-168864D02*
X443667Y-168772D01*
Y-168589D01*
X443800Y-168497D01*
X443933Y-168589D01*
Y-168772D01*
X443800Y-168864D01*
G01X448000Y-171522D02*
X450133D01*
X449933Y-170880D01*
X449600Y-170514D01*
X449133Y-170330D01*
X448667Y-170422D01*
X448267Y-170697D01*
X448000Y-171339D01*
X447867Y-171889D01*
Y-172439D01*
X448000Y-172989D01*
X448333Y-173539D01*
X448733Y-173905D01*
X449200Y-173997D01*
X449667Y-173814D01*
X450133Y-173264D01*
G01X453200Y-173355D02*
X453533Y-173722D01*
X454000Y-173997D01*
X454400D01*
X454800Y-173814D01*
X455067Y-173539D01*
X455200Y-173172D01*
X455133Y-172622D01*
X454867Y-172347D01*
X453667Y-171797D01*
X453400Y-171155D01*
X453533Y-170697D01*
X453800Y-170422D01*
X454200Y-170330D01*
X454600Y-170422D01*
X455000Y-170697D01*
G01X215000Y-153497D02*
Y-158997D01*
G01X213467Y-153497D02*
X216533D01*
G01X219067Y-158997D02*
Y-153497D01*
G01Y-156155D02*
X219400Y-155697D01*
X219733Y-155422D01*
X220267Y-155330D01*
X220667Y-155422D01*
X221133Y-155789D01*
X221333Y-156339D01*
Y-158997D01*
G01X225400Y-155330D02*
Y-158997D01*
G01Y-153864D02*
X225267Y-153772D01*
Y-153589D01*
X225400Y-153497D01*
X225533Y-153589D01*
Y-153772D01*
X225400Y-153864D01*
G01X229600Y-158355D02*
X229933Y-158722D01*
X230400Y-158997D01*
X230800D01*
X231200Y-158814D01*
X231467Y-158539D01*
X231600Y-158172D01*
X231533Y-157622D01*
X231267Y-157347D01*
X230067Y-156797D01*
X229800Y-156155D01*
X229933Y-155697D01*
X230200Y-155422D01*
X230600Y-155330D01*
X231000Y-155422D01*
X231400Y-155697D01*
G01X242200Y-153497D02*
Y-158997D01*
G01Y-158172D02*
X241933Y-158630D01*
X241533Y-158905D01*
X241067Y-158997D01*
X240533Y-158814D01*
X240133Y-158355D01*
X239867Y-157805D01*
X239800Y-157164D01*
X239867Y-156522D01*
X240133Y-155972D01*
X240533Y-155514D01*
X241067Y-155330D01*
X241533Y-155422D01*
X241867Y-155605D01*
X242200Y-155972D01*
G01X246200Y-158997D02*
X245800Y-158905D01*
X245400Y-158539D01*
X245133Y-157897D01*
X245000Y-157164D01*
X245133Y-156430D01*
X245400Y-155789D01*
X245800Y-155422D01*
X246200Y-155330D01*
X246600Y-155422D01*
X247000Y-155789D01*
X247267Y-156430D01*
X247333Y-157164D01*
X247267Y-157897D01*
X247000Y-158539D01*
X246600Y-158905D01*
X246200Y-158997D01*
G01X252467Y-155789D02*
X252000Y-155422D01*
X251600Y-155330D01*
X251067Y-155514D01*
X250667Y-155880D01*
X250400Y-156522D01*
X250333Y-157164D01*
X250400Y-157805D01*
X250667Y-158355D01*
X251067Y-158814D01*
X251600Y-158997D01*
X252067Y-158814D01*
X252467Y-158447D01*
G01X255467Y-155330D02*
Y-157897D01*
X255733Y-158539D01*
X256133Y-158905D01*
X256600Y-158997D01*
X257067Y-158905D01*
X257467Y-158539D01*
X257733Y-157897D01*
G01Y-158997D02*
Y-155330D01*
G01X259800Y-158997D02*
Y-155330D01*
G01Y-156339D02*
X260000Y-155880D01*
X260333Y-155514D01*
X260800Y-155330D01*
X261267Y-155514D01*
X261600Y-155880D01*
X261800Y-156339D01*
Y-158997D01*
G01Y-156339D02*
X262000Y-155880D01*
X262333Y-155514D01*
X262800Y-155330D01*
X263267Y-155514D01*
X263600Y-155880D01*
X263800Y-156430D01*
Y-158997D01*
G01X266000Y-156522D02*
X268133D01*
X267933Y-155880D01*
X267600Y-155514D01*
X267133Y-155330D01*
X266667Y-155422D01*
X266267Y-155697D01*
X266000Y-156339D01*
X265867Y-156889D01*
Y-157439D01*
X266000Y-157989D01*
X266333Y-158539D01*
X266733Y-158905D01*
X267200Y-158997D01*
X267667Y-158814D01*
X268133Y-158264D01*
G01X271067Y-158997D02*
Y-155330D01*
G01Y-156247D02*
X271333Y-155789D01*
X271733Y-155422D01*
X272267Y-155330D01*
X272733Y-155422D01*
X273133Y-155789D01*
X273333Y-156430D01*
Y-158997D01*
G01X277400Y-153497D02*
Y-158997D01*
G01X276467Y-155330D02*
X278333D01*
G01X288867Y-155789D02*
X288400Y-155422D01*
X288000Y-155330D01*
X287467Y-155514D01*
X287067Y-155880D01*
X286800Y-156522D01*
X286733Y-157164D01*
X286800Y-157805D01*
X287067Y-158355D01*
X287467Y-158814D01*
X288000Y-158997D01*
X288467Y-158814D01*
X288867Y-158447D01*
G01X293000Y-158997D02*
X292600Y-158905D01*
X292200Y-158539D01*
X291933Y-157897D01*
X291800Y-157164D01*
X291933Y-156430D01*
X292200Y-155789D01*
X292600Y-155422D01*
X293000Y-155330D01*
X293400Y-155422D01*
X293800Y-155789D01*
X294067Y-156430D01*
X294133Y-157164D01*
X294067Y-157897D01*
X293800Y-158539D01*
X293400Y-158905D01*
X293000Y-158997D01*
G01X297067D02*
Y-155330D01*
G01Y-156247D02*
X297333Y-155789D01*
X297733Y-155422D01*
X298267Y-155330D01*
X298733Y-155422D01*
X299133Y-155789D01*
X299333Y-156430D01*
Y-158997D01*
G01X303400Y-153497D02*
Y-158997D01*
G01X302467Y-155330D02*
X304333D01*
G01X309800Y-158997D02*
Y-155330D01*
G01Y-155972D02*
X309533Y-155605D01*
X309133Y-155422D01*
X308667Y-155330D01*
X308200Y-155514D01*
X307800Y-155880D01*
X307533Y-156430D01*
X307400Y-157164D01*
X307533Y-157897D01*
X307800Y-158447D01*
X308200Y-158814D01*
X308667Y-158997D01*
X309133Y-158905D01*
X309533Y-158630D01*
X309800Y-158264D01*
G01X313800Y-155330D02*
Y-158997D01*
G01Y-153864D02*
X313667Y-153772D01*
Y-153589D01*
X313800Y-153497D01*
X313933Y-153589D01*
Y-153772D01*
X313800Y-153864D01*
G01X317867Y-158997D02*
Y-155330D01*
G01Y-156247D02*
X318133Y-155789D01*
X318533Y-155422D01*
X319067Y-155330D01*
X319533Y-155422D01*
X319933Y-155789D01*
X320133Y-156430D01*
Y-158997D01*
G01X323200Y-158355D02*
X323533Y-158722D01*
X324000Y-158997D01*
X324400D01*
X324800Y-158814D01*
X325067Y-158539D01*
X325200Y-158172D01*
X325133Y-157622D01*
X324867Y-157347D01*
X323667Y-156797D01*
X323400Y-156155D01*
X323533Y-155697D01*
X323800Y-155422D01*
X324200Y-155330D01*
X324600Y-155422D01*
X325000Y-155697D01*
G01X334600Y-155330D02*
Y-158997D01*
G01Y-153864D02*
X334467Y-153772D01*
Y-153589D01*
X334600Y-153497D01*
X334733Y-153589D01*
Y-153772D01*
X334600Y-153864D01*
G01X338667Y-158997D02*
Y-155330D01*
G01Y-156247D02*
X338933Y-155789D01*
X339333Y-155422D01*
X339867Y-155330D01*
X340333Y-155422D01*
X340733Y-155789D01*
X340933Y-156430D01*
Y-158997D01*
G01X344600D02*
Y-154322D01*
X344733Y-153864D01*
X345000Y-153589D01*
X345400Y-153497D01*
X345800Y-153680D01*
X346000Y-154139D01*
G01X345200Y-155697D02*
X343867D01*
G01X350200Y-158997D02*
X349800Y-158905D01*
X349400Y-158539D01*
X349133Y-157897D01*
X349000Y-157164D01*
X349133Y-156430D01*
X349400Y-155789D01*
X349800Y-155422D01*
X350200Y-155330D01*
X350600Y-155422D01*
X351000Y-155789D01*
X351267Y-156430D01*
X351333Y-157164D01*
X351267Y-157897D01*
X351000Y-158539D01*
X350600Y-158905D01*
X350200Y-158997D01*
G01X354467D02*
Y-155330D01*
G01Y-156064D02*
X354800Y-155697D01*
X355133Y-155422D01*
X355600Y-155330D01*
X355933Y-155422D01*
X356333Y-155697D01*
G01X358600Y-158997D02*
Y-155330D01*
G01Y-156339D02*
X358800Y-155880D01*
X359133Y-155514D01*
X359600Y-155330D01*
X360067Y-155514D01*
X360400Y-155880D01*
X360600Y-156339D01*
Y-158997D01*
G01Y-156339D02*
X360800Y-155880D01*
X361133Y-155514D01*
X361600Y-155330D01*
X362067Y-155514D01*
X362400Y-155880D01*
X362600Y-156430D01*
Y-158997D01*
G01X367000D02*
Y-155330D01*
G01Y-155972D02*
X366733Y-155605D01*
X366333Y-155422D01*
X365867Y-155330D01*
X365400Y-155514D01*
X365000Y-155880D01*
X364733Y-156430D01*
X364600Y-157164D01*
X364733Y-157897D01*
X365000Y-158447D01*
X365400Y-158814D01*
X365867Y-158997D01*
X366333Y-158905D01*
X366733Y-158630D01*
X367000Y-158264D01*
G01X371000Y-153497D02*
Y-158997D01*
G01X370067Y-155330D02*
X371933D01*
G01X376200D02*
Y-158997D01*
G01Y-153864D02*
X376067Y-153772D01*
Y-153589D01*
X376200Y-153497D01*
X376333Y-153589D01*
Y-153772D01*
X376200Y-153864D01*
G01X381400Y-158997D02*
X381000Y-158905D01*
X380600Y-158539D01*
X380333Y-157897D01*
X380200Y-157164D01*
X380333Y-156430D01*
X380600Y-155789D01*
X381000Y-155422D01*
X381400Y-155330D01*
X381800Y-155422D01*
X382200Y-155789D01*
X382467Y-156430D01*
X382533Y-157164D01*
X382467Y-157897D01*
X382200Y-158539D01*
X381800Y-158905D01*
X381400Y-158997D01*
G01X385467D02*
Y-155330D01*
G01Y-156247D02*
X385733Y-155789D01*
X386133Y-155422D01*
X386667Y-155330D01*
X387133Y-155422D01*
X387533Y-155789D01*
X387733Y-156430D01*
Y-158997D01*
G01X395333Y-155330D02*
X396133Y-158997D01*
X397000Y-155330D01*
X397867Y-158997D01*
X398667Y-155330D01*
G01X401067Y-158997D02*
Y-153497D01*
G01Y-156155D02*
X401400Y-155697D01*
X401733Y-155422D01*
X402267Y-155330D01*
X402667Y-155422D01*
X403133Y-155789D01*
X403333Y-156339D01*
Y-158997D01*
G01X407400Y-155330D02*
Y-158997D01*
G01Y-153864D02*
X407267Y-153772D01*
Y-153589D01*
X407400Y-153497D01*
X407533Y-153589D01*
Y-153772D01*
X407400Y-153864D01*
G01X413667Y-155789D02*
X413200Y-155422D01*
X412800Y-155330D01*
X412267Y-155514D01*
X411867Y-155880D01*
X411600Y-156522D01*
X411533Y-157164D01*
X411600Y-157805D01*
X411867Y-158355D01*
X412267Y-158814D01*
X412800Y-158997D01*
X413267Y-158814D01*
X413667Y-158447D01*
G01X416667Y-158997D02*
Y-153497D01*
G01Y-156155D02*
X417000Y-155697D01*
X417333Y-155422D01*
X417867Y-155330D01*
X418267Y-155422D01*
X418733Y-155789D01*
X418933Y-156339D01*
Y-158997D01*
G01X428200Y-155330D02*
Y-158997D01*
G01Y-153864D02*
X428067Y-153772D01*
Y-153589D01*
X428200Y-153497D01*
X428333Y-153589D01*
Y-153772D01*
X428200Y-153864D01*
G01X432400Y-158355D02*
X432733Y-158722D01*
X433200Y-158997D01*
X433600D01*
X434000Y-158814D01*
X434267Y-158539D01*
X434400Y-158172D01*
X434333Y-157622D01*
X434067Y-157347D01*
X432867Y-156797D01*
X432600Y-156155D01*
X432733Y-155697D01*
X433000Y-155422D01*
X433400Y-155330D01*
X433800Y-155422D01*
X434200Y-155697D01*
G01X443800Y-153497D02*
Y-158997D01*
G01X442867Y-155330D02*
X444733D01*
G01X447867Y-158997D02*
Y-153497D01*
G01Y-156155D02*
X448200Y-155697D01*
X448533Y-155422D01*
X449067Y-155330D01*
X449467Y-155422D01*
X449933Y-155789D01*
X450133Y-156339D01*
Y-158997D01*
G01X453200Y-156522D02*
X455333D01*
X455133Y-155880D01*
X454800Y-155514D01*
X454333Y-155330D01*
X453867Y-155422D01*
X453467Y-155697D01*
X453200Y-156339D01*
X453067Y-156889D01*
Y-157439D01*
X453200Y-157989D01*
X453533Y-158539D01*
X453933Y-158905D01*
X454400Y-158997D01*
X454867Y-158814D01*
X455333Y-158264D01*
G01X250667Y-194500D02*
Y-200000D01*
X253333D01*
G01X257200Y-194500D02*
X256667Y-194683D01*
X256267Y-195142D01*
X256000Y-195692D01*
X255800Y-196425D01*
X255733Y-197250D01*
X255800Y-198075D01*
X256000Y-198808D01*
X256267Y-199358D01*
X256667Y-199817D01*
X257200Y-200000D01*
X257733Y-199817D01*
X258133Y-199358D01*
X258400Y-198808D01*
X258600Y-198075D01*
X258667Y-197250D01*
X258600Y-196425D01*
X258400Y-195692D01*
X258133Y-195142D01*
X257733Y-194683D01*
X257200Y-194500D01*
G01X260933Y-199175D02*
X261333Y-199633D01*
X261800Y-199908D01*
X262400Y-200000D01*
X263000Y-199817D01*
X263467Y-199450D01*
X263800Y-198808D01*
X263867Y-198075D01*
X263733Y-197342D01*
X263400Y-196883D01*
X262933Y-196517D01*
X262467Y-196425D01*
X262000Y-196517D01*
X261400Y-196883D01*
X261600Y-194500D01*
X263400D01*
G01X265600Y-201833D02*
X269600D01*
G01X271467Y-200000D02*
Y-194500D01*
X273067D01*
X273600Y-194775D01*
X274000Y-195417D01*
X274133Y-196150D01*
X274000Y-196883D01*
X273667Y-197433D01*
X273067Y-197708D01*
X271467D01*
G01X276000Y-194500D02*
X276933Y-200000D01*
X278000Y-194500D01*
X279067Y-200000D01*
X280000Y-194500D01*
G01X281867Y-200000D02*
Y-194500D01*
X283533D01*
X284067Y-194775D01*
X284400Y-195142D01*
X284533Y-195875D01*
X284400Y-196608D01*
X284000Y-197067D01*
X283533Y-197342D01*
X281867D01*
G01X283533D02*
X284533Y-200000D01*
G01X297800Y-244267D02*
X298333Y-244725D01*
X298933Y-245000D01*
X299467D01*
X300000Y-244725D01*
X300400Y-244267D01*
X300600Y-243625D01*
X300467Y-242983D01*
X300133Y-242433D01*
X299533Y-242067D01*
X298733Y-241883D01*
X298267Y-241517D01*
X298067Y-240875D01*
X298200Y-240233D01*
X298533Y-239775D01*
X299000Y-239500D01*
X299467D01*
X299933Y-239683D01*
X300333Y-240142D01*
G01X302933Y-245000D02*
Y-239500D01*
X304267D01*
X304800Y-239775D01*
X305200Y-240142D01*
X305533Y-240692D01*
X305800Y-241333D01*
X305867Y-242250D01*
X305800Y-243167D01*
X305533Y-243808D01*
X305200Y-244358D01*
X304800Y-244725D01*
X304267Y-245000D01*
X302933D01*
G01X308267D02*
Y-239500D01*
X309933D01*
X310467Y-239775D01*
X310800Y-240142D01*
X310933Y-240875D01*
X310800Y-241608D01*
X310400Y-242067D01*
X309933Y-242342D01*
X308267D01*
G01X309933D02*
X310933Y-245000D01*
G01X320533Y-242067D02*
X320800Y-241792D01*
X321000Y-241333D01*
X321133Y-240692D01*
X321000Y-240142D01*
X320733Y-239775D01*
X320267Y-239500D01*
X318467D01*
Y-245000D01*
X320667D01*
X321133Y-244633D01*
X321400Y-244083D01*
X321533Y-243442D01*
X321400Y-242800D01*
X321000Y-242250D01*
X320533Y-242067D01*
X318467D01*
G01X325200Y-245000D02*
X324667Y-244908D01*
X324200Y-244542D01*
X323800Y-243992D01*
X323533Y-243350D01*
X323400Y-242617D01*
Y-241883D01*
X323533Y-241150D01*
X323800Y-240508D01*
X324200Y-239958D01*
X324667Y-239592D01*
X325200Y-239500D01*
X325733Y-239592D01*
X326200Y-239958D01*
X326600Y-240508D01*
X326867Y-241150D01*
X327000Y-241883D01*
Y-242617D01*
X326867Y-243350D01*
X326600Y-243992D01*
X326200Y-244542D01*
X325733Y-244908D01*
X325200Y-245000D01*
G01X328733D02*
X330400Y-239500D01*
X332067Y-245000D01*
G01X331467Y-243075D02*
X329333D01*
G01X334267Y-245000D02*
Y-239500D01*
X335933D01*
X336467Y-239775D01*
X336800Y-240142D01*
X336933Y-240875D01*
X336800Y-241608D01*
X336400Y-242067D01*
X335933Y-242342D01*
X334267D01*
G01X335933D02*
X336933Y-245000D01*
G01X339333D02*
Y-239500D01*
X340667D01*
X341200Y-239775D01*
X341600Y-240142D01*
X341933Y-240692D01*
X342200Y-241333D01*
X342267Y-242250D01*
X342200Y-243167D01*
X341933Y-243808D01*
X341600Y-244358D01*
X341200Y-244725D01*
X340667Y-245000D01*
X339333D01*
G01X296600Y-219500D02*
Y-225000D01*
G01X295067Y-219500D02*
X298133D01*
G01X301800Y-225000D02*
X301400Y-224908D01*
X301000Y-224542D01*
X300733Y-223900D01*
X300600Y-223167D01*
X300733Y-222433D01*
X301000Y-221792D01*
X301400Y-221425D01*
X301800Y-221333D01*
X302200Y-221425D01*
X302600Y-221792D01*
X302867Y-222433D01*
X302933Y-223167D01*
X302867Y-223900D01*
X302600Y-224542D01*
X302200Y-224908D01*
X301800Y-225000D01*
G01X305000D02*
Y-221333D01*
G01Y-222342D02*
X305200Y-221883D01*
X305533Y-221517D01*
X306000Y-221333D01*
X306467Y-221517D01*
X306800Y-221883D01*
X307000Y-222342D01*
Y-225000D01*
G01Y-222342D02*
X307200Y-221883D01*
X307533Y-221517D01*
X308000Y-221333D01*
X308467Y-221517D01*
X308800Y-221883D01*
X309000Y-222433D01*
Y-225000D01*
G01X316067D02*
Y-219500D01*
X317733D01*
X318267Y-219775D01*
X318600Y-220142D01*
X318733Y-220875D01*
X318600Y-221608D01*
X318200Y-222067D01*
X317733Y-222342D01*
X316067D01*
G01X317733D02*
X318733Y-225000D01*
G01X322600Y-221333D02*
Y-225000D01*
G01Y-219867D02*
X322467Y-219775D01*
Y-219592D01*
X322600Y-219500D01*
X322733Y-219592D01*
Y-219775D01*
X322600Y-219867D01*
G01X329000Y-219500D02*
Y-225000D01*
G01Y-224175D02*
X328733Y-224633D01*
X328333Y-224908D01*
X327867Y-225000D01*
X327333Y-224817D01*
X326933Y-224358D01*
X326667Y-223808D01*
X326600Y-223167D01*
X326667Y-222525D01*
X326933Y-221975D01*
X327333Y-221517D01*
X327867Y-221333D01*
X328333Y-221425D01*
X328667Y-221608D01*
X329000Y-221975D01*
G01X334200Y-219500D02*
Y-225000D01*
G01Y-224175D02*
X333933Y-224633D01*
X333533Y-224908D01*
X333067Y-225000D01*
X332533Y-224817D01*
X332133Y-224358D01*
X331867Y-223808D01*
X331800Y-223167D01*
X331867Y-222525D01*
X332133Y-221975D01*
X332533Y-221517D01*
X333067Y-221333D01*
X333533Y-221425D01*
X333867Y-221608D01*
X334200Y-221975D01*
G01X338200Y-225000D02*
Y-219500D01*
G01X342400Y-222525D02*
X344533D01*
X344333Y-221883D01*
X344000Y-221517D01*
X343533Y-221333D01*
X343067Y-221425D01*
X342667Y-221700D01*
X342400Y-222342D01*
X342267Y-222892D01*
Y-223442D01*
X342400Y-223992D01*
X342733Y-224542D01*
X343133Y-224908D01*
X343600Y-225000D01*
X344067Y-224817D01*
X344533Y-224267D01*
G01X338067Y-166500D02*
Y-161000D01*
X339733D01*
X340267Y-161275D01*
X340600Y-161642D01*
X340733Y-162375D01*
X340600Y-163108D01*
X340200Y-163567D01*
X339733Y-163842D01*
X338067D01*
G01X339733D02*
X340733Y-166500D01*
G01X345800D02*
Y-162833D01*
G01Y-163475D02*
X345533Y-163108D01*
X345133Y-162925D01*
X344667Y-162833D01*
X344200Y-163017D01*
X343800Y-163383D01*
X343533Y-163933D01*
X343400Y-164667D01*
X343533Y-165400D01*
X343800Y-165950D01*
X344200Y-166317D01*
X344667Y-166500D01*
X345133Y-166408D01*
X345533Y-166133D01*
X345800Y-165767D01*
G01X348667Y-166500D02*
Y-162833D01*
G01Y-163750D02*
X348933Y-163292D01*
X349333Y-162925D01*
X349867Y-162833D01*
X350333Y-162925D01*
X350733Y-163292D01*
X350933Y-163933D01*
Y-166500D01*
G01X354067Y-167875D02*
X354533Y-168242D01*
X355067Y-168333D01*
X355533Y-168242D01*
X355933Y-167783D01*
X356200Y-167142D01*
Y-162833D01*
G01Y-163567D02*
X355933Y-163200D01*
X355533Y-162925D01*
X355067Y-162833D01*
X354533Y-163017D01*
X354200Y-163383D01*
X353933Y-164025D01*
X353800Y-164667D01*
X353867Y-165217D01*
X354133Y-165858D01*
X354533Y-166317D01*
X355067Y-166500D01*
X355467Y-166408D01*
X355933Y-166042D01*
X356200Y-165675D01*
G01X359200Y-164025D02*
X361333D01*
X361133Y-163383D01*
X360800Y-163017D01*
X360333Y-162833D01*
X359867Y-162925D01*
X359467Y-163200D01*
X359200Y-163842D01*
X359067Y-164392D01*
Y-164942D01*
X359200Y-165492D01*
X359533Y-166042D01*
X359933Y-166408D01*
X360400Y-166500D01*
X360867Y-166317D01*
X361333Y-165767D01*
G01X369067Y-166500D02*
Y-161000D01*
X372133Y-166500D01*
Y-161000D01*
G01X374800Y-164025D02*
X376933D01*
X376733Y-163383D01*
X376400Y-163017D01*
X375933Y-162833D01*
X375467Y-162925D01*
X375067Y-163200D01*
X374800Y-163842D01*
X374667Y-164392D01*
Y-164942D01*
X374800Y-165492D01*
X375133Y-166042D01*
X375533Y-166408D01*
X376000Y-166500D01*
X376467Y-166317D01*
X376933Y-165767D01*
G01X381000Y-161000D02*
Y-166500D01*
G01X380067Y-162833D02*
X381933D01*
G01X384533D02*
X385333Y-166500D01*
X386200Y-162833D01*
X387067Y-166500D01*
X387867Y-162833D01*
G01X391400Y-166500D02*
X391000Y-166408D01*
X390600Y-166042D01*
X390333Y-165400D01*
X390200Y-164667D01*
X390333Y-163933D01*
X390600Y-163292D01*
X391000Y-162925D01*
X391400Y-162833D01*
X391800Y-162925D01*
X392200Y-163292D01*
X392467Y-163933D01*
X392533Y-164667D01*
X392467Y-165400D01*
X392200Y-166042D01*
X391800Y-166408D01*
X391400Y-166500D01*
G01X395667D02*
Y-162833D01*
G01Y-163567D02*
X396000Y-163200D01*
X396333Y-162925D01*
X396800Y-162833D01*
X397133Y-162925D01*
X397533Y-163200D01*
G01X400667Y-166500D02*
Y-161000D01*
G01X402800Y-162833D02*
X400667Y-164942D01*
G01X401533Y-164117D02*
X402933Y-166500D01*
G01X406000Y-165858D02*
X406333Y-166225D01*
X406800Y-166500D01*
X407200D01*
X407600Y-166317D01*
X407867Y-166042D01*
X408000Y-165675D01*
X407933Y-165125D01*
X407667Y-164850D01*
X406467Y-164300D01*
X406200Y-163658D01*
X406333Y-163200D01*
X406600Y-162925D01*
X407000Y-162833D01*
X407400Y-162925D01*
X407800Y-163200D01*
G01X412200Y-166683D02*
X412067Y-166592D01*
Y-166408D01*
X412200Y-166317D01*
X412333Y-166408D01*
Y-166592D01*
X412200Y-166683D01*
G01X386119Y-193264D02*
X386652Y-193722D01*
X387252Y-193997D01*
X387786D01*
X388319Y-193722D01*
X388719Y-193264D01*
X388919Y-192622D01*
X388786Y-191980D01*
X388452Y-191430D01*
X387852Y-191064D01*
X387052Y-190880D01*
X386586Y-190514D01*
X386386Y-189872D01*
X386519Y-189230D01*
X386852Y-188772D01*
X387319Y-188497D01*
X387786D01*
X388252Y-188680D01*
X388652Y-189139D01*
G01X391586Y-193997D02*
Y-188497D01*
G01Y-191155D02*
X391919Y-190697D01*
X392252Y-190422D01*
X392786Y-190330D01*
X393186Y-190422D01*
X393652Y-190789D01*
X393852Y-191339D01*
Y-193997D01*
G01X396919Y-191522D02*
X399052D01*
X398852Y-190880D01*
X398519Y-190514D01*
X398052Y-190330D01*
X397586Y-190422D01*
X397186Y-190697D01*
X396919Y-191339D01*
X396786Y-191889D01*
Y-192439D01*
X396919Y-192989D01*
X397252Y-193539D01*
X397652Y-193905D01*
X398119Y-193997D01*
X398586Y-193814D01*
X399052Y-193264D01*
G01X402119Y-191522D02*
X404252D01*
X404052Y-190880D01*
X403719Y-190514D01*
X403252Y-190330D01*
X402786Y-190422D01*
X402386Y-190697D01*
X402119Y-191339D01*
X401986Y-191889D01*
Y-192439D01*
X402119Y-192989D01*
X402452Y-193539D01*
X402852Y-193905D01*
X403319Y-193997D01*
X403786Y-193814D01*
X404252Y-193264D01*
G01X408319Y-188497D02*
Y-193997D01*
G01X407386Y-190330D02*
X409252D01*
G01X413519Y-194180D02*
X413386Y-194089D01*
Y-193905D01*
X413519Y-193814D01*
X413652Y-193905D01*
Y-194089D01*
X413519Y-194180D01*
G01Y-191705D02*
X413386Y-191614D01*
Y-191430D01*
X413519Y-191339D01*
X413652Y-191430D01*
Y-191614D01*
X413519Y-191705D01*
G01X406967Y-181500D02*
Y-176000D01*
X408633D01*
X409167Y-176275D01*
X409500Y-176642D01*
X409633Y-177375D01*
X409500Y-178108D01*
X409100Y-178567D01*
X408633Y-178842D01*
X406967D01*
G01X408633D02*
X409633Y-181500D01*
G01X414700D02*
Y-177833D01*
G01Y-178475D02*
X414433Y-178108D01*
X414033Y-177925D01*
X413567Y-177833D01*
X413100Y-178017D01*
X412700Y-178383D01*
X412433Y-178933D01*
X412300Y-179667D01*
X412433Y-180400D01*
X412700Y-180950D01*
X413100Y-181317D01*
X413567Y-181500D01*
X414033Y-181408D01*
X414433Y-181133D01*
X414700Y-180767D01*
G01X417567Y-181500D02*
Y-177833D01*
G01Y-178750D02*
X417833Y-178292D01*
X418233Y-177925D01*
X418767Y-177833D01*
X419233Y-177925D01*
X419633Y-178292D01*
X419833Y-178933D01*
Y-181500D01*
G01X422967Y-182875D02*
X423433Y-183242D01*
X423967Y-183333D01*
X424433Y-183242D01*
X424833Y-182783D01*
X425100Y-182142D01*
Y-177833D01*
G01Y-178567D02*
X424833Y-178200D01*
X424433Y-177925D01*
X423967Y-177833D01*
X423433Y-178017D01*
X423100Y-178383D01*
X422833Y-179025D01*
X422700Y-179667D01*
X422767Y-180217D01*
X423033Y-180858D01*
X423433Y-181317D01*
X423967Y-181500D01*
X424367Y-181408D01*
X424833Y-181042D01*
X425100Y-180675D01*
G01X428100Y-179025D02*
X430233D01*
X430033Y-178383D01*
X429700Y-178017D01*
X429233Y-177833D01*
X428767Y-177925D01*
X428367Y-178200D01*
X428100Y-178842D01*
X427967Y-179392D01*
Y-179942D01*
X428100Y-180492D01*
X428433Y-181042D01*
X428833Y-181408D01*
X429300Y-181500D01*
X429767Y-181317D01*
X430233Y-180767D01*
G01X437967Y-181500D02*
Y-176000D01*
X441033Y-181500D01*
Y-176000D01*
G01X443700Y-179025D02*
X445833D01*
X445633Y-178383D01*
X445300Y-178017D01*
X444833Y-177833D01*
X444367Y-177925D01*
X443967Y-178200D01*
X443700Y-178842D01*
X443567Y-179392D01*
Y-179942D01*
X443700Y-180492D01*
X444033Y-181042D01*
X444433Y-181408D01*
X444900Y-181500D01*
X445367Y-181317D01*
X445833Y-180767D01*
G01X449900Y-176000D02*
Y-181500D01*
G01X448967Y-177833D02*
X450833D01*
G01X453433D02*
X454233Y-181500D01*
X455100Y-177833D01*
X455967Y-181500D01*
X456767Y-177833D01*
G01X460300Y-181500D02*
X459900Y-181408D01*
X459500Y-181042D01*
X459233Y-180400D01*
X459100Y-179667D01*
X459233Y-178933D01*
X459500Y-178292D01*
X459900Y-177925D01*
X460300Y-177833D01*
X460700Y-177925D01*
X461100Y-178292D01*
X461367Y-178933D01*
X461433Y-179667D01*
X461367Y-180400D01*
X461100Y-181042D01*
X460700Y-181408D01*
X460300Y-181500D01*
G01X464567D02*
Y-177833D01*
G01Y-178567D02*
X464900Y-178200D01*
X465233Y-177925D01*
X465700Y-177833D01*
X466033Y-177925D01*
X466433Y-178200D01*
G01X469567Y-181500D02*
Y-176000D01*
G01X471700Y-177833D02*
X469567Y-179942D01*
G01X470433Y-179117D02*
X471833Y-181500D01*
G01X474900Y-180858D02*
X475233Y-181225D01*
X475700Y-181500D01*
X476100D01*
X476500Y-181317D01*
X476767Y-181042D01*
X476900Y-180675D01*
X476833Y-180125D01*
X476567Y-179850D01*
X475367Y-179300D01*
X475100Y-178658D01*
X475233Y-178200D01*
X475500Y-177925D01*
X475900Y-177833D01*
X476300Y-177925D01*
X476700Y-178200D01*
G01X481100Y-181683D02*
X480967Y-181592D01*
Y-181408D01*
X481100Y-181317D01*
X481233Y-181408D01*
Y-181592D01*
X481100Y-181683D01*
G01X426167Y-234900D02*
X426500Y-235450D01*
X426900Y-235817D01*
X427367Y-236000D01*
X427900Y-235817D01*
X428300Y-235450D01*
X428700Y-234900D01*
X428833Y-234167D01*
Y-230500D01*
G01X432700Y-236000D02*
X432300Y-235908D01*
X431900Y-235542D01*
X431633Y-234900D01*
X431500Y-234167D01*
X431633Y-233433D01*
X431900Y-232792D01*
X432300Y-232425D01*
X432700Y-232333D01*
X433100Y-232425D01*
X433500Y-232792D01*
X433767Y-233433D01*
X433833Y-234167D01*
X433767Y-234900D01*
X433500Y-235542D01*
X433100Y-235908D01*
X432700Y-236000D01*
G01X436700D02*
Y-230500D01*
G01Y-233250D02*
X437033Y-232700D01*
X437433Y-232425D01*
X437833Y-232333D01*
X438433Y-232517D01*
X438833Y-232883D01*
X439100Y-233525D01*
Y-234258D01*
X438967Y-234992D01*
X438700Y-235542D01*
X438233Y-235908D01*
X437833Y-236000D01*
X437433Y-235908D01*
X437033Y-235633D01*
X436700Y-235175D01*
G01X443100Y-236183D02*
X442967Y-236092D01*
Y-235908D01*
X443100Y-235817D01*
X443233Y-235908D01*
Y-236092D01*
X443100Y-236183D01*
G01Y-233708D02*
X442967Y-233617D01*
Y-233433D01*
X443100Y-233342D01*
X443233Y-233433D01*
Y-233617D01*
X443100Y-233708D01*
G01X437319Y-219993D02*
X436786Y-220176D01*
X436386Y-220635D01*
X436119Y-221185D01*
X435919Y-221918D01*
X435852Y-222743D01*
X435919Y-223568D01*
X436119Y-224301D01*
X436386Y-224851D01*
X436786Y-225310D01*
X437319Y-225493D01*
X437852Y-225310D01*
X438252Y-224851D01*
X438519Y-224301D01*
X438719Y-223568D01*
X438786Y-222743D01*
X438719Y-221918D01*
X438519Y-221185D01*
X438252Y-220635D01*
X437852Y-220176D01*
X437319Y-219993D01*
G01X442519Y-225493D02*
X442986Y-225401D01*
X443519Y-225126D01*
X443852Y-224668D01*
X443986Y-224026D01*
X443852Y-223385D01*
X443452Y-222835D01*
X442852Y-222560D01*
X442186D01*
X441786Y-222376D01*
X441452Y-221918D01*
X441319Y-221276D01*
X441519Y-220635D01*
X441986Y-220176D01*
X442519Y-219993D01*
X443052Y-220176D01*
X443519Y-220635D01*
X443719Y-221276D01*
X443586Y-221918D01*
X443252Y-222376D01*
X442852Y-222560D01*
X442186D01*
X441586Y-222835D01*
X441186Y-223385D01*
X441052Y-224026D01*
X441186Y-224668D01*
X441519Y-225126D01*
X442052Y-225401D01*
X442519Y-225493D01*
G01X446519Y-225676D02*
X448919Y-219993D01*
G01X451652Y-220910D02*
X452052Y-220360D01*
X452519Y-220085D01*
X453052Y-219993D01*
X453719Y-220176D01*
X454186Y-220635D01*
X454319Y-221185D01*
X454252Y-221735D01*
X453986Y-222193D01*
X452652Y-223110D01*
X452052Y-223751D01*
X451652Y-224668D01*
X451519Y-225493D01*
X454319D01*
G01X456852Y-220910D02*
X457252Y-220360D01*
X457719Y-220085D01*
X458252Y-219993D01*
X458919Y-220176D01*
X459386Y-220635D01*
X459519Y-221185D01*
X459452Y-221735D01*
X459186Y-222193D01*
X457852Y-223110D01*
X457252Y-223751D01*
X456852Y-224668D01*
X456719Y-225493D01*
X459519D01*
G01X462119Y-225676D02*
X464519Y-219993D01*
G01X468519Y-225493D02*
Y-219993D01*
X467719Y-221093D01*
G01Y-225493D02*
X469319D01*
G01X473719D02*
Y-219993D01*
X472919Y-221093D01*
G01Y-225493D02*
X474519D01*
G01X426052Y-215493D02*
Y-209993D01*
X427386D01*
X427919Y-210268D01*
X428319Y-210635D01*
X428652Y-211185D01*
X428919Y-211826D01*
X428986Y-212743D01*
X428919Y-213660D01*
X428652Y-214301D01*
X428319Y-214851D01*
X427919Y-215218D01*
X427386Y-215493D01*
X426052D01*
G01X433919D02*
Y-211826D01*
G01Y-212468D02*
X433652Y-212101D01*
X433252Y-211918D01*
X432786Y-211826D01*
X432319Y-212010D01*
X431919Y-212376D01*
X431652Y-212926D01*
X431519Y-213660D01*
X431652Y-214393D01*
X431919Y-214943D01*
X432319Y-215310D01*
X432786Y-215493D01*
X433252Y-215401D01*
X433652Y-215126D01*
X433919Y-214760D01*
G01X437919Y-209993D02*
Y-215493D01*
G01X436986Y-211826D02*
X438852D01*
G01X442119Y-213018D02*
X444252D01*
X444052Y-212376D01*
X443719Y-212010D01*
X443252Y-211826D01*
X442786Y-211918D01*
X442386Y-212193D01*
X442119Y-212835D01*
X441986Y-213385D01*
Y-213935D01*
X442119Y-214485D01*
X442452Y-215035D01*
X442852Y-215401D01*
X443319Y-215493D01*
X443786Y-215310D01*
X444252Y-214760D01*
G01X448319Y-215676D02*
X448186Y-215585D01*
Y-215401D01*
X448319Y-215310D01*
X448452Y-215401D01*
Y-215585D01*
X448319Y-215676D01*
G01Y-213201D02*
X448186Y-213110D01*
Y-212926D01*
X448319Y-212835D01*
X448452Y-212926D01*
Y-213110D01*
X448319Y-213201D01*
G01X449100Y-239500D02*
X448567Y-239683D01*
X448167Y-240142D01*
X447900Y-240692D01*
X447700Y-241425D01*
X447633Y-242250D01*
X447700Y-243075D01*
X447900Y-243808D01*
X448167Y-244358D01*
X448567Y-244817D01*
X449100Y-245000D01*
X449633Y-244817D01*
X450033Y-244358D01*
X450300Y-243808D01*
X450500Y-243075D01*
X450567Y-242250D01*
X450500Y-241425D01*
X450300Y-240692D01*
X450033Y-240142D01*
X449633Y-239683D01*
X449100Y-239500D01*
G01X454300D02*
X453767Y-239683D01*
X453367Y-240142D01*
X453100Y-240692D01*
X452900Y-241425D01*
X452833Y-242250D01*
X452900Y-243075D01*
X453100Y-243808D01*
X453367Y-244358D01*
X453767Y-244817D01*
X454300Y-245000D01*
X454833Y-244817D01*
X455233Y-244358D01*
X455500Y-243808D01*
X455700Y-243075D01*
X455767Y-242250D01*
X455700Y-241425D01*
X455500Y-240692D01*
X455233Y-240142D01*
X454833Y-239683D01*
X454300Y-239500D01*
G01X460300Y-245000D02*
Y-239500D01*
X457833Y-243442D01*
X461167D01*
G01X463233Y-243900D02*
X463633Y-244542D01*
X464167Y-244908D01*
X464767Y-245000D01*
X465300Y-244908D01*
X465833Y-244450D01*
X466167Y-243900D01*
X466233Y-243350D01*
X466100Y-242708D01*
X465633Y-242250D01*
X465167Y-242067D01*
X464567D01*
G01X465167D02*
X465567Y-241792D01*
X465900Y-241333D01*
X466033Y-240783D01*
X465900Y-240233D01*
X465567Y-239775D01*
X464967Y-239500D01*
X464367Y-239592D01*
X463767Y-239958D01*
G01X468433Y-245000D02*
Y-239500D01*
X469767D01*
X470300Y-239775D01*
X470700Y-240142D01*
X471033Y-240692D01*
X471300Y-241333D01*
X471367Y-242250D01*
X471300Y-243167D01*
X471033Y-243808D01*
X470700Y-244358D01*
X470300Y-244725D01*
X469767Y-245000D01*
X468433D01*
G01X449016Y-193997D02*
X448616Y-193905D01*
X448216Y-193539D01*
X447949Y-192897D01*
X447816Y-192164D01*
X447949Y-191430D01*
X448216Y-190789D01*
X448616Y-190422D01*
X449016Y-190330D01*
X449416Y-190422D01*
X449816Y-190789D01*
X450083Y-191430D01*
X450149Y-192164D01*
X450083Y-192897D01*
X449816Y-193539D01*
X449416Y-193905D01*
X449016Y-193997D01*
G01X453816D02*
Y-189322D01*
X453949Y-188864D01*
X454216Y-188589D01*
X454616Y-188497D01*
X455016Y-188680D01*
X455216Y-189139D01*
G01X454416Y-190697D02*
X453083D01*
G01X459416Y-194180D02*
X459283Y-194089D01*
Y-193905D01*
X459416Y-193814D01*
X459549Y-193905D01*
Y-194089D01*
X459416Y-194180D01*
G01Y-191705D02*
X459283Y-191614D01*
Y-191430D01*
X459416Y-191339D01*
X459549Y-191430D01*
Y-191614D01*
X459416Y-191705D01*
M02*
