G04 ================== begin FILE IDENTIFICATION RECORD ==================*
G04 Layout Name:  X:/Range_Networks/SDR_Rev3_0043D/Gerber/RNRAD1-SDR-R3.brd*
G04 Film Name:    SOLDER_BOT*
G04 File Format:  Gerber RS274X*
G04 File Origin:  Cadence Allegro 16.3-S035*
G04 Origin Date:  Mon Aug 22 14:42:21 2011*
G04 *
G04 Layer:  BOARD GEOMETRY/SOLDERMASK_BOTTOM*
G04 Layer:  BOARD GEOMETRY/OUTLINE*
G04 Layer:  DRAWING FORMAT/FILM_TITLE_BLOCK*
G04 Layer:  DRAWING FORMAT/FILM_BLOCK_CHANGE*
G04 Layer:  DRAWING FORMAT/SOLDER_BOT*
G04 Layer:  PACKAGE GEOMETRY/SOLDERMASK_BOTTOM*
G04 Layer:  PIN/SOLDERMASK_BOTTOM*
G04 Layer:  VIA CLASS/SOLDERMASK_BOTTOM*
G04 *
G04 Offset:    (0.00 0.00)*
G04 Mirror:    No*
G04 Mode:      Positive*
G04 Rotation:  0*
G04 FullContactRelief:  No*
G04 UndefLineWidth:     6.00*
G04 ================== end FILE IDENTIFICATION RECORD ====================*
%FSLAX25Y25*MOIN*%
%IR0*IPPOS*OFA0.00000B0.00000*MIA0B0*SFA1.00000B1.00000*%
%ADD12C,.02*%
%ADD14C,.024*%
%ADD13C,.06*%
%ADD16C,.07*%
%ADD25C,.062*%
%ADD22C,.055*%
%ADD26O,.158X.079*%
%ADD20R,.06X.06*%
%ADD23O,.079X.158*%
%ADD24R,.067X.067*%
%ADD18C,.1*%
%ADD10C,.2*%
%ADD27C,.121*%
%ADD19R,.028X.032*%
%ADD15R,.032X.028*%
%ADD11C,.125*%
%ADD28C,.154*%
%ADD21R,.045X.065*%
%ADD17R,.057X.018*%
%ADD29C,.01*%
%ADD30C,.005*%
%ADD31C,.006*%
G75*
%LPD*%
G75*
G54D10*
X0Y0D03*
Y300000D03*
X235000Y0D03*
Y300000D03*
X520000Y0D03*
Y300000D03*
G54D11*
X27500Y10000D03*
Y290000D03*
X510000Y272500D03*
G54D20*
X237500Y273000D03*
X307500Y292500D03*
X380000Y77500D03*
X390000Y292500D03*
X472500D03*
G54D30*
G01X28000Y-185500D02*
X485519Y-185493D01*
G54D21*
X403750Y136500D03*
X414250D03*
G54D12*
X15000Y32500D03*
X20000D03*
X15000Y52500D03*
X20000D03*
X21000Y70000D03*
Y62500D03*
X5000Y77500D03*
X9000Y70000D03*
Y62500D03*
X5000Y82500D03*
Y95000D03*
Y90000D03*
X20000Y125000D03*
X5000Y160000D03*
Y165000D03*
X21000Y180000D03*
X9000D03*
X21000Y187500D03*
X5000Y200000D03*
Y195000D03*
X9000Y187500D03*
X5000Y212500D03*
Y207500D03*
Y235000D03*
Y230000D03*
X5500Y260000D03*
Y256250D03*
X5000Y242500D03*
Y247500D03*
Y277500D03*
Y272500D03*
X5500Y263750D03*
X35000Y36500D03*
X27500D03*
Y48500D03*
X35000D03*
X25000Y77500D03*
Y95000D03*
Y90000D03*
Y82500D03*
X34000Y98063D03*
Y104363D03*
X25000Y125000D03*
X34000Y142158D03*
Y148457D03*
Y154756D03*
X25000Y160000D03*
Y165000D03*
Y200000D03*
Y195000D03*
Y212500D03*
Y207500D03*
X38500Y237500D03*
Y227500D03*
X25000Y235000D03*
Y230000D03*
X26500Y237500D03*
Y227500D03*
X25000Y242500D03*
Y247500D03*
X24500Y259500D03*
Y263750D03*
X25000Y277500D03*
Y272500D03*
X53000Y115500D03*
X45000Y113812D03*
X58500Y125500D03*
X51000Y132709D03*
X44992Y139008D03*
X58500Y136000D03*
X45000Y145308D03*
Y151607D03*
X58500Y146500D03*
Y150500D03*
X45000Y157906D03*
X58500Y157000D03*
Y169000D03*
X45000Y171500D03*
X58547Y179953D03*
X45000Y236050D03*
X56750Y230500D03*
X53000D03*
X45500Y245100D03*
X72500Y14000D03*
X75000Y32500D03*
X70000D03*
X72500Y26000D03*
X75000Y52500D03*
X70000D03*
X69000Y98063D03*
Y103500D03*
Y108500D03*
Y113000D03*
Y118000D03*
Y135859D03*
X76500Y139500D03*
Y133500D03*
X75000Y157000D03*
X72500Y159500D03*
X69000Y149000D03*
Y154000D03*
Y144000D03*
Y172500D03*
Y195701D03*
Y191500D03*
Y182000D03*
Y186252D03*
X69001Y202001D03*
X74000Y202000D03*
X80000Y234000D03*
X72500Y246000D03*
X80000D03*
X95000Y58500D03*
X85000D03*
X96500Y110500D03*
Y114500D03*
X92500Y140000D03*
X88000Y144000D03*
X85000Y146500D03*
X96500Y142000D03*
Y147000D03*
Y160000D03*
X92500D03*
X100000Y179500D03*
X95500Y167000D03*
X102500Y256500D03*
Y268500D03*
X98500Y282200D03*
X101000Y290000D03*
Y295000D03*
X107500Y110500D03*
Y106500D03*
Y114500D03*
Y118500D03*
Y134000D03*
Y138000D03*
Y130000D03*
Y122500D03*
Y126000D03*
Y152500D03*
Y142000D03*
Y156730D03*
X116000Y177000D03*
X107500Y170512D03*
X119700Y177000D03*
X107500Y175000D03*
Y162000D03*
X111000Y177000D03*
X107000Y187500D03*
X112000Y221500D03*
X114950Y208500D03*
X118500Y221500D03*
X121500Y233500D03*
X111500D03*
Y256500D03*
X122000D03*
X119000D03*
X106000Y268500D03*
X123500D03*
X118200D03*
X118500Y286500D03*
X140000Y92500D03*
X136000D03*
X132500Y103000D03*
X136500D03*
X140500D03*
X128500Y177000D03*
X140000D03*
X136500D03*
X132500D03*
Y197500D03*
X143330Y187500D03*
X126500D03*
X136500D03*
X132500D03*
X125000Y221500D03*
X135500Y220000D03*
Y212500D03*
X130050Y208500D03*
X132500Y205000D03*
X129000Y224950D03*
X125000Y233500D03*
X140000Y247000D03*
X129000Y245000D03*
X125000Y253000D03*
X140000Y253500D03*
X124000Y273000D03*
X132000Y271950D03*
X128000Y291000D03*
X124000Y285000D03*
X157000Y10500D03*
X150500Y16083D03*
X153000Y10500D03*
X155000Y6500D03*
X150500Y38917D03*
X157500Y32500D03*
X162500D03*
X159950Y22050D03*
X151000Y50000D03*
X153543Y44500D03*
X148000Y92500D03*
X152000D03*
X158000D03*
X144000Y88500D03*
X144500Y103000D03*
X157500Y108500D03*
X154500Y103000D03*
X157500Y104500D03*
X148500Y103000D03*
X157500Y158000D03*
Y162000D03*
X154500Y177000D03*
X145000D03*
X150500D03*
X155000Y187500D03*
X147000D03*
X150500D03*
X147500Y220000D03*
Y212500D03*
X150000Y217500D03*
Y205000D03*
Y210000D03*
Y222500D03*
X168500Y27500D03*
X177500Y33500D03*
X174417Y38917D03*
X164500Y22000D03*
X168898D03*
X171457Y44500D03*
X168000Y169500D03*
Y173500D03*
X170000Y217500D03*
X173000Y216500D03*
X170000Y205000D03*
Y210000D03*
Y222500D03*
X173000Y223500D03*
X200000Y91929D03*
X199000Y85000D03*
X189000Y93898D03*
Y85000D03*
X200000Y106500D03*
X189000Y109500D03*
X200000Y110500D03*
X189000Y113000D03*
X200000Y128500D03*
Y132500D03*
Y150000D03*
X189000Y147347D03*
X200000Y159500D03*
Y154000D03*
X189000Y151000D03*
X200000Y171500D03*
X189000Y180000D03*
X200000Y175500D03*
Y163500D03*
Y189500D03*
X189000Y185500D03*
X200000Y193500D03*
Y185000D03*
X189000Y192500D03*
X200000Y197000D03*
X189000D03*
X200000Y201000D03*
X189000Y189000D03*
X185000Y216500D03*
X189000Y201500D03*
X200000Y205000D03*
X189000Y206500D03*
X200000Y209000D03*
X201000Y221000D03*
X185000Y223500D03*
X196450Y244950D03*
X221000Y90000D03*
X217000D03*
X220500Y210000D03*
X216500D03*
X205000Y221000D03*
X242500Y59500D03*
Y54500D03*
X225000Y66000D03*
X238500Y90000D03*
X242500D03*
X240000Y210000D03*
X226500Y244950D03*
X246500Y15000D03*
X258500D03*
X246500Y40000D03*
X258500D03*
X262500Y59500D03*
Y54500D03*
X258500Y47500D03*
X246500D03*
X258000Y79000D03*
X254000D03*
X249173Y94000D03*
X252500D03*
X264000Y90000D03*
X246500D03*
X258500D03*
X258000Y210000D03*
X262000D03*
X249000Y221000D03*
X261000D03*
X246000Y210000D03*
X253000Y221000D03*
X257047Y220953D03*
X252000Y210000D03*
X270827Y79000D03*
X272795Y90000D03*
X268000D03*
X264500Y103500D03*
X275500Y104000D03*
X267000Y196500D03*
X273500D03*
X280500Y183500D03*
X269000Y221000D03*
X264921D03*
X272000Y210000D03*
X268000D03*
X283000Y235000D03*
Y240000D03*
X282500Y259000D03*
X283000Y246000D03*
X271000Y250000D03*
X303500Y90000D03*
X299500D03*
X297000Y178500D03*
X287000Y181000D03*
X303500Y210000D03*
X299500D03*
X294500D03*
X304000Y240000D03*
X292000Y235000D03*
X292500Y259000D03*
X304000Y252500D03*
Y245000D03*
X320000Y97835D03*
Y93898D03*
Y106500D03*
Y110500D03*
Y120000D03*
Y101772D03*
Y128500D03*
Y132500D03*
Y159500D03*
Y148950D03*
Y152953D03*
Y145079D03*
Y156500D03*
Y171500D03*
Y163000D03*
Y175500D03*
Y189000D03*
Y193000D03*
X316000Y252500D03*
Y245000D03*
X331000Y91000D03*
Y95866D03*
Y99803D03*
Y109500D03*
Y113300D03*
Y150550D03*
X330917Y186717D03*
X331000Y190500D03*
X343000Y220000D03*
Y225000D03*
Y235000D03*
Y240000D03*
X358500Y125690D03*
Y135925D03*
X358043Y158957D03*
X358000Y163000D03*
Y170000D03*
Y166500D03*
X362000Y220000D03*
X353450Y229000D03*
X362000Y240000D03*
Y235000D03*
Y225000D03*
X353450Y244000D03*
X382500Y45000D03*
X377500D03*
Y65000D03*
X382500D03*
X371000Y113500D03*
X384500Y120500D03*
X371000Y117000D03*
X382000Y102000D03*
X371000Y120571D03*
X384500Y127500D03*
X373000Y123500D03*
X373500Y140000D03*
X371000Y152050D03*
X373000Y154500D03*
X371000Y157000D03*
Y148000D03*
X371500Y178500D03*
X371000Y171752D03*
X370984Y161516D03*
X370500Y198000D03*
X378000Y185500D03*
X373248D03*
X371500Y182500D03*
X370500Y222500D03*
Y237500D03*
X402500Y81500D03*
X386000Y102000D03*
X402500D03*
X393000D03*
X397500D03*
X398000Y114500D03*
X402000D03*
X387000Y140000D03*
Y133000D03*
X399000D03*
Y140000D03*
X396280Y198000D03*
X393720Y185500D03*
X391161Y198000D03*
X388602Y185500D03*
X397450D03*
X402550D03*
X403500Y237500D03*
Y232500D03*
Y227500D03*
Y222500D03*
X394500Y237500D03*
Y222500D03*
X384950Y227450D03*
X403500Y247500D03*
X384950Y242500D03*
X417500Y65500D03*
X422500Y81500D03*
X409000D03*
X415000Y92500D03*
X416752Y114500D03*
X419000Y118012D03*
Y135000D03*
Y123130D03*
Y128248D03*
Y158957D03*
Y146450D03*
Y151280D03*
Y166634D03*
X419311Y198000D03*
X414193D03*
X419000Y184547D03*
X424500Y227500D03*
Y222500D03*
X415500Y257500D03*
Y262500D03*
X427500Y92500D03*
X431500Y116500D03*
Y111500D03*
Y120571D03*
X445000Y126000D03*
X431500Y141043D03*
Y130807D03*
Y125689D03*
X445000Y149000D03*
X431500Y161000D03*
Y165000D03*
Y187500D03*
X436500Y232500D03*
Y237500D03*
Y257500D03*
Y252500D03*
Y262500D03*
X447500Y52500D03*
X452500D03*
X451000Y220000D03*
Y227500D03*
Y245000D03*
Y252500D03*
G54D31*
G01X-11000Y311000D02*
X531000D01*
Y-11000D01*
X-11000D01*
Y311000D01*
G01X38000Y-247974D02*
X485519D01*
G01X28000Y-248000D02*
X485519Y-247974D01*
Y-207974D01*
X28000Y-208000D01*
Y-248000D01*
G01Y-228000D02*
X485519Y-227974D01*
G01X28000Y-205500D02*
X485519Y-205493D01*
Y-144982D01*
X28000Y-145000D01*
Y-205500D01*
G01X57550Y-164500D02*
Y-152000D01*
X61425D01*
X62665Y-152625D01*
X63440Y-153458D01*
X63750Y-155125D01*
X63440Y-156792D01*
X62510Y-157833D01*
X61425Y-158458D01*
X57550D01*
G01X61425D02*
X63750Y-164500D01*
G01X73050D02*
X72120Y-164292D01*
X71190Y-163459D01*
X70570Y-162000D01*
X70260Y-160333D01*
X70570Y-158667D01*
X71190Y-157208D01*
X72120Y-156375D01*
X73050Y-156167D01*
X73980Y-156375D01*
X74910Y-157208D01*
X75530Y-158667D01*
X75685Y-160333D01*
X75530Y-162000D01*
X74910Y-163459D01*
X73980Y-164292D01*
X73050Y-164500D01*
G01X87930Y-157208D02*
X86845Y-156375D01*
X85915Y-156167D01*
X84675Y-156583D01*
X83745Y-157417D01*
X83125Y-158875D01*
X82970Y-160333D01*
X83125Y-161792D01*
X83745Y-163042D01*
X84675Y-164083D01*
X85915Y-164500D01*
X87000Y-164083D01*
X87930Y-163250D01*
G01X95215Y-164500D02*
Y-152000D01*
G01X100175Y-156167D02*
X95215Y-160958D01*
G01X97230Y-159083D02*
X100485Y-164500D01*
G01X107925Y-158875D02*
X112885D01*
X112420Y-157417D01*
X111645Y-156583D01*
X110560Y-156167D01*
X109475Y-156375D01*
X108545Y-157000D01*
X107925Y-158458D01*
X107615Y-159709D01*
Y-160958D01*
X107925Y-162208D01*
X108700Y-163459D01*
X109630Y-164292D01*
X110715Y-164500D01*
X111800Y-164083D01*
X112885Y-162834D01*
G01X122650Y-152000D02*
Y-164500D01*
G01X120480Y-156167D02*
X124820D01*
G01X150550Y-164500D02*
X144350D01*
Y-152000D01*
X150550D01*
G01X148070Y-158042D02*
X144350D01*
G01X155820Y-164500D02*
Y-152000D01*
X159850Y-162417D01*
X163880Y-152000D01*
Y-164500D01*
G01X168995Y-162834D02*
X170235Y-163875D01*
X171630Y-164500D01*
X172870D01*
X174110Y-163875D01*
X175040Y-162834D01*
X175505Y-161375D01*
X175195Y-159917D01*
X174420Y-158667D01*
X173025Y-157833D01*
X171165Y-157417D01*
X170080Y-156583D01*
X169615Y-155125D01*
X169925Y-153667D01*
X170700Y-152625D01*
X171785Y-152000D01*
X172870D01*
X173955Y-152417D01*
X174885Y-153458D01*
G01X86690Y-174400D02*
X87610D01*
G01X87150D02*
Y-177500D01*
G01X86690D02*
X87610D01*
G01X90250Y-174400D02*
Y-177500D01*
G01X89368Y-174400D02*
X91132D01*
G01X95990D02*
X96910D01*
G01X96450D02*
Y-177500D01*
G01X95990D02*
X96910D01*
G01X98745Y-177087D02*
X99052Y-177345D01*
X99397Y-177500D01*
X99703D01*
X100010Y-177345D01*
X100240Y-177087D01*
X100355Y-176725D01*
X100278Y-176363D01*
X100087Y-176053D01*
X99742Y-175847D01*
X99282Y-175743D01*
X99013Y-175537D01*
X98898Y-175175D01*
X98975Y-174813D01*
X99167Y-174555D01*
X99435Y-174400D01*
X99703D01*
X99972Y-174503D01*
X100202Y-174762D01*
G01X104983Y-177500D02*
Y-174400D01*
X105942D01*
X106248Y-174555D01*
X106440Y-174762D01*
X106517Y-175175D01*
X106440Y-175588D01*
X106210Y-175847D01*
X105942Y-176002D01*
X104983D01*
G01X105942D02*
X106517Y-177500D01*
G01X108850D02*
X108543Y-177448D01*
X108275Y-177242D01*
X108045Y-176932D01*
X107892Y-176570D01*
X107815Y-176157D01*
Y-175743D01*
X107892Y-175330D01*
X108045Y-174968D01*
X108275Y-174658D01*
X108543Y-174452D01*
X108850Y-174400D01*
X109157Y-174452D01*
X109425Y-174658D01*
X109655Y-174968D01*
X109808Y-175330D01*
X109885Y-175743D01*
Y-176157D01*
X109808Y-176570D01*
X109655Y-176932D01*
X109425Y-177242D01*
X109157Y-177448D01*
X108850Y-177500D01*
G01X112793Y-174658D02*
X112563Y-174503D01*
X112295Y-174400D01*
X111988D01*
X111643Y-174555D01*
X111375Y-174813D01*
X111183Y-175123D01*
X111030Y-175640D01*
X110992Y-176105D01*
X111068Y-176570D01*
X111183Y-176880D01*
X111413Y-177190D01*
X111682Y-177397D01*
X111950Y-177500D01*
X112218D01*
X112487Y-177397D01*
X112717Y-177242D01*
X112908Y-177035D01*
G01X114207Y-177500D02*
Y-174400D01*
G01X115663D02*
X114207Y-176312D01*
G01X115893Y-177500D02*
X114858Y-175433D01*
G01X118917Y-177500D02*
X117383D01*
Y-174400D01*
X118917D01*
G01X118303Y-175898D02*
X117383D01*
G01X121250Y-174400D02*
Y-177500D01*
G01X120368Y-174400D02*
X122132D01*
G01X126645Y-177087D02*
X126952Y-177345D01*
X127297Y-177500D01*
X127603D01*
X127910Y-177345D01*
X128140Y-177087D01*
X128255Y-176725D01*
X128178Y-176363D01*
X127987Y-176053D01*
X127642Y-175847D01*
X127182Y-175743D01*
X126913Y-175537D01*
X126798Y-175175D01*
X126875Y-174813D01*
X127067Y-174555D01*
X127335Y-174400D01*
X127603D01*
X127872Y-174503D01*
X128102Y-174762D01*
G01X131393Y-174658D02*
X131163Y-174503D01*
X130895Y-174400D01*
X130588D01*
X130243Y-174555D01*
X129975Y-174813D01*
X129783Y-175123D01*
X129630Y-175640D01*
X129592Y-176105D01*
X129668Y-176570D01*
X129783Y-176880D01*
X130013Y-177190D01*
X130282Y-177397D01*
X130550Y-177500D01*
X130818D01*
X131087Y-177397D01*
X131317Y-177242D01*
X131508Y-177035D01*
G01X133190Y-174400D02*
X134110D01*
G01X133650D02*
Y-177500D01*
G01X133190D02*
X134110D01*
G01X137517D02*
X135983D01*
Y-174400D01*
X137517D01*
G01X136903Y-175898D02*
X135983D01*
G01X138968Y-177500D02*
Y-174400D01*
X140732Y-177500D01*
Y-174400D01*
G01X143793Y-174658D02*
X143563Y-174503D01*
X143295Y-174400D01*
X142988D01*
X142643Y-174555D01*
X142375Y-174813D01*
X142183Y-175123D01*
X142030Y-175640D01*
X141992Y-176105D01*
X142068Y-176570D01*
X142183Y-176880D01*
X142413Y-177190D01*
X142682Y-177397D01*
X142950Y-177500D01*
X143218D01*
X143487Y-177397D01*
X143717Y-177242D01*
X143908Y-177035D01*
G01X146817Y-177500D02*
X145283D01*
Y-174400D01*
X146817D01*
G01X146203Y-175898D02*
X145283D01*
G01X203000Y-207974D02*
Y-247974D01*
G01Y-185493D02*
Y-205493D01*
G01Y-144982D02*
Y-185493D01*
G01X423000Y-207974D02*
Y-248000D01*
G01X41119Y-234760D02*
X41652Y-235218D01*
X42252Y-235493D01*
X42786D01*
X43319Y-235218D01*
X43719Y-234760D01*
X43919Y-234118D01*
X43786Y-233476D01*
X43452Y-232926D01*
X42852Y-232560D01*
X42052Y-232376D01*
X41586Y-232010D01*
X41386Y-231368D01*
X41519Y-230726D01*
X41852Y-230268D01*
X42319Y-229993D01*
X42786D01*
X43252Y-230176D01*
X43652Y-230635D01*
G01X48919Y-235493D02*
Y-231826D01*
G01Y-232468D02*
X48652Y-232101D01*
X48252Y-231918D01*
X47786Y-231826D01*
X47319Y-232010D01*
X46919Y-232376D01*
X46652Y-232926D01*
X46519Y-233660D01*
X46652Y-234393D01*
X46919Y-234943D01*
X47319Y-235310D01*
X47786Y-235493D01*
X48252Y-235401D01*
X48652Y-235126D01*
X48919Y-234760D01*
G01X52919Y-235493D02*
Y-229993D01*
G01X57119Y-233018D02*
X59252D01*
X59052Y-232376D01*
X58719Y-232010D01*
X58252Y-231826D01*
X57786Y-231918D01*
X57386Y-232193D01*
X57119Y-232835D01*
X56986Y-233385D01*
Y-233935D01*
X57119Y-234485D01*
X57452Y-235035D01*
X57852Y-235401D01*
X58319Y-235493D01*
X58786Y-235310D01*
X59252Y-234760D01*
G01X62319Y-234851D02*
X62652Y-235218D01*
X63119Y-235493D01*
X63519D01*
X63919Y-235310D01*
X64186Y-235035D01*
X64319Y-234668D01*
X64252Y-234118D01*
X63986Y-233843D01*
X62786Y-233293D01*
X62519Y-232651D01*
X62652Y-232193D01*
X62919Y-231918D01*
X63319Y-231826D01*
X63719Y-231918D01*
X64119Y-232193D01*
G01X74786Y-232285D02*
X74319Y-231918D01*
X73919Y-231826D01*
X73386Y-232010D01*
X72986Y-232376D01*
X72719Y-233018D01*
X72652Y-233660D01*
X72719Y-234301D01*
X72986Y-234851D01*
X73386Y-235310D01*
X73919Y-235493D01*
X74386Y-235310D01*
X74786Y-234943D01*
G01X78919Y-235493D02*
X78519Y-235401D01*
X78119Y-235035D01*
X77852Y-234393D01*
X77719Y-233660D01*
X77852Y-232926D01*
X78119Y-232285D01*
X78519Y-231918D01*
X78919Y-231826D01*
X79319Y-231918D01*
X79719Y-232285D01*
X79986Y-232926D01*
X80052Y-233660D01*
X79986Y-234393D01*
X79719Y-235035D01*
X79319Y-235401D01*
X78919Y-235493D01*
G01X82986D02*
Y-231826D01*
G01Y-232743D02*
X83252Y-232285D01*
X83652Y-231918D01*
X84186Y-231826D01*
X84652Y-231918D01*
X85052Y-232285D01*
X85252Y-232926D01*
Y-235493D01*
G01X89319Y-229993D02*
Y-235493D01*
G01X88386Y-231826D02*
X90252D01*
G01X95719Y-235493D02*
Y-231826D01*
G01Y-232468D02*
X95452Y-232101D01*
X95052Y-231918D01*
X94586Y-231826D01*
X94119Y-232010D01*
X93719Y-232376D01*
X93452Y-232926D01*
X93319Y-233660D01*
X93452Y-234393D01*
X93719Y-234943D01*
X94119Y-235310D01*
X94586Y-235493D01*
X95052Y-235401D01*
X95452Y-235126D01*
X95719Y-234760D01*
G01X100786Y-232285D02*
X100319Y-231918D01*
X99919Y-231826D01*
X99386Y-232010D01*
X98986Y-232376D01*
X98719Y-233018D01*
X98652Y-233660D01*
X98719Y-234301D01*
X98986Y-234851D01*
X99386Y-235310D01*
X99919Y-235493D01*
X100386Y-235310D01*
X100786Y-234943D01*
G01X104919Y-229993D02*
Y-235493D01*
G01X103986Y-231826D02*
X105852D01*
G01X110119Y-235676D02*
X109986Y-235585D01*
Y-235401D01*
X110119Y-235310D01*
X110252Y-235401D01*
Y-235585D01*
X110119Y-235676D01*
G01Y-233201D02*
X109986Y-233110D01*
Y-232926D01*
X110119Y-232835D01*
X110252Y-232926D01*
Y-233110D01*
X110119Y-233201D01*
G01X41186Y-209993D02*
Y-215493D01*
X43852D01*
G01X48919D02*
Y-211826D01*
G01Y-212468D02*
X48652Y-212101D01*
X48252Y-211918D01*
X47786Y-211826D01*
X47319Y-212010D01*
X46919Y-212376D01*
X46652Y-212926D01*
X46519Y-213660D01*
X46652Y-214393D01*
X46919Y-214943D01*
X47319Y-215310D01*
X47786Y-215493D01*
X48252Y-215401D01*
X48652Y-215126D01*
X48919Y-214760D01*
G01X51519Y-217143D02*
X51919Y-217326D01*
X52452Y-217143D01*
X52786Y-216776D01*
X53052Y-216318D01*
X53452Y-214851D01*
X54319Y-211826D01*
G01X52186D02*
X53452Y-214851D01*
G01X58119Y-215493D02*
X57719Y-215401D01*
X57319Y-215035D01*
X57052Y-214393D01*
X56919Y-213660D01*
X57052Y-212926D01*
X57319Y-212285D01*
X57719Y-211918D01*
X58119Y-211826D01*
X58519Y-211918D01*
X58919Y-212285D01*
X59186Y-212926D01*
X59252Y-213660D01*
X59186Y-214393D01*
X58919Y-215035D01*
X58519Y-215401D01*
X58119Y-215493D01*
G01X62186Y-211826D02*
Y-214393D01*
X62452Y-215035D01*
X62852Y-215401D01*
X63319Y-215493D01*
X63786Y-215401D01*
X64186Y-215035D01*
X64452Y-214393D01*
G01Y-215493D02*
Y-211826D01*
G01X68519Y-209993D02*
Y-215493D01*
G01X67586Y-211826D02*
X69452D01*
G01X80119Y-209993D02*
Y-215493D01*
G01Y-214668D02*
X79852Y-215126D01*
X79452Y-215401D01*
X78986Y-215493D01*
X78452Y-215310D01*
X78052Y-214851D01*
X77786Y-214301D01*
X77719Y-213660D01*
X77786Y-213018D01*
X78052Y-212468D01*
X78452Y-212010D01*
X78986Y-211826D01*
X79452Y-211918D01*
X79786Y-212101D01*
X80119Y-212468D01*
G01X83119Y-213018D02*
X85252D01*
X85052Y-212376D01*
X84719Y-212010D01*
X84252Y-211826D01*
X83786Y-211918D01*
X83386Y-212193D01*
X83119Y-212835D01*
X82986Y-213385D01*
Y-213935D01*
X83119Y-214485D01*
X83452Y-215035D01*
X83852Y-215401D01*
X84319Y-215493D01*
X84786Y-215310D01*
X85252Y-214760D01*
G01X88319Y-214851D02*
X88652Y-215218D01*
X89119Y-215493D01*
X89519D01*
X89919Y-215310D01*
X90186Y-215035D01*
X90319Y-214668D01*
X90252Y-214118D01*
X89986Y-213843D01*
X88786Y-213293D01*
X88519Y-212651D01*
X88652Y-212193D01*
X88919Y-211918D01*
X89319Y-211826D01*
X89719Y-211918D01*
X90119Y-212193D01*
G01X94519Y-211826D02*
Y-215493D01*
G01Y-210360D02*
X94386Y-210268D01*
Y-210085D01*
X94519Y-209993D01*
X94652Y-210085D01*
Y-210268D01*
X94519Y-210360D01*
G01X98786Y-216868D02*
X99252Y-217235D01*
X99786Y-217326D01*
X100252Y-217235D01*
X100652Y-216776D01*
X100919Y-216135D01*
Y-211826D01*
G01Y-212560D02*
X100652Y-212193D01*
X100252Y-211918D01*
X99786Y-211826D01*
X99252Y-212010D01*
X98919Y-212376D01*
X98652Y-213018D01*
X98519Y-213660D01*
X98586Y-214210D01*
X98852Y-214851D01*
X99252Y-215310D01*
X99786Y-215493D01*
X100186Y-215401D01*
X100652Y-215035D01*
X100919Y-214668D01*
G01X103786Y-215493D02*
Y-211826D01*
G01Y-212743D02*
X104052Y-212285D01*
X104452Y-211918D01*
X104986Y-211826D01*
X105452Y-211918D01*
X105852Y-212285D01*
X106052Y-212926D01*
Y-215493D01*
G01X109119Y-213018D02*
X111252D01*
X111052Y-212376D01*
X110719Y-212010D01*
X110252Y-211826D01*
X109786Y-211918D01*
X109386Y-212193D01*
X109119Y-212835D01*
X108986Y-213385D01*
Y-213935D01*
X109119Y-214485D01*
X109452Y-215035D01*
X109852Y-215401D01*
X110319Y-215493D01*
X110786Y-215310D01*
X111252Y-214760D01*
G01X114386Y-215493D02*
Y-211826D01*
G01Y-212560D02*
X114719Y-212193D01*
X115052Y-211918D01*
X115519Y-211826D01*
X115852Y-211918D01*
X116252Y-212193D01*
G01X120519Y-215676D02*
X120386Y-215585D01*
Y-215401D01*
X120519Y-215310D01*
X120652Y-215401D01*
Y-215585D01*
X120519Y-215676D01*
G01Y-213201D02*
X120386Y-213110D01*
Y-212926D01*
X120519Y-212835D01*
X120652Y-212926D01*
Y-213110D01*
X120519Y-213201D01*
G01X32667Y-198500D02*
Y-193000D01*
X34267D01*
X34800Y-193275D01*
X35200Y-193917D01*
X35333Y-194650D01*
X35200Y-195383D01*
X34867Y-195933D01*
X34267Y-196208D01*
X32667D01*
G01X40400Y-198500D02*
Y-194833D01*
G01Y-195475D02*
X40133Y-195108D01*
X39733Y-194925D01*
X39267Y-194833D01*
X38800Y-195017D01*
X38400Y-195383D01*
X38133Y-195933D01*
X38000Y-196667D01*
X38133Y-197400D01*
X38400Y-197950D01*
X38800Y-198317D01*
X39267Y-198500D01*
X39733Y-198408D01*
X40133Y-198133D01*
X40400Y-197767D01*
G01X43467Y-198500D02*
Y-194833D01*
G01Y-195567D02*
X43800Y-195200D01*
X44133Y-194925D01*
X44600Y-194833D01*
X44933Y-194925D01*
X45333Y-195200D01*
G01X49600Y-193000D02*
Y-198500D01*
G01X48667Y-194833D02*
X50533D01*
G01X58867Y-198500D02*
Y-194833D01*
G01Y-195750D02*
X59133Y-195292D01*
X59533Y-194925D01*
X60067Y-194833D01*
X60533Y-194925D01*
X60933Y-195292D01*
X61133Y-195933D01*
Y-198500D01*
G01X64067Y-194833D02*
Y-197400D01*
X64333Y-198042D01*
X64733Y-198408D01*
X65200Y-198500D01*
X65667Y-198408D01*
X66067Y-198042D01*
X66333Y-197400D01*
G01Y-198500D02*
Y-194833D01*
G01X68400Y-198500D02*
Y-194833D01*
G01Y-195842D02*
X68600Y-195383D01*
X68933Y-195017D01*
X69400Y-194833D01*
X69867Y-195017D01*
X70200Y-195383D01*
X70400Y-195842D01*
Y-198500D01*
G01Y-195842D02*
X70600Y-195383D01*
X70933Y-195017D01*
X71400Y-194833D01*
X71867Y-195017D01*
X72200Y-195383D01*
X72400Y-195933D01*
Y-198500D01*
G01X74400D02*
Y-193000D01*
G01Y-195750D02*
X74733Y-195200D01*
X75133Y-194925D01*
X75533Y-194833D01*
X76133Y-195017D01*
X76533Y-195383D01*
X76800Y-196025D01*
Y-196758D01*
X76667Y-197492D01*
X76400Y-198042D01*
X75933Y-198408D01*
X75533Y-198500D01*
X75133Y-198408D01*
X74733Y-198133D01*
X74400Y-197675D01*
G01X79800Y-196025D02*
X81933D01*
X81733Y-195383D01*
X81400Y-195017D01*
X80933Y-194833D01*
X80467Y-194925D01*
X80067Y-195200D01*
X79800Y-195842D01*
X79667Y-196392D01*
Y-196942D01*
X79800Y-197492D01*
X80133Y-198042D01*
X80533Y-198408D01*
X81000Y-198500D01*
X81467Y-198317D01*
X81933Y-197767D01*
G01X85067Y-198500D02*
Y-194833D01*
G01Y-195567D02*
X85400Y-195200D01*
X85733Y-194925D01*
X86200Y-194833D01*
X86533Y-194925D01*
X86933Y-195200D01*
G01X91200Y-198683D02*
X91067Y-198592D01*
Y-198408D01*
X91200Y-198317D01*
X91333Y-198408D01*
Y-198592D01*
X91200Y-198683D01*
G01Y-196208D02*
X91067Y-196117D01*
Y-195933D01*
X91200Y-195842D01*
X91333Y-195933D01*
Y-196117D01*
X91200Y-196208D01*
G01X112200Y-244267D02*
X112733Y-244725D01*
X113333Y-245000D01*
X113867D01*
X114400Y-244725D01*
X114800Y-244267D01*
X115000Y-243625D01*
X114867Y-242983D01*
X114533Y-242433D01*
X113933Y-242067D01*
X113133Y-241883D01*
X112667Y-241517D01*
X112467Y-240875D01*
X112600Y-240233D01*
X112933Y-239775D01*
X113400Y-239500D01*
X113867D01*
X114333Y-239683D01*
X114733Y-240142D01*
G01X119867Y-241792D02*
X119400Y-241425D01*
X119000Y-241333D01*
X118467Y-241517D01*
X118067Y-241883D01*
X117800Y-242525D01*
X117733Y-243167D01*
X117800Y-243808D01*
X118067Y-244358D01*
X118467Y-244817D01*
X119000Y-245000D01*
X119467Y-244817D01*
X119867Y-244450D01*
G01X124000Y-245000D02*
X123600Y-244908D01*
X123200Y-244542D01*
X122933Y-243900D01*
X122800Y-243167D01*
X122933Y-242433D01*
X123200Y-241792D01*
X123600Y-241425D01*
X124000Y-241333D01*
X124400Y-241425D01*
X124800Y-241792D01*
X125067Y-242433D01*
X125133Y-243167D01*
X125067Y-243900D01*
X124800Y-244542D01*
X124400Y-244908D01*
X124000Y-245000D01*
G01X129200Y-239500D02*
Y-245000D01*
G01X128267Y-241333D02*
X130133D01*
G01X134400Y-239500D02*
Y-245000D01*
G01X133467Y-241333D02*
X135333D01*
G01X143400Y-244267D02*
X143933Y-244725D01*
X144533Y-245000D01*
X145067D01*
X145600Y-244725D01*
X146000Y-244267D01*
X146200Y-243625D01*
X146067Y-242983D01*
X145733Y-242433D01*
X145133Y-242067D01*
X144333Y-241883D01*
X143867Y-241517D01*
X143667Y-240875D01*
X143800Y-240233D01*
X144133Y-239775D01*
X144600Y-239500D01*
X145067D01*
X145533Y-239683D01*
X145933Y-240142D01*
G01X151067Y-241792D02*
X150600Y-241425D01*
X150200Y-241333D01*
X149667Y-241517D01*
X149267Y-241883D01*
X149000Y-242525D01*
X148933Y-243167D01*
X149000Y-243808D01*
X149267Y-244358D01*
X149667Y-244817D01*
X150200Y-245000D01*
X150667Y-244817D01*
X151067Y-244450D01*
G01X154067Y-245000D02*
Y-239500D01*
G01Y-242158D02*
X154400Y-241700D01*
X154733Y-241425D01*
X155267Y-241333D01*
X155667Y-241425D01*
X156133Y-241792D01*
X156333Y-242342D01*
Y-245000D01*
G01X161600D02*
Y-241333D01*
G01Y-241975D02*
X161333Y-241608D01*
X160933Y-241425D01*
X160467Y-241333D01*
X160000Y-241517D01*
X159600Y-241883D01*
X159333Y-242433D01*
X159200Y-243167D01*
X159333Y-243900D01*
X159600Y-244450D01*
X160000Y-244817D01*
X160467Y-245000D01*
X160933Y-244908D01*
X161333Y-244633D01*
X161600Y-244267D01*
G01X164600Y-242525D02*
X166733D01*
X166533Y-241883D01*
X166200Y-241517D01*
X165733Y-241333D01*
X165267Y-241425D01*
X164867Y-241700D01*
X164600Y-242342D01*
X164467Y-242892D01*
Y-243442D01*
X164600Y-243992D01*
X164933Y-244542D01*
X165333Y-244908D01*
X165800Y-245000D01*
X166267Y-244817D01*
X166733Y-244267D01*
G01X170800Y-239500D02*
Y-245000D01*
G01X169867Y-241333D02*
X171733D01*
G01X175000D02*
X177000D01*
X175000Y-245000D01*
X177000D01*
G01X181200D02*
Y-239500D01*
G01X185400Y-242525D02*
X187533D01*
X187333Y-241883D01*
X187000Y-241517D01*
X186533Y-241333D01*
X186067Y-241425D01*
X185667Y-241700D01*
X185400Y-242342D01*
X185267Y-242892D01*
Y-243442D01*
X185400Y-243992D01*
X185733Y-244542D01*
X186133Y-244908D01*
X186600Y-245000D01*
X187067Y-244817D01*
X187533Y-244267D01*
G01X118033Y-225000D02*
Y-219500D01*
X119367D01*
X119900Y-219775D01*
X120300Y-220142D01*
X120633Y-220692D01*
X120900Y-221333D01*
X120967Y-222250D01*
X120900Y-223167D01*
X120633Y-223808D01*
X120300Y-224358D01*
X119900Y-224725D01*
X119367Y-225000D01*
X118033D01*
G01X124700D02*
X124300Y-224908D01*
X123900Y-224542D01*
X123633Y-223900D01*
X123500Y-223167D01*
X123633Y-222433D01*
X123900Y-221792D01*
X124300Y-221425D01*
X124700Y-221333D01*
X125100Y-221425D01*
X125500Y-221792D01*
X125767Y-222433D01*
X125833Y-223167D01*
X125767Y-223900D01*
X125500Y-224542D01*
X125100Y-224908D01*
X124700Y-225000D01*
G01X128767D02*
Y-221333D01*
G01Y-222250D02*
X129033Y-221792D01*
X129433Y-221425D01*
X129967Y-221333D01*
X130433Y-221425D01*
X130833Y-221792D01*
X131033Y-222433D01*
Y-225000D01*
G01X133967D02*
Y-221333D01*
G01Y-222250D02*
X134233Y-221792D01*
X134633Y-221425D01*
X135167Y-221333D01*
X135633Y-221425D01*
X136033Y-221792D01*
X136233Y-222433D01*
Y-225000D01*
G01X145900Y-222250D02*
X147233D01*
Y-223900D01*
X146833Y-224450D01*
X146367Y-224817D01*
X145700Y-225000D01*
X145033Y-224817D01*
X144567Y-224450D01*
X144167Y-223900D01*
X143900Y-223258D01*
X143767Y-222525D01*
Y-221883D01*
X143900Y-221333D01*
X144167Y-220692D01*
X144567Y-220142D01*
X144967Y-219775D01*
X145500Y-219500D01*
X145967D01*
X146500Y-219683D01*
X146900Y-220050D01*
G01X149767Y-225000D02*
Y-221333D01*
G01Y-222067D02*
X150100Y-221700D01*
X150433Y-221425D01*
X150900Y-221333D01*
X151233Y-221425D01*
X151633Y-221700D01*
G01X155900Y-221333D02*
Y-225000D01*
G01Y-219867D02*
X155767Y-219775D01*
Y-219592D01*
X155900Y-219500D01*
X156033Y-219592D01*
Y-219775D01*
X155900Y-219867D01*
G01X160167Y-226375D02*
X160633Y-226742D01*
X161167Y-226833D01*
X161633Y-226742D01*
X162033Y-226283D01*
X162300Y-225642D01*
Y-221333D01*
G01Y-222067D02*
X162033Y-221700D01*
X161633Y-221425D01*
X161167Y-221333D01*
X160633Y-221517D01*
X160300Y-221883D01*
X160033Y-222525D01*
X159900Y-223167D01*
X159967Y-223717D01*
X160233Y-224358D01*
X160633Y-224817D01*
X161167Y-225000D01*
X161567Y-224908D01*
X162033Y-224542D01*
X162300Y-224175D01*
G01X165300Y-224358D02*
X165633Y-224725D01*
X166100Y-225000D01*
X166500D01*
X166900Y-224817D01*
X167167Y-224542D01*
X167300Y-224175D01*
X167233Y-223625D01*
X166967Y-223350D01*
X165767Y-222800D01*
X165500Y-222158D01*
X165633Y-221700D01*
X165900Y-221425D01*
X166300Y-221333D01*
X166700Y-221425D01*
X167100Y-221700D01*
G01X170300Y-225000D02*
Y-219500D01*
G01Y-222250D02*
X170633Y-221700D01*
X171033Y-221425D01*
X171433Y-221333D01*
X172033Y-221517D01*
X172433Y-221883D01*
X172700Y-222525D01*
Y-223258D01*
X172567Y-223992D01*
X172300Y-224542D01*
X171833Y-224908D01*
X171433Y-225000D01*
X171033Y-224908D01*
X170633Y-224633D01*
X170300Y-224175D01*
G01X175300Y-226650D02*
X175700Y-226833D01*
X176233Y-226650D01*
X176567Y-226283D01*
X176833Y-225825D01*
X177233Y-224358D01*
X178100Y-221333D01*
G01X175967D02*
X177233Y-224358D01*
G01X111167Y-201000D02*
Y-195500D01*
X112833D01*
X113367Y-195775D01*
X113700Y-196142D01*
X113833Y-196875D01*
X113700Y-197608D01*
X113300Y-198067D01*
X112833Y-198342D01*
X111167D01*
G01X112833D02*
X113833Y-201000D01*
G01X116167D02*
Y-195500D01*
X119233Y-201000D01*
Y-195500D01*
G01X121567Y-201000D02*
Y-195500D01*
X123233D01*
X123767Y-195775D01*
X124100Y-196142D01*
X124233Y-196875D01*
X124100Y-197608D01*
X123700Y-198067D01*
X123233Y-198342D01*
X121567D01*
G01X123233D02*
X124233Y-201000D01*
G01X126433D02*
X128100Y-195500D01*
X129767Y-201000D01*
G01X129167Y-199075D02*
X127033D01*
G01X131833Y-201000D02*
Y-195500D01*
X133167D01*
X133700Y-195775D01*
X134100Y-196142D01*
X134433Y-196692D01*
X134700Y-197333D01*
X134767Y-198250D01*
X134700Y-199167D01*
X134433Y-199808D01*
X134100Y-200358D01*
X133700Y-200725D01*
X133167Y-201000D01*
X131833D01*
G01X138500D02*
Y-195500D01*
X137700Y-196600D01*
G01Y-201000D02*
X139300D01*
G01X142833Y-199167D02*
X144567D01*
G01X147500Y-200267D02*
X148033Y-200725D01*
X148633Y-201000D01*
X149167D01*
X149700Y-200725D01*
X150100Y-200267D01*
X150300Y-199625D01*
X150167Y-198983D01*
X149833Y-198433D01*
X149233Y-198067D01*
X148433Y-197883D01*
X147967Y-197517D01*
X147767Y-196875D01*
X147900Y-196233D01*
X148233Y-195775D01*
X148700Y-195500D01*
X149167D01*
X149633Y-195683D01*
X150033Y-196142D01*
G01X152633Y-201000D02*
Y-195500D01*
X153967D01*
X154500Y-195775D01*
X154900Y-196142D01*
X155233Y-196692D01*
X155500Y-197333D01*
X155567Y-198250D01*
X155500Y-199167D01*
X155233Y-199808D01*
X154900Y-200358D01*
X154500Y-200725D01*
X153967Y-201000D01*
X152633D01*
G01X157967D02*
Y-195500D01*
X159633D01*
X160167Y-195775D01*
X160500Y-196142D01*
X160633Y-196875D01*
X160500Y-197608D01*
X160100Y-198067D01*
X159633Y-198342D01*
X157967D01*
G01X159633D02*
X160633Y-201000D01*
G01X163633Y-199167D02*
X165367D01*
G01X168367Y-201000D02*
Y-195500D01*
X170033D01*
X170567Y-195775D01*
X170900Y-196142D01*
X171033Y-196875D01*
X170900Y-197608D01*
X170500Y-198067D01*
X170033Y-198342D01*
X168367D01*
G01X170033D02*
X171033Y-201000D01*
G01X173433Y-199900D02*
X173833Y-200542D01*
X174367Y-200908D01*
X174967Y-201000D01*
X175500Y-200908D01*
X176033Y-200450D01*
X176367Y-199900D01*
X176433Y-199350D01*
X176300Y-198708D01*
X175833Y-198250D01*
X175367Y-198067D01*
X174767D01*
G01X175367D02*
X175767Y-197792D01*
X176100Y-197333D01*
X176233Y-196783D01*
X176100Y-196233D01*
X175767Y-195775D01*
X175167Y-195500D01*
X174567Y-195592D01*
X173967Y-195958D01*
G01X213037Y-233060D02*
X213304Y-232785D01*
X213504Y-232326D01*
X213637Y-231685D01*
X213504Y-231135D01*
X213237Y-230768D01*
X212771Y-230493D01*
X210971D01*
Y-235993D01*
X213171D01*
X213637Y-235626D01*
X213904Y-235076D01*
X214037Y-234435D01*
X213904Y-233793D01*
X213504Y-233243D01*
X213037Y-233060D01*
X210971D01*
G01X217704Y-235993D02*
X217304Y-235901D01*
X216904Y-235535D01*
X216637Y-234893D01*
X216504Y-234160D01*
X216637Y-233426D01*
X216904Y-232785D01*
X217304Y-232418D01*
X217704Y-232326D01*
X218104Y-232418D01*
X218504Y-232785D01*
X218771Y-233426D01*
X218837Y-234160D01*
X218771Y-234893D01*
X218504Y-235535D01*
X218104Y-235901D01*
X217704Y-235993D01*
G01X224104D02*
Y-232326D01*
G01Y-232968D02*
X223837Y-232601D01*
X223437Y-232418D01*
X222971Y-232326D01*
X222504Y-232510D01*
X222104Y-232876D01*
X221837Y-233426D01*
X221704Y-234160D01*
X221837Y-234893D01*
X222104Y-235443D01*
X222504Y-235810D01*
X222971Y-235993D01*
X223437Y-235901D01*
X223837Y-235626D01*
X224104Y-235260D01*
G01X227171Y-235993D02*
Y-232326D01*
G01Y-233060D02*
X227504Y-232693D01*
X227837Y-232418D01*
X228304Y-232326D01*
X228637Y-232418D01*
X229037Y-232693D01*
G01X234504Y-230493D02*
Y-235993D01*
G01Y-235168D02*
X234237Y-235626D01*
X233837Y-235901D01*
X233371Y-235993D01*
X232837Y-235810D01*
X232437Y-235351D01*
X232171Y-234801D01*
X232104Y-234160D01*
X232171Y-233518D01*
X232437Y-232968D01*
X232837Y-232510D01*
X233371Y-232326D01*
X233837Y-232418D01*
X234171Y-232601D01*
X234504Y-232968D01*
G01X242571Y-235993D02*
Y-232326D01*
G01Y-233243D02*
X242837Y-232785D01*
X243237Y-232418D01*
X243771Y-232326D01*
X244237Y-232418D01*
X244637Y-232785D01*
X244837Y-233426D01*
Y-235993D01*
G01X250104D02*
Y-232326D01*
G01Y-232968D02*
X249837Y-232601D01*
X249437Y-232418D01*
X248971Y-232326D01*
X248504Y-232510D01*
X248104Y-232876D01*
X247837Y-233426D01*
X247704Y-234160D01*
X247837Y-234893D01*
X248104Y-235443D01*
X248504Y-235810D01*
X248971Y-235993D01*
X249437Y-235901D01*
X249837Y-235626D01*
X250104Y-235260D01*
G01X252104Y-235993D02*
Y-232326D01*
G01Y-233335D02*
X252304Y-232876D01*
X252637Y-232510D01*
X253104Y-232326D01*
X253571Y-232510D01*
X253904Y-232876D01*
X254104Y-233335D01*
Y-235993D01*
G01Y-233335D02*
X254304Y-232876D01*
X254637Y-232510D01*
X255104Y-232326D01*
X255571Y-232510D01*
X255904Y-232876D01*
X256104Y-233426D01*
Y-235993D01*
G01X258304Y-233518D02*
X260437D01*
X260237Y-232876D01*
X259904Y-232510D01*
X259437Y-232326D01*
X258971Y-232418D01*
X258571Y-232693D01*
X258304Y-233335D01*
X258171Y-233885D01*
Y-234435D01*
X258304Y-234985D01*
X258637Y-235535D01*
X259037Y-235901D01*
X259504Y-235993D01*
X259971Y-235810D01*
X260437Y-235260D01*
G01X264504Y-236176D02*
X264371Y-236085D01*
Y-235901D01*
X264504Y-235810D01*
X264637Y-235901D01*
Y-236085D01*
X264504Y-236176D01*
G01Y-233701D02*
X264371Y-233610D01*
Y-233426D01*
X264504Y-233335D01*
X264637Y-233426D01*
Y-233610D01*
X264504Y-233701D01*
G01X209541Y-215470D02*
Y-209970D01*
X210875D01*
X211408Y-210245D01*
X211808Y-210612D01*
X212141Y-211162D01*
X212408Y-211803D01*
X212475Y-212720D01*
X212408Y-213637D01*
X212141Y-214278D01*
X211808Y-214828D01*
X211408Y-215195D01*
X210875Y-215470D01*
X209541D01*
G01X215208Y-212995D02*
X217341D01*
X217141Y-212353D01*
X216808Y-211987D01*
X216341Y-211803D01*
X215875Y-211895D01*
X215475Y-212170D01*
X215208Y-212812D01*
X215075Y-213362D01*
Y-213912D01*
X215208Y-214462D01*
X215541Y-215012D01*
X215941Y-215378D01*
X216408Y-215470D01*
X216875Y-215287D01*
X217341Y-214737D01*
G01X220408Y-214828D02*
X220741Y-215195D01*
X221208Y-215470D01*
X221608D01*
X222008Y-215287D01*
X222275Y-215012D01*
X222408Y-214645D01*
X222341Y-214095D01*
X222075Y-213820D01*
X220875Y-213270D01*
X220608Y-212628D01*
X220741Y-212170D01*
X221008Y-211895D01*
X221408Y-211803D01*
X221808Y-211895D01*
X222208Y-212170D01*
G01X226608Y-211803D02*
Y-215470D01*
G01Y-210337D02*
X226475Y-210245D01*
Y-210062D01*
X226608Y-209970D01*
X226741Y-210062D01*
Y-210245D01*
X226608Y-210337D01*
G01X230875Y-216845D02*
X231341Y-217212D01*
X231875Y-217303D01*
X232341Y-217212D01*
X232741Y-216753D01*
X233008Y-216112D01*
Y-211803D01*
G01Y-212537D02*
X232741Y-212170D01*
X232341Y-211895D01*
X231875Y-211803D01*
X231341Y-211987D01*
X231008Y-212353D01*
X230741Y-212995D01*
X230608Y-213637D01*
X230675Y-214187D01*
X230941Y-214828D01*
X231341Y-215287D01*
X231875Y-215470D01*
X232275Y-215378D01*
X232741Y-215012D01*
X233008Y-214645D01*
G01X235875Y-215470D02*
Y-211803D01*
G01Y-212720D02*
X236141Y-212262D01*
X236541Y-211895D01*
X237075Y-211803D01*
X237541Y-211895D01*
X237941Y-212262D01*
X238141Y-212903D01*
Y-215470D01*
G01X246408Y-212995D02*
X248541D01*
X248341Y-212353D01*
X248008Y-211987D01*
X247541Y-211803D01*
X247075Y-211895D01*
X246675Y-212170D01*
X246408Y-212812D01*
X246275Y-213362D01*
Y-213912D01*
X246408Y-214462D01*
X246741Y-215012D01*
X247141Y-215378D01*
X247608Y-215470D01*
X248075Y-215287D01*
X248541Y-214737D01*
G01X251475Y-215470D02*
Y-211803D01*
G01Y-212720D02*
X251741Y-212262D01*
X252141Y-211895D01*
X252675Y-211803D01*
X253141Y-211895D01*
X253541Y-212262D01*
X253741Y-212903D01*
Y-215470D01*
G01X256875Y-216845D02*
X257341Y-217212D01*
X257875Y-217303D01*
X258341Y-217212D01*
X258741Y-216753D01*
X259008Y-216112D01*
Y-211803D01*
G01Y-212537D02*
X258741Y-212170D01*
X258341Y-211895D01*
X257875Y-211803D01*
X257341Y-211987D01*
X257008Y-212353D01*
X256741Y-212995D01*
X256608Y-213637D01*
X256675Y-214187D01*
X256941Y-214828D01*
X257341Y-215287D01*
X257875Y-215470D01*
X258275Y-215378D01*
X258741Y-215012D01*
X259008Y-214645D01*
G01X263008Y-211803D02*
Y-215470D01*
G01Y-210337D02*
X262875Y-210245D01*
Y-210062D01*
X263008Y-209970D01*
X263141Y-210062D01*
Y-210245D01*
X263008Y-210337D01*
G01X267075Y-215470D02*
Y-211803D01*
G01Y-212720D02*
X267341Y-212262D01*
X267741Y-211895D01*
X268275Y-211803D01*
X268741Y-211895D01*
X269141Y-212262D01*
X269341Y-212903D01*
Y-215470D01*
G01X272408Y-212995D02*
X274541D01*
X274341Y-212353D01*
X274008Y-211987D01*
X273541Y-211803D01*
X273075Y-211895D01*
X272675Y-212170D01*
X272408Y-212812D01*
X272275Y-213362D01*
Y-213912D01*
X272408Y-214462D01*
X272741Y-215012D01*
X273141Y-215378D01*
X273608Y-215470D01*
X274075Y-215287D01*
X274541Y-214737D01*
G01X277608Y-212995D02*
X279741D01*
X279541Y-212353D01*
X279208Y-211987D01*
X278741Y-211803D01*
X278275Y-211895D01*
X277875Y-212170D01*
X277608Y-212812D01*
X277475Y-213362D01*
Y-213912D01*
X277608Y-214462D01*
X277941Y-215012D01*
X278341Y-215378D01*
X278808Y-215470D01*
X279275Y-215287D01*
X279741Y-214737D01*
G01X282875Y-215470D02*
Y-211803D01*
G01Y-212537D02*
X283208Y-212170D01*
X283541Y-211895D01*
X284008Y-211803D01*
X284341Y-211895D01*
X284741Y-212170D01*
G01X289008Y-215653D02*
X288875Y-215562D01*
Y-215378D01*
X289008Y-215287D01*
X289141Y-215378D01*
Y-215562D01*
X289008Y-215653D01*
G01Y-213178D02*
X288875Y-213087D01*
Y-212903D01*
X289008Y-212812D01*
X289141Y-212903D01*
Y-213087D01*
X289008Y-213178D01*
G01X213333Y-177811D02*
X214133Y-181478D01*
X215000Y-177811D01*
X215867Y-181478D01*
X216667Y-177811D01*
G01X220200D02*
Y-181478D01*
G01Y-176345D02*
X220067Y-176253D01*
Y-176070D01*
X220200Y-175978D01*
X220333Y-176070D01*
Y-176253D01*
X220200Y-176345D01*
G01X225400Y-175978D02*
Y-181478D01*
G01X224467Y-177811D02*
X226333D01*
G01X229467Y-181478D02*
Y-175978D01*
G01Y-178636D02*
X229800Y-178178D01*
X230133Y-177903D01*
X230667Y-177811D01*
X231067Y-177903D01*
X231533Y-178270D01*
X231733Y-178820D01*
Y-181478D01*
G01X235800D02*
X235400Y-181386D01*
X235000Y-181020D01*
X234733Y-180378D01*
X234600Y-179645D01*
X234733Y-178911D01*
X235000Y-178270D01*
X235400Y-177903D01*
X235800Y-177811D01*
X236200Y-177903D01*
X236600Y-178270D01*
X236867Y-178911D01*
X236933Y-179645D01*
X236867Y-180378D01*
X236600Y-181020D01*
X236200Y-181386D01*
X235800Y-181478D01*
G01X239867Y-177811D02*
Y-180378D01*
X240133Y-181020D01*
X240533Y-181386D01*
X241000Y-181478D01*
X241467Y-181386D01*
X241867Y-181020D01*
X242133Y-180378D01*
G01Y-181478D02*
Y-177811D01*
G01X246200Y-175978D02*
Y-181478D01*
G01X245267Y-177811D02*
X247133D01*
G01X256600Y-175978D02*
Y-181478D01*
G01X255667Y-177811D02*
X257533D01*
G01X260667Y-181478D02*
Y-175978D01*
G01Y-178636D02*
X261000Y-178178D01*
X261333Y-177903D01*
X261867Y-177811D01*
X262267Y-177903D01*
X262733Y-178270D01*
X262933Y-178820D01*
Y-181478D01*
G01X266000Y-179003D02*
X268133D01*
X267933Y-178361D01*
X267600Y-177995D01*
X267133Y-177811D01*
X266667Y-177903D01*
X266267Y-178178D01*
X266000Y-178820D01*
X265867Y-179370D01*
Y-179920D01*
X266000Y-180470D01*
X266333Y-181020D01*
X266733Y-181386D01*
X267200Y-181478D01*
X267667Y-181295D01*
X268133Y-180745D01*
G01X276200Y-183311D02*
Y-177811D01*
G01Y-178636D02*
X276533Y-178178D01*
X276867Y-177903D01*
X277400Y-177811D01*
X277867Y-177903D01*
X278333Y-178361D01*
X278533Y-179003D01*
X278600Y-179645D01*
X278533Y-180286D01*
X278333Y-180928D01*
X277933Y-181295D01*
X277400Y-181478D01*
X276933Y-181386D01*
X276467Y-181111D01*
X276200Y-180745D01*
G01X281667Y-181478D02*
Y-177811D01*
G01Y-178545D02*
X282000Y-178178D01*
X282333Y-177903D01*
X282800Y-177811D01*
X283133Y-177903D01*
X283533Y-178178D01*
G01X287800Y-177811D02*
Y-181478D01*
G01Y-176345D02*
X287667Y-176253D01*
Y-176070D01*
X287800Y-175978D01*
X287933Y-176070D01*
Y-176253D01*
X287800Y-176345D01*
G01X293000Y-181478D02*
X292600Y-181386D01*
X292200Y-181020D01*
X291933Y-180378D01*
X291800Y-179645D01*
X291933Y-178911D01*
X292200Y-178270D01*
X292600Y-177903D01*
X293000Y-177811D01*
X293400Y-177903D01*
X293800Y-178270D01*
X294067Y-178911D01*
X294133Y-179645D01*
X294067Y-180378D01*
X293800Y-181020D01*
X293400Y-181386D01*
X293000Y-181478D01*
G01X297267D02*
Y-177811D01*
G01Y-178545D02*
X297600Y-178178D01*
X297933Y-177903D01*
X298400Y-177811D01*
X298733Y-177903D01*
X299133Y-178178D01*
G01X306933Y-177811D02*
X307733Y-181478D01*
X308600Y-177811D01*
X309467Y-181478D01*
X310267Y-177811D01*
G01X312867Y-181478D02*
Y-177811D01*
G01Y-178545D02*
X313200Y-178178D01*
X313533Y-177903D01*
X314000Y-177811D01*
X314333Y-177903D01*
X314733Y-178178D01*
G01X319000Y-177811D02*
Y-181478D01*
G01Y-176345D02*
X318867Y-176253D01*
Y-176070D01*
X319000Y-175978D01*
X319133Y-176070D01*
Y-176253D01*
X319000Y-176345D01*
G01X324200Y-175978D02*
Y-181478D01*
G01X323267Y-177811D02*
X325133D01*
G01X329400Y-175978D02*
Y-181478D01*
G01X328467Y-177811D02*
X330333D01*
G01X333600Y-179003D02*
X335733D01*
X335533Y-178361D01*
X335200Y-177995D01*
X334733Y-177811D01*
X334267Y-177903D01*
X333867Y-178178D01*
X333600Y-178820D01*
X333467Y-179370D01*
Y-179920D01*
X333600Y-180470D01*
X333933Y-181020D01*
X334333Y-181386D01*
X334800Y-181478D01*
X335267Y-181295D01*
X335733Y-180745D01*
G01X338667Y-181478D02*
Y-177811D01*
G01Y-178728D02*
X338933Y-178270D01*
X339333Y-177903D01*
X339867Y-177811D01*
X340333Y-177903D01*
X340733Y-178270D01*
X340933Y-178911D01*
Y-181478D01*
G01X351267Y-178270D02*
X350800Y-177903D01*
X350400Y-177811D01*
X349867Y-177995D01*
X349467Y-178361D01*
X349200Y-179003D01*
X349133Y-179645D01*
X349200Y-180286D01*
X349467Y-180836D01*
X349867Y-181295D01*
X350400Y-181478D01*
X350867Y-181295D01*
X351267Y-180928D01*
G01X355400Y-181478D02*
X355000Y-181386D01*
X354600Y-181020D01*
X354333Y-180378D01*
X354200Y-179645D01*
X354333Y-178911D01*
X354600Y-178270D01*
X355000Y-177903D01*
X355400Y-177811D01*
X355800Y-177903D01*
X356200Y-178270D01*
X356467Y-178911D01*
X356533Y-179645D01*
X356467Y-180378D01*
X356200Y-181020D01*
X355800Y-181386D01*
X355400Y-181478D01*
G01X359467D02*
Y-177811D01*
G01Y-178728D02*
X359733Y-178270D01*
X360133Y-177903D01*
X360667Y-177811D01*
X361133Y-177903D01*
X361533Y-178270D01*
X361733Y-178911D01*
Y-181478D01*
G01X364800Y-180836D02*
X365133Y-181203D01*
X365600Y-181478D01*
X366000D01*
X366400Y-181295D01*
X366667Y-181020D01*
X366800Y-180653D01*
X366733Y-180103D01*
X366467Y-179828D01*
X365267Y-179278D01*
X365000Y-178636D01*
X365133Y-178178D01*
X365400Y-177903D01*
X365800Y-177811D01*
X366200Y-177903D01*
X366600Y-178178D01*
G01X370000Y-179003D02*
X372133D01*
X371933Y-178361D01*
X371600Y-177995D01*
X371133Y-177811D01*
X370667Y-177903D01*
X370267Y-178178D01*
X370000Y-178820D01*
X369867Y-179370D01*
Y-179920D01*
X370000Y-180470D01*
X370333Y-181020D01*
X370733Y-181386D01*
X371200Y-181478D01*
X371667Y-181295D01*
X372133Y-180745D01*
G01X375067Y-181478D02*
Y-177811D01*
G01Y-178728D02*
X375333Y-178270D01*
X375733Y-177903D01*
X376267Y-177811D01*
X376733Y-177903D01*
X377133Y-178270D01*
X377333Y-178911D01*
Y-181478D01*
G01X381400Y-175978D02*
Y-181478D01*
G01X380467Y-177811D02*
X382333D01*
G01X391800Y-181478D02*
X391400Y-181386D01*
X391000Y-181020D01*
X390733Y-180378D01*
X390600Y-179645D01*
X390733Y-178911D01*
X391000Y-178270D01*
X391400Y-177903D01*
X391800Y-177811D01*
X392200Y-177903D01*
X392600Y-178270D01*
X392867Y-178911D01*
X392933Y-179645D01*
X392867Y-180378D01*
X392600Y-181020D01*
X392200Y-181386D01*
X391800Y-181478D01*
G01X396600D02*
Y-176803D01*
X396733Y-176345D01*
X397000Y-176070D01*
X397400Y-175978D01*
X397800Y-176161D01*
X398000Y-176620D01*
G01X397200Y-178178D02*
X395867D01*
G01X207683Y-187474D02*
Y-192974D01*
X210349D01*
G01X215416D02*
Y-189307D01*
G01Y-189949D02*
X215149Y-189582D01*
X214749Y-189399D01*
X214283Y-189307D01*
X213816Y-189491D01*
X213416Y-189857D01*
X213149Y-190407D01*
X213016Y-191141D01*
X213149Y-191874D01*
X213416Y-192424D01*
X213816Y-192791D01*
X214283Y-192974D01*
X214749Y-192882D01*
X215149Y-192607D01*
X215416Y-192241D01*
G01X218016Y-194624D02*
X218416Y-194807D01*
X218949Y-194624D01*
X219283Y-194257D01*
X219549Y-193799D01*
X219949Y-192332D01*
X220816Y-189307D01*
G01X218683D02*
X219949Y-192332D01*
G01X223616Y-190499D02*
X225749D01*
X225549Y-189857D01*
X225216Y-189491D01*
X224749Y-189307D01*
X224283Y-189399D01*
X223883Y-189674D01*
X223616Y-190316D01*
X223483Y-190866D01*
Y-191416D01*
X223616Y-191966D01*
X223949Y-192516D01*
X224349Y-192882D01*
X224816Y-192974D01*
X225283Y-192791D01*
X225749Y-192241D01*
G01X228883Y-192974D02*
Y-189307D01*
G01Y-190041D02*
X229216Y-189674D01*
X229549Y-189399D01*
X230016Y-189307D01*
X230349Y-189399D01*
X230749Y-189674D01*
G01X235016Y-193157D02*
X234883Y-193066D01*
Y-192882D01*
X235016Y-192791D01*
X235149Y-192882D01*
Y-193066D01*
X235016Y-193157D01*
G01Y-190682D02*
X234883Y-190591D01*
Y-190407D01*
X235016Y-190316D01*
X235149Y-190407D01*
Y-190591D01*
X235016Y-190682D01*
G01X213800Y-168311D02*
Y-162811D01*
G01Y-163636D02*
X214133Y-163178D01*
X214467Y-162903D01*
X215000Y-162811D01*
X215467Y-162903D01*
X215933Y-163361D01*
X216133Y-164003D01*
X216200Y-164645D01*
X216133Y-165286D01*
X215933Y-165928D01*
X215533Y-166295D01*
X215000Y-166478D01*
X214533Y-166386D01*
X214067Y-166111D01*
X213800Y-165745D01*
G01X219267Y-166478D02*
Y-162811D01*
G01Y-163545D02*
X219600Y-163178D01*
X219933Y-162903D01*
X220400Y-162811D01*
X220733Y-162903D01*
X221133Y-163178D01*
G01X225400Y-166478D02*
X225000Y-166386D01*
X224600Y-166020D01*
X224333Y-165378D01*
X224200Y-164645D01*
X224333Y-163911D01*
X224600Y-163270D01*
X225000Y-162903D01*
X225400Y-162811D01*
X225800Y-162903D01*
X226200Y-163270D01*
X226467Y-163911D01*
X226533Y-164645D01*
X226467Y-165378D01*
X226200Y-166020D01*
X225800Y-166386D01*
X225400Y-166478D01*
G01X229400Y-168311D02*
Y-162811D01*
G01Y-163636D02*
X229733Y-163178D01*
X230067Y-162903D01*
X230600Y-162811D01*
X231067Y-162903D01*
X231533Y-163361D01*
X231733Y-164003D01*
X231800Y-164645D01*
X231733Y-165286D01*
X231533Y-165928D01*
X231133Y-166295D01*
X230600Y-166478D01*
X230133Y-166386D01*
X229667Y-166111D01*
X229400Y-165745D01*
G01X234867Y-166478D02*
Y-162811D01*
G01Y-163545D02*
X235200Y-163178D01*
X235533Y-162903D01*
X236000Y-162811D01*
X236333Y-162903D01*
X236733Y-163178D01*
G01X241000Y-162811D02*
Y-166478D01*
G01Y-161345D02*
X240867Y-161253D01*
Y-161070D01*
X241000Y-160978D01*
X241133Y-161070D01*
Y-161253D01*
X241000Y-161345D01*
G01X245200Y-164003D02*
X247333D01*
X247133Y-163361D01*
X246800Y-162995D01*
X246333Y-162811D01*
X245867Y-162903D01*
X245467Y-163178D01*
X245200Y-163820D01*
X245067Y-164370D01*
Y-164920D01*
X245200Y-165470D01*
X245533Y-166020D01*
X245933Y-166386D01*
X246400Y-166478D01*
X246867Y-166295D01*
X247333Y-165745D01*
G01X251400Y-160978D02*
Y-166478D01*
G01X250467Y-162811D02*
X252333D01*
G01X257800Y-166478D02*
Y-162811D01*
G01Y-163453D02*
X257533Y-163086D01*
X257133Y-162903D01*
X256667Y-162811D01*
X256200Y-162995D01*
X255800Y-163361D01*
X255533Y-163911D01*
X255400Y-164645D01*
X255533Y-165378D01*
X255800Y-165928D01*
X256200Y-166295D01*
X256667Y-166478D01*
X257133Y-166386D01*
X257533Y-166111D01*
X257800Y-165745D01*
G01X260867Y-166478D02*
Y-162811D01*
G01Y-163545D02*
X261200Y-163178D01*
X261533Y-162903D01*
X262000Y-162811D01*
X262333Y-162903D01*
X262733Y-163178D01*
G01X265600Y-168128D02*
X266000Y-168311D01*
X266533Y-168128D01*
X266867Y-167761D01*
X267133Y-167303D01*
X267533Y-165836D01*
X268400Y-162811D01*
G01X266267D02*
X267533Y-165836D01*
G01X276200Y-168311D02*
Y-162811D01*
G01Y-163636D02*
X276533Y-163178D01*
X276867Y-162903D01*
X277400Y-162811D01*
X277867Y-162903D01*
X278333Y-163361D01*
X278533Y-164003D01*
X278600Y-164645D01*
X278533Y-165286D01*
X278333Y-165928D01*
X277933Y-166295D01*
X277400Y-166478D01*
X276933Y-166386D01*
X276467Y-166111D01*
X276200Y-165745D01*
G01X281667Y-166478D02*
Y-162811D01*
G01Y-163545D02*
X282000Y-163178D01*
X282333Y-162903D01*
X282800Y-162811D01*
X283133Y-162903D01*
X283533Y-163178D01*
G01X287800Y-166478D02*
X287400Y-166386D01*
X287000Y-166020D01*
X286733Y-165378D01*
X286600Y-164645D01*
X286733Y-163911D01*
X287000Y-163270D01*
X287400Y-162903D01*
X287800Y-162811D01*
X288200Y-162903D01*
X288600Y-163270D01*
X288867Y-163911D01*
X288933Y-164645D01*
X288867Y-165378D01*
X288600Y-166020D01*
X288200Y-166386D01*
X287800Y-166478D01*
G01X291800Y-168311D02*
Y-162811D01*
G01Y-163636D02*
X292133Y-163178D01*
X292467Y-162903D01*
X293000Y-162811D01*
X293467Y-162903D01*
X293933Y-163361D01*
X294133Y-164003D01*
X294200Y-164645D01*
X294133Y-165286D01*
X293933Y-165928D01*
X293533Y-166295D01*
X293000Y-166478D01*
X292533Y-166386D01*
X292067Y-166111D01*
X291800Y-165745D01*
G01X297200Y-164003D02*
X299333D01*
X299133Y-163361D01*
X298800Y-162995D01*
X298333Y-162811D01*
X297867Y-162903D01*
X297467Y-163178D01*
X297200Y-163820D01*
X297067Y-164370D01*
Y-164920D01*
X297200Y-165470D01*
X297533Y-166020D01*
X297933Y-166386D01*
X298400Y-166478D01*
X298867Y-166295D01*
X299333Y-165745D01*
G01X302467Y-166478D02*
Y-162811D01*
G01Y-163545D02*
X302800Y-163178D01*
X303133Y-162903D01*
X303600Y-162811D01*
X303933Y-162903D01*
X304333Y-163178D01*
G01X308600Y-160978D02*
Y-166478D01*
G01X307667Y-162811D02*
X309533D01*
G01X312400Y-168128D02*
X312800Y-168311D01*
X313333Y-168128D01*
X313667Y-167761D01*
X313933Y-167303D01*
X314333Y-165836D01*
X315200Y-162811D01*
G01X313067D02*
X314333Y-165836D01*
G01X324200Y-166478D02*
X323800Y-166386D01*
X323400Y-166020D01*
X323133Y-165378D01*
X323000Y-164645D01*
X323133Y-163911D01*
X323400Y-163270D01*
X323800Y-162903D01*
X324200Y-162811D01*
X324600Y-162903D01*
X325000Y-163270D01*
X325267Y-163911D01*
X325333Y-164645D01*
X325267Y-165378D01*
X325000Y-166020D01*
X324600Y-166386D01*
X324200Y-166478D01*
G01X329000D02*
Y-161803D01*
X329133Y-161345D01*
X329400Y-161070D01*
X329800Y-160978D01*
X330200Y-161161D01*
X330400Y-161620D01*
G01X329600Y-163178D02*
X328267D01*
G01X421467Y-166478D02*
Y-160978D01*
X424533Y-166478D01*
Y-160978D01*
G01X428200Y-166478D02*
X427800Y-166386D01*
X427400Y-166020D01*
X427133Y-165378D01*
X427000Y-164645D01*
X427133Y-163911D01*
X427400Y-163270D01*
X427800Y-162903D01*
X428200Y-162811D01*
X428600Y-162903D01*
X429000Y-163270D01*
X429267Y-163911D01*
X429333Y-164645D01*
X429267Y-165378D01*
X429000Y-166020D01*
X428600Y-166386D01*
X428200Y-166478D01*
G01X437400Y-168311D02*
Y-162811D01*
G01Y-163636D02*
X437733Y-163178D01*
X438067Y-162903D01*
X438600Y-162811D01*
X439067Y-162903D01*
X439533Y-163361D01*
X439733Y-164003D01*
X439800Y-164645D01*
X439733Y-165286D01*
X439533Y-165928D01*
X439133Y-166295D01*
X438600Y-166478D01*
X438133Y-166386D01*
X437667Y-166111D01*
X437400Y-165745D01*
G01X445000Y-166478D02*
Y-162811D01*
G01Y-163453D02*
X444733Y-163086D01*
X444333Y-162903D01*
X443867Y-162811D01*
X443400Y-162995D01*
X443000Y-163361D01*
X442733Y-163911D01*
X442600Y-164645D01*
X442733Y-165378D01*
X443000Y-165928D01*
X443400Y-166295D01*
X443867Y-166478D01*
X444333Y-166386D01*
X444733Y-166111D01*
X445000Y-165745D01*
G01X448067Y-166478D02*
Y-162811D01*
G01Y-163545D02*
X448400Y-163178D01*
X448733Y-162903D01*
X449200Y-162811D01*
X449533Y-162903D01*
X449933Y-163178D01*
G01X454200Y-160978D02*
Y-166478D01*
G01X453267Y-162811D02*
X455133D01*
G01X464600Y-166478D02*
X464200Y-166386D01*
X463800Y-166020D01*
X463533Y-165378D01*
X463400Y-164645D01*
X463533Y-163911D01*
X463800Y-163270D01*
X464200Y-162903D01*
X464600Y-162811D01*
X465000Y-162903D01*
X465400Y-163270D01*
X465667Y-163911D01*
X465733Y-164645D01*
X465667Y-165378D01*
X465400Y-166020D01*
X465000Y-166386D01*
X464600Y-166478D01*
G01X469400D02*
Y-161803D01*
X469533Y-161345D01*
X469800Y-161070D01*
X470200Y-160978D01*
X470600Y-161161D01*
X470800Y-161620D01*
G01X470000Y-163178D02*
X468667D01*
G01X215000Y-168497D02*
Y-173997D01*
G01X214067Y-170330D02*
X215933D01*
G01X219067Y-173997D02*
Y-168497D01*
G01Y-171155D02*
X219400Y-170697D01*
X219733Y-170422D01*
X220267Y-170330D01*
X220667Y-170422D01*
X221133Y-170789D01*
X221333Y-171339D01*
Y-173997D01*
G01X225400Y-170330D02*
Y-173997D01*
G01Y-168864D02*
X225267Y-168772D01*
Y-168589D01*
X225400Y-168497D01*
X225533Y-168589D01*
Y-168772D01*
X225400Y-168864D01*
G01X229600Y-173355D02*
X229933Y-173722D01*
X230400Y-173997D01*
X230800D01*
X231200Y-173814D01*
X231467Y-173539D01*
X231600Y-173172D01*
X231533Y-172622D01*
X231267Y-172347D01*
X230067Y-171797D01*
X229800Y-171155D01*
X229933Y-170697D01*
X230200Y-170422D01*
X230600Y-170330D01*
X231000Y-170422D01*
X231400Y-170697D01*
G01X242200Y-168497D02*
Y-173997D01*
G01Y-173172D02*
X241933Y-173630D01*
X241533Y-173905D01*
X241067Y-173997D01*
X240533Y-173814D01*
X240133Y-173355D01*
X239867Y-172805D01*
X239800Y-172164D01*
X239867Y-171522D01*
X240133Y-170972D01*
X240533Y-170514D01*
X241067Y-170330D01*
X241533Y-170422D01*
X241867Y-170605D01*
X242200Y-170972D01*
G01X246200Y-173997D02*
X245800Y-173905D01*
X245400Y-173539D01*
X245133Y-172897D01*
X245000Y-172164D01*
X245133Y-171430D01*
X245400Y-170789D01*
X245800Y-170422D01*
X246200Y-170330D01*
X246600Y-170422D01*
X247000Y-170789D01*
X247267Y-171430D01*
X247333Y-172164D01*
X247267Y-172897D01*
X247000Y-173539D01*
X246600Y-173905D01*
X246200Y-173997D01*
G01X252467Y-170789D02*
X252000Y-170422D01*
X251600Y-170330D01*
X251067Y-170514D01*
X250667Y-170880D01*
X250400Y-171522D01*
X250333Y-172164D01*
X250400Y-172805D01*
X250667Y-173355D01*
X251067Y-173814D01*
X251600Y-173997D01*
X252067Y-173814D01*
X252467Y-173447D01*
G01X255467Y-170330D02*
Y-172897D01*
X255733Y-173539D01*
X256133Y-173905D01*
X256600Y-173997D01*
X257067Y-173905D01*
X257467Y-173539D01*
X257733Y-172897D01*
G01Y-173997D02*
Y-170330D01*
G01X259800Y-173997D02*
Y-170330D01*
G01Y-171339D02*
X260000Y-170880D01*
X260333Y-170514D01*
X260800Y-170330D01*
X261267Y-170514D01*
X261600Y-170880D01*
X261800Y-171339D01*
Y-173997D01*
G01Y-171339D02*
X262000Y-170880D01*
X262333Y-170514D01*
X262800Y-170330D01*
X263267Y-170514D01*
X263600Y-170880D01*
X263800Y-171430D01*
Y-173997D01*
G01X266000Y-171522D02*
X268133D01*
X267933Y-170880D01*
X267600Y-170514D01*
X267133Y-170330D01*
X266667Y-170422D01*
X266267Y-170697D01*
X266000Y-171339D01*
X265867Y-171889D01*
Y-172439D01*
X266000Y-172989D01*
X266333Y-173539D01*
X266733Y-173905D01*
X267200Y-173997D01*
X267667Y-173814D01*
X268133Y-173264D01*
G01X271067Y-173997D02*
Y-170330D01*
G01Y-171247D02*
X271333Y-170789D01*
X271733Y-170422D01*
X272267Y-170330D01*
X272733Y-170422D01*
X273133Y-170789D01*
X273333Y-171430D01*
Y-173997D01*
G01X277400Y-168497D02*
Y-173997D01*
G01X276467Y-170330D02*
X278333D01*
G01X285800Y-173997D02*
Y-170330D01*
G01Y-171339D02*
X286000Y-170880D01*
X286333Y-170514D01*
X286800Y-170330D01*
X287267Y-170514D01*
X287600Y-170880D01*
X287800Y-171339D01*
Y-173997D01*
G01Y-171339D02*
X288000Y-170880D01*
X288333Y-170514D01*
X288800Y-170330D01*
X289267Y-170514D01*
X289600Y-170880D01*
X289800Y-171430D01*
Y-173997D01*
G01X294200D02*
Y-170330D01*
G01Y-170972D02*
X293933Y-170605D01*
X293533Y-170422D01*
X293067Y-170330D01*
X292600Y-170514D01*
X292200Y-170880D01*
X291933Y-171430D01*
X291800Y-172164D01*
X291933Y-172897D01*
X292200Y-173447D01*
X292600Y-173814D01*
X293067Y-173997D01*
X293533Y-173905D01*
X293933Y-173630D01*
X294200Y-173264D01*
G01X296800Y-175647D02*
X297200Y-175830D01*
X297733Y-175647D01*
X298067Y-175280D01*
X298333Y-174822D01*
X298733Y-173355D01*
X299600Y-170330D01*
G01X297467D02*
X298733Y-173355D01*
G01X307400Y-173997D02*
Y-168497D01*
G01Y-171247D02*
X307733Y-170697D01*
X308133Y-170422D01*
X308533Y-170330D01*
X309133Y-170514D01*
X309533Y-170880D01*
X309800Y-171522D01*
Y-172255D01*
X309667Y-172989D01*
X309400Y-173539D01*
X308933Y-173905D01*
X308533Y-173997D01*
X308133Y-173905D01*
X307733Y-173630D01*
X307400Y-173172D01*
G01X312800Y-171522D02*
X314933D01*
X314733Y-170880D01*
X314400Y-170514D01*
X313933Y-170330D01*
X313467Y-170422D01*
X313067Y-170697D01*
X312800Y-171339D01*
X312667Y-171889D01*
Y-172439D01*
X312800Y-172989D01*
X313133Y-173539D01*
X313533Y-173905D01*
X314000Y-173997D01*
X314467Y-173814D01*
X314933Y-173264D01*
G01X325400Y-168497D02*
Y-173997D01*
G01Y-173172D02*
X325133Y-173630D01*
X324733Y-173905D01*
X324267Y-173997D01*
X323733Y-173814D01*
X323333Y-173355D01*
X323067Y-172805D01*
X323000Y-172164D01*
X323067Y-171522D01*
X323333Y-170972D01*
X323733Y-170514D01*
X324267Y-170330D01*
X324733Y-170422D01*
X325067Y-170605D01*
X325400Y-170972D01*
G01X329400Y-170330D02*
Y-173997D01*
G01Y-168864D02*
X329267Y-168772D01*
Y-168589D01*
X329400Y-168497D01*
X329533Y-168589D01*
Y-168772D01*
X329400Y-168864D01*
G01X333600Y-173355D02*
X333933Y-173722D01*
X334400Y-173997D01*
X334800D01*
X335200Y-173814D01*
X335467Y-173539D01*
X335600Y-173172D01*
X335533Y-172622D01*
X335267Y-172347D01*
X334067Y-171797D01*
X333800Y-171155D01*
X333933Y-170697D01*
X334200Y-170422D01*
X334600Y-170330D01*
X335000Y-170422D01*
X335400Y-170697D01*
G01X340867Y-170789D02*
X340400Y-170422D01*
X340000Y-170330D01*
X339467Y-170514D01*
X339067Y-170880D01*
X338800Y-171522D01*
X338733Y-172164D01*
X338800Y-172805D01*
X339067Y-173355D01*
X339467Y-173814D01*
X340000Y-173997D01*
X340467Y-173814D01*
X340867Y-173447D01*
G01X345000Y-173997D02*
Y-168497D01*
G01X350200Y-173997D02*
X349800Y-173905D01*
X349400Y-173539D01*
X349133Y-172897D01*
X349000Y-172164D01*
X349133Y-171430D01*
X349400Y-170789D01*
X349800Y-170422D01*
X350200Y-170330D01*
X350600Y-170422D01*
X351000Y-170789D01*
X351267Y-171430D01*
X351333Y-172164D01*
X351267Y-172897D01*
X351000Y-173539D01*
X350600Y-173905D01*
X350200Y-173997D01*
G01X354400Y-173355D02*
X354733Y-173722D01*
X355200Y-173997D01*
X355600D01*
X356000Y-173814D01*
X356267Y-173539D01*
X356400Y-173172D01*
X356333Y-172622D01*
X356067Y-172347D01*
X354867Y-171797D01*
X354600Y-171155D01*
X354733Y-170697D01*
X355000Y-170422D01*
X355400Y-170330D01*
X355800Y-170422D01*
X356200Y-170697D01*
G01X359600Y-171522D02*
X361733D01*
X361533Y-170880D01*
X361200Y-170514D01*
X360733Y-170330D01*
X360267Y-170422D01*
X359867Y-170697D01*
X359600Y-171339D01*
X359467Y-171889D01*
Y-172439D01*
X359600Y-172989D01*
X359933Y-173539D01*
X360333Y-173905D01*
X360800Y-173997D01*
X361267Y-173814D01*
X361733Y-173264D01*
G01X367000Y-168497D02*
Y-173997D01*
G01Y-173172D02*
X366733Y-173630D01*
X366333Y-173905D01*
X365867Y-173997D01*
X365333Y-173814D01*
X364933Y-173355D01*
X364667Y-172805D01*
X364600Y-172164D01*
X364667Y-171522D01*
X364933Y-170972D01*
X365333Y-170514D01*
X365867Y-170330D01*
X366333Y-170422D01*
X366667Y-170605D01*
X367000Y-170972D01*
G01X376200Y-168497D02*
Y-173997D01*
G01X375267Y-170330D02*
X377133D01*
G01X381400Y-173997D02*
X381000Y-173905D01*
X380600Y-173539D01*
X380333Y-172897D01*
X380200Y-172164D01*
X380333Y-171430D01*
X380600Y-170789D01*
X381000Y-170422D01*
X381400Y-170330D01*
X381800Y-170422D01*
X382200Y-170789D01*
X382467Y-171430D01*
X382533Y-172164D01*
X382467Y-172897D01*
X382200Y-173539D01*
X381800Y-173905D01*
X381400Y-173997D01*
G01X391800Y-168497D02*
Y-173997D01*
G01X390867Y-170330D02*
X392733D01*
G01X395867Y-173997D02*
Y-168497D01*
G01Y-171155D02*
X396200Y-170697D01*
X396533Y-170422D01*
X397067Y-170330D01*
X397467Y-170422D01*
X397933Y-170789D01*
X398133Y-171339D01*
Y-173997D01*
G01X402200Y-170330D02*
Y-173997D01*
G01Y-168864D02*
X402067Y-168772D01*
Y-168589D01*
X402200Y-168497D01*
X402333Y-168589D01*
Y-168772D01*
X402200Y-168864D01*
G01X406467Y-173997D02*
Y-170330D01*
G01Y-171064D02*
X406800Y-170697D01*
X407133Y-170422D01*
X407600Y-170330D01*
X407933Y-170422D01*
X408333Y-170697D01*
G01X413800Y-168497D02*
Y-173997D01*
G01Y-173172D02*
X413533Y-173630D01*
X413133Y-173905D01*
X412667Y-173997D01*
X412133Y-173814D01*
X411733Y-173355D01*
X411467Y-172805D01*
X411400Y-172164D01*
X411467Y-171522D01*
X411733Y-170972D01*
X412133Y-170514D01*
X412667Y-170330D01*
X413133Y-170422D01*
X413467Y-170605D01*
X413800Y-170972D01*
G01X421800Y-175830D02*
Y-170330D01*
G01Y-171155D02*
X422133Y-170697D01*
X422467Y-170422D01*
X423000Y-170330D01*
X423467Y-170422D01*
X423933Y-170880D01*
X424133Y-171522D01*
X424200Y-172164D01*
X424133Y-172805D01*
X423933Y-173447D01*
X423533Y-173814D01*
X423000Y-173997D01*
X422533Y-173905D01*
X422067Y-173630D01*
X421800Y-173264D01*
G01X429400Y-173997D02*
Y-170330D01*
G01Y-170972D02*
X429133Y-170605D01*
X428733Y-170422D01*
X428267Y-170330D01*
X427800Y-170514D01*
X427400Y-170880D01*
X427133Y-171430D01*
X427000Y-172164D01*
X427133Y-172897D01*
X427400Y-173447D01*
X427800Y-173814D01*
X428267Y-173997D01*
X428733Y-173905D01*
X429133Y-173630D01*
X429400Y-173264D01*
G01X432467Y-173997D02*
Y-170330D01*
G01Y-171064D02*
X432800Y-170697D01*
X433133Y-170422D01*
X433600Y-170330D01*
X433933Y-170422D01*
X434333Y-170697D01*
G01X438600Y-168497D02*
Y-173997D01*
G01X437667Y-170330D02*
X439533D01*
G01X443800D02*
Y-173997D01*
G01Y-168864D02*
X443667Y-168772D01*
Y-168589D01*
X443800Y-168497D01*
X443933Y-168589D01*
Y-168772D01*
X443800Y-168864D01*
G01X448000Y-171522D02*
X450133D01*
X449933Y-170880D01*
X449600Y-170514D01*
X449133Y-170330D01*
X448667Y-170422D01*
X448267Y-170697D01*
X448000Y-171339D01*
X447867Y-171889D01*
Y-172439D01*
X448000Y-172989D01*
X448333Y-173539D01*
X448733Y-173905D01*
X449200Y-173997D01*
X449667Y-173814D01*
X450133Y-173264D01*
G01X453200Y-173355D02*
X453533Y-173722D01*
X454000Y-173997D01*
X454400D01*
X454800Y-173814D01*
X455067Y-173539D01*
X455200Y-173172D01*
X455133Y-172622D01*
X454867Y-172347D01*
X453667Y-171797D01*
X453400Y-171155D01*
X453533Y-170697D01*
X453800Y-170422D01*
X454200Y-170330D01*
X454600Y-170422D01*
X455000Y-170697D01*
G01X215000Y-153497D02*
Y-158997D01*
G01X213467Y-153497D02*
X216533D01*
G01X219067Y-158997D02*
Y-153497D01*
G01Y-156155D02*
X219400Y-155697D01*
X219733Y-155422D01*
X220267Y-155330D01*
X220667Y-155422D01*
X221133Y-155789D01*
X221333Y-156339D01*
Y-158997D01*
G01X225400Y-155330D02*
Y-158997D01*
G01Y-153864D02*
X225267Y-153772D01*
Y-153589D01*
X225400Y-153497D01*
X225533Y-153589D01*
Y-153772D01*
X225400Y-153864D01*
G01X229600Y-158355D02*
X229933Y-158722D01*
X230400Y-158997D01*
X230800D01*
X231200Y-158814D01*
X231467Y-158539D01*
X231600Y-158172D01*
X231533Y-157622D01*
X231267Y-157347D01*
X230067Y-156797D01*
X229800Y-156155D01*
X229933Y-155697D01*
X230200Y-155422D01*
X230600Y-155330D01*
X231000Y-155422D01*
X231400Y-155697D01*
G01X242200Y-153497D02*
Y-158997D01*
G01Y-158172D02*
X241933Y-158630D01*
X241533Y-158905D01*
X241067Y-158997D01*
X240533Y-158814D01*
X240133Y-158355D01*
X239867Y-157805D01*
X239800Y-157164D01*
X239867Y-156522D01*
X240133Y-155972D01*
X240533Y-155514D01*
X241067Y-155330D01*
X241533Y-155422D01*
X241867Y-155605D01*
X242200Y-155972D01*
G01X246200Y-158997D02*
X245800Y-158905D01*
X245400Y-158539D01*
X245133Y-157897D01*
X245000Y-157164D01*
X245133Y-156430D01*
X245400Y-155789D01*
X245800Y-155422D01*
X246200Y-155330D01*
X246600Y-155422D01*
X247000Y-155789D01*
X247267Y-156430D01*
X247333Y-157164D01*
X247267Y-157897D01*
X247000Y-158539D01*
X246600Y-158905D01*
X246200Y-158997D01*
G01X252467Y-155789D02*
X252000Y-155422D01*
X251600Y-155330D01*
X251067Y-155514D01*
X250667Y-155880D01*
X250400Y-156522D01*
X250333Y-157164D01*
X250400Y-157805D01*
X250667Y-158355D01*
X251067Y-158814D01*
X251600Y-158997D01*
X252067Y-158814D01*
X252467Y-158447D01*
G01X255467Y-155330D02*
Y-157897D01*
X255733Y-158539D01*
X256133Y-158905D01*
X256600Y-158997D01*
X257067Y-158905D01*
X257467Y-158539D01*
X257733Y-157897D01*
G01Y-158997D02*
Y-155330D01*
G01X259800Y-158997D02*
Y-155330D01*
G01Y-156339D02*
X260000Y-155880D01*
X260333Y-155514D01*
X260800Y-155330D01*
X261267Y-155514D01*
X261600Y-155880D01*
X261800Y-156339D01*
Y-158997D01*
G01Y-156339D02*
X262000Y-155880D01*
X262333Y-155514D01*
X262800Y-155330D01*
X263267Y-155514D01*
X263600Y-155880D01*
X263800Y-156430D01*
Y-158997D01*
G01X266000Y-156522D02*
X268133D01*
X267933Y-155880D01*
X267600Y-155514D01*
X267133Y-155330D01*
X266667Y-155422D01*
X266267Y-155697D01*
X266000Y-156339D01*
X265867Y-156889D01*
Y-157439D01*
X266000Y-157989D01*
X266333Y-158539D01*
X266733Y-158905D01*
X267200Y-158997D01*
X267667Y-158814D01*
X268133Y-158264D01*
G01X271067Y-158997D02*
Y-155330D01*
G01Y-156247D02*
X271333Y-155789D01*
X271733Y-155422D01*
X272267Y-155330D01*
X272733Y-155422D01*
X273133Y-155789D01*
X273333Y-156430D01*
Y-158997D01*
G01X277400Y-153497D02*
Y-158997D01*
G01X276467Y-155330D02*
X278333D01*
G01X288867Y-155789D02*
X288400Y-155422D01*
X288000Y-155330D01*
X287467Y-155514D01*
X287067Y-155880D01*
X286800Y-156522D01*
X286733Y-157164D01*
X286800Y-157805D01*
X287067Y-158355D01*
X287467Y-158814D01*
X288000Y-158997D01*
X288467Y-158814D01*
X288867Y-158447D01*
G01X293000Y-158997D02*
X292600Y-158905D01*
X292200Y-158539D01*
X291933Y-157897D01*
X291800Y-157164D01*
X291933Y-156430D01*
X292200Y-155789D01*
X292600Y-155422D01*
X293000Y-155330D01*
X293400Y-155422D01*
X293800Y-155789D01*
X294067Y-156430D01*
X294133Y-157164D01*
X294067Y-157897D01*
X293800Y-158539D01*
X293400Y-158905D01*
X293000Y-158997D01*
G01X297067D02*
Y-155330D01*
G01Y-156247D02*
X297333Y-155789D01*
X297733Y-155422D01*
X298267Y-155330D01*
X298733Y-155422D01*
X299133Y-155789D01*
X299333Y-156430D01*
Y-158997D01*
G01X303400Y-153497D02*
Y-158997D01*
G01X302467Y-155330D02*
X304333D01*
G01X309800Y-158997D02*
Y-155330D01*
G01Y-155972D02*
X309533Y-155605D01*
X309133Y-155422D01*
X308667Y-155330D01*
X308200Y-155514D01*
X307800Y-155880D01*
X307533Y-156430D01*
X307400Y-157164D01*
X307533Y-157897D01*
X307800Y-158447D01*
X308200Y-158814D01*
X308667Y-158997D01*
X309133Y-158905D01*
X309533Y-158630D01*
X309800Y-158264D01*
G01X313800Y-155330D02*
Y-158997D01*
G01Y-153864D02*
X313667Y-153772D01*
Y-153589D01*
X313800Y-153497D01*
X313933Y-153589D01*
Y-153772D01*
X313800Y-153864D01*
G01X317867Y-158997D02*
Y-155330D01*
G01Y-156247D02*
X318133Y-155789D01*
X318533Y-155422D01*
X319067Y-155330D01*
X319533Y-155422D01*
X319933Y-155789D01*
X320133Y-156430D01*
Y-158997D01*
G01X323200Y-158355D02*
X323533Y-158722D01*
X324000Y-158997D01*
X324400D01*
X324800Y-158814D01*
X325067Y-158539D01*
X325200Y-158172D01*
X325133Y-157622D01*
X324867Y-157347D01*
X323667Y-156797D01*
X323400Y-156155D01*
X323533Y-155697D01*
X323800Y-155422D01*
X324200Y-155330D01*
X324600Y-155422D01*
X325000Y-155697D01*
G01X334600Y-155330D02*
Y-158997D01*
G01Y-153864D02*
X334467Y-153772D01*
Y-153589D01*
X334600Y-153497D01*
X334733Y-153589D01*
Y-153772D01*
X334600Y-153864D01*
G01X338667Y-158997D02*
Y-155330D01*
G01Y-156247D02*
X338933Y-155789D01*
X339333Y-155422D01*
X339867Y-155330D01*
X340333Y-155422D01*
X340733Y-155789D01*
X340933Y-156430D01*
Y-158997D01*
G01X344600D02*
Y-154322D01*
X344733Y-153864D01*
X345000Y-153589D01*
X345400Y-153497D01*
X345800Y-153680D01*
X346000Y-154139D01*
G01X345200Y-155697D02*
X343867D01*
G01X350200Y-158997D02*
X349800Y-158905D01*
X349400Y-158539D01*
X349133Y-157897D01*
X349000Y-157164D01*
X349133Y-156430D01*
X349400Y-155789D01*
X349800Y-155422D01*
X350200Y-155330D01*
X350600Y-155422D01*
X351000Y-155789D01*
X351267Y-156430D01*
X351333Y-157164D01*
X351267Y-157897D01*
X351000Y-158539D01*
X350600Y-158905D01*
X350200Y-158997D01*
G01X354467D02*
Y-155330D01*
G01Y-156064D02*
X354800Y-155697D01*
X355133Y-155422D01*
X355600Y-155330D01*
X355933Y-155422D01*
X356333Y-155697D01*
G01X358600Y-158997D02*
Y-155330D01*
G01Y-156339D02*
X358800Y-155880D01*
X359133Y-155514D01*
X359600Y-155330D01*
X360067Y-155514D01*
X360400Y-155880D01*
X360600Y-156339D01*
Y-158997D01*
G01Y-156339D02*
X360800Y-155880D01*
X361133Y-155514D01*
X361600Y-155330D01*
X362067Y-155514D01*
X362400Y-155880D01*
X362600Y-156430D01*
Y-158997D01*
G01X367000D02*
Y-155330D01*
G01Y-155972D02*
X366733Y-155605D01*
X366333Y-155422D01*
X365867Y-155330D01*
X365400Y-155514D01*
X365000Y-155880D01*
X364733Y-156430D01*
X364600Y-157164D01*
X364733Y-157897D01*
X365000Y-158447D01*
X365400Y-158814D01*
X365867Y-158997D01*
X366333Y-158905D01*
X366733Y-158630D01*
X367000Y-158264D01*
G01X371000Y-153497D02*
Y-158997D01*
G01X370067Y-155330D02*
X371933D01*
G01X376200D02*
Y-158997D01*
G01Y-153864D02*
X376067Y-153772D01*
Y-153589D01*
X376200Y-153497D01*
X376333Y-153589D01*
Y-153772D01*
X376200Y-153864D01*
G01X381400Y-158997D02*
X381000Y-158905D01*
X380600Y-158539D01*
X380333Y-157897D01*
X380200Y-157164D01*
X380333Y-156430D01*
X380600Y-155789D01*
X381000Y-155422D01*
X381400Y-155330D01*
X381800Y-155422D01*
X382200Y-155789D01*
X382467Y-156430D01*
X382533Y-157164D01*
X382467Y-157897D01*
X382200Y-158539D01*
X381800Y-158905D01*
X381400Y-158997D01*
G01X385467D02*
Y-155330D01*
G01Y-156247D02*
X385733Y-155789D01*
X386133Y-155422D01*
X386667Y-155330D01*
X387133Y-155422D01*
X387533Y-155789D01*
X387733Y-156430D01*
Y-158997D01*
G01X395333Y-155330D02*
X396133Y-158997D01*
X397000Y-155330D01*
X397867Y-158997D01*
X398667Y-155330D01*
G01X401067Y-158997D02*
Y-153497D01*
G01Y-156155D02*
X401400Y-155697D01*
X401733Y-155422D01*
X402267Y-155330D01*
X402667Y-155422D01*
X403133Y-155789D01*
X403333Y-156339D01*
Y-158997D01*
G01X407400Y-155330D02*
Y-158997D01*
G01Y-153864D02*
X407267Y-153772D01*
Y-153589D01*
X407400Y-153497D01*
X407533Y-153589D01*
Y-153772D01*
X407400Y-153864D01*
G01X413667Y-155789D02*
X413200Y-155422D01*
X412800Y-155330D01*
X412267Y-155514D01*
X411867Y-155880D01*
X411600Y-156522D01*
X411533Y-157164D01*
X411600Y-157805D01*
X411867Y-158355D01*
X412267Y-158814D01*
X412800Y-158997D01*
X413267Y-158814D01*
X413667Y-158447D01*
G01X416667Y-158997D02*
Y-153497D01*
G01Y-156155D02*
X417000Y-155697D01*
X417333Y-155422D01*
X417867Y-155330D01*
X418267Y-155422D01*
X418733Y-155789D01*
X418933Y-156339D01*
Y-158997D01*
G01X428200Y-155330D02*
Y-158997D01*
G01Y-153864D02*
X428067Y-153772D01*
Y-153589D01*
X428200Y-153497D01*
X428333Y-153589D01*
Y-153772D01*
X428200Y-153864D01*
G01X432400Y-158355D02*
X432733Y-158722D01*
X433200Y-158997D01*
X433600D01*
X434000Y-158814D01*
X434267Y-158539D01*
X434400Y-158172D01*
X434333Y-157622D01*
X434067Y-157347D01*
X432867Y-156797D01*
X432600Y-156155D01*
X432733Y-155697D01*
X433000Y-155422D01*
X433400Y-155330D01*
X433800Y-155422D01*
X434200Y-155697D01*
G01X443800Y-153497D02*
Y-158997D01*
G01X442867Y-155330D02*
X444733D01*
G01X447867Y-158997D02*
Y-153497D01*
G01Y-156155D02*
X448200Y-155697D01*
X448533Y-155422D01*
X449067Y-155330D01*
X449467Y-155422D01*
X449933Y-155789D01*
X450133Y-156339D01*
Y-158997D01*
G01X453200Y-156522D02*
X455333D01*
X455133Y-155880D01*
X454800Y-155514D01*
X454333Y-155330D01*
X453867Y-155422D01*
X453467Y-155697D01*
X453200Y-156339D01*
X453067Y-156889D01*
Y-157439D01*
X453200Y-157989D01*
X453533Y-158539D01*
X453933Y-158905D01*
X454400Y-158997D01*
X454867Y-158814D01*
X455333Y-158264D01*
G01X258020Y-197774D02*
X258553Y-198232D01*
X259153Y-198507D01*
X259687D01*
X260220Y-198232D01*
X260620Y-197774D01*
X260820Y-197132D01*
X260687Y-196490D01*
X260353Y-195940D01*
X259753Y-195574D01*
X258953Y-195390D01*
X258487Y-195024D01*
X258287Y-194382D01*
X258420Y-193740D01*
X258753Y-193282D01*
X259220Y-193007D01*
X259687D01*
X260153Y-193190D01*
X260553Y-193649D01*
G01X264620Y-198507D02*
X264087Y-198415D01*
X263620Y-198049D01*
X263220Y-197499D01*
X262953Y-196857D01*
X262820Y-196124D01*
Y-195390D01*
X262953Y-194657D01*
X263220Y-194015D01*
X263620Y-193465D01*
X264087Y-193099D01*
X264620Y-193007D01*
X265153Y-193099D01*
X265620Y-193465D01*
X266020Y-194015D01*
X266287Y-194657D01*
X266420Y-195390D01*
Y-196124D01*
X266287Y-196857D01*
X266020Y-197499D01*
X265620Y-198049D01*
X265153Y-198415D01*
X264620Y-198507D01*
G01X268487Y-193007D02*
Y-198507D01*
X271153D01*
G01X273553D02*
Y-193007D01*
X274887D01*
X275420Y-193282D01*
X275820Y-193649D01*
X276153Y-194199D01*
X276420Y-194840D01*
X276487Y-195757D01*
X276420Y-196674D01*
X276153Y-197315D01*
X275820Y-197865D01*
X275420Y-198232D01*
X274887Y-198507D01*
X273553D01*
G01X281553D02*
X278887D01*
Y-193007D01*
X281553D01*
G01X280487Y-195665D02*
X278887D01*
G01X284087Y-198507D02*
Y-193007D01*
X285753D01*
X286287Y-193282D01*
X286620Y-193649D01*
X286753Y-194382D01*
X286620Y-195115D01*
X286220Y-195574D01*
X285753Y-195849D01*
X284087D01*
G01X285753D02*
X286753Y-198507D01*
G01X296353Y-195574D02*
X296620Y-195299D01*
X296820Y-194840D01*
X296953Y-194199D01*
X296820Y-193649D01*
X296553Y-193282D01*
X296087Y-193007D01*
X294287D01*
Y-198507D01*
X296487D01*
X296953Y-198140D01*
X297220Y-197590D01*
X297353Y-196949D01*
X297220Y-196307D01*
X296820Y-195757D01*
X296353Y-195574D01*
X294287D01*
G01X301020Y-198507D02*
X300487Y-198415D01*
X300020Y-198049D01*
X299620Y-197499D01*
X299353Y-196857D01*
X299220Y-196124D01*
Y-195390D01*
X299353Y-194657D01*
X299620Y-194015D01*
X300020Y-193465D01*
X300487Y-193099D01*
X301020Y-193007D01*
X301553Y-193099D01*
X302020Y-193465D01*
X302420Y-194015D01*
X302687Y-194657D01*
X302820Y-195390D01*
Y-196124D01*
X302687Y-196857D01*
X302420Y-197499D01*
X302020Y-198049D01*
X301553Y-198415D01*
X301020Y-198507D01*
G01X306220Y-193007D02*
Y-198507D01*
G01X304687Y-193007D02*
X307753D01*
G01X311420D02*
Y-198507D01*
G01X309887Y-193007D02*
X312953D01*
G01X316620Y-198507D02*
X316087Y-198415D01*
X315620Y-198049D01*
X315220Y-197499D01*
X314953Y-196857D01*
X314820Y-196124D01*
Y-195390D01*
X314953Y-194657D01*
X315220Y-194015D01*
X315620Y-193465D01*
X316087Y-193099D01*
X316620Y-193007D01*
X317153Y-193099D01*
X317620Y-193465D01*
X318020Y-194015D01*
X318287Y-194657D01*
X318420Y-195390D01*
Y-196124D01*
X318287Y-196857D01*
X318020Y-197499D01*
X317620Y-198049D01*
X317153Y-198415D01*
X316620Y-198507D01*
G01X320087D02*
Y-193007D01*
X321820Y-197590D01*
X323553Y-193007D01*
Y-198507D01*
G01X297800Y-244267D02*
X298333Y-244725D01*
X298933Y-245000D01*
X299467D01*
X300000Y-244725D01*
X300400Y-244267D01*
X300600Y-243625D01*
X300467Y-242983D01*
X300133Y-242433D01*
X299533Y-242067D01*
X298733Y-241883D01*
X298267Y-241517D01*
X298067Y-240875D01*
X298200Y-240233D01*
X298533Y-239775D01*
X299000Y-239500D01*
X299467D01*
X299933Y-239683D01*
X300333Y-240142D01*
G01X302933Y-245000D02*
Y-239500D01*
X304267D01*
X304800Y-239775D01*
X305200Y-240142D01*
X305533Y-240692D01*
X305800Y-241333D01*
X305867Y-242250D01*
X305800Y-243167D01*
X305533Y-243808D01*
X305200Y-244358D01*
X304800Y-244725D01*
X304267Y-245000D01*
X302933D01*
G01X308267D02*
Y-239500D01*
X309933D01*
X310467Y-239775D01*
X310800Y-240142D01*
X310933Y-240875D01*
X310800Y-241608D01*
X310400Y-242067D01*
X309933Y-242342D01*
X308267D01*
G01X309933D02*
X310933Y-245000D01*
G01X320533Y-242067D02*
X320800Y-241792D01*
X321000Y-241333D01*
X321133Y-240692D01*
X321000Y-240142D01*
X320733Y-239775D01*
X320267Y-239500D01*
X318467D01*
Y-245000D01*
X320667D01*
X321133Y-244633D01*
X321400Y-244083D01*
X321533Y-243442D01*
X321400Y-242800D01*
X321000Y-242250D01*
X320533Y-242067D01*
X318467D01*
G01X325200Y-245000D02*
X324667Y-244908D01*
X324200Y-244542D01*
X323800Y-243992D01*
X323533Y-243350D01*
X323400Y-242617D01*
Y-241883D01*
X323533Y-241150D01*
X323800Y-240508D01*
X324200Y-239958D01*
X324667Y-239592D01*
X325200Y-239500D01*
X325733Y-239592D01*
X326200Y-239958D01*
X326600Y-240508D01*
X326867Y-241150D01*
X327000Y-241883D01*
Y-242617D01*
X326867Y-243350D01*
X326600Y-243992D01*
X326200Y-244542D01*
X325733Y-244908D01*
X325200Y-245000D01*
G01X328733D02*
X330400Y-239500D01*
X332067Y-245000D01*
G01X331467Y-243075D02*
X329333D01*
G01X334267Y-245000D02*
Y-239500D01*
X335933D01*
X336467Y-239775D01*
X336800Y-240142D01*
X336933Y-240875D01*
X336800Y-241608D01*
X336400Y-242067D01*
X335933Y-242342D01*
X334267D01*
G01X335933D02*
X336933Y-245000D01*
G01X339333D02*
Y-239500D01*
X340667D01*
X341200Y-239775D01*
X341600Y-240142D01*
X341933Y-240692D01*
X342200Y-241333D01*
X342267Y-242250D01*
X342200Y-243167D01*
X341933Y-243808D01*
X341600Y-244358D01*
X341200Y-244725D01*
X340667Y-245000D01*
X339333D01*
G01X296600Y-219500D02*
Y-225000D01*
G01X295067Y-219500D02*
X298133D01*
G01X301800Y-225000D02*
X301400Y-224908D01*
X301000Y-224542D01*
X300733Y-223900D01*
X300600Y-223167D01*
X300733Y-222433D01*
X301000Y-221792D01*
X301400Y-221425D01*
X301800Y-221333D01*
X302200Y-221425D01*
X302600Y-221792D01*
X302867Y-222433D01*
X302933Y-223167D01*
X302867Y-223900D01*
X302600Y-224542D01*
X302200Y-224908D01*
X301800Y-225000D01*
G01X305000D02*
Y-221333D01*
G01Y-222342D02*
X305200Y-221883D01*
X305533Y-221517D01*
X306000Y-221333D01*
X306467Y-221517D01*
X306800Y-221883D01*
X307000Y-222342D01*
Y-225000D01*
G01Y-222342D02*
X307200Y-221883D01*
X307533Y-221517D01*
X308000Y-221333D01*
X308467Y-221517D01*
X308800Y-221883D01*
X309000Y-222433D01*
Y-225000D01*
G01X316067D02*
Y-219500D01*
X317733D01*
X318267Y-219775D01*
X318600Y-220142D01*
X318733Y-220875D01*
X318600Y-221608D01*
X318200Y-222067D01*
X317733Y-222342D01*
X316067D01*
G01X317733D02*
X318733Y-225000D01*
G01X322600Y-221333D02*
Y-225000D01*
G01Y-219867D02*
X322467Y-219775D01*
Y-219592D01*
X322600Y-219500D01*
X322733Y-219592D01*
Y-219775D01*
X322600Y-219867D01*
G01X329000Y-219500D02*
Y-225000D01*
G01Y-224175D02*
X328733Y-224633D01*
X328333Y-224908D01*
X327867Y-225000D01*
X327333Y-224817D01*
X326933Y-224358D01*
X326667Y-223808D01*
X326600Y-223167D01*
X326667Y-222525D01*
X326933Y-221975D01*
X327333Y-221517D01*
X327867Y-221333D01*
X328333Y-221425D01*
X328667Y-221608D01*
X329000Y-221975D01*
G01X334200Y-219500D02*
Y-225000D01*
G01Y-224175D02*
X333933Y-224633D01*
X333533Y-224908D01*
X333067Y-225000D01*
X332533Y-224817D01*
X332133Y-224358D01*
X331867Y-223808D01*
X331800Y-223167D01*
X331867Y-222525D01*
X332133Y-221975D01*
X332533Y-221517D01*
X333067Y-221333D01*
X333533Y-221425D01*
X333867Y-221608D01*
X334200Y-221975D01*
G01X338200Y-225000D02*
Y-219500D01*
G01X342400Y-222525D02*
X344533D01*
X344333Y-221883D01*
X344000Y-221517D01*
X343533Y-221333D01*
X343067Y-221425D01*
X342667Y-221700D01*
X342400Y-222342D01*
X342267Y-222892D01*
Y-223442D01*
X342400Y-223992D01*
X342733Y-224542D01*
X343133Y-224908D01*
X343600Y-225000D01*
X344067Y-224817D01*
X344533Y-224267D01*
G01X338067Y-166500D02*
Y-161000D01*
X339733D01*
X340267Y-161275D01*
X340600Y-161642D01*
X340733Y-162375D01*
X340600Y-163108D01*
X340200Y-163567D01*
X339733Y-163842D01*
X338067D01*
G01X339733D02*
X340733Y-166500D01*
G01X345800D02*
Y-162833D01*
G01Y-163475D02*
X345533Y-163108D01*
X345133Y-162925D01*
X344667Y-162833D01*
X344200Y-163017D01*
X343800Y-163383D01*
X343533Y-163933D01*
X343400Y-164667D01*
X343533Y-165400D01*
X343800Y-165950D01*
X344200Y-166317D01*
X344667Y-166500D01*
X345133Y-166408D01*
X345533Y-166133D01*
X345800Y-165767D01*
G01X348667Y-166500D02*
Y-162833D01*
G01Y-163750D02*
X348933Y-163292D01*
X349333Y-162925D01*
X349867Y-162833D01*
X350333Y-162925D01*
X350733Y-163292D01*
X350933Y-163933D01*
Y-166500D01*
G01X354067Y-167875D02*
X354533Y-168242D01*
X355067Y-168333D01*
X355533Y-168242D01*
X355933Y-167783D01*
X356200Y-167142D01*
Y-162833D01*
G01Y-163567D02*
X355933Y-163200D01*
X355533Y-162925D01*
X355067Y-162833D01*
X354533Y-163017D01*
X354200Y-163383D01*
X353933Y-164025D01*
X353800Y-164667D01*
X353867Y-165217D01*
X354133Y-165858D01*
X354533Y-166317D01*
X355067Y-166500D01*
X355467Y-166408D01*
X355933Y-166042D01*
X356200Y-165675D01*
G01X359200Y-164025D02*
X361333D01*
X361133Y-163383D01*
X360800Y-163017D01*
X360333Y-162833D01*
X359867Y-162925D01*
X359467Y-163200D01*
X359200Y-163842D01*
X359067Y-164392D01*
Y-164942D01*
X359200Y-165492D01*
X359533Y-166042D01*
X359933Y-166408D01*
X360400Y-166500D01*
X360867Y-166317D01*
X361333Y-165767D01*
G01X369067Y-166500D02*
Y-161000D01*
X372133Y-166500D01*
Y-161000D01*
G01X374800Y-164025D02*
X376933D01*
X376733Y-163383D01*
X376400Y-163017D01*
X375933Y-162833D01*
X375467Y-162925D01*
X375067Y-163200D01*
X374800Y-163842D01*
X374667Y-164392D01*
Y-164942D01*
X374800Y-165492D01*
X375133Y-166042D01*
X375533Y-166408D01*
X376000Y-166500D01*
X376467Y-166317D01*
X376933Y-165767D01*
G01X381000Y-161000D02*
Y-166500D01*
G01X380067Y-162833D02*
X381933D01*
G01X384533D02*
X385333Y-166500D01*
X386200Y-162833D01*
X387067Y-166500D01*
X387867Y-162833D01*
G01X391400Y-166500D02*
X391000Y-166408D01*
X390600Y-166042D01*
X390333Y-165400D01*
X390200Y-164667D01*
X390333Y-163933D01*
X390600Y-163292D01*
X391000Y-162925D01*
X391400Y-162833D01*
X391800Y-162925D01*
X392200Y-163292D01*
X392467Y-163933D01*
X392533Y-164667D01*
X392467Y-165400D01*
X392200Y-166042D01*
X391800Y-166408D01*
X391400Y-166500D01*
G01X395667D02*
Y-162833D01*
G01Y-163567D02*
X396000Y-163200D01*
X396333Y-162925D01*
X396800Y-162833D01*
X397133Y-162925D01*
X397533Y-163200D01*
G01X400667Y-166500D02*
Y-161000D01*
G01X402800Y-162833D02*
X400667Y-164942D01*
G01X401533Y-164117D02*
X402933Y-166500D01*
G01X406000Y-165858D02*
X406333Y-166225D01*
X406800Y-166500D01*
X407200D01*
X407600Y-166317D01*
X407867Y-166042D01*
X408000Y-165675D01*
X407933Y-165125D01*
X407667Y-164850D01*
X406467Y-164300D01*
X406200Y-163658D01*
X406333Y-163200D01*
X406600Y-162925D01*
X407000Y-162833D01*
X407400Y-162925D01*
X407800Y-163200D01*
G01X412200Y-166683D02*
X412067Y-166592D01*
Y-166408D01*
X412200Y-166317D01*
X412333Y-166408D01*
Y-166592D01*
X412200Y-166683D01*
G01X386119Y-193264D02*
X386652Y-193722D01*
X387252Y-193997D01*
X387786D01*
X388319Y-193722D01*
X388719Y-193264D01*
X388919Y-192622D01*
X388786Y-191980D01*
X388452Y-191430D01*
X387852Y-191064D01*
X387052Y-190880D01*
X386586Y-190514D01*
X386386Y-189872D01*
X386519Y-189230D01*
X386852Y-188772D01*
X387319Y-188497D01*
X387786D01*
X388252Y-188680D01*
X388652Y-189139D01*
G01X391586Y-193997D02*
Y-188497D01*
G01Y-191155D02*
X391919Y-190697D01*
X392252Y-190422D01*
X392786Y-190330D01*
X393186Y-190422D01*
X393652Y-190789D01*
X393852Y-191339D01*
Y-193997D01*
G01X396919Y-191522D02*
X399052D01*
X398852Y-190880D01*
X398519Y-190514D01*
X398052Y-190330D01*
X397586Y-190422D01*
X397186Y-190697D01*
X396919Y-191339D01*
X396786Y-191889D01*
Y-192439D01*
X396919Y-192989D01*
X397252Y-193539D01*
X397652Y-193905D01*
X398119Y-193997D01*
X398586Y-193814D01*
X399052Y-193264D01*
G01X402119Y-191522D02*
X404252D01*
X404052Y-190880D01*
X403719Y-190514D01*
X403252Y-190330D01*
X402786Y-190422D01*
X402386Y-190697D01*
X402119Y-191339D01*
X401986Y-191889D01*
Y-192439D01*
X402119Y-192989D01*
X402452Y-193539D01*
X402852Y-193905D01*
X403319Y-193997D01*
X403786Y-193814D01*
X404252Y-193264D01*
G01X408319Y-188497D02*
Y-193997D01*
G01X407386Y-190330D02*
X409252D01*
G01X413519Y-194180D02*
X413386Y-194089D01*
Y-193905D01*
X413519Y-193814D01*
X413652Y-193905D01*
Y-194089D01*
X413519Y-194180D01*
G01Y-191705D02*
X413386Y-191614D01*
Y-191430D01*
X413519Y-191339D01*
X413652Y-191430D01*
Y-191614D01*
X413519Y-191705D01*
G01X406967Y-181500D02*
Y-176000D01*
X408633D01*
X409167Y-176275D01*
X409500Y-176642D01*
X409633Y-177375D01*
X409500Y-178108D01*
X409100Y-178567D01*
X408633Y-178842D01*
X406967D01*
G01X408633D02*
X409633Y-181500D01*
G01X414700D02*
Y-177833D01*
G01Y-178475D02*
X414433Y-178108D01*
X414033Y-177925D01*
X413567Y-177833D01*
X413100Y-178017D01*
X412700Y-178383D01*
X412433Y-178933D01*
X412300Y-179667D01*
X412433Y-180400D01*
X412700Y-180950D01*
X413100Y-181317D01*
X413567Y-181500D01*
X414033Y-181408D01*
X414433Y-181133D01*
X414700Y-180767D01*
G01X417567Y-181500D02*
Y-177833D01*
G01Y-178750D02*
X417833Y-178292D01*
X418233Y-177925D01*
X418767Y-177833D01*
X419233Y-177925D01*
X419633Y-178292D01*
X419833Y-178933D01*
Y-181500D01*
G01X422967Y-182875D02*
X423433Y-183242D01*
X423967Y-183333D01*
X424433Y-183242D01*
X424833Y-182783D01*
X425100Y-182142D01*
Y-177833D01*
G01Y-178567D02*
X424833Y-178200D01*
X424433Y-177925D01*
X423967Y-177833D01*
X423433Y-178017D01*
X423100Y-178383D01*
X422833Y-179025D01*
X422700Y-179667D01*
X422767Y-180217D01*
X423033Y-180858D01*
X423433Y-181317D01*
X423967Y-181500D01*
X424367Y-181408D01*
X424833Y-181042D01*
X425100Y-180675D01*
G01X428100Y-179025D02*
X430233D01*
X430033Y-178383D01*
X429700Y-178017D01*
X429233Y-177833D01*
X428767Y-177925D01*
X428367Y-178200D01*
X428100Y-178842D01*
X427967Y-179392D01*
Y-179942D01*
X428100Y-180492D01*
X428433Y-181042D01*
X428833Y-181408D01*
X429300Y-181500D01*
X429767Y-181317D01*
X430233Y-180767D01*
G01X437967Y-181500D02*
Y-176000D01*
X441033Y-181500D01*
Y-176000D01*
G01X443700Y-179025D02*
X445833D01*
X445633Y-178383D01*
X445300Y-178017D01*
X444833Y-177833D01*
X444367Y-177925D01*
X443967Y-178200D01*
X443700Y-178842D01*
X443567Y-179392D01*
Y-179942D01*
X443700Y-180492D01*
X444033Y-181042D01*
X444433Y-181408D01*
X444900Y-181500D01*
X445367Y-181317D01*
X445833Y-180767D01*
G01X449900Y-176000D02*
Y-181500D01*
G01X448967Y-177833D02*
X450833D01*
G01X453433D02*
X454233Y-181500D01*
X455100Y-177833D01*
X455967Y-181500D01*
X456767Y-177833D01*
G01X460300Y-181500D02*
X459900Y-181408D01*
X459500Y-181042D01*
X459233Y-180400D01*
X459100Y-179667D01*
X459233Y-178933D01*
X459500Y-178292D01*
X459900Y-177925D01*
X460300Y-177833D01*
X460700Y-177925D01*
X461100Y-178292D01*
X461367Y-178933D01*
X461433Y-179667D01*
X461367Y-180400D01*
X461100Y-181042D01*
X460700Y-181408D01*
X460300Y-181500D01*
G01X464567D02*
Y-177833D01*
G01Y-178567D02*
X464900Y-178200D01*
X465233Y-177925D01*
X465700Y-177833D01*
X466033Y-177925D01*
X466433Y-178200D01*
G01X469567Y-181500D02*
Y-176000D01*
G01X471700Y-177833D02*
X469567Y-179942D01*
G01X470433Y-179117D02*
X471833Y-181500D01*
G01X474900Y-180858D02*
X475233Y-181225D01*
X475700Y-181500D01*
X476100D01*
X476500Y-181317D01*
X476767Y-181042D01*
X476900Y-180675D01*
X476833Y-180125D01*
X476567Y-179850D01*
X475367Y-179300D01*
X475100Y-178658D01*
X475233Y-178200D01*
X475500Y-177925D01*
X475900Y-177833D01*
X476300Y-177925D01*
X476700Y-178200D01*
G01X481100Y-181683D02*
X480967Y-181592D01*
Y-181408D01*
X481100Y-181317D01*
X481233Y-181408D01*
Y-181592D01*
X481100Y-181683D01*
G01X426167Y-234900D02*
X426500Y-235450D01*
X426900Y-235817D01*
X427367Y-236000D01*
X427900Y-235817D01*
X428300Y-235450D01*
X428700Y-234900D01*
X428833Y-234167D01*
Y-230500D01*
G01X432700Y-236000D02*
X432300Y-235908D01*
X431900Y-235542D01*
X431633Y-234900D01*
X431500Y-234167D01*
X431633Y-233433D01*
X431900Y-232792D01*
X432300Y-232425D01*
X432700Y-232333D01*
X433100Y-232425D01*
X433500Y-232792D01*
X433767Y-233433D01*
X433833Y-234167D01*
X433767Y-234900D01*
X433500Y-235542D01*
X433100Y-235908D01*
X432700Y-236000D01*
G01X436700D02*
Y-230500D01*
G01Y-233250D02*
X437033Y-232700D01*
X437433Y-232425D01*
X437833Y-232333D01*
X438433Y-232517D01*
X438833Y-232883D01*
X439100Y-233525D01*
Y-234258D01*
X438967Y-234992D01*
X438700Y-235542D01*
X438233Y-235908D01*
X437833Y-236000D01*
X437433Y-235908D01*
X437033Y-235633D01*
X436700Y-235175D01*
G01X443100Y-236183D02*
X442967Y-236092D01*
Y-235908D01*
X443100Y-235817D01*
X443233Y-235908D01*
Y-236092D01*
X443100Y-236183D01*
G01Y-233708D02*
X442967Y-233617D01*
Y-233433D01*
X443100Y-233342D01*
X443233Y-233433D01*
Y-233617D01*
X443100Y-233708D01*
G01X437319Y-219993D02*
X436786Y-220176D01*
X436386Y-220635D01*
X436119Y-221185D01*
X435919Y-221918D01*
X435852Y-222743D01*
X435919Y-223568D01*
X436119Y-224301D01*
X436386Y-224851D01*
X436786Y-225310D01*
X437319Y-225493D01*
X437852Y-225310D01*
X438252Y-224851D01*
X438519Y-224301D01*
X438719Y-223568D01*
X438786Y-222743D01*
X438719Y-221918D01*
X438519Y-221185D01*
X438252Y-220635D01*
X437852Y-220176D01*
X437319Y-219993D01*
G01X442519Y-225493D02*
X442986Y-225401D01*
X443519Y-225126D01*
X443852Y-224668D01*
X443986Y-224026D01*
X443852Y-223385D01*
X443452Y-222835D01*
X442852Y-222560D01*
X442186D01*
X441786Y-222376D01*
X441452Y-221918D01*
X441319Y-221276D01*
X441519Y-220635D01*
X441986Y-220176D01*
X442519Y-219993D01*
X443052Y-220176D01*
X443519Y-220635D01*
X443719Y-221276D01*
X443586Y-221918D01*
X443252Y-222376D01*
X442852Y-222560D01*
X442186D01*
X441586Y-222835D01*
X441186Y-223385D01*
X441052Y-224026D01*
X441186Y-224668D01*
X441519Y-225126D01*
X442052Y-225401D01*
X442519Y-225493D01*
G01X446519Y-225676D02*
X448919Y-219993D01*
G01X451652Y-220910D02*
X452052Y-220360D01*
X452519Y-220085D01*
X453052Y-219993D01*
X453719Y-220176D01*
X454186Y-220635D01*
X454319Y-221185D01*
X454252Y-221735D01*
X453986Y-222193D01*
X452652Y-223110D01*
X452052Y-223751D01*
X451652Y-224668D01*
X451519Y-225493D01*
X454319D01*
G01X456852Y-220910D02*
X457252Y-220360D01*
X457719Y-220085D01*
X458252Y-219993D01*
X458919Y-220176D01*
X459386Y-220635D01*
X459519Y-221185D01*
X459452Y-221735D01*
X459186Y-222193D01*
X457852Y-223110D01*
X457252Y-223751D01*
X456852Y-224668D01*
X456719Y-225493D01*
X459519D01*
G01X462119Y-225676D02*
X464519Y-219993D01*
G01X468519Y-225493D02*
Y-219993D01*
X467719Y-221093D01*
G01Y-225493D02*
X469319D01*
G01X473719D02*
Y-219993D01*
X472919Y-221093D01*
G01Y-225493D02*
X474519D01*
G01X426052Y-215493D02*
Y-209993D01*
X427386D01*
X427919Y-210268D01*
X428319Y-210635D01*
X428652Y-211185D01*
X428919Y-211826D01*
X428986Y-212743D01*
X428919Y-213660D01*
X428652Y-214301D01*
X428319Y-214851D01*
X427919Y-215218D01*
X427386Y-215493D01*
X426052D01*
G01X433919D02*
Y-211826D01*
G01Y-212468D02*
X433652Y-212101D01*
X433252Y-211918D01*
X432786Y-211826D01*
X432319Y-212010D01*
X431919Y-212376D01*
X431652Y-212926D01*
X431519Y-213660D01*
X431652Y-214393D01*
X431919Y-214943D01*
X432319Y-215310D01*
X432786Y-215493D01*
X433252Y-215401D01*
X433652Y-215126D01*
X433919Y-214760D01*
G01X437919Y-209993D02*
Y-215493D01*
G01X436986Y-211826D02*
X438852D01*
G01X442119Y-213018D02*
X444252D01*
X444052Y-212376D01*
X443719Y-212010D01*
X443252Y-211826D01*
X442786Y-211918D01*
X442386Y-212193D01*
X442119Y-212835D01*
X441986Y-213385D01*
Y-213935D01*
X442119Y-214485D01*
X442452Y-215035D01*
X442852Y-215401D01*
X443319Y-215493D01*
X443786Y-215310D01*
X444252Y-214760D01*
G01X448319Y-215676D02*
X448186Y-215585D01*
Y-215401D01*
X448319Y-215310D01*
X448452Y-215401D01*
Y-215585D01*
X448319Y-215676D01*
G01Y-213201D02*
X448186Y-213110D01*
Y-212926D01*
X448319Y-212835D01*
X448452Y-212926D01*
Y-213110D01*
X448319Y-213201D01*
G01X449100Y-239500D02*
X448567Y-239683D01*
X448167Y-240142D01*
X447900Y-240692D01*
X447700Y-241425D01*
X447633Y-242250D01*
X447700Y-243075D01*
X447900Y-243808D01*
X448167Y-244358D01*
X448567Y-244817D01*
X449100Y-245000D01*
X449633Y-244817D01*
X450033Y-244358D01*
X450300Y-243808D01*
X450500Y-243075D01*
X450567Y-242250D01*
X450500Y-241425D01*
X450300Y-240692D01*
X450033Y-240142D01*
X449633Y-239683D01*
X449100Y-239500D01*
G01X454300D02*
X453767Y-239683D01*
X453367Y-240142D01*
X453100Y-240692D01*
X452900Y-241425D01*
X452833Y-242250D01*
X452900Y-243075D01*
X453100Y-243808D01*
X453367Y-244358D01*
X453767Y-244817D01*
X454300Y-245000D01*
X454833Y-244817D01*
X455233Y-244358D01*
X455500Y-243808D01*
X455700Y-243075D01*
X455767Y-242250D01*
X455700Y-241425D01*
X455500Y-240692D01*
X455233Y-240142D01*
X454833Y-239683D01*
X454300Y-239500D01*
G01X460300Y-245000D02*
Y-239500D01*
X457833Y-243442D01*
X461167D01*
G01X463233Y-243900D02*
X463633Y-244542D01*
X464167Y-244908D01*
X464767Y-245000D01*
X465300Y-244908D01*
X465833Y-244450D01*
X466167Y-243900D01*
X466233Y-243350D01*
X466100Y-242708D01*
X465633Y-242250D01*
X465167Y-242067D01*
X464567D01*
G01X465167D02*
X465567Y-241792D01*
X465900Y-241333D01*
X466033Y-240783D01*
X465900Y-240233D01*
X465567Y-239775D01*
X464967Y-239500D01*
X464367Y-239592D01*
X463767Y-239958D01*
G01X468433Y-245000D02*
Y-239500D01*
X469767D01*
X470300Y-239775D01*
X470700Y-240142D01*
X471033Y-240692D01*
X471300Y-241333D01*
X471367Y-242250D01*
X471300Y-243167D01*
X471033Y-243808D01*
X470700Y-244358D01*
X470300Y-244725D01*
X469767Y-245000D01*
X468433D01*
G01X449016Y-193997D02*
X448616Y-193905D01*
X448216Y-193539D01*
X447949Y-192897D01*
X447816Y-192164D01*
X447949Y-191430D01*
X448216Y-190789D01*
X448616Y-190422D01*
X449016Y-190330D01*
X449416Y-190422D01*
X449816Y-190789D01*
X450083Y-191430D01*
X450149Y-192164D01*
X450083Y-192897D01*
X449816Y-193539D01*
X449416Y-193905D01*
X449016Y-193997D01*
G01X453816D02*
Y-189322D01*
X453949Y-188864D01*
X454216Y-188589D01*
X454616Y-188497D01*
X455016Y-188680D01*
X455216Y-189139D01*
G01X454416Y-190697D02*
X453083D01*
G01X459416Y-194180D02*
X459283Y-194089D01*
Y-193905D01*
X459416Y-193814D01*
X459549Y-193905D01*
Y-194089D01*
X459416Y-194180D01*
G01Y-191705D02*
X459283Y-191614D01*
Y-191430D01*
X459416Y-191339D01*
X459549Y-191430D01*
Y-191614D01*
X459416Y-191705D01*
G54D22*
X460000Y127894D03*
Y147106D03*
G54D13*
X10000Y122500D03*
X197500Y263000D03*
Y273000D03*
X207500Y263000D03*
X217500D03*
X207500Y273000D03*
X217500D03*
X235000Y67500D03*
X227500Y263000D03*
X237500D03*
X227500Y273000D03*
X267500Y282500D03*
X277500D03*
X267500Y292500D03*
X277500D03*
X287500Y282500D03*
X297500D03*
X287500Y292500D03*
X297500D03*
X307500Y282500D03*
X350000Y292500D03*
X360000D03*
X370000Y77500D03*
X380000Y292500D03*
X370000D03*
X432500Y282500D03*
X442500D03*
X432500Y292500D03*
X442500D03*
X452500Y282500D03*
X462500D03*
X452500Y292500D03*
X462500D03*
X472500Y282500D03*
G54D23*
X481100Y144000D03*
X504722D03*
G54D14*
X20000Y105000D03*
X16750Y109750D03*
X42500Y7500D03*
X27500Y30000D03*
X42500Y47500D03*
X35000Y62500D03*
X31000Y92500D03*
X28250Y109750D03*
X25000Y105000D03*
X34000Y110662D03*
Y116961D03*
Y136000D03*
Y129560D03*
Y161056D03*
Y170500D03*
Y189402D03*
Y195701D03*
Y183103D03*
X34200Y208300D03*
X34000Y202001D03*
X37500Y262500D03*
Y283000D03*
X49000Y7500D03*
X56000D03*
X62500D03*
X56000Y47500D03*
X62500D03*
X49000D03*
X62500Y62500D03*
X45000Y93500D03*
Y88615D03*
X58500Y93500D03*
Y88615D03*
X45000Y120111D03*
X58500Y101213D03*
X45000D03*
Y107512D03*
X58500Y120111D03*
Y110662D03*
X45000Y132500D03*
Y126500D03*
X58500Y129560D03*
Y164205D03*
X45000D03*
X44953Y179953D03*
X45000Y198851D03*
X58500Y189402D03*
X45000Y192552D03*
Y186252D03*
X58500Y198851D03*
X45000Y211449D03*
X58500Y212500D03*
X45000Y205150D03*
X62500Y262500D03*
X72500Y2500D03*
X71500Y92500D03*
X72500Y165000D03*
X69000Y208300D03*
X90000Y9500D03*
X84000D03*
X96000D03*
Y45500D03*
X90000D03*
X84000D03*
X85000Y77500D03*
X100000Y227500D03*
X87500Y262500D03*
X120500Y500D03*
X110000Y2500D03*
X115000Y50000D03*
X120500D03*
X117500Y110000D03*
X129500Y500D03*
X125000D03*
X137500Y2500D03*
X129500Y50000D03*
X125000D03*
X137500Y112500D03*
X157500Y240000D03*
X177500Y7500D03*
X175000Y105000D03*
X180000Y240000D03*
Y267500D03*
X198500Y7500D03*
X191500D03*
X185000D03*
X191500Y47500D03*
X198500D03*
X185000D03*
X197500Y292500D03*
X212500Y12500D03*
X205000Y7500D03*
Y47500D03*
X220000Y52500D03*
X212500Y135000D03*
Y160000D03*
Y182500D03*
X222500Y222500D03*
X207500Y240000D03*
X217500Y292500D03*
X243000Y31250D03*
X230000Y52500D03*
X225000Y51500D03*
X230000Y105000D03*
X242500Y130000D03*
Y160000D03*
Y182500D03*
Y240000D03*
X262500Y7500D03*
X257600Y20000D03*
X253000Y27500D03*
X262000D03*
Y23750D03*
X257600Y35000D03*
X262000Y31250D03*
X247400Y35000D03*
X260000Y267500D03*
Y292500D03*
X269500Y6500D03*
Y18500D03*
Y12500D03*
X267500Y38000D03*
Y32000D03*
Y26000D03*
Y44000D03*
Y51000D03*
Y57000D03*
Y69000D03*
Y63000D03*
X270000Y130000D03*
X272500Y160000D03*
Y182500D03*
X287500Y2500D03*
X302500Y105000D03*
Y130000D03*
Y160000D03*
Y190000D03*
Y225000D03*
X305500Y18500D03*
Y6500D03*
Y12500D03*
X307500Y38000D03*
Y32000D03*
Y26000D03*
Y51000D03*
Y57000D03*
Y44000D03*
Y69000D03*
Y63000D03*
X325000Y65000D03*
X342500Y82500D03*
X327500Y240000D03*
Y225000D03*
Y267500D03*
Y292500D03*
X352500Y65000D03*
X355000Y267500D03*
X377500Y2000D03*
X382500D03*
X380000Y33500D03*
X375000Y37500D03*
Y30000D03*
X370000Y250000D03*
X365000Y285000D03*
X385000Y37500D03*
Y30000D03*
X397500Y65500D03*
X385000Y152500D03*
X402500D03*
Y177500D03*
X385000D03*
X395000Y203500D03*
X385000Y267500D03*
X412500Y52000D03*
X422500D03*
X412500Y65500D03*
X422500Y69000D03*
Y65500D03*
X425000Y102500D03*
X412500Y267500D03*
Y292500D03*
X442500Y0D03*
X431900Y58900D03*
X427500Y52000D03*
X442500Y42500D03*
X427500Y65500D03*
X437500Y87500D03*
X445000Y108000D03*
X440000Y180000D03*
X451000Y0D03*
X459000D03*
X464500Y59000D03*
X459000Y42500D03*
X451000D03*
X464500Y79000D03*
X457500Y66500D03*
Y72500D03*
X462500D03*
Y66500D03*
X460000Y167500D03*
Y200000D03*
X452500Y267500D03*
X475000Y0D03*
X483500D03*
X467500D03*
X468000Y51500D03*
X477900Y51600D03*
X483500Y42500D03*
X475000D03*
X467500D03*
Y86500D03*
X477900D03*
X482500Y282500D03*
X491500Y0D03*
X500000D03*
X488000Y51500D03*
X491000Y59000D03*
X500000Y42500D03*
X491500D03*
X491000Y79000D03*
X498000Y72500D03*
Y66500D03*
X493000Y72500D03*
Y66500D03*
X487500Y86500D03*
X520000Y25000D03*
Y110000D03*
Y162500D03*
Y210000D03*
Y255000D03*
G54D15*
X10000Y260550D03*
Y255450D03*
X20000Y258950D03*
Y264050D03*
X49000Y236050D03*
Y230950D03*
X103500Y119050D03*
Y113950D03*
X92500Y109950D03*
Y115050D03*
X103500Y129450D03*
Y134550D03*
X92500Y127050D03*
Y121950D03*
X86000Y127050D03*
Y121950D03*
X103500Y157050D03*
Y151950D03*
X100500Y146550D03*
Y141450D03*
X103500Y175550D03*
Y170450D03*
X97500Y175550D03*
Y170450D03*
X102500Y259950D03*
Y265050D03*
X111500Y111050D03*
Y105950D03*
Y137450D03*
Y157050D03*
Y151950D03*
Y142550D03*
X118500Y224950D03*
Y230050D03*
X109500Y236950D03*
X123500Y259950D03*
X109000Y247950D03*
Y253050D03*
X109500Y242050D03*
X123500Y265050D03*
X117000Y276450D03*
Y281550D03*
X110000Y276450D03*
Y281550D03*
X125000Y230050D03*
Y224950D03*
Y248050D03*
Y242950D03*
X124000Y281550D03*
Y276450D03*
X161500Y109050D03*
Y103950D03*
X153500Y157450D03*
X161500D03*
X153500Y162550D03*
X161500D03*
X169500Y109050D03*
Y103950D03*
X164000Y174050D03*
Y168950D03*
X172000Y174050D03*
Y168950D03*
X185000Y108950D03*
Y114050D03*
X204000Y105950D03*
Y111050D03*
X196000Y105950D03*
Y111050D03*
Y127950D03*
Y133050D03*
X185000Y146450D03*
Y151550D03*
X204000Y149450D03*
Y154550D03*
X196000Y159450D03*
Y149450D03*
Y154550D03*
X204000Y170950D03*
Y176050D03*
X196000Y164550D03*
Y170950D03*
Y176050D03*
X185000Y184450D03*
Y189550D03*
X204000Y188950D03*
Y194050D03*
X196000Y188950D03*
Y194050D03*
X268000Y100550D03*
Y95450D03*
X275500D03*
Y100550D03*
X267000Y199950D03*
X273500D03*
X267000Y205050D03*
X273500D03*
X279000Y234950D03*
Y240050D03*
X324000Y105950D03*
Y111050D03*
X316000Y105950D03*
Y111050D03*
X324000Y127950D03*
Y133050D03*
Y158950D03*
X316000D03*
Y148950D03*
Y154050D03*
X324000Y148950D03*
Y154050D03*
Y164050D03*
X316000D03*
X324000Y170950D03*
Y176050D03*
X316000Y188450D03*
Y193550D03*
X324000Y188450D03*
Y193550D03*
X335000Y108950D03*
Y114050D03*
Y145950D03*
Y151050D03*
Y185950D03*
Y191050D03*
X367000Y112450D03*
Y117550D03*
Y152550D03*
Y147450D03*
X367500Y177950D03*
Y183050D03*
X423000Y146450D03*
Y151550D03*
X427500Y116550D03*
Y111450D03*
Y160450D03*
Y165550D03*
X432500Y256850D03*
Y261950D03*
G54D24*
X472390Y215770D03*
G54D25*
Y205927D03*
X480264D03*
Y215770D03*
G54D16*
X43600Y82164D03*
Y217900D03*
G54D17*
X39450Y88615D03*
Y91764D03*
Y94914D03*
Y98063D03*
Y101213D03*
Y104363D03*
Y107512D03*
Y110662D03*
Y113812D03*
Y116961D03*
Y120111D03*
Y123260D03*
Y126410D03*
Y129560D03*
Y132709D03*
Y135859D03*
Y139008D03*
Y142158D03*
Y145308D03*
Y148457D03*
Y151607D03*
Y154756D03*
Y157906D03*
Y161056D03*
Y164205D03*
Y167355D03*
Y170504D03*
Y173654D03*
Y176804D03*
Y179953D03*
Y183103D03*
Y186252D03*
Y189402D03*
Y192552D03*
Y195701D03*
Y198851D03*
Y202001D03*
Y205150D03*
Y208300D03*
Y211449D03*
X63750Y88615D03*
Y91764D03*
Y94914D03*
Y98063D03*
Y101213D03*
Y104363D03*
Y107512D03*
Y110662D03*
Y113812D03*
Y116961D03*
Y120111D03*
Y123260D03*
Y126410D03*
Y129560D03*
Y132709D03*
Y135859D03*
Y139008D03*
Y142158D03*
Y145308D03*
Y148457D03*
Y151607D03*
Y154756D03*
Y157906D03*
Y161056D03*
Y164205D03*
Y167355D03*
Y170504D03*
Y173654D03*
Y176804D03*
Y179953D03*
Y183103D03*
Y186252D03*
Y189402D03*
Y192552D03*
Y195701D03*
Y198851D03*
Y202001D03*
Y205150D03*
Y208300D03*
Y211449D03*
G54D26*
X492911Y162504D03*
G54D27*
X490933Y187148D03*
Y234550D03*
G54D18*
X52500Y272500D03*
X62500Y282500D03*
X52500Y292500D03*
X72500Y272500D03*
Y292500D03*
X147500Y273500D03*
Y293500D03*
X167500Y273500D03*
X157500Y283500D03*
X167500Y293500D03*
G54D28*
X520000Y53500D03*
Y84500D03*
G54D19*
X120050Y173000D03*
X114950D03*
X120050Y181000D03*
X114950D03*
Y237500D03*
X120050D03*
X114450Y252500D03*
X119550D03*
X109450Y268500D03*
X114550D03*
X131950Y99000D03*
X137050D03*
X131950Y107000D03*
X137050D03*
X133050Y173000D03*
X127950D03*
X133050Y181000D03*
X127950D03*
X159950Y27500D03*
X158950Y96500D03*
X147450Y88500D03*
X152550D03*
X147450Y96500D03*
X152550D03*
X143950Y107000D03*
X149050D03*
X143950Y113000D03*
X149050D03*
X149950Y181000D03*
X155050D03*
X149950Y173000D03*
X155050D03*
X165050Y27500D03*
X164050Y96500D03*
X221550Y94000D03*
X216450D03*
X221550Y86000D03*
X216450D03*
X221050Y206000D03*
X215950D03*
X221050Y214000D03*
X215950D03*
X237950Y94000D03*
X243050D03*
X240450Y214000D03*
X258550Y83000D03*
X253450D03*
X245550Y214000D03*
X257550D03*
X252450D03*
X304050Y94000D03*
X298950D03*
X304050Y86000D03*
X298950D03*
X304050Y206000D03*
X298950D03*
X304050Y214000D03*
X298950D03*
X353450Y240000D03*
X358550D03*
X353450Y225000D03*
X358550D03*
X381450Y106000D03*
X375950Y120500D03*
X381050D03*
Y127500D03*
X375950D03*
X377550Y189500D03*
X372450D03*
X386550Y106000D03*
X390450Y140000D03*
X395550D03*
X390450Y133000D03*
X395550D03*
X397450Y189500D03*
X402550D03*
X390050Y237500D03*
X384950D03*
X390050Y222500D03*
X384950D03*
X419950Y60000D03*
X419050Y194000D03*
X413950D03*
X425050Y60000D03*
G54D29*
G01X56000Y-170500D02*
X173500D01*
G01X56000Y-167500D02*
X173500D01*
M02*
