G04 ================== begin FILE IDENTIFICATION RECORD ==================*
G04 Layout Name:  X:/range_0193/RNRAD1-RF-COMBO-R5.brd*
G04 Film Name:    layer01*
G04 File Format:  Gerber RS274X*
G04 File Origin:  Cadence Allegro 16.3-S042*
G04 Origin Date:  Thu Mar 22 10:00:05 2012*
G04 *
G04 Layer:  VIA CLASS/TOP*
G04 Layer:  PIN/TOP*
G04 Layer:  ETCH/TOP*
G04 Layer:  DRAWING FORMAT/L01_TOP*
G04 Layer:  DRAWING FORMAT/FILM_BLOCK_CHANGE*
G04 Layer:  DRAWING FORMAT/FILM_TITLE_BLOCK*
G04 Layer:  BOARD GEOMETRY/OUTLINE*
G04 *
G04 Offset:    (0.00 0.00)*
G04 Mirror:    No*
G04 Mode:      Positive*
G04 Rotation:  0*
G04 FullContactRelief:  No*
G04 UndefLineWidth:     6.00*
G04 ================== end FILE IDENTIFICATION RECORD ====================*
%FSLAX25Y25*MOIN*%
%IR0*IPPOS*OFA0.00000B0.00000*MIA0B0*SFA1.00000B1.00000*%
%ADD33R,.102X.05*%
%ADD39R,.05X.102*%
%AMMACRO35*
21,1,.032,.028,0.0,0.0,135.*%
%ADD35MACRO35*%
%ADD16C,.02*%
%ADD11C,.04*%
%ADD14C,.06*%
%ADD12C,.024*%
%ADD42C,.08*%
%ADD24C,.035*%
%ADD13C,.09*%
%ADD41C,.028*%
%ADD20R,.147X.087*%
%ADD29R,.08858X.08858*%
%ADD10C,.2*%
%ADD31R,.016X.07*%
%AMMACRO36*
21,1,.032,.028,0.0,0.0,45.*%
%ADD36MACRO36*%
%ADD32R,.031X.055*%
%ADD25R,.028X.032*%
%ADD23R,.07X.016*%
%ADD22R,.08X.025*%
%ADD18R,.032X.028*%
%ADD17R,.052X.039*%
%ADD15R,.065X.045*%
%ADD26R,.045X.065*%
%ADD19R,.039X.027*%
%ADD34R,.01614X.02008*%
%ADD30R,.027X.039*%
%ADD38R,.063X.094*%
%ADD27O,.01181X.03543*%
%ADD28O,.03543X.01181*%
%ADD40R,.067X.047*%
%ADD21R,.047X.087*%
%ADD37R,.085X.059*%
%ADD43C,.01*%
%ADD44C,.011*%
%ADD45C,.03*%
%ADD46C,.012*%
%ADD47C,.023*%
%ADD48C,.015*%
%ADD49C,.025*%
%ADD50C,.017*%
%ADD51C,.004*%
%ADD52C,.005*%
%ADD53C,.006*%
%ADD54C,.008*%
%ADD58R,.06302X.10302*%
%ADD59C,.04004*%
%ADD62C,.03604*%
%ADD56C,.07006*%
%ADD55C,.13*%
%ADD60R,.05504X.04304*%
%ADD61R,.04404X.04804*%
%ADD57R,.04804X.04404*%
G75*
%LPD*%
G75*
G36*
G01X479000Y60000D02*
X500500D01*
Y70000D01*
X527500D01*
Y32500D01*
X501000D01*
Y11000D01*
X529999D01*
Y-9999D01*
X-9999D01*
Y289000D01*
X-10000D01*
Y310000D01*
X530000D01*
Y289000D01*
X501000D01*
Y275000D01*
X527500D01*
Y237500D01*
X500500D01*
Y248000D01*
X488000D01*
Y252505D01*
G03Y259495I-2050J3495D01*
G01Y265000D01*
X479000D01*
Y289000D01*
X11000D01*
Y11000D01*
X120300D01*
Y51000D01*
X137000D01*
Y11000D01*
X479000D01*
Y49959D01*
G03Y54041I-3500J2041D01*
G01Y60000D01*
G37*
G36*
G01X50023Y121500D02*
X52012Y119512D01*
X52000Y119500D01*
Y113000D01*
X52245Y112755D01*
G02X51891Y111902I-354J-353D01*
G01X43081D01*
X39581Y115402D01*
X31034D01*
G03Y112598I-3534J-1402D01*
G01X38419D01*
X41919Y109098D01*
X54367D01*
G03X57259Y110891I1133J1402D01*
G02X57747Y111500I488J109D01*
G01X63211D01*
G02X63655Y110769I0J-500D01*
G03X63024Y105896I6345J-3299D01*
G03X63580Y101172I6976J-1574D01*
G03X63024Y96448I6420J-3150D01*
G03X67971Y88015I6976J-1575D01*
G01X79038Y76948D01*
X80598D01*
Y75419D01*
X94598Y61419D01*
Y37919D01*
X96098Y36419D01*
Y34331D01*
X94419Y32652D01*
X93652D01*
Y40902D01*
X88148D01*
Y40502D01*
X84552D01*
Y43302D01*
X82252D01*
Y46648D01*
X83902D01*
Y47648D01*
X91175D01*
X91275Y47748D01*
X93402D01*
Y52152D01*
X88598D01*
Y51152D01*
X83902D01*
Y52152D01*
X83502D01*
Y52848D01*
X83902D01*
Y58352D01*
X82252D01*
Y59575D01*
X82258Y59603D01*
G03Y60397I-1758J397D01*
G01X82252Y60425D01*
Y61248D01*
X82902D01*
Y65652D01*
X78098D01*
Y61248D01*
X78748D01*
Y60425D01*
X78742Y60397D01*
G03Y59603I1758J-397D01*
G01X78748Y59575D01*
Y58352D01*
X77098D01*
Y52848D01*
X77498D01*
Y52152D01*
X77098D01*
Y46648D01*
X78748D01*
Y43302D01*
X76448D01*
Y37198D01*
X76954D01*
Y32802D01*
X76448D01*
Y26698D01*
X84552D01*
Y32802D01*
X84046D01*
Y36998D01*
X88148D01*
Y29098D01*
X93652D01*
Y29848D01*
X95581D01*
X97495Y31763D01*
G02X98348Y31409I353J-354D01*
G01Y29098D01*
X103852D01*
Y33402D01*
X98902D01*
Y36598D01*
X103852D01*
Y36998D01*
X104528D01*
X104582Y36971D01*
G03X106470Y36998I919J1779D01*
G01X107954D01*
Y32802D01*
X107448D01*
Y26698D01*
X115552D01*
Y32802D01*
X115046D01*
Y37198D01*
X115552D01*
Y43302D01*
X113252D01*
Y44575D01*
X113258Y44603D01*
G03X109742I-1758J397D01*
G01X109748Y44575D01*
Y43302D01*
X107448D01*
Y40502D01*
X106472D01*
X106418Y40529D01*
G03X104582I-918J-1779D01*
G01X104528Y40502D01*
X103852D01*
Y40902D01*
X102852D01*
Y44575D01*
X102858Y44603D01*
G03Y45397I-1758J397D01*
G01X102852Y45425D01*
Y47748D01*
X103402D01*
Y52152D01*
X98598D01*
Y47748D01*
X99348D01*
Y45425D01*
X99342Y45397D01*
G03Y44603I1758J-397D01*
G01X99348Y44575D01*
Y40902D01*
X98348D01*
Y39341D01*
G02X97495Y38987I-500J0D01*
G01X97402Y39081D01*
Y60978D01*
G02X98255Y61331I500J0D01*
G01X101481Y58105D01*
G02X101128Y57252I-353J-353D01*
G01X98598D01*
Y52848D01*
X103402D01*
Y54978D01*
G02X104255Y55331I500J0D01*
G01X108438Y51148D01*
X117500D01*
Y13500D01*
X25000D01*
X24487Y14013D01*
G02X24534Y14761I354J353D01*
G03X15761Y23534I-3834J4939D01*
G02X15013Y23487I-395J307D01*
G01X13500Y25000D01*
Y129500D01*
X30000D01*
X34500Y125000D01*
X43000D01*
X46500Y121500D01*
X50023D01*
G37*
G36*
G01X115598Y239112D02*
X101638Y225152D01*
X93538D01*
X72538Y204152D01*
X70038D01*
X69617Y203730D01*
X69547Y203714D01*
G03X68276Y202601I413J-1754D01*
G03X67571Y202386I1731J-6939D01*
G02X66902Y202857I-169J470D01*
G01Y211919D01*
X74902Y219919D01*
Y235867D01*
G03X72098I-1402J1133D01*
G01Y221081D01*
X64098Y213081D01*
Y199699D01*
G03X63024Y194086I5902J-4039D01*
G03X63580Y189361I6976J-1574D01*
G03X63024Y184636I6420J-3151D01*
G03X64056Y179085I6976J-1574D01*
G01X64098Y179022D01*
Y177500D01*
X56084D01*
G03X55916I-84J-2000D01*
G01X52000D01*
X50000Y175500D01*
X48170D01*
X48132Y175513D01*
G03X46868I-632J-1900D01*
G01X46830Y175500D01*
X33500D01*
X22500Y164500D01*
X21173D01*
X21117Y164673D01*
G03X14338Y165611I-3617J-1173D01*
G01X14264Y165500D01*
X13500D01*
Y272500D01*
X17074Y276074D01*
X17246Y275956D01*
G03X25944Y284654I3554J5144D01*
G01X25826Y284826D01*
X27500Y286500D01*
X300748D01*
Y281298D01*
X301254D01*
Y276902D01*
X300748D01*
Y273902D01*
X298702D01*
Y274352D01*
X293898D01*
Y273902D01*
X292502D01*
Y274352D01*
X287698D01*
Y273252D01*
X286652D01*
Y273902D01*
X286202D01*
Y275925D01*
X286208Y275953D01*
G03X283198Y277646I-1758J397D01*
G03X272098Y271500I-3848J-6146D01*
G01Y269598D01*
X267000Y264500D01*
X261500D01*
X257102Y268898D01*
Y269566D01*
X252884Y273784D01*
G03X247650Y275952I-5234J-5234D01*
G01X237736D01*
G02X237250Y276571I-1J500D01*
G03X234256Y275697I-1750J429D01*
G02X234264Y274981I-345J-362D01*
G01X233916Y274633D01*
X233788Y274655D01*
G03X230277Y274321I-1138J-6655D01*
G02X229602Y274789I-175J468D01*
G01Y276752D01*
X224798D01*
Y272348D01*
X226973D01*
G02X227176Y271952I0J-250D01*
G03X226971Y271652I5470J-3958D01*
G01X224798D01*
Y270376D01*
G02X223945Y270022I-500J0D01*
G01X223901Y270066D01*
X223882Y270104D01*
G03X223636Y270565I-6428J-3134D01*
G01X223602Y270623D01*
Y271652D01*
X222858D01*
X222783Y271735D01*
G03X222606Y271925I-5320J-4779D01*
G01X222536Y271998D01*
Y272348D01*
X223602D01*
Y276752D01*
X218761D01*
G02X217945Y276588I-463J189D01*
G01X217831Y276702D01*
X199750D01*
G03X197000Y277252I-2750J-6602D01*
G01X193112D01*
X192807Y277557D01*
G03X182677Y277541I-5057J-5057D01*
G02X182323I-177J176D01*
G03X177250Y279652I-5073J-5040D01*
G01X168988D01*
X167378Y278042D01*
G02X166667Y278046I-354J353D01*
G03X166607Y278107I-5128J-4984D01*
G01X163462Y281252D01*
X144538D01*
X126748Y263462D01*
Y250262D01*
X121255Y244769D01*
G02X120402Y245122I-353J353D01*
G01Y245752D01*
X120252D01*
Y248648D01*
X121402D01*
Y254152D01*
X121002D01*
Y254848D01*
X121402D01*
Y260352D01*
X114598D01*
Y254848D01*
X114998D01*
Y254152D01*
X114598D01*
Y248648D01*
X115748D01*
Y245752D01*
X115598D01*
Y241348D01*
X117231D01*
G02X117408Y240922I0J-250D01*
G01X117138Y240652D01*
X115598D01*
Y239112D01*
G37*
G36*
G01X94902Y174500D02*
Y183788D01*
X103962Y192848D01*
X116500D01*
Y110289D01*
G02X115646Y109936I-500J0D01*
G01X115081Y110502D01*
X111702D01*
Y115452D01*
X111302D01*
Y116148D01*
X111702D01*
Y121652D01*
X106500D01*
Y128501D01*
G03X107177Y129341I-1000J1499D01*
G01X107240Y129500D01*
X107760D01*
X107823Y129341D01*
G03X110902Y131133I1677J660D01*
G01Y158581D01*
X108500Y160982D01*
Y168500D01*
X106000Y171000D01*
X102000D01*
X98500Y174500D01*
X94902D01*
G37*
G36*
G01X479000Y248000D02*
X500500D01*
Y237500D01*
X501000D01*
Y70000D01*
X500500D01*
Y60000D01*
X479000D01*
Y139000D01*
X470500D01*
X141000D01*
Y113500D01*
X140800Y113300D01*
X136000Y108500D01*
X119000D01*
Y110000D01*
Y192000D01*
X141000D01*
Y161000D01*
X470500D01*
X479000D01*
Y248000D01*
G37*
G36*
G01X142500Y13500D02*
Y31679D01*
G02X143354Y32033I500J1D01*
G01X161033Y14354D01*
G02X160679Y13500I-353J-354D01*
G01X142500D01*
G37*
G36*
G01X136352Y71152D02*
Y74948D01*
X141802D01*
Y75454D01*
X146198D01*
Y74948D01*
X152302D01*
Y75098D01*
X154372D01*
X155419Y74052D01*
X155781D01*
Y73777D01*
X155776Y73753D01*
G03Y73216I1366J-268D01*
G01X155781Y73192D01*
Y72918D01*
X155435D01*
X154919Y72402D01*
X151969D01*
X151469Y71902D01*
X148848D01*
Y71152D01*
X148152D01*
Y71902D01*
X143748D01*
Y71152D01*
X143223D01*
X143177Y71170D01*
G03X141823I-677J-1670D01*
G01X141777Y71152D01*
X136352D01*
G37*
G36*
G01X221117Y113686D02*
G03X218867Y116502I-1117J1414D01*
G01X217512D01*
X217342Y116672D01*
G02X217519Y117098I177J176D01*
G01X218181D01*
X220188Y119106D01*
X220269Y119118D01*
G03X218218Y121169I-269J1782D01*
G01X218206Y121088D01*
X217019Y119902D01*
X152419D01*
X144354Y111836D01*
G02X143500Y112189I-354J353D01*
G01Y136500D01*
X476500D01*
Y56524D01*
G02X475945Y56027I-500J0D01*
G03X475500Y56052I-449J-4027D01*
G01X469464D01*
G03X463450Y59252I-6014J-4051D01*
G01X461000D01*
Y73500D01*
X409000D01*
Y59252D01*
X408050D01*
G03X405547Y58806I1J-7252D01*
G03X402952Y59284I-2595J-6806D01*
G01X400412D01*
G03X400280Y59346I-3163J-6562D01*
G03X398825Y61431I-6583J-3043D01*
G01X395252Y65004D01*
Y71350D01*
G03X393128Y76478I-7252J0D01*
G01X386804Y82802D01*
X381542D01*
X380365Y82978D01*
X373431D01*
G03X371330Y82667I0J-7251D01*
G01X371319Y82664D01*
X370500Y82500D01*
X370000D01*
X330706Y82651D01*
X330671Y82662D01*
G03X326780Y82759I-2120J-6935D01*
G01X326750Y82752D01*
X320996D01*
X313052Y74807D01*
Y68451D01*
X312615D01*
X312581Y68461D01*
G03X308000Y68288I-2031J-6961D01*
G03X305450Y68752I-2552J-6788D01*
G01X302900D01*
G03X302448Y68737I14J-7252D01*
G02X302183Y68974I-15J250D01*
G03X302170Y69176I-6743J-333D01*
G01X302169Y69186D01*
Y70441D01*
X301945D01*
G03X295343Y75386I-6505J-1806D01*
G01X294510Y75374D01*
X294470Y75387D01*
G03X292200Y75752I-2272J-6887D01*
G01X288550D01*
G03X288088Y75737I4J-7252D01*
G01X287976Y75730D01*
X283454Y80252D01*
X275050D01*
G03X272500Y79788I2J-7252D01*
G03X269950Y80252I-2552J-6788D01*
G01X261050D01*
G03X258500Y79788I2J-7252D01*
G03X255950Y80252I-2552J-6788D01*
G01X237996D01*
X235915Y78170D01*
G02X235114Y78302I-353J354D01*
G03X234439Y79038I-1614J-802D01*
G01X233590Y79886D01*
Y81066D01*
X246236D01*
Y89855D01*
G03X247014Y92477I-736J1645D01*
G02X247434Y93248I420J271D01*
G01X248402D01*
Y97652D01*
X243598D01*
Y95172D01*
X242755Y94328D01*
G02X241902Y94682I-353J354D01*
G01Y97652D01*
X237098D01*
Y96952D01*
X235402D01*
Y97652D01*
X230598D01*
Y93247D01*
G02X230986Y92477I-32J-499D01*
G03X231029Y90458I1514J-978D01*
G02X230622Y89670I-408J-288D01*
G01X228302D01*
Y93248D01*
X228902D01*
Y97652D01*
X226911D01*
G02X226662Y97902I1J250D01*
G01X226678Y97991D01*
G03X226804Y98348I-6678J2558D01*
G01X228902D01*
Y102752D01*
X228252D01*
Y105198D01*
X230552D01*
Y106248D01*
X231503D01*
G02X231828Y105369I0J-500D01*
G03X231296Y103414I1172J-1369D01*
G02X230823Y102752I-473J-162D01*
G01X230598D01*
Y98348D01*
X235402D01*
Y102752D01*
X235177D01*
G02X234704Y103414I0J500D01*
G03X234584Y104860I-1704J587D01*
G02X235023Y105598I439J238D01*
G01X237652D01*
Y110402D01*
X233248D01*
Y109752D01*
X230552D01*
Y111302D01*
X230046D01*
Y115698D01*
X230552D01*
Y116998D01*
X231975D01*
X233248Y115725D01*
Y113598D01*
X237652D01*
Y118402D01*
X235525D01*
X233425Y120502D01*
X230552D01*
Y121802D01*
X222448D01*
Y115698D01*
X222954D01*
X222955Y112940D01*
Y112266D01*
G02X222101Y111913I-500J0D01*
G01X221074Y112940D01*
G02X221117Y113686I353J354D01*
G37*
G36*
G01X143500Y163500D02*
Y194500D01*
X140421D01*
G02X140067Y195354I-1J500D01*
G01X142662Y197948D01*
X144556D01*
X152956Y189548D01*
X167862D01*
X176552Y198238D01*
Y209851D01*
G02X177064Y210351I500J0D01*
G03X182323Y212459I186J7149D01*
G02X182677I177J-176D01*
G03X187750Y210348I5073J5040D01*
G01X197562D01*
X199962Y212748D01*
X206912D01*
X207462Y213298D01*
X212112D01*
X212461Y213648D01*
X215783Y211710D01*
G02X215768Y210838I-252J-432D01*
G03X219200Y197198I3432J-6388D01*
G01X221212D01*
X221246Y197165D01*
G03X221294Y196383I6501J7D01*
G02X220798Y195822I-496J-61D01*
G01X220427D01*
X220358Y195881D01*
G03X218323Y196074I-1158J-1381D01*
G02X217952Y196293I-121J219D01*
G01Y196402D01*
X213548D01*
Y191598D01*
X217952D01*
Y192323D01*
G02X218614Y192796I500J0D01*
G03X219791Y192798I586J1704D01*
G02X220453Y192359I163J-473D01*
G03X220858Y191468I1389J94D01*
G03X220857Y189500I984J-985D01*
G03X220841Y187549I985J-984D01*
G02X220866Y187231I-180J-174D01*
G03X220651Y186500I976J-684D01*
G02X220151Y185980I-500J-20D01*
G01X219252D01*
X217952Y187281D01*
Y189902D01*
X213548D01*
Y185098D01*
X216169D01*
X217013Y184255D01*
G02X216659Y183402I-354J-353D01*
G01X213548D01*
Y178372D01*
X213277D01*
X213256Y178376D01*
G03X213083Y178397I-303J-1776D01*
G02X212852Y178646I19J249D01*
G01Y183402D01*
X208448D01*
Y178598D01*
X211203D01*
G02X211582Y177773I-1J-500D01*
G03X211192Y176203I1368J-1173D01*
G01X211198Y176175D01*
Y175052D01*
X209898D01*
Y166948D01*
X216002D01*
Y167454D01*
X220398D01*
Y166948D01*
X226502D01*
Y171787D01*
X226802Y172087D01*
Y176290D01*
X229348Y178837D01*
Y178955D01*
G02X229809Y179454I500J0D01*
G03X229978Y179479I-89J1189D01*
G01X230005Y179485D01*
X230282D01*
Y178935D01*
X230798Y178419D01*
Y175752D01*
X229798D01*
Y171348D01*
X234602D01*
Y175954D01*
G02X234833Y176203I250J0D01*
G03X235907Y176662I-133J1797D01*
G02X236667Y176553I335J-372D01*
G03X238826Y175810I1533J947D01*
G02X239500Y175342I174J-469D01*
G01Y172500D01*
X245000D01*
Y180420D01*
G03Y180580I-1800J80D01*
G01Y182307D01*
G02X245652Y182783I500J0D01*
G03X247497Y185751I548J1717D01*
G02X247852Y186598I360J347D01*
G01Y191402D01*
X244500D01*
G02X244000Y191923I-1J500D01*
G03X243940Y192469I-1800J78D01*
G02X244423Y193098I483J129D01*
G01X247852D01*
Y197902D01*
X247052D01*
Y199598D01*
X247852D01*
Y204402D01*
X245955D01*
X245949Y204645D01*
G03X241102Y211292I-7249J-195D01*
G01Y211752D01*
X240452D01*
Y214575D01*
X240458Y214603D01*
G03X239252Y216715I-1758J397D01*
G02X238940Y217376I153J476D01*
G03X239452Y220050I-6740J2676D01*
G01Y221248D01*
X242602D01*
Y225652D01*
X239452D01*
Y226348D01*
X242602D01*
Y230752D01*
X238940D01*
X238906Y230961D01*
G03X237348Y234399I-7156J-1171D01*
G01X237290Y234468D01*
Y234914D01*
X237599D01*
X237652Y234888D01*
G03X237911Y238217I805J1612D01*
G02X237259Y238694I-152J476D01*
G01Y240885D01*
X235742D01*
G03X229260Y243212I-5203J-4302D01*
G03X224141Y242137I-1280J-6629D01*
G03X219022Y243212I-3839J-5554D01*
G03X211008Y237050I-1279J-6629D01*
G03X209873Y236127I3921J-5981D01*
G01X206998Y233252D01*
X199962D01*
X197562Y235652D01*
X187750D01*
G03X182677Y233541I0J-7151D01*
G02X182323I-177J176D01*
G03X172193Y233557I-5073J-5041D01*
G01X171338Y232702D01*
X168702D01*
Y241712D01*
X163789Y246625D01*
X168702Y251538D01*
Y254348D01*
X177250D01*
G03X182323Y256459I0J7151D01*
G02X182677I177J-176D01*
G03X192807Y256443I5073J5041D01*
G01X193112Y256748D01*
X197000D01*
G03X199750Y257298I0J7152D01*
G01X211332D01*
G03X219022Y252788I6410J2119D01*
G03X225068Y254635I1280J6629D01*
G02X225773I352J-355D01*
G03X235669Y255028I4766J4782D01*
G01X235744Y255115D01*
X236569D01*
G03X240798Y251208I6631J2935D01*
G01Y250748D01*
X245602D01*
Y251208D01*
G03X249466Y254400I-2402J6842D01*
G01X275498D01*
Y252300D01*
G03X278917Y248131I4251J0D01*
G03X284850Y245048I5934J4169D01*
G01X288736D01*
G03X289875Y243569I6267J3648D01*
G01X291046Y242398D01*
G02X291948Y240668I-2298J-2298D01*
G01Y237698D01*
X292112D01*
X292135Y237475D01*
G03X299390Y222254I25101J2625D01*
G01X300772Y220872D01*
G03X301294Y220399I5125J5131D01*
G01X301303Y220392D01*
X303915Y217780D01*
X303928Y217760D01*
G03X312500Y215012I6022J4040D01*
G03X315050Y214548I2552J6788D01*
G01X324845D01*
G03Y229052I0J7252D01*
G01X315050D01*
G03X313487Y228881I3J-7252D01*
G01X313354Y228852D01*
X311078Y231128D01*
G03X310556Y231601I-5125J-5131D01*
G01X310547Y231608D01*
X309646Y232510D01*
G02X306502Y240100I7590J7590D01*
G03X302094Y251808I-17753J0D01*
G01X301939Y251984D01*
X303054Y253098D01*
X307904D01*
X308694Y253889D01*
X308830Y253855D01*
G03X310550Y253648I1720J7045D01*
G01X319127D01*
X321728Y256250D01*
X359001D01*
G03X362632Y255276I3630J6277D01*
G01X363788D01*
G02X364266Y254629I0J-500D01*
G03X364082Y251098I6931J-2131D01*
G01X364086Y251074D01*
Y230142D01*
X362996Y229052D01*
X355555D01*
G03Y214548I0J-7252D01*
G01X369004D01*
X378590Y224134D01*
Y248648D01*
X381250D01*
G03X383800Y249112I-2J7252D01*
G03X384548Y248876I2553J6787D01*
G01Y245950D01*
G03X389398Y239108I7251J0D01*
G01Y238648D01*
X394202D01*
Y239108D01*
G03X399052Y245950I-2401J6842D01*
G01Y248876D01*
G03X399480Y249000I-1803J7024D01*
G01X411300D01*
X414300Y252000D01*
X417500D01*
X420500Y249000D01*
X424000D01*
X426598Y251598D01*
X427498D01*
Y248548D01*
X432302D01*
Y251598D01*
X434612D01*
G03X441924Y248800I5838J4302D01*
G01X441947Y248805D01*
X443834Y248848D01*
X445291D01*
X445724Y248748D01*
X450150D01*
X450170Y248745D01*
G03X453900Y249112I1179J7155D01*
G03X456450Y248648I2552J6788D01*
G01X461450D01*
G03X464000Y249112I-2J7252D01*
G03X465128Y248789I2554J6787D01*
G01X466082Y248598D01*
X469598D01*
Y248548D01*
X474402D01*
Y248598D01*
X476500D01*
Y163500D01*
X143500D01*
G37*
G36*
G01X158794Y62812D02*
X159067Y63085D01*
G02X159859Y62972I354J-354D01*
G03X160037Y62719I1220J669D01*
G02X160062Y62086I-374J-332D01*
G03X161969Y59260I1438J-1086D01*
G02X162598Y58777I129J-483D01*
G01Y55348D01*
X167402D01*
Y58777D01*
G02X168031Y59260I500J0D01*
G03X168969I469J1740D01*
G02X169598Y58777I129J-483D01*
G01Y55348D01*
X174402D01*
Y56148D01*
X176098D01*
Y55348D01*
X180902D01*
Y57249D01*
G03X187792Y62098I48J7251D01*
G01X188252D01*
Y62748D01*
X190575D01*
X190603Y62742D01*
G03X192757Y64100I397J1758D01*
G02X193458Y64441I488J-111D01*
G03X196550Y63748I3094J6559D01*
G01X204614D01*
Y62632D01*
G03X211308Y55881I6751J0D01*
G03X212098Y54940I1692J619D01*
G01Y54186D01*
G03X211137Y53761I2404J-6735D01*
G02X210402Y54202I-235J441D01*
G01Y54752D01*
X205598D01*
Y54052D01*
X205071D01*
X205007Y54094D01*
G03X203061Y54138I-1007J-1494D01*
G01X203001Y54102D01*
X202402D01*
Y55352D01*
X198098D01*
Y49848D01*
X202402D01*
Y51098D01*
X203001D01*
X203061Y51062D01*
G03X204863Y51018I939J1538D01*
G01X204919Y51048D01*
X205598D01*
Y50348D01*
X207589D01*
G02X207822Y50009I0J-250D01*
G03X207696Y49652I6678J-2558D01*
G01X205598D01*
Y45248D01*
X207696D01*
G03X207948Y44583I6805J2199D01*
G01Y31062D01*
X207938Y31052D01*
X200952D01*
Y32598D01*
X201652D01*
Y37402D01*
X201541Y37668D01*
X201752Y37878D01*
Y39648D01*
X202402D01*
Y45152D01*
X190598D01*
Y43902D01*
X189999D01*
X189939Y43938D01*
G03Y40862I-939J-1538D01*
G01X189999Y40898D01*
X190598D01*
Y39648D01*
X198748D01*
Y39122D01*
X197948Y38322D01*
Y37402D01*
X197248D01*
Y36502D01*
X195752D01*
Y37402D01*
X192043D01*
X191793Y37652D01*
X181069D01*
X174469Y31052D01*
X171062D01*
X158852Y43262D01*
Y61262D01*
X158339Y61775D01*
X158463Y61948D01*
G03X158782Y62731I-1463J1052D01*
G01X158794Y62812D01*
G37*
G36*
G01X158824Y81481D02*
X157402Y82904D01*
Y85248D01*
X158402D01*
Y89652D01*
X154469D01*
G02X154292Y90078I0J250D01*
G01X154562Y90348D01*
X158402D01*
Y94188D01*
X162962Y98748D01*
X169848D01*
Y94752D01*
X168598D01*
Y90348D01*
X169848D01*
Y89652D01*
X168598D01*
Y85248D01*
X168823D01*
G02X169296Y84586I0J-500D01*
G03X169298Y83409I1704J-586D01*
G02X168859Y82747I-473J-163D01*
G03X167968Y82342I94J-1389D01*
G03X166000Y82343I-985J-984D01*
G03X164032Y82342I-983J-985D01*
G03X162998Y82749I-984J-984D01*
G02X162480Y83249I-18J500D01*
G01Y85248D01*
X164902D01*
Y89652D01*
X160098D01*
Y87031D01*
X159678Y86610D01*
Y81835D01*
G02X158824Y81481I-500J-1D01*
G37*
G36*
G01X380748Y58996D02*
X387245Y52500D01*
X381046Y46302D01*
X376346D01*
X372296Y42252D01*
X366355D01*
G03Y27748I0J-7252D01*
G01X378304D01*
X382304Y31748D01*
X385402D01*
Y31798D01*
X387054D01*
X389255Y34000D01*
X402748D01*
Y32675D01*
X403248Y32175D01*
Y29902D01*
X401698D01*
Y18098D01*
X408302D01*
Y21598D01*
X413152D01*
Y26402D01*
X408302D01*
Y29902D01*
X406752D01*
Y33625D01*
X406655Y33722D01*
G02X406832Y34148I177J176D01*
G01X407902D01*
Y39652D01*
X407502D01*
Y40348D01*
X407902D01*
Y41348D01*
X409000D01*
Y30500D01*
X461000D01*
Y44748D01*
X463450D01*
G03X469464Y47948I0J7251D01*
G01X475500D01*
G03X475945Y47973I-4J4052D01*
G02X476500Y47476I55J-497D01*
G01Y13500D01*
X219121D01*
G02X218767Y14354I-1J500D01*
G01X227352Y22938D01*
Y26198D01*
X231552D01*
Y27498D01*
X234925D01*
X236525Y29098D01*
X238652D01*
Y33902D01*
X234248D01*
Y31775D01*
X233475Y31002D01*
X231552D01*
Y32302D01*
X231046D01*
Y36698D01*
X231552D01*
Y37748D01*
X234248D01*
Y37098D01*
X238652D01*
Y41902D01*
X234248D01*
Y41252D01*
X231552D01*
Y42802D01*
X229252D01*
Y45248D01*
X229902D01*
Y49652D01*
X227804D01*
G03X227678Y50009I-6804J-2201D01*
G02X227911Y50348I233J89D01*
G01X229902D01*
Y52828D01*
X230782Y53708D01*
Y58330D01*
X231752D01*
X231827Y58243D01*
G03X232896Y57238I5132J4387D01*
G01Y54752D01*
X231698D01*
Y50348D01*
X236502D01*
Y54752D01*
X235900D01*
Y55402D01*
G02X236438Y55900I500J0D01*
G03X236807Y55882I513J6732D01*
G03X237928Y54791I1693J618D01*
G01X238098Y54734D01*
Y50348D01*
X242902D01*
Y52828D01*
X243576Y53503D01*
X243577Y55239D01*
G02X244430Y55593I500J0D01*
G01X244461Y55562D01*
X244476Y55538D01*
G03X244769Y55184I1523J963D01*
G01X244848Y55110D01*
Y54752D01*
X244598D01*
Y50348D01*
X249402D01*
Y54752D01*
X248752D01*
Y56225D01*
X247539Y57438D01*
X247524Y57462D01*
G03X246962Y58024I-1524J-962D01*
G01X246938Y58039D01*
X246386Y58591D01*
Y62632D01*
G03X246255Y63296I-1752J-1D01*
G01X246236Y63342D01*
Y65698D01*
X251500D01*
G03X252336Y65747I-6J7252D01*
G01X252350Y65748D01*
X255950D01*
G03X258500Y66212I-2J7252D01*
G03X261050Y65748I2552J6788D01*
G01X264650D01*
X264664Y65747D01*
G03X266336I836J7203D01*
G01X266350Y65748D01*
X269950D01*
G03X272500Y66212I-2J7252D01*
G03X275050Y65748I2552J6788D01*
G01X276741D01*
G03X280881Y61719I6709J2752D01*
G03X284598Y56696I7119J1381D01*
G01Y54148D01*
X286248D01*
Y48302D01*
X282098D01*
Y41698D01*
X293902D01*
Y43098D01*
X298152D01*
Y47902D01*
X293902D01*
Y48302D01*
X289752D01*
Y51464D01*
G02X290605Y51818I500J0D01*
G01X291175Y51248D01*
X291248D01*
Y50598D01*
X295652D01*
Y55402D01*
X291975D01*
X291402Y55975D01*
Y56694D01*
X291530Y56766D01*
G03X293636Y58537I-3529J6335D01*
G02X294475Y58439I388J-314D01*
G03X296658Y55855I6085J2926D01*
G01X296763Y55781D01*
Y55402D01*
X296348D01*
Y50598D01*
X300752D01*
Y53926D01*
G02X301358Y54414I500J0D01*
G03X302900Y54248I1543J7086D01*
G01X305450D01*
G03X307775Y54631I-1J7252D01*
G03X310866Y53946I3077J6566D01*
G01X312504Y53948D01*
X312910D01*
Y36834D01*
X321996Y27748D01*
X335645D01*
G03Y42252I0J7252D01*
G01X328004D01*
X327414Y42842D01*
Y55774D01*
X327418Y55798D01*
G03X326587Y60816I-7115J1400D01*
G03X327558Y65783I-6184J3787D01*
G01X327554Y65803D01*
Y68248D01*
X331327D01*
X332728Y69650D01*
X369475D01*
G03X373432Y68476I3956J6077D01*
G01X378598D01*
Y68248D01*
X380748D01*
Y58996D01*
G37*
G36*
G01X224363Y53761D02*
G03X223402Y54186I-3365J-6310D01*
G01Y55367D01*
G03X223189Y57854I-1402J1133D01*
G01X223104Y57929D01*
Y58330D01*
X227778D01*
Y54952D01*
X227578Y54752D01*
X225098D01*
Y54202D01*
G02X224363Y53761I-500J0D01*
G37*
G36*
G01X232830Y75085D02*
X231829Y74085D01*
G03X229847Y67532I5128J-5127D01*
G02X229357Y66934I-490J-98D01*
G01X225912D01*
Y70564D01*
X225039Y71438D01*
X225024Y71462D01*
G03X222410Y69065I-1524J-962D01*
G01Y66934D01*
X219056D01*
G02X218560Y67497I0J500D01*
G03X216494Y73534I-7194J910D01*
G01X216182Y73845D01*
X216499Y74171D01*
G03X218442Y80480I-5199J5055D01*
G02X218935Y81066I493J86D01*
G01X225763D01*
X227528D01*
Y78985D01*
G03X230074Y76538I1022J-1484D01*
G01X230089Y76562D01*
X231025Y77498D01*
X231961Y76562D01*
X231976Y76538D01*
G03X232698Y75886I1524J962D01*
G02X232830Y75085I-222J-448D01*
G37*
G36*
G01X413500Y260500D02*
X410500Y263500D01*
X399500D01*
X399302Y263302D01*
X383496D01*
X383106Y262911D01*
X382970Y262945D01*
G03X381250Y263152I-1720J-7045D01*
G01X377729D01*
G03X376325Y265131I-6533J-3147D01*
G01X371677Y269778D01*
X362632D01*
G03X360048Y269302I0J-7252D01*
G01X359100Y270250D01*
X321050D01*
X320165Y269365D01*
G03X313240Y268206I-2415J-6838D01*
G01X313172Y268152D01*
X310550D01*
G03X308000Y267688I2J-7252D01*
G03X302745Y267628I-2550J-6788D01*
G01X302700Y267610D01*
X302402D01*
Y267652D01*
X297598D01*
Y267192D01*
G03X294399Y264956I2402J-6842D01*
G01X294392Y264947D01*
X290375Y260931D01*
G03X289296Y259552I5130J-5126D01*
G01X284850D01*
G03X284809Y259551I156J-7248D01*
G02X284628Y259975I-1J250D01*
G03X286603Y265836I-5228J5025D01*
G01X286602Y265850D01*
Y269098D01*
X286652D01*
Y269748D01*
X290175D01*
X290375Y269948D01*
X292502D01*
Y270398D01*
X293898D01*
Y269948D01*
X298702D01*
Y270398D01*
X303825D01*
X304225Y270798D01*
X308852D01*
Y276902D01*
X308346D01*
Y281298D01*
X308852D01*
Y286500D01*
X442498D01*
Y283948D01*
X447302D01*
Y286500D01*
X448598D01*
Y283948D01*
X453402D01*
Y286500D01*
X464500D01*
X465728Y285272D01*
G02X465717Y284555I-354J-353D01*
G03X474555Y275717I4283J-4555D01*
G02X475272Y275728I364J-343D01*
G01X476500Y274500D01*
Y263192D01*
X476290Y263158D01*
G03X476007Y263106I1169J-7156D01*
G01X475982Y263102D01*
X467400D01*
X467386Y263103D01*
G03X464000Y262688I-836J-7203D01*
G03X461450Y263152I-2552J-6788D01*
G01X456450D01*
G03X454730Y262945I0J-7252D01*
G01X454594Y262911D01*
X454254Y263252D01*
X453092D01*
X453058Y263461D01*
G03X452417Y265479I-7157J-1163D01*
G02X452867Y266198I449J219D01*
G01X455352D01*
Y271002D01*
X450948D01*
Y270352D01*
X449302D01*
Y271252D01*
X447652D01*
Y272025D01*
X447658Y272053D01*
G03X444142I-1758J397D01*
G01X444148Y272025D01*
Y271252D01*
X442498D01*
Y268704D01*
G03X438785Y263702I3402J-6404D01*
G01X438746Y263500D01*
X421500D01*
X418500Y260500D01*
X413500D01*
G37*
G36*
G01X462000Y37400D02*
X461600Y29950D01*
X408800Y30350D01*
X408700Y37350D01*
X421618Y37445D01*
Y48786D01*
G03Y55214I-6500J3214D01*
G01Y66555D01*
X406400Y66500D01*
X408262Y74300D01*
X461350D01*
X462000Y66555D01*
X448382D01*
Y55214D01*
G03Y48786I6500J-3214D01*
G01Y37445D01*
X462000Y37400D01*
G37*
%LPC*%
G75*
G36*
G01X24402Y52152D02*
Y46648D01*
X17598D01*
Y52152D01*
X17998D01*
Y52848D01*
X17598D01*
Y58352D01*
X18748D01*
Y61248D01*
X18598D01*
Y65652D01*
X20527D01*
X20552Y65656D01*
G02X21448I448J-2206D01*
G01X21473Y65652D01*
X23402D01*
Y61248D01*
X23252D01*
Y58352D01*
X24402D01*
Y52848D01*
X24002D01*
Y52152D01*
X24402D01*
G37*
G36*
G01X73552Y32802D02*
Y26698D01*
X65448D01*
Y32802D01*
X65954D01*
Y37198D01*
X65448D01*
Y43302D01*
X67748D01*
Y44575D01*
X67742Y44603D01*
G02X67938Y45899I1758J397D01*
G03X67505Y46648I-433J249D01*
G01X66098D01*
Y52152D01*
X66498D01*
Y52848D01*
X66098D01*
Y58352D01*
X67748D01*
Y59575D01*
X67742Y59603D01*
G02Y60397I1758J397D01*
G01X67748Y60425D01*
Y61248D01*
X67098D01*
Y65652D01*
X71902D01*
Y61248D01*
X71252D01*
Y60425D01*
X71258Y60397D01*
G02Y59603I-1758J-397D01*
G01X71252Y59575D01*
Y58352D01*
X72902D01*
Y52848D01*
X72502D01*
Y52152D01*
X72902D01*
Y46648D01*
X71495D01*
G03X71062Y45899I0J-500D01*
G02X71258Y44603I-1562J-899D01*
G01X71252Y44575D01*
Y43302D01*
X73552D01*
Y37198D01*
X73046D01*
Y32802D01*
X73552D01*
G37*
G36*
G01X33552D02*
Y26698D01*
X25448D01*
Y32802D01*
X25954D01*
Y37198D01*
X25448D01*
Y43302D01*
X27248D01*
Y46648D01*
X26098D01*
Y52152D01*
X26498D01*
Y52848D01*
X26098D01*
Y58352D01*
X27248D01*
Y61248D01*
X27098D01*
Y65652D01*
X29027D01*
X29052Y65656D01*
G02X29948I448J-2206D01*
G01X29973Y65652D01*
X31902D01*
Y61248D01*
X31752D01*
Y58352D01*
X32902D01*
Y52848D01*
X32502D01*
Y52152D01*
X32902D01*
Y51652D01*
X35033D01*
X36933Y49752D01*
X37294D01*
Y50856D01*
X38194D01*
Y54248D01*
X38098D01*
Y58652D01*
X40027D01*
X40052Y58656D01*
G02X40948I448J-2206D01*
G01X40973Y58652D01*
X42902D01*
Y54248D01*
X42696D01*
Y50856D01*
X43596D01*
Y40554D01*
X37294D01*
Y45248D01*
X35067D01*
X33328Y46988D01*
G03X32902Y46811I-176J-177D01*
G01Y46648D01*
X31752D01*
Y43302D01*
X33552D01*
Y37198D01*
X33046D01*
Y32802D01*
X33552D01*
G37*
G36*
G01X57702Y36215D02*
Y15998D01*
X41298D01*
Y36215D01*
X46298Y41215D01*
Y50902D01*
X47248D01*
Y52500D01*
G02X47474Y53481I2252J-2D01*
G01X47498Y53533D01*
Y54248D01*
X47098D01*
Y58652D01*
X51902D01*
Y54248D01*
X51502D01*
Y53533D01*
X51526Y53481D01*
G02X51752Y52500I-2026J-983D01*
G01Y50902D01*
X52702D01*
Y41215D01*
X57702Y36215D01*
G37*
G36*
G01X37902Y249252D02*
Y244848D01*
X33098D01*
Y249252D01*
X33648D01*
Y251575D01*
X33642Y251603D01*
G02Y252397I1758J397D01*
G01X33648Y252425D01*
Y256098D01*
X32648D01*
Y256498D01*
X31972D01*
X31918Y256471D01*
G02X30082I-918J1779D01*
G01X30028Y256498D01*
X29052D01*
Y253698D01*
X26752D01*
Y252425D01*
X26758Y252397D01*
G02X23242I-1758J-397D01*
G01X23248Y252425D01*
Y253698D01*
X20948D01*
Y259802D01*
X21454D01*
Y264198D01*
X20948D01*
Y270302D01*
X29052D01*
Y264198D01*
X28546D01*
Y260002D01*
X30030D01*
G02X31918Y260029I969J-1752D01*
G01X31972Y260002D01*
X32648D01*
Y260402D01*
X38152D01*
Y256098D01*
X37152D01*
Y252425D01*
X37158Y252397D01*
G02Y251603I-1758J-397D01*
G01X37152Y251575D01*
Y249252D01*
X37902D01*
G37*
G36*
G01X90902Y242752D02*
Y238348D01*
X86098D01*
Y242752D01*
X86498D01*
Y243467D01*
X86474Y243519D01*
G02X86248Y244500I2026J983D01*
G01Y246098D01*
X85298D01*
Y255785D01*
X80298Y260785D01*
Y281002D01*
X96702D01*
Y260785D01*
X91702Y255785D01*
Y246098D01*
X90752D01*
Y244500D01*
G02X90526Y243519I-2252J2D01*
G01X90502Y243467D01*
Y242752D01*
X90902D01*
G37*
G36*
G01X99902Y238348D02*
X97973D01*
X97948Y238344D01*
G02X97052I-448J2206D01*
G01X97027Y238348D01*
X95098D01*
Y242752D01*
X95248D01*
Y246144D01*
X94404D01*
Y256446D01*
X98262D01*
X101667Y259852D01*
X106098D01*
Y260352D01*
X107248D01*
Y263698D01*
X105448D01*
Y269802D01*
X105954D01*
Y274198D01*
X105448D01*
Y280302D01*
X113552D01*
Y274198D01*
X113046D01*
Y269802D01*
X113552D01*
Y263698D01*
X111752D01*
Y260352D01*
X112902D01*
Y254848D01*
X112502D01*
Y254152D01*
X112902D01*
Y248648D01*
X111752D01*
Y245752D01*
X111902D01*
Y241348D01*
X109973D01*
X109948Y241344D01*
G02X109052I-448J2206D01*
G01X109027Y241348D01*
X107098D01*
Y245752D01*
X107248D01*
Y248648D01*
X106098D01*
Y254152D01*
X106498D01*
Y254848D01*
X106098D01*
Y255348D01*
X103533D01*
X100706Y252522D01*
Y246144D01*
X99752D01*
Y242752D01*
X99902D01*
Y238348D01*
G37*
G36*
G01X69402Y235752D02*
Y231348D01*
X64598D01*
Y235752D01*
X65248D01*
Y236575D01*
X65242Y236603D01*
G02Y237397I1758J397D01*
G01X65248Y237425D01*
Y238648D01*
X63598D01*
Y244152D01*
X63998D01*
Y244848D01*
X63598D01*
Y250352D01*
X65005D01*
G03X65438Y251101I0J500D01*
G02X65242Y252397I1562J899D01*
G01X65248Y252425D01*
Y253698D01*
X62948D01*
Y259802D01*
X63454D01*
Y264198D01*
X62948D01*
Y270302D01*
X71052D01*
Y264198D01*
X70546D01*
Y259802D01*
X71052D01*
Y253698D01*
X68752D01*
Y252425D01*
X68758Y252397D01*
G02X68562Y251101I-1758J-397D01*
G03X68995Y250352I433J-249D01*
G01X70402D01*
Y244848D01*
X70002D01*
Y244152D01*
X70402D01*
Y238648D01*
X68752D01*
Y237425D01*
X68758Y237397D01*
G02Y236603I-1758J-397D01*
G01X68752Y236575D01*
Y235752D01*
X69402D01*
G37*
G36*
G01X44198Y267902D02*
Y268364D01*
X44150Y268430D01*
G02X47050I1450J1070D01*
G01X47002Y268364D01*
Y267902D01*
X48352D01*
Y260002D01*
X52454D01*
Y264198D01*
X51948D01*
Y270302D01*
X60052D01*
Y264198D01*
X59546D01*
Y259802D01*
X60052D01*
Y253698D01*
X57752D01*
Y250352D01*
X59402D01*
Y244848D01*
X59002D01*
Y244152D01*
X59402D01*
Y238648D01*
X57752D01*
Y237425D01*
X57758Y237397D01*
G02Y236603I-1758J-397D01*
G01X57752Y236575D01*
Y235752D01*
X58402D01*
Y231348D01*
X53598D01*
Y235752D01*
X54248D01*
Y236575D01*
X54242Y236603D01*
G02Y237397I1758J397D01*
G01X54248Y237425D01*
Y238648D01*
X52598D01*
Y244152D01*
X52998D01*
Y244848D01*
X52598D01*
Y245848D01*
X47902D01*
Y244848D01*
X43098D01*
Y249252D01*
X45225D01*
X45325Y249352D01*
X52598D01*
Y250352D01*
X54248D01*
Y253698D01*
X51948D01*
Y256498D01*
X48352D01*
Y256098D01*
X42848D01*
Y267902D01*
X44198D01*
G37*
G36*
G01X245242Y107897D02*
X245248Y107925D01*
Y108748D01*
X244598D01*
Y113152D01*
X249402D01*
Y108748D01*
X248752D01*
Y107925D01*
X248758Y107897D01*
G02X245242I-1758J-397D01*
G37*
G36*
G01X275258Y102103D02*
X275252Y102075D01*
Y101252D01*
X275902D01*
Y96848D01*
X271098D01*
Y101252D01*
X271748D01*
Y102075D01*
X271742Y102103D01*
G02X275258I1758J397D01*
G37*
G36*
G01X252397Y94708D02*
X252425Y94702D01*
X253598D01*
Y95152D01*
X258402D01*
Y90748D01*
X253598D01*
Y91198D01*
X252425D01*
X252397Y91192D01*
G02Y94708I-397J1758D01*
G37*
G36*
G01X271742Y90897D02*
X271748Y90925D01*
Y91748D01*
X271098D01*
Y96152D01*
X275902D01*
Y91748D01*
X275252D01*
Y90925D01*
X275258Y90897D01*
G02X271742I-1758J-397D01*
G37*
G36*
G01X264242Y89397D02*
X264248Y89425D01*
Y90648D01*
X262598D01*
Y96152D01*
X262998D01*
Y96848D01*
X262598D01*
Y102352D01*
X264248D01*
Y104075D01*
X264242Y104103D01*
G02Y104897I1758J397D01*
G01X264248Y104925D01*
Y106648D01*
X262598D01*
Y112152D01*
X262998D01*
Y112848D01*
X262598D01*
Y113848D01*
X260052D01*
Y112698D01*
X259546D01*
Y108302D01*
X260052D01*
Y102198D01*
X257752D01*
Y100252D01*
X258402D01*
Y95848D01*
X253598D01*
Y100252D01*
X254248D01*
Y102198D01*
X251948D01*
Y108302D01*
X252454D01*
Y112698D01*
X251948D01*
Y114298D01*
X249402D01*
Y113848D01*
X244598D01*
Y114248D01*
X242752D01*
Y113598D01*
X242302D01*
Y110402D01*
X242752D01*
Y105598D01*
X238348D01*
Y110402D01*
X238798D01*
Y113598D01*
X238348D01*
Y118402D01*
X242752D01*
Y117752D01*
X244598D01*
Y118252D01*
X249402D01*
Y117802D01*
X251948D01*
Y118802D01*
X260052D01*
Y117352D01*
X262598D01*
Y118352D01*
X269402D01*
Y112848D01*
X269002D01*
Y112152D01*
X269402D01*
Y106648D01*
X267752D01*
Y104925D01*
X267758Y104897D01*
G02Y104103I-1758J-397D01*
G01X267752Y104075D01*
Y102352D01*
X269402D01*
Y96848D01*
X269002D01*
Y96152D01*
X269402D01*
Y90648D01*
X267752D01*
Y89425D01*
X267758Y89397D01*
G02X264242I-1758J-397D01*
G37*
G36*
G01X252952Y194098D02*
Y193098D01*
X248548D01*
Y197902D01*
X252952D01*
Y196902D01*
X253948D01*
Y197902D01*
X258352D01*
Y193098D01*
X253948D01*
Y194098D01*
X252952D01*
G37*
G36*
G01X234602Y167048D02*
Y166248D01*
X229798D01*
Y170652D01*
X234602D01*
Y169852D01*
X234999D01*
X235071Y169916D01*
G02X235378Y167015I1206J-1339D01*
G01X235320Y167048D01*
X234602D01*
G37*
G36*
G01X194902Y55352D02*
Y49848D01*
X190598D01*
Y50848D01*
X189825D01*
X189775Y50798D01*
X189140D01*
G02X189060I-40J1802D01*
G01X187402D01*
Y50348D01*
X182598D01*
Y54752D01*
X187402D01*
Y54302D01*
X188505D01*
X188543Y54314D01*
G02X189497Y54358I557J-1714D01*
G01X189525Y54352D01*
X190598D01*
Y55352D01*
X194902D01*
G37*
G36*
G01X174402Y49252D02*
Y44848D01*
X169598D01*
Y49252D01*
X170598D01*
Y50248D01*
X169598D01*
Y54652D01*
X174402D01*
Y50248D01*
X173402D01*
Y49252D01*
X174402D01*
G37*
G36*
G01X259402Y56752D02*
Y52348D01*
X254598D01*
Y56752D01*
X255248D01*
Y57575D01*
X255242Y57603D01*
G02X258758I1758J397D01*
G01X258752Y57575D01*
Y56752D01*
X259402D01*
G37*
G36*
G01X276902Y55752D02*
Y51348D01*
X272098D01*
Y55752D01*
X272748D01*
Y56575D01*
X272742Y56603D01*
G02X276258I1758J397D01*
G01X276252Y56575D01*
Y55752D01*
X276902D01*
G37*
G36*
G01X276252Y46248D02*
Y45425D01*
X276258Y45397D01*
G02X272742I-1758J-397D01*
G01X272748Y45425D01*
Y46248D01*
X272098D01*
Y50652D01*
X276902D01*
Y46248D01*
X276252D01*
G37*
G36*
G01X250402Y38752D02*
Y34348D01*
X245598D01*
Y38752D01*
X246248D01*
Y39575D01*
X246242Y39603D01*
G02X249758I1758J397D01*
G01X249752Y39575D01*
Y38752D01*
X250402D01*
G37*
G36*
G01X261052Y30148D02*
Y28698D01*
X252948D01*
Y29698D01*
X250402D01*
Y29248D01*
X245598D01*
Y29748D01*
X243752D01*
Y29098D01*
X239348D01*
Y33902D01*
X239798D01*
Y37098D01*
X239348D01*
Y41902D01*
X243752D01*
Y37098D01*
X243302D01*
Y33902D01*
X243752D01*
Y33252D01*
X245598D01*
Y33652D01*
X250402D01*
Y33202D01*
X252948D01*
Y34802D01*
X253454D01*
Y39198D01*
X252948D01*
Y45302D01*
X255248D01*
Y47248D01*
X254598D01*
Y51652D01*
X259402D01*
Y47248D01*
X258752D01*
Y45302D01*
X261052D01*
Y39198D01*
X260546D01*
Y34802D01*
X261052D01*
Y33652D01*
X263598D01*
Y34652D01*
X263998D01*
Y35348D01*
X263598D01*
Y40852D01*
X265248D01*
Y42575D01*
X265242Y42603D01*
G02Y43397I1758J397D01*
G01X265248Y43425D01*
Y45148D01*
X263598D01*
Y50652D01*
X263998D01*
Y51348D01*
X263598D01*
Y56852D01*
X265248D01*
Y58075D01*
X265242Y58103D01*
G02X268758I1758J397D01*
G01X268752Y58075D01*
Y56852D01*
X270402D01*
Y51348D01*
X270002D01*
Y50652D01*
X270402D01*
Y45148D01*
X268752D01*
Y43425D01*
X268758Y43397D01*
G02Y42603I-1758J-397D01*
G01X268752Y42575D01*
Y40852D01*
X270402D01*
Y35348D01*
X270002D01*
Y34652D01*
X270402D01*
Y29148D01*
X263598D01*
Y30148D01*
X261052D01*
G37*
G36*
G01X287252Y30698D02*
Y29925D01*
X287258Y29897D01*
G02X283742I-1758J-397D01*
G01X283748Y29925D01*
Y30698D01*
X282098D01*
Y37302D01*
X293902D01*
Y30698D01*
X292252D01*
Y29925D01*
X292258Y29897D01*
G02X288742I-1758J-397D01*
G01X288748Y29925D01*
Y30698D01*
X287252D01*
G37*
G36*
G01X397302Y29902D02*
Y18098D01*
X390698D01*
Y22248D01*
X389752D01*
Y21425D01*
X389758Y21397D01*
G02X386242I-1758J-397D01*
G01X386248Y21425D01*
Y26075D01*
X386242Y26103D01*
G02X389758I1758J397D01*
G01X389752Y26075D01*
Y25752D01*
X390698D01*
Y29902D01*
X397302D01*
G37*
G36*
G01X452752Y278848D02*
Y277825D01*
X452758Y277797D01*
G02X449242I-1758J-397D01*
G01X449248Y277825D01*
Y278848D01*
X448598D01*
Y283252D01*
X453402D01*
Y278848D01*
X452752D01*
G37*
G36*
G01X446652D02*
Y277225D01*
X446658Y277197D01*
G02X443142I-1758J-397D01*
G01X443148Y277225D01*
Y278848D01*
X442498D01*
Y283252D01*
X447302D01*
Y278848D01*
X446652D01*
G37*
G36*
G01X439655Y277322D02*
X440051Y276925D01*
X440109Y276907D01*
G02X437593Y274391I-609J-1907D01*
G01X437575Y274449D01*
X435804Y276220D01*
Y277748D01*
X434598D01*
Y278254D01*
X430202D01*
Y277748D01*
X424098D01*
Y285852D01*
X430202D01*
Y285346D01*
X434598D01*
Y285852D01*
X440702D01*
Y277748D01*
X439832D01*
G03X439655Y277322I0J-250D01*
G37*
G54D58*
X58555Y45705D03*
X79445Y251295D03*
G54D59*
X47500Y88574D03*
X56000D03*
G54D62*
X245350Y238650D03*
G54D56*
X62091Y78875D03*
Y221107D03*
G54D55*
X515000Y255829D03*
Y52000D03*
G54D60*
X35400Y265750D03*
G54D61*
X210650Y187500D03*
Y194000D03*
X250750Y189000D03*
Y202000D03*
X261250Y195500D03*
X204550Y35000D03*
X301050Y45500D03*
X416050Y24000D03*
X458250Y268600D03*
G54D57*
X21000Y68550D03*
X40500Y61550D03*
X29500Y68550D03*
X49500Y61550D03*
X69500Y68550D03*
X91000Y55050D03*
X80500Y68550D03*
X109500Y238450D03*
X35500Y241950D03*
X45500D03*
X56000Y228450D03*
X67000D03*
X97500Y235450D03*
X88500D03*
X290100Y277250D03*
X296300D03*
X239500Y100550D03*
X246000D03*
X172000Y41950D03*
X165000Y52450D03*
X185000Y47450D03*
X178500Y52450D03*
X162500Y92550D03*
X247000Y47450D03*
X240500D03*
X234100D03*
%LPD*%
G75*
G36*
G01X51700Y49900D02*
Y40800D01*
X56700Y35800D01*
Y17000D01*
X42300D01*
Y35800D01*
X47300Y40800D01*
Y49900D01*
X51700D01*
G37*
G36*
G01X86300Y247100D02*
Y256200D01*
X81300Y261200D01*
Y280000D01*
X95700D01*
Y261200D01*
X90700Y256200D01*
Y247100D01*
X86300D01*
G37*
G54D10*
X0Y0D03*
Y300000D03*
X520000Y0D03*
Y300000D03*
G54D20*
X49500Y21295D03*
X88500Y275705D03*
G54D11*
X20700Y19700D03*
X20800Y281100D03*
X62091Y78875D03*
Y221107D03*
X470000Y280000D03*
G54D21*
X40445Y45705D03*
X49500D03*
X58555D03*
X88500Y251295D03*
X79445D03*
X97555D03*
G54D30*
X200250Y42400D03*
X196500D03*
X192750D03*
Y52600D03*
X200250D03*
G54D12*
X15000Y27500D03*
Y41300D03*
Y52500D03*
Y65000D03*
Y77500D03*
Y90000D03*
Y102500D03*
Y116800D03*
Y127500D03*
Y170000D03*
Y182500D03*
Y195000D03*
Y207500D03*
Y220000D03*
Y232500D03*
Y245000D03*
Y257500D03*
Y270000D03*
X27500Y15000D03*
X33500Y91723D03*
Y98022D03*
Y104322D03*
Y110621D03*
Y116920D03*
Y129519D03*
Y164164D03*
Y183062D03*
Y170500D03*
Y189361D03*
Y195660D03*
Y201960D03*
X31000Y258250D03*
X30000Y272500D03*
X22500Y291000D03*
X30000Y285000D03*
X22500Y308500D03*
X39500Y15000D03*
X44500Y28000D03*
X54500D03*
X49500Y31500D03*
X44500Y34500D03*
X54500D03*
X49500Y38500D03*
X40500Y66500D03*
X49500D03*
Y52500D03*
X47500Y94873D03*
Y101172D03*
Y107471D03*
Y88574D03*
X56000D03*
X47500Y113771D03*
Y120070D03*
X55500Y114500D03*
X47300Y179912D03*
X56000D03*
Y170463D03*
Y175500D03*
X47500Y173613D03*
Y167314D03*
X47300Y186211D03*
Y192511D03*
Y198810D03*
X55800D03*
Y189361D03*
X42500Y272500D03*
X44500Y291000D03*
X42500Y285000D03*
X55000D03*
X44500Y308500D03*
X75000Y15000D03*
X59500D03*
X58500Y53500D03*
X72500Y77500D03*
X70000Y91723D03*
Y101172D03*
Y110621D03*
Y135818D03*
Y144484D03*
X63500Y291000D03*
X67500Y285000D03*
X63500Y308500D03*
X93800Y15000D03*
X88500Y230500D03*
X95000D03*
X87500Y222500D03*
X88500Y259000D03*
Y244500D03*
X79500Y243500D03*
X88500Y265500D03*
X83000Y268500D03*
X94000D03*
Y262500D03*
X83000D03*
X82000Y291000D03*
X92100Y283800D03*
X80000Y285000D03*
X82000Y308500D03*
X115000Y15000D03*
X102500D03*
X105500Y38750D03*
X114600Y100300D03*
X109000Y124000D03*
X115000Y117500D03*
Y145000D03*
Y196000D03*
Y187500D03*
X111000Y291000D03*
X105000Y285000D03*
X111000Y308500D03*
X124600Y100100D03*
X127500Y196000D03*
X125500Y257500D03*
X123500Y249500D03*
X123000Y275500D03*
X127500Y266000D03*
X117500Y265000D03*
X130000Y291000D03*
Y285000D03*
X117500D03*
X130000Y308500D03*
X145000Y15000D03*
X136500Y100100D03*
X145000Y117500D03*
Y130000D03*
Y174500D03*
Y189500D03*
X143000Y196000D03*
X135000Y274000D03*
X147000Y291000D03*
X142500Y285000D03*
X147000Y308500D03*
X170000Y15000D03*
X157500D03*
X163000Y75500D03*
X169000D03*
Y69500D03*
X166000Y72500D03*
X163000Y69500D03*
X162500Y135000D03*
X159000Y174500D03*
X162500Y187500D03*
X170500Y234500D03*
X170000Y253000D03*
Y242000D03*
X165500Y246500D03*
X167000Y279500D03*
X165500Y291000D03*
X167500Y285000D03*
X155000D03*
X165500Y308500D03*
X182500Y15000D03*
X175000Y135000D03*
X187500D03*
Y174500D03*
X174500D03*
X183000Y202500D03*
X190000Y195500D03*
X176000D03*
X187500Y189500D03*
X175000D03*
X188500Y209000D03*
X178000D03*
X188000Y241000D03*
X177000D03*
X182500Y235500D03*
X188000Y249000D03*
X177000D03*
X182500Y255000D03*
Y279000D03*
X182000Y291000D03*
X180000Y285000D03*
X182000Y308500D03*
X207500Y15000D03*
X195000D03*
X200000Y135000D03*
X195500Y192500D03*
X202000Y199000D03*
X193000Y202500D03*
X208500Y205500D03*
X206500Y211500D03*
X198000Y209000D03*
X195000Y241500D03*
X203000D03*
X198000Y237000D03*
X206500Y234500D03*
X207000Y249000D03*
X198000D03*
X202000Y256000D03*
X193500Y255500D03*
X210500Y256000D03*
X194000Y278500D03*
X203500Y278000D03*
X205000Y291000D03*
Y285000D03*
X195300Y285300D03*
X205000Y308500D03*
X222600Y15300D03*
X212500Y135000D03*
X225000D03*
X227700Y186500D03*
Y192500D03*
X211000Y241500D03*
X228100Y247900D03*
X228900Y251300D03*
X224200Y247600D03*
X220000Y247700D03*
X217500Y251000D03*
Y245000D03*
X217000Y278000D03*
X217500Y291000D03*
X227000Y285500D03*
X217500Y285000D03*
Y308500D03*
X231900Y23800D03*
X245000Y15000D03*
X232500D03*
X237500Y135000D03*
X233700Y186500D03*
Y192500D03*
X230700Y189500D03*
X245500Y210000D03*
X241500Y217500D03*
X236300Y252400D03*
X235100Y246800D03*
X231800Y248000D03*
X230300Y244600D03*
X248500Y251100D03*
X240000Y246500D03*
X235500Y243500D03*
X242000Y278200D03*
X242500Y291000D03*
X230000D03*
X236000Y285000D03*
X249000Y280500D03*
X242500Y285000D03*
Y308500D03*
X230000D03*
X261800Y26100D03*
X252700D03*
X257500Y15000D03*
X265500Y85000D03*
X262900Y123000D03*
X250000Y135000D03*
X262500D03*
Y165000D03*
X261500Y178000D03*
X256000Y200500D03*
X263000Y207500D03*
X256000Y236000D03*
X250500Y226000D03*
X262500Y227500D03*
X264500Y246000D03*
X261000Y243000D03*
X267500Y250000D03*
X261000D03*
X267500Y242500D03*
X255800Y252900D03*
X264200Y253800D03*
Y268200D03*
X266500Y271500D03*
X259500Y275000D03*
X257500Y279000D03*
X262000Y271500D03*
X264200Y275000D03*
Y264500D03*
X265500Y281500D03*
X262500Y285000D03*
X267500Y291000D03*
X255000D03*
Y285000D03*
X267500Y308500D03*
X255000D03*
X275000Y27500D03*
X282500Y15000D03*
X270000D03*
X275000Y40000D03*
X276800Y82000D03*
X275000Y107500D03*
X275200Y112500D03*
X275400Y123000D03*
X275000Y135000D03*
Y165000D03*
Y177500D03*
X274000Y201000D03*
X275000Y190000D03*
Y215000D03*
X277000Y235000D03*
X281500Y226500D03*
X270500Y246000D03*
X277500Y244000D03*
X274000Y253000D03*
X269000Y275000D03*
X283000Y279500D03*
X275000D03*
X269500D03*
X285000Y285000D03*
X278000D03*
X270500D03*
X280000Y291000D03*
Y308500D03*
X295000Y15000D03*
X305100Y71100D03*
X291500Y83100D03*
X288600Y88700D03*
X287500Y97500D03*
X300200Y112500D03*
X287700D03*
X300400Y123000D03*
X287900D03*
X287500Y135000D03*
X300000D03*
X287500Y165000D03*
X300000D03*
X287500Y177500D03*
X300000D03*
X287500Y202500D03*
X300000D03*
X287500Y190000D03*
X300000D03*
X299000Y220500D03*
X287500Y215000D03*
X300000D03*
X294000Y226500D03*
X290500Y235500D03*
X304000Y251500D03*
X288000Y243500D03*
X296000Y268000D03*
X288500D03*
Y262000D03*
X295800Y284500D03*
X305000Y291000D03*
X290300Y283600D03*
X292500Y308500D03*
X305000D03*
X307500Y27500D03*
X320000Y15000D03*
X307500D03*
X311500Y45000D03*
X307500Y87500D03*
X324800Y102300D03*
Y112500D03*
X312700D03*
X312500Y122500D03*
X325000D03*
X312500Y135000D03*
X325000D03*
X312500Y165000D03*
X325000D03*
X312500Y177500D03*
X325000D03*
Y202500D03*
X312500D03*
Y190000D03*
X325000D03*
X324500Y213000D03*
X312500Y213500D03*
X308000Y238500D03*
X314000Y230500D03*
X317000Y242000D03*
X307500Y245000D03*
X312000Y252000D03*
X319500D03*
X318500Y271500D03*
X310500Y269500D03*
X312300Y284500D03*
X317500Y291000D03*
X320700Y284500D03*
X317500Y308500D03*
X335000Y23600D03*
X332500Y15000D03*
X331300Y96300D03*
X344000Y96100D03*
X337300Y102300D03*
Y112500D03*
X337500Y122500D03*
Y135000D03*
Y165000D03*
Y177500D03*
Y202500D03*
Y190000D03*
X340500Y211000D03*
X331500Y216000D03*
X341000Y227000D03*
X340500Y237000D03*
X326000Y236000D03*
X329500Y229500D03*
X333500Y247000D03*
X328500Y255000D03*
X336500Y278000D03*
X326000D03*
X342500Y291000D03*
X330000D03*
X342500Y285000D03*
X330000D03*
X342500Y308500D03*
X330000D03*
X345200Y23800D03*
X356300Y23400D03*
X357500Y15000D03*
X345000D03*
X348200Y49500D03*
X356300Y96100D03*
X362300Y102300D03*
X349800D03*
X362300Y112500D03*
X349800D03*
X350000Y122500D03*
X362500D03*
X350000Y135000D03*
X362500D03*
X350000Y165000D03*
X362500D03*
X350000Y177500D03*
X362500D03*
X350000Y202500D03*
X361500D03*
X350000Y190000D03*
X362500D03*
X360500Y213000D03*
X349500Y215500D03*
X354000Y237000D03*
X351000Y229500D03*
X362500Y230500D03*
Y237500D03*
X350000Y245500D03*
X362500D03*
Y254000D03*
X362000Y271500D03*
X349500Y278000D03*
X355000Y291000D03*
Y285000D03*
Y308500D03*
X369500Y23400D03*
X382500Y15000D03*
X370000D03*
X364800Y49500D03*
X380500Y48000D03*
X367200Y63400D03*
X379500Y58500D03*
Y66500D03*
X369000Y96300D03*
X375700Y101900D03*
X381000Y90500D03*
X375700Y112100D03*
X375000Y122500D03*
Y135000D03*
Y165000D03*
Y177500D03*
Y202500D03*
Y190000D03*
Y215000D03*
X380000Y228000D03*
Y247000D03*
X378500Y265000D03*
X372500Y271500D03*
X380000Y291000D03*
X367500D03*
X380000Y285000D03*
X367500D03*
X380000Y308500D03*
X367500D03*
X395000Y15000D03*
X389750Y32450D03*
X385050Y52550D03*
X401400Y71300D03*
X400000Y85000D03*
X387500D03*
X400000Y97500D03*
X387500D03*
X400000Y110000D03*
X387500D03*
X400000Y122500D03*
X387500D03*
Y135000D03*
X400000D03*
X387500Y165000D03*
X400000D03*
Y177500D03*
X387500D03*
X400000Y202500D03*
X387500D03*
X400000Y190000D03*
X387500D03*
X400000Y215000D03*
X387500D03*
X385000Y240500D03*
X391500Y237000D03*
X400000Y227500D03*
X387500D03*
X400500Y247500D03*
X391500Y265000D03*
X400500Y272500D03*
X386200Y275500D03*
X398400Y290800D03*
X395100Y285300D03*
X397000Y308500D03*
X420000Y24000D03*
Y27500D03*
X417500Y19000D03*
X420000Y15000D03*
X407500D03*
X420200Y79200D03*
X407200Y78700D03*
X412500Y85000D03*
Y97500D03*
Y110000D03*
Y122500D03*
Y135000D03*
Y165000D03*
Y177500D03*
Y202500D03*
Y190000D03*
Y215000D03*
X405800Y237100D03*
X412500Y227500D03*
X415900Y250700D03*
X412700Y246900D03*
X419200D03*
X416200Y242900D03*
X409700D03*
X415900Y271800D03*
X420700D03*
X413700Y268300D03*
X418200D03*
X415900Y261300D03*
Y265000D03*
X411200Y271800D03*
X415000Y291000D03*
X421200Y285000D03*
X413000D03*
X404000D03*
X415000Y308500D03*
X432500Y27500D03*
Y15000D03*
X432200Y78000D03*
X437500Y85000D03*
X425000D03*
X437500Y97500D03*
X425000D03*
X437500Y110000D03*
X425000D03*
X437500Y122500D03*
X425000D03*
Y135000D03*
X437500D03*
X425000Y165000D03*
X437500D03*
Y177500D03*
X425000D03*
X437500Y202500D03*
X425000D03*
X437500Y190000D03*
X425000D03*
X437500Y215000D03*
X425000D03*
X437500Y240000D03*
X428200Y235100D03*
X437500Y227500D03*
X425000D03*
X422200Y242900D03*
X439500Y275000D03*
X427500Y274500D03*
X434000Y291000D03*
Y308500D03*
X457500Y27500D03*
X445000D03*
X457500Y15000D03*
X445000D03*
X455200Y79900D03*
X444700Y78900D03*
X450000Y85000D03*
Y97500D03*
Y110000D03*
Y122500D03*
Y135000D03*
Y165000D03*
Y177500D03*
Y202500D03*
Y190000D03*
Y215000D03*
Y240000D03*
Y227500D03*
X442000Y247500D03*
X452500Y291000D03*
Y308500D03*
X470000Y27500D03*
X475000Y20000D03*
X470000Y15000D03*
X462500Y43500D03*
X468600Y38200D03*
X475000Y32500D03*
X474900Y43650D03*
X462500Y61000D03*
X469600Y66300D03*
X474900Y60650D03*
X469100Y77300D03*
X462500Y85000D03*
X475000Y72500D03*
Y85000D03*
X462500Y97500D03*
X475000D03*
X462500Y110000D03*
Y122500D03*
X475000Y110000D03*
Y122500D03*
X462500Y135000D03*
X475000D03*
X462500Y165000D03*
X475000D03*
X462500Y177500D03*
X475000D03*
X462500Y202500D03*
Y190000D03*
X475000D03*
Y202500D03*
X462500Y215000D03*
X475000D03*
X462500Y227500D03*
X475000D03*
Y240000D03*
X460950Y247150D03*
X462500Y271500D03*
X472000Y265500D03*
X475000Y272500D03*
X467000Y264900D03*
X471000Y291000D03*
X460500Y284100D03*
X471000Y308500D03*
X487500Y291000D03*
Y308500D03*
X505500Y291000D03*
Y308500D03*
G54D40*
X415118Y43339D03*
Y52000D03*
Y60661D03*
X454882Y43339D03*
Y52000D03*
Y60661D03*
G54D22*
X64800Y124500D03*
Y119500D03*
Y114500D03*
Y129500D03*
X85800Y114500D03*
Y119500D03*
Y124500D03*
Y129500D03*
G54D31*
X226720Y62632D03*
X224161D03*
X221602D03*
X219043D03*
X216484D03*
X213925D03*
X211366D03*
Y85368D03*
X213925D03*
X216484D03*
X219043D03*
X221602D03*
X224161D03*
X226720D03*
X217743Y236583D03*
X220302D03*
X222861D03*
X225420D03*
X227980D03*
Y259417D03*
X225420D03*
X222861D03*
X220302D03*
X217743D03*
X244634Y62632D03*
X242075D03*
X239516D03*
X236957D03*
X234398D03*
X231839D03*
X229280D03*
Y85368D03*
X231839D03*
X234398D03*
X236957D03*
X239516D03*
X242075D03*
X244634D03*
X230539Y236583D03*
X233098D03*
X235657D03*
Y259417D03*
X233098D03*
X230539D03*
G54D13*
X8000Y37500D03*
Y112500D03*
Y187500D03*
Y262500D03*
X90000Y8000D03*
Y292000D03*
X130000Y112500D03*
Y187500D03*
X190000Y8000D03*
Y150000D03*
Y292000D03*
X290000Y8000D03*
Y150000D03*
Y292000D03*
X390000Y8000D03*
Y150000D03*
Y292000D03*
X490000Y37500D03*
Y112500D03*
Y187500D03*
Y269500D03*
G54D50*
G01X178900Y72900D02*
X180800Y71000D01*
G01X180950Y77500D02*
X180700D01*
X178900Y75700D01*
G01X225700Y204450D02*
Y202448D01*
X226450Y201698D01*
Y201650D01*
X227747Y200353D01*
G01X232200Y204450D02*
X229898Y202148D01*
G54D23*
X63883Y144484D03*
Y147043D03*
Y149602D03*
Y152161D03*
Y154720D03*
Y157280D03*
Y159839D03*
Y162398D03*
Y164957D03*
Y167516D03*
X86717Y144484D03*
Y162398D03*
Y159839D03*
Y157280D03*
Y154720D03*
Y152161D03*
Y149602D03*
Y147043D03*
Y167516D03*
Y164957D03*
G54D32*
X264200Y259126D03*
X258294D03*
X270106D03*
X415900Y255826D03*
X409994D03*
X421806D03*
G54D41*
G01X237750Y268000D02*
X238300Y268550D01*
X243200D01*
G01D02*
X247650D01*
X249700Y266500D01*
Y264550D01*
G01X258294Y259126D02*
X257970Y259450D01*
X249700D01*
X437362Y47276D03*
Y37827D03*
Y42551D03*
X432638Y47276D03*
Y37827D03*
Y42551D03*
X427913Y47276D03*
Y37827D03*
Y42551D03*
Y33102D03*
X432638D03*
X437362D03*
X423189D03*
Y37827D03*
X437362Y52000D03*
X432638D03*
X437362Y66173D03*
Y61449D03*
Y56724D03*
X432638Y66173D03*
Y61449D03*
Y56724D03*
X427913Y66173D03*
Y61449D03*
Y56724D03*
Y52000D03*
X423189Y66173D03*
Y61449D03*
X427913Y70898D03*
X432638D03*
X437362D03*
X423189D03*
X442087Y47276D03*
Y37827D03*
Y33102D03*
X446811D03*
Y37827D03*
X442087Y42551D03*
Y52000D03*
Y66173D03*
Y61449D03*
Y56724D03*
X446811Y66173D03*
Y61449D03*
X442087Y70898D03*
X446811D03*
G54D14*
X17500Y133500D03*
Y148500D03*
Y163500D03*
X27500Y114000D03*
Y133500D03*
Y148500D03*
Y163500D03*
G54D51*
G01X88690Y-174900D02*
X89610D01*
G01X89150D02*
Y-178000D01*
G01X88690D02*
X89610D01*
G01X92250Y-174900D02*
Y-178000D01*
G01X91368Y-174900D02*
X93132D01*
G01X97990D02*
X98910D01*
G01X98450D02*
Y-178000D01*
G01X97990D02*
X98910D01*
G01X100745Y-177587D02*
X101052Y-177845D01*
X101397Y-178000D01*
X101703D01*
X102010Y-177845D01*
X102240Y-177587D01*
X102355Y-177225D01*
X102278Y-176863D01*
X102087Y-176553D01*
X101742Y-176347D01*
X101282Y-176243D01*
X101013Y-176037D01*
X100898Y-175675D01*
X100975Y-175313D01*
X101167Y-175055D01*
X101435Y-174900D01*
X101703D01*
X101972Y-175003D01*
X102202Y-175262D01*
G01X106983Y-178000D02*
Y-174900D01*
X107942D01*
X108248Y-175055D01*
X108440Y-175262D01*
X108517Y-175675D01*
X108440Y-176088D01*
X108210Y-176347D01*
X107942Y-176502D01*
X106983D01*
G01X107942D02*
X108517Y-178000D01*
G01X110850D02*
X110543Y-177948D01*
X110275Y-177742D01*
X110045Y-177432D01*
X109892Y-177070D01*
X109815Y-176657D01*
Y-176243D01*
X109892Y-175830D01*
X110045Y-175468D01*
X110275Y-175158D01*
X110543Y-174952D01*
X110850Y-174900D01*
X111157Y-174952D01*
X111425Y-175158D01*
X111655Y-175468D01*
X111808Y-175830D01*
X111885Y-176243D01*
Y-176657D01*
X111808Y-177070D01*
X111655Y-177432D01*
X111425Y-177742D01*
X111157Y-177948D01*
X110850Y-178000D01*
G01X114793Y-175158D02*
X114563Y-175003D01*
X114295Y-174900D01*
X113988D01*
X113643Y-175055D01*
X113375Y-175313D01*
X113183Y-175623D01*
X113030Y-176140D01*
X112992Y-176605D01*
X113068Y-177070D01*
X113183Y-177380D01*
X113413Y-177690D01*
X113682Y-177897D01*
X113950Y-178000D01*
X114218D01*
X114487Y-177897D01*
X114717Y-177742D01*
X114908Y-177535D01*
G01X116207Y-178000D02*
Y-174900D01*
G01X117663D02*
X116207Y-176812D01*
G01X117893Y-178000D02*
X116858Y-175933D01*
G01X120917Y-178000D02*
X119383D01*
Y-174900D01*
X120917D01*
G01X120303Y-176398D02*
X119383D01*
G01X123250Y-174900D02*
Y-178000D01*
G01X122368Y-174900D02*
X124132D01*
G01X128645Y-177587D02*
X128952Y-177845D01*
X129297Y-178000D01*
X129603D01*
X129910Y-177845D01*
X130140Y-177587D01*
X130255Y-177225D01*
X130178Y-176863D01*
X129987Y-176553D01*
X129642Y-176347D01*
X129182Y-176243D01*
X128913Y-176037D01*
X128798Y-175675D01*
X128875Y-175313D01*
X129067Y-175055D01*
X129335Y-174900D01*
X129603D01*
X129872Y-175003D01*
X130102Y-175262D01*
G01X133393Y-175158D02*
X133163Y-175003D01*
X132895Y-174900D01*
X132588D01*
X132243Y-175055D01*
X131975Y-175313D01*
X131783Y-175623D01*
X131630Y-176140D01*
X131592Y-176605D01*
X131668Y-177070D01*
X131783Y-177380D01*
X132013Y-177690D01*
X132282Y-177897D01*
X132550Y-178000D01*
X132818D01*
X133087Y-177897D01*
X133317Y-177742D01*
X133508Y-177535D01*
G01X135190Y-174900D02*
X136110D01*
G01X135650D02*
Y-178000D01*
G01X135190D02*
X136110D01*
G01X139517D02*
X137983D01*
Y-174900D01*
X139517D01*
G01X138903Y-176398D02*
X137983D01*
G01X140968Y-178000D02*
Y-174900D01*
X142732Y-178000D01*
Y-174900D01*
G01X145793Y-175158D02*
X145563Y-175003D01*
X145295Y-174900D01*
X144988D01*
X144643Y-175055D01*
X144375Y-175313D01*
X144183Y-175623D01*
X144030Y-176140D01*
X143992Y-176605D01*
X144068Y-177070D01*
X144183Y-177380D01*
X144413Y-177690D01*
X144682Y-177897D01*
X144950Y-178000D01*
X145218D01*
X145487Y-177897D01*
X145717Y-177742D01*
X145908Y-177535D01*
G01X148817Y-178000D02*
X147283D01*
Y-174900D01*
X148817D01*
G01X148203Y-176398D02*
X147283D01*
G54D15*
X29500Y29750D03*
Y40250D03*
X25000Y256750D03*
Y267250D03*
X56000Y256750D03*
Y267250D03*
X69500Y29750D03*
Y40250D03*
X67000Y256750D03*
Y267250D03*
X80500Y29750D03*
Y40250D03*
X111500Y29750D03*
Y40250D03*
X98800Y140250D03*
Y129750D03*
X109500Y277250D03*
Y266750D03*
X227500Y29250D03*
Y39750D03*
X226500Y108250D03*
Y118750D03*
X257000Y31750D03*
Y42250D03*
X256000Y105250D03*
Y115750D03*
X304800Y273850D03*
Y284350D03*
G54D24*
X74000Y202000D03*
G54D42*
X515000Y52000D03*
X505000Y42000D03*
Y62000D03*
Y245829D03*
X515000Y255829D03*
X505000Y265829D03*
X525000Y42000D03*
Y62000D03*
Y245829D03*
Y265829D03*
G54D33*
X288000Y34000D03*
Y45000D03*
G54D52*
G01X28000Y-185500D02*
X485519Y-185493D01*
G54D43*
G01X58000Y-171000D02*
X175500D01*
G01X58000Y-168000D02*
X175500D01*
G01X166984Y64823D02*
Y68000D01*
X166000Y68984D01*
Y72500D01*
G01X165016Y61000D02*
Y64823D01*
G01X165000Y57550D02*
X165016Y57566D01*
Y61000D01*
G01X158323Y73484D02*
X154516D01*
G01X169000Y75500D02*
X168953Y75547D01*
Y80177D01*
G01X173677Y71516D02*
X171016D01*
X169000Y69500D01*
G01X163047Y80177D02*
Y75547D01*
X163000Y75500D01*
G01X166984Y80177D02*
Y83016D01*
G01X165016Y80177D02*
Y83016D01*
G01X166984D02*
X166000Y84000D01*
G01X165016Y83016D02*
X166000Y84000D01*
G01X192750Y42400D02*
X189000D01*
G01X173677Y67579D02*
X174921D01*
X176100Y66400D01*
Y65097D01*
G01X173677Y73484D02*
X176749D01*
X177333Y72900D01*
X178900D01*
G01Y75700D02*
X178653D01*
X178568Y75785D01*
X176664D01*
X176332Y75453D01*
X173677D01*
G01X199450Y35000D02*
Y28500D01*
G01Y35000D02*
X193550D01*
G01X199450D02*
Y37700D01*
X200250Y38500D01*
Y42400D01*
G01Y52600D02*
X204000D01*
G01X208000Y52550D02*
X204050D01*
X204000Y52600D01*
G01X229280Y62632D02*
Y54330D01*
X227500Y52550D01*
G01X221602Y62632D02*
Y56898D01*
X222000Y56500D01*
G01X216484Y62632D02*
Y54534D01*
X214500Y52550D01*
G01X219043Y62632D02*
Y54507D01*
X221000Y52550D01*
G01X226720Y85368D02*
Y89920D01*
X226800Y90000D01*
Y95150D01*
X226500Y95450D01*
G01X216484Y85368D02*
Y92466D01*
X213500Y95450D01*
G01X219043Y85368D02*
Y94493D01*
X220000Y95450D01*
G01X227700Y186500D02*
X227653Y186547D01*
X223023D01*
G01X227700Y192500D02*
X227653Y192453D01*
X223023D01*
G01X219200Y189500D02*
X220184Y188516D01*
G01X219200Y189500D02*
X220184Y190484D01*
G01Y188516D02*
X223023D01*
G01X220184Y190484D02*
X223023D01*
G01X227747Y200353D02*
Y197177D01*
G01X242075Y62632D02*
Y54125D01*
X240500Y52550D01*
G01X234100D02*
X234398Y53148D01*
Y62632D01*
G01X242075Y85368D02*
Y91525D01*
X246000Y95450D01*
G01X239516Y91500D02*
Y85368D01*
G01X232500Y91500D02*
X234398Y89602D01*
Y85368D01*
G01X244634D02*
Y90634D01*
X245500Y91500D01*
G01X239500Y95450D02*
X233000D01*
G01X239500D02*
X239516Y95434D01*
Y91500D01*
G01X233000Y100550D02*
Y104000D01*
G01X229716Y181823D02*
Y178016D01*
G01X238377Y188516D02*
X242200D01*
G01D02*
X245166D01*
X245650Y189000D01*
G01X231684Y197177D02*
Y194516D01*
X233700Y192500D01*
G01X235621Y197177D02*
Y201000D01*
G01X238377Y190484D02*
X235184D01*
X234200Y189500D01*
X230700D01*
G01X229898Y202148D02*
Y199463D01*
X229716Y199281D01*
Y197177D01*
G54D34*
X295440Y61365D03*
X298000D03*
X300560D03*
Y68635D03*
X298000D03*
X295440D03*
G54D25*
X94750Y120500D03*
Y113500D03*
X76950Y174500D03*
X82050D03*
X99850Y120500D03*
Y113500D03*
X101850Y162000D03*
X96750D03*
X101850Y155500D03*
X96750D03*
X101850Y149000D03*
X96750D03*
X101850Y168500D03*
X96750D03*
X151050Y69500D03*
X145950D03*
X150550Y219500D03*
X145450D03*
X150550Y263500D03*
X145450D03*
X156450Y219500D03*
X161550D03*
X156450Y226500D03*
X161550D03*
X156450Y263500D03*
X161550D03*
X156450Y270500D03*
X161550D03*
X188450Y35000D03*
X180950Y64500D03*
X186050D03*
X180950Y77500D03*
X186050D03*
X180950Y71000D03*
X186050D03*
X180950Y84000D03*
X186050D03*
X204550Y28500D03*
X199450D03*
X204550Y35000D03*
X199450D03*
X193550D03*
X191450Y71000D03*
X196550D03*
X191450Y77500D03*
X196550D03*
X210650Y181000D03*
X215750D03*
X210650Y187500D03*
X215750D03*
X210650Y194000D03*
X215750D03*
X226650Y226500D03*
X241550Y39500D03*
X236450D03*
X241550Y31500D03*
X236450D03*
X240550Y108000D03*
X235450D03*
X240550Y116000D03*
X235450D03*
X245650Y195500D03*
Y202000D03*
Y189000D03*
X231750Y226500D03*
X237750Y268000D03*
X232650D03*
X261050Y73000D03*
X255950D03*
X250750Y195500D03*
X261250D03*
X256150D03*
X250750Y202000D03*
Y189000D03*
X283450Y68500D03*
X275050Y73000D03*
X269950D03*
X284850Y252300D03*
X279750D03*
X284450Y271500D03*
X279350D03*
X301050Y45500D03*
X295950D03*
X298550Y53000D03*
X293450D03*
X305450Y61500D03*
X288550Y68500D03*
X299250Y240100D03*
X294150D03*
X305450Y260900D03*
X310550Y61500D03*
X315050Y221800D03*
X309950D03*
X310550Y260900D03*
X381250Y255900D03*
X392950Y37000D03*
X398050D03*
X397250Y255900D03*
X386350D03*
X416050Y24000D03*
X410950D03*
X402950Y52000D03*
X408050D03*
X402350Y255900D03*
X435350D03*
X456450D03*
X451350D03*
X440450D03*
X458250Y268600D03*
X453150D03*
X463450Y52000D03*
X468550D03*
X466550Y255900D03*
X461450D03*
X477450Y256000D03*
X482550D03*
G54D16*
G01X49500Y52500D02*
Y56450D01*
G01X88500Y244500D02*
Y240550D01*
G01X180800Y71000D02*
X180950D01*
X29500Y25000D03*
X21000Y45000D03*
Y60000D03*
X29500D03*
Y72000D03*
X21000D03*
X33500Y132668D03*
X35500Y238500D03*
X25000Y252000D03*
X35400D03*
X25000Y272000D03*
X54000Y124500D03*
X55500Y110500D03*
X47500Y123400D03*
X56000Y142117D03*
X47467Y138967D03*
X53500Y132500D03*
X47500Y135818D03*
Y145267D03*
X53500Y136000D03*
X47500Y148416D03*
Y151566D03*
Y154715D03*
Y157865D03*
X56000Y160000D03*
X47485Y161015D03*
X56000Y237000D03*
Y225000D03*
X45500Y238500D03*
X45600Y269500D03*
X50500Y267250D03*
X41500Y262000D03*
X50000D03*
X64000Y29750D03*
X74400Y49400D03*
X69500Y45000D03*
Y60000D03*
Y72000D03*
X70000Y107471D03*
Y104322D03*
Y98022D03*
Y94873D03*
X73500Y117000D03*
Y113000D03*
X73000Y138000D03*
X70000Y153000D03*
X69865Y157865D03*
X69800Y164164D03*
X72500Y167516D03*
X70000Y183062D03*
X69960Y201960D03*
X70000Y192511D03*
Y195660D03*
Y186211D03*
X67000Y237000D03*
X73500D03*
X67000Y225000D03*
Y252000D03*
X62100Y247600D03*
X72500Y267250D03*
X86000Y29750D03*
X95000Y35000D03*
X86500D03*
X91000Y58500D03*
X80500Y60000D03*
Y72000D03*
X82000Y80000D03*
X79500Y124500D03*
Y129500D03*
X92500Y140500D03*
X92784Y144484D03*
X77500Y157000D03*
Y150500D03*
X80500Y164500D03*
X93000Y154720D03*
X80800Y146000D03*
X80500Y167516D03*
X111500Y25000D03*
X101100Y45000D03*
X111500D03*
X99500Y58850D03*
X103700Y118500D03*
X98800Y144500D03*
X109500Y130000D03*
X105500D03*
Y156500D03*
X97500Y172450D03*
X105500Y168500D03*
X100000Y192500D03*
X114000Y238450D03*
X109500Y247000D03*
Y282000D03*
X118000Y247000D03*
X151050Y65500D03*
X142500Y69500D03*
X134500Y82000D03*
X145450Y223500D03*
Y259900D03*
X167500Y49000D03*
X172000Y61000D03*
X161000Y52450D03*
X157000Y63000D03*
X154500Y65500D03*
Y68500D03*
X161500Y61000D03*
X165016D03*
X168500D03*
X171000Y84000D03*
X154516Y73484D03*
X166000Y84000D03*
X168500Y96000D03*
X162500D03*
X156000D03*
X175700Y41950D03*
X178500Y49000D03*
X185000Y44000D03*
Y35000D03*
X189000Y42400D03*
X176100Y65097D03*
X186600Y58000D03*
X189100Y52600D03*
X191000Y64500D03*
X189500Y84000D03*
X177400Y79300D03*
X177550Y69499D03*
X203500Y47000D03*
X204000Y41500D03*
X207000Y39000D03*
X196500Y38000D03*
X207000Y44000D03*
X204000Y52600D03*
X207200Y181000D03*
Y187500D03*
Y194000D03*
X228000Y68500D03*
X226000Y56500D03*
X222000D03*
X213000D03*
X223500Y70500D03*
X227000Y72500D03*
X219000Y71500D03*
X223450Y77500D03*
X228550D03*
X221500Y91500D03*
X213000D03*
X220000Y120900D03*
Y115100D03*
X212950Y176600D03*
X229716Y178016D03*
X228200Y173550D03*
X223800Y200600D03*
X219200Y189500D03*
Y194500D03*
Y213000D03*
X214000Y211000D03*
X222200Y251500D03*
X225420D03*
X226200Y244000D03*
X222200D03*
X225007Y265627D03*
X248000Y40000D03*
X240500Y44000D03*
X234000D03*
X246000Y56500D03*
X247500Y64500D03*
X232000Y56500D03*
X238500D03*
X233500Y77500D03*
X248000Y81500D03*
X247000Y107500D03*
X236000Y91500D03*
X239500Y104000D03*
X239516Y91500D03*
X233000Y104000D03*
X232500Y91500D03*
X245500D03*
X236277Y168577D03*
X243200Y180500D03*
X238200Y177500D03*
X234700Y178000D03*
X242200Y188516D03*
Y192000D03*
X232700Y201000D03*
X235621D03*
X242200Y195500D03*
X246200Y184500D03*
X238700Y215000D03*
X235200Y230400D03*
X245350Y238650D03*
X238457Y236500D03*
X233098Y251700D03*
X237500Y249400D03*
X235500Y277000D03*
X267000Y43000D03*
X250950Y47450D03*
X267000Y58500D03*
X257000Y58000D03*
X258500Y65000D03*
X251000Y53000D03*
X258500Y81500D03*
X266000Y89000D03*
X252000Y92950D03*
X266000Y104500D03*
X250000Y100550D03*
X254585Y187900D03*
X264700Y195500D03*
X256800Y191600D03*
X250750Y206000D03*
X254500Y217100D03*
X253500Y275000D03*
X285500Y29500D03*
X274500Y45000D03*
X284500Y50000D03*
X274500Y57000D03*
X279500Y61000D03*
X272500Y65000D03*
Y81500D03*
X273500Y90500D03*
Y102500D03*
X284450Y276350D03*
X272500Y276500D03*
X290500Y29500D03*
X294000Y57000D03*
X298500Y58000D03*
X303552Y53052D03*
X288500Y77500D03*
X302000Y73000D03*
X297500Y72000D03*
X321300Y26600D03*
X311950Y35500D03*
X311550Y52800D03*
X317150Y80950D03*
X311550Y70200D03*
X331800Y26600D03*
X340250Y28050D03*
X344000Y35900D03*
X339950Y42800D03*
X330650Y43750D03*
X328850Y51350D03*
X328250Y60950D03*
X333300Y68350D03*
X341500Y60000D03*
X329350Y84550D03*
X337400Y90950D03*
X333500Y222500D03*
X338500Y255000D03*
X363350Y26500D03*
X360600Y41700D03*
X358150Y32750D03*
X348600Y68250D03*
X360600Y68150D03*
X355000Y60000D03*
X351750Y91050D03*
X347000Y222500D03*
X350500Y255000D03*
X370900Y26250D03*
X378800Y26550D03*
X371700Y43850D03*
X371100Y67550D03*
X382000Y84500D03*
X372500D03*
X370300Y91050D03*
X383600Y30150D03*
X388000Y26500D03*
Y21000D03*
X396500Y65500D03*
X395000Y76500D03*
X407500Y60500D03*
X407200Y247200D03*
X434000Y247500D03*
X424700Y247100D03*
X436700Y264200D03*
X438000Y270950D03*
X431500Y269500D03*
X456500Y241000D03*
X451500Y247500D03*
X445900Y272450D03*
X444900Y276800D03*
X451000Y277400D03*
X471900Y46900D03*
X468500Y59000D03*
X475500Y52000D03*
X467500Y241000D03*
X475500Y247500D03*
X460500Y279500D03*
X489700Y47400D03*
X480000Y47200D03*
X489200Y57200D03*
X480500Y57000D03*
X497600Y260600D03*
X497700Y251600D03*
X490700Y251500D03*
X490300Y260600D03*
X483000Y252200D03*
X482600Y259900D03*
X485950Y256000D03*
X497600Y268100D03*
X515000Y44500D03*
X508750Y47500D03*
X510000Y35000D03*
X502500D03*
X498400Y39900D03*
Y47400D03*
X515000Y59500D03*
X509000Y56500D03*
X510000Y69000D03*
X502500D03*
X497900Y64700D03*
Y57200D03*
X510000Y238500D03*
X503000D03*
X508750Y251500D03*
X509000Y260500D03*
X515000Y248250D03*
X497750Y244000D03*
X515000Y263500D03*
X510000Y273250D03*
X502500D03*
X522000Y49000D03*
X525000Y35000D03*
X517500D03*
X522000Y55000D03*
X525000Y69000D03*
X517500D03*
X525000Y238500D03*
X517500D03*
X522000Y253000D03*
Y259000D03*
X525000Y273250D03*
X517500D03*
G54D53*
G01X-11000Y311000D02*
X531000D01*
Y-11000D01*
X-11000D01*
Y311000D01*
G01X28000Y-248000D02*
X485519Y-247974D01*
Y-207974D01*
X28000Y-208000D01*
Y-248000D01*
G01Y-228000D02*
X485519Y-227974D01*
G01X28000Y-205500D02*
X485519Y-205493D01*
Y-144982D01*
X28000Y-145000D01*
Y-205500D01*
G01X38000Y-247974D02*
X485519D01*
G01X59550Y-165000D02*
Y-152500D01*
X63425D01*
X64665Y-153125D01*
X65440Y-153958D01*
X65750Y-155625D01*
X65440Y-157292D01*
X64510Y-158333D01*
X63425Y-158958D01*
X59550D01*
G01X63425D02*
X65750Y-165000D01*
G01X75050D02*
X74120Y-164792D01*
X73190Y-163959D01*
X72570Y-162500D01*
X72260Y-160833D01*
X72570Y-159167D01*
X73190Y-157708D01*
X74120Y-156875D01*
X75050Y-156667D01*
X75980Y-156875D01*
X76910Y-157708D01*
X77530Y-159167D01*
X77685Y-160833D01*
X77530Y-162500D01*
X76910Y-163959D01*
X75980Y-164792D01*
X75050Y-165000D01*
G01X89930Y-157708D02*
X88845Y-156875D01*
X87915Y-156667D01*
X86675Y-157083D01*
X85745Y-157917D01*
X85125Y-159375D01*
X84970Y-160833D01*
X85125Y-162292D01*
X85745Y-163542D01*
X86675Y-164583D01*
X87915Y-165000D01*
X89000Y-164583D01*
X89930Y-163750D01*
G01X97215Y-165000D02*
Y-152500D01*
G01X102175Y-156667D02*
X97215Y-161458D01*
G01X99230Y-159583D02*
X102485Y-165000D01*
G01X109925Y-159375D02*
X114885D01*
X114420Y-157917D01*
X113645Y-157083D01*
X112560Y-156667D01*
X111475Y-156875D01*
X110545Y-157500D01*
X109925Y-158958D01*
X109615Y-160209D01*
Y-161458D01*
X109925Y-162708D01*
X110700Y-163959D01*
X111630Y-164792D01*
X112715Y-165000D01*
X113800Y-164583D01*
X114885Y-163334D01*
G01X124650Y-152500D02*
Y-165000D01*
G01X122480Y-156667D02*
X126820D01*
G01X152550Y-165000D02*
X146350D01*
Y-152500D01*
X152550D01*
G01X150070Y-158542D02*
X146350D01*
G01X157820Y-165000D02*
Y-152500D01*
X161850Y-162917D01*
X165880Y-152500D01*
Y-165000D01*
G01X170995Y-163334D02*
X172235Y-164375D01*
X173630Y-165000D01*
X174870D01*
X176110Y-164375D01*
X177040Y-163334D01*
X177505Y-161875D01*
X177195Y-160417D01*
X176420Y-159167D01*
X175025Y-158333D01*
X173165Y-157917D01*
X172080Y-157083D01*
X171615Y-155625D01*
X171925Y-154167D01*
X172700Y-153125D01*
X173785Y-152500D01*
X174870D01*
X175955Y-152917D01*
X176885Y-153958D01*
G01X203000Y-207974D02*
Y-247974D01*
G01Y-185493D02*
Y-205493D01*
G01Y-144982D02*
Y-185493D01*
G01X423000Y-207974D02*
Y-248000D01*
G01X32667Y-198500D02*
Y-193000D01*
X34267D01*
X34800Y-193275D01*
X35200Y-193917D01*
X35333Y-194650D01*
X35200Y-195383D01*
X34867Y-195933D01*
X34267Y-196208D01*
X32667D01*
G01X40400Y-198500D02*
Y-194833D01*
G01Y-195475D02*
X40133Y-195108D01*
X39733Y-194925D01*
X39267Y-194833D01*
X38800Y-195017D01*
X38400Y-195383D01*
X38133Y-195933D01*
X38000Y-196667D01*
X38133Y-197400D01*
X38400Y-197950D01*
X38800Y-198317D01*
X39267Y-198500D01*
X39733Y-198408D01*
X40133Y-198133D01*
X40400Y-197767D01*
G01X43467Y-198500D02*
Y-194833D01*
G01Y-195567D02*
X43800Y-195200D01*
X44133Y-194925D01*
X44600Y-194833D01*
X44933Y-194925D01*
X45333Y-195200D01*
G01X49600Y-193000D02*
Y-198500D01*
G01X48667Y-194833D02*
X50533D01*
G01X58867Y-198500D02*
Y-194833D01*
G01Y-195750D02*
X59133Y-195292D01*
X59533Y-194925D01*
X60067Y-194833D01*
X60533Y-194925D01*
X60933Y-195292D01*
X61133Y-195933D01*
Y-198500D01*
G01X64067Y-194833D02*
Y-197400D01*
X64333Y-198042D01*
X64733Y-198408D01*
X65200Y-198500D01*
X65667Y-198408D01*
X66067Y-198042D01*
X66333Y-197400D01*
G01Y-198500D02*
Y-194833D01*
G01X68400Y-198500D02*
Y-194833D01*
G01Y-195842D02*
X68600Y-195383D01*
X68933Y-195017D01*
X69400Y-194833D01*
X69867Y-195017D01*
X70200Y-195383D01*
X70400Y-195842D01*
Y-198500D01*
G01Y-195842D02*
X70600Y-195383D01*
X70933Y-195017D01*
X71400Y-194833D01*
X71867Y-195017D01*
X72200Y-195383D01*
X72400Y-195933D01*
Y-198500D01*
G01X74400D02*
Y-193000D01*
G01Y-195750D02*
X74733Y-195200D01*
X75133Y-194925D01*
X75533Y-194833D01*
X76133Y-195017D01*
X76533Y-195383D01*
X76800Y-196025D01*
Y-196758D01*
X76667Y-197492D01*
X76400Y-198042D01*
X75933Y-198408D01*
X75533Y-198500D01*
X75133Y-198408D01*
X74733Y-198133D01*
X74400Y-197675D01*
G01X79800Y-196025D02*
X81933D01*
X81733Y-195383D01*
X81400Y-195017D01*
X80933Y-194833D01*
X80467Y-194925D01*
X80067Y-195200D01*
X79800Y-195842D01*
X79667Y-196392D01*
Y-196942D01*
X79800Y-197492D01*
X80133Y-198042D01*
X80533Y-198408D01*
X81000Y-198500D01*
X81467Y-198317D01*
X81933Y-197767D01*
G01X85067Y-198500D02*
Y-194833D01*
G01Y-195567D02*
X85400Y-195200D01*
X85733Y-194925D01*
X86200Y-194833D01*
X86533Y-194925D01*
X86933Y-195200D01*
G01X91200Y-198683D02*
X91067Y-198592D01*
Y-198408D01*
X91200Y-198317D01*
X91333Y-198408D01*
Y-198592D01*
X91200Y-198683D01*
G01Y-196208D02*
X91067Y-196117D01*
Y-195933D01*
X91200Y-195842D01*
X91333Y-195933D01*
Y-196117D01*
X91200Y-196208D01*
G01X41119Y-234760D02*
X41652Y-235218D01*
X42252Y-235493D01*
X42786D01*
X43319Y-235218D01*
X43719Y-234760D01*
X43919Y-234118D01*
X43786Y-233476D01*
X43452Y-232926D01*
X42852Y-232560D01*
X42052Y-232376D01*
X41586Y-232010D01*
X41386Y-231368D01*
X41519Y-230726D01*
X41852Y-230268D01*
X42319Y-229993D01*
X42786D01*
X43252Y-230176D01*
X43652Y-230635D01*
G01X48919Y-235493D02*
Y-231826D01*
G01Y-232468D02*
X48652Y-232101D01*
X48252Y-231918D01*
X47786Y-231826D01*
X47319Y-232010D01*
X46919Y-232376D01*
X46652Y-232926D01*
X46519Y-233660D01*
X46652Y-234393D01*
X46919Y-234943D01*
X47319Y-235310D01*
X47786Y-235493D01*
X48252Y-235401D01*
X48652Y-235126D01*
X48919Y-234760D01*
G01X52919Y-235493D02*
Y-229993D01*
G01X57119Y-233018D02*
X59252D01*
X59052Y-232376D01*
X58719Y-232010D01*
X58252Y-231826D01*
X57786Y-231918D01*
X57386Y-232193D01*
X57119Y-232835D01*
X56986Y-233385D01*
Y-233935D01*
X57119Y-234485D01*
X57452Y-235035D01*
X57852Y-235401D01*
X58319Y-235493D01*
X58786Y-235310D01*
X59252Y-234760D01*
G01X62319Y-234851D02*
X62652Y-235218D01*
X63119Y-235493D01*
X63519D01*
X63919Y-235310D01*
X64186Y-235035D01*
X64319Y-234668D01*
X64252Y-234118D01*
X63986Y-233843D01*
X62786Y-233293D01*
X62519Y-232651D01*
X62652Y-232193D01*
X62919Y-231918D01*
X63319Y-231826D01*
X63719Y-231918D01*
X64119Y-232193D01*
G01X74786Y-232285D02*
X74319Y-231918D01*
X73919Y-231826D01*
X73386Y-232010D01*
X72986Y-232376D01*
X72719Y-233018D01*
X72652Y-233660D01*
X72719Y-234301D01*
X72986Y-234851D01*
X73386Y-235310D01*
X73919Y-235493D01*
X74386Y-235310D01*
X74786Y-234943D01*
G01X78919Y-235493D02*
X78519Y-235401D01*
X78119Y-235035D01*
X77852Y-234393D01*
X77719Y-233660D01*
X77852Y-232926D01*
X78119Y-232285D01*
X78519Y-231918D01*
X78919Y-231826D01*
X79319Y-231918D01*
X79719Y-232285D01*
X79986Y-232926D01*
X80052Y-233660D01*
X79986Y-234393D01*
X79719Y-235035D01*
X79319Y-235401D01*
X78919Y-235493D01*
G01X82986D02*
Y-231826D01*
G01Y-232743D02*
X83252Y-232285D01*
X83652Y-231918D01*
X84186Y-231826D01*
X84652Y-231918D01*
X85052Y-232285D01*
X85252Y-232926D01*
Y-235493D01*
G01X89319Y-229993D02*
Y-235493D01*
G01X88386Y-231826D02*
X90252D01*
G01X95719Y-235493D02*
Y-231826D01*
G01Y-232468D02*
X95452Y-232101D01*
X95052Y-231918D01*
X94586Y-231826D01*
X94119Y-232010D01*
X93719Y-232376D01*
X93452Y-232926D01*
X93319Y-233660D01*
X93452Y-234393D01*
X93719Y-234943D01*
X94119Y-235310D01*
X94586Y-235493D01*
X95052Y-235401D01*
X95452Y-235126D01*
X95719Y-234760D01*
G01X100786Y-232285D02*
X100319Y-231918D01*
X99919Y-231826D01*
X99386Y-232010D01*
X98986Y-232376D01*
X98719Y-233018D01*
X98652Y-233660D01*
X98719Y-234301D01*
X98986Y-234851D01*
X99386Y-235310D01*
X99919Y-235493D01*
X100386Y-235310D01*
X100786Y-234943D01*
G01X104919Y-229993D02*
Y-235493D01*
G01X103986Y-231826D02*
X105852D01*
G01X110119Y-235676D02*
X109986Y-235585D01*
Y-235401D01*
X110119Y-235310D01*
X110252Y-235401D01*
Y-235585D01*
X110119Y-235676D01*
G01Y-233201D02*
X109986Y-233110D01*
Y-232926D01*
X110119Y-232835D01*
X110252Y-232926D01*
Y-233110D01*
X110119Y-233201D01*
G01X41186Y-209993D02*
Y-215493D01*
X43852D01*
G01X48919D02*
Y-211826D01*
G01Y-212468D02*
X48652Y-212101D01*
X48252Y-211918D01*
X47786Y-211826D01*
X47319Y-212010D01*
X46919Y-212376D01*
X46652Y-212926D01*
X46519Y-213660D01*
X46652Y-214393D01*
X46919Y-214943D01*
X47319Y-215310D01*
X47786Y-215493D01*
X48252Y-215401D01*
X48652Y-215126D01*
X48919Y-214760D01*
G01X51519Y-217143D02*
X51919Y-217326D01*
X52452Y-217143D01*
X52786Y-216776D01*
X53052Y-216318D01*
X53452Y-214851D01*
X54319Y-211826D01*
G01X52186D02*
X53452Y-214851D01*
G01X58119Y-215493D02*
X57719Y-215401D01*
X57319Y-215035D01*
X57052Y-214393D01*
X56919Y-213660D01*
X57052Y-212926D01*
X57319Y-212285D01*
X57719Y-211918D01*
X58119Y-211826D01*
X58519Y-211918D01*
X58919Y-212285D01*
X59186Y-212926D01*
X59252Y-213660D01*
X59186Y-214393D01*
X58919Y-215035D01*
X58519Y-215401D01*
X58119Y-215493D01*
G01X62186Y-211826D02*
Y-214393D01*
X62452Y-215035D01*
X62852Y-215401D01*
X63319Y-215493D01*
X63786Y-215401D01*
X64186Y-215035D01*
X64452Y-214393D01*
G01Y-215493D02*
Y-211826D01*
G01X68519Y-209993D02*
Y-215493D01*
G01X67586Y-211826D02*
X69452D01*
G01X80119Y-209993D02*
Y-215493D01*
G01Y-214668D02*
X79852Y-215126D01*
X79452Y-215401D01*
X78986Y-215493D01*
X78452Y-215310D01*
X78052Y-214851D01*
X77786Y-214301D01*
X77719Y-213660D01*
X77786Y-213018D01*
X78052Y-212468D01*
X78452Y-212010D01*
X78986Y-211826D01*
X79452Y-211918D01*
X79786Y-212101D01*
X80119Y-212468D01*
G01X83119Y-213018D02*
X85252D01*
X85052Y-212376D01*
X84719Y-212010D01*
X84252Y-211826D01*
X83786Y-211918D01*
X83386Y-212193D01*
X83119Y-212835D01*
X82986Y-213385D01*
Y-213935D01*
X83119Y-214485D01*
X83452Y-215035D01*
X83852Y-215401D01*
X84319Y-215493D01*
X84786Y-215310D01*
X85252Y-214760D01*
G01X88319Y-214851D02*
X88652Y-215218D01*
X89119Y-215493D01*
X89519D01*
X89919Y-215310D01*
X90186Y-215035D01*
X90319Y-214668D01*
X90252Y-214118D01*
X89986Y-213843D01*
X88786Y-213293D01*
X88519Y-212651D01*
X88652Y-212193D01*
X88919Y-211918D01*
X89319Y-211826D01*
X89719Y-211918D01*
X90119Y-212193D01*
G01X94519Y-211826D02*
Y-215493D01*
G01Y-210360D02*
X94386Y-210268D01*
Y-210085D01*
X94519Y-209993D01*
X94652Y-210085D01*
Y-210268D01*
X94519Y-210360D01*
G01X98786Y-216868D02*
X99252Y-217235D01*
X99786Y-217326D01*
X100252Y-217235D01*
X100652Y-216776D01*
X100919Y-216135D01*
Y-211826D01*
G01Y-212560D02*
X100652Y-212193D01*
X100252Y-211918D01*
X99786Y-211826D01*
X99252Y-212010D01*
X98919Y-212376D01*
X98652Y-213018D01*
X98519Y-213660D01*
X98586Y-214210D01*
X98852Y-214851D01*
X99252Y-215310D01*
X99786Y-215493D01*
X100186Y-215401D01*
X100652Y-215035D01*
X100919Y-214668D01*
G01X103786Y-215493D02*
Y-211826D01*
G01Y-212743D02*
X104052Y-212285D01*
X104452Y-211918D01*
X104986Y-211826D01*
X105452Y-211918D01*
X105852Y-212285D01*
X106052Y-212926D01*
Y-215493D01*
G01X109119Y-213018D02*
X111252D01*
X111052Y-212376D01*
X110719Y-212010D01*
X110252Y-211826D01*
X109786Y-211918D01*
X109386Y-212193D01*
X109119Y-212835D01*
X108986Y-213385D01*
Y-213935D01*
X109119Y-214485D01*
X109452Y-215035D01*
X109852Y-215401D01*
X110319Y-215493D01*
X110786Y-215310D01*
X111252Y-214760D01*
G01X114386Y-215493D02*
Y-211826D01*
G01Y-212560D02*
X114719Y-212193D01*
X115052Y-211918D01*
X115519Y-211826D01*
X115852Y-211918D01*
X116252Y-212193D01*
G01X120519Y-215676D02*
X120386Y-215585D01*
Y-215401D01*
X120519Y-215310D01*
X120652Y-215401D01*
Y-215585D01*
X120519Y-215676D01*
G01Y-213201D02*
X120386Y-213110D01*
Y-212926D01*
X120519Y-212835D01*
X120652Y-212926D01*
Y-213110D01*
X120519Y-213201D01*
G01X109533Y-245000D02*
Y-239500D01*
X110867D01*
X111400Y-239775D01*
X111800Y-240142D01*
X112133Y-240692D01*
X112400Y-241333D01*
X112467Y-242250D01*
X112400Y-243167D01*
X112133Y-243808D01*
X111800Y-244358D01*
X111400Y-244725D01*
X110867Y-245000D01*
X109533D01*
G01X117400D02*
Y-241333D01*
G01Y-241975D02*
X117133Y-241608D01*
X116733Y-241425D01*
X116267Y-241333D01*
X115800Y-241517D01*
X115400Y-241883D01*
X115133Y-242433D01*
X115000Y-243167D01*
X115133Y-243900D01*
X115400Y-244450D01*
X115800Y-244817D01*
X116267Y-245000D01*
X116733Y-244908D01*
X117133Y-244633D01*
X117400Y-244267D01*
G01X120267Y-245000D02*
Y-241333D01*
G01Y-242250D02*
X120533Y-241792D01*
X120933Y-241425D01*
X121467Y-241333D01*
X121933Y-241425D01*
X122333Y-241792D01*
X122533Y-242433D01*
Y-245000D01*
G01X126600Y-241333D02*
Y-245000D01*
G01Y-239867D02*
X126467Y-239775D01*
Y-239592D01*
X126600Y-239500D01*
X126733Y-239592D01*
Y-239775D01*
X126600Y-239867D01*
G01X130800Y-242525D02*
X132933D01*
X132733Y-241883D01*
X132400Y-241517D01*
X131933Y-241333D01*
X131467Y-241425D01*
X131067Y-241700D01*
X130800Y-242342D01*
X130667Y-242892D01*
Y-243442D01*
X130800Y-243992D01*
X131133Y-244542D01*
X131533Y-244908D01*
X132000Y-245000D01*
X132467Y-244817D01*
X132933Y-244267D01*
G01X137000Y-245000D02*
Y-239500D01*
G01X145933Y-245000D02*
Y-239500D01*
G01X148467D02*
X145933Y-242892D01*
G01X148867Y-245000D02*
X147067Y-241333D01*
G01X152600Y-245000D02*
X152200Y-244908D01*
X151800Y-244542D01*
X151533Y-243900D01*
X151400Y-243167D01*
X151533Y-242433D01*
X151800Y-241792D01*
X152200Y-241425D01*
X152600Y-241333D01*
X153000Y-241425D01*
X153400Y-241792D01*
X153667Y-242433D01*
X153733Y-243167D01*
X153667Y-243900D01*
X153400Y-244542D01*
X153000Y-244908D01*
X152600Y-245000D01*
G01X156867D02*
Y-241333D01*
G01Y-242067D02*
X157200Y-241700D01*
X157533Y-241425D01*
X158000Y-241333D01*
X158333Y-241425D01*
X158733Y-241700D01*
G01X162000Y-244358D02*
X162333Y-244725D01*
X162800Y-245000D01*
X163200D01*
X163600Y-244817D01*
X163867Y-244542D01*
X164000Y-244175D01*
X163933Y-243625D01*
X163667Y-243350D01*
X162467Y-242800D01*
X162200Y-242158D01*
X162333Y-241700D01*
X162600Y-241425D01*
X163000Y-241333D01*
X163400Y-241425D01*
X163800Y-241700D01*
G01X167067Y-241333D02*
Y-243900D01*
X167333Y-244542D01*
X167733Y-244908D01*
X168200Y-245000D01*
X168667Y-244908D01*
X169067Y-244542D01*
X169333Y-243900D01*
G01Y-245000D02*
Y-241333D01*
G01X172267Y-245000D02*
Y-241333D01*
G01Y-242250D02*
X172533Y-241792D01*
X172933Y-241425D01*
X173467Y-241333D01*
X173933Y-241425D01*
X174333Y-241792D01*
X174533Y-242433D01*
Y-245000D01*
G01X177600Y-244358D02*
X177933Y-244725D01*
X178400Y-245000D01*
X178800D01*
X179200Y-244817D01*
X179467Y-244542D01*
X179600Y-244175D01*
X179533Y-243625D01*
X179267Y-243350D01*
X178067Y-242800D01*
X177800Y-242158D01*
X177933Y-241700D01*
X178200Y-241425D01*
X178600Y-241333D01*
X179000Y-241425D01*
X179400Y-241700D01*
G01X182667Y-245000D02*
Y-239500D01*
G01X184800Y-241333D02*
X182667Y-243442D01*
G01X183533Y-242617D02*
X184933Y-245000D01*
G01X187600Y-246650D02*
X188000Y-246833D01*
X188533Y-246650D01*
X188867Y-246283D01*
X189133Y-245825D01*
X189533Y-244358D01*
X190400Y-241333D01*
G01X188267D02*
X189533Y-244358D01*
G01X103467Y-219958D02*
X103067Y-219683D01*
X102600Y-219500D01*
X102067D01*
X101467Y-219775D01*
X101000Y-220233D01*
X100667Y-220783D01*
X100400Y-221700D01*
X100333Y-222525D01*
X100467Y-223350D01*
X100667Y-223900D01*
X101067Y-224450D01*
X101533Y-224817D01*
X102000Y-225000D01*
X102467D01*
X102933Y-224817D01*
X103333Y-224542D01*
X103667Y-224175D01*
G01X106267Y-225000D02*
Y-221333D01*
G01Y-222067D02*
X106600Y-221700D01*
X106933Y-221425D01*
X107400Y-221333D01*
X107733Y-221425D01*
X108133Y-221700D01*
G01X113600Y-225000D02*
Y-221333D01*
G01Y-221975D02*
X113333Y-221608D01*
X112933Y-221425D01*
X112467Y-221333D01*
X112000Y-221517D01*
X111600Y-221883D01*
X111333Y-222433D01*
X111200Y-223167D01*
X111333Y-223900D01*
X111600Y-224450D01*
X112000Y-224817D01*
X112467Y-225000D01*
X112933Y-224908D01*
X113333Y-224633D01*
X113600Y-224267D01*
G01X117600Y-221333D02*
Y-225000D01*
G01Y-219867D02*
X117467Y-219775D01*
Y-219592D01*
X117600Y-219500D01*
X117733Y-219592D01*
Y-219775D01*
X117600Y-219867D01*
G01X121867Y-226375D02*
X122333Y-226742D01*
X122867Y-226833D01*
X123333Y-226742D01*
X123733Y-226283D01*
X124000Y-225642D01*
Y-221333D01*
G01Y-222067D02*
X123733Y-221700D01*
X123333Y-221425D01*
X122867Y-221333D01*
X122333Y-221517D01*
X122000Y-221883D01*
X121733Y-222525D01*
X121600Y-223167D01*
X121667Y-223717D01*
X121933Y-224358D01*
X122333Y-224817D01*
X122867Y-225000D01*
X123267Y-224908D01*
X123733Y-224542D01*
X124000Y-224175D01*
G01X131800Y-224267D02*
X132333Y-224725D01*
X132933Y-225000D01*
X133467D01*
X134000Y-224725D01*
X134400Y-224267D01*
X134600Y-223625D01*
X134467Y-222983D01*
X134133Y-222433D01*
X133533Y-222067D01*
X132733Y-221883D01*
X132267Y-221517D01*
X132067Y-220875D01*
X132200Y-220233D01*
X132533Y-219775D01*
X133000Y-219500D01*
X133467D01*
X133933Y-219683D01*
X134333Y-220142D01*
G01X139467Y-221792D02*
X139000Y-221425D01*
X138600Y-221333D01*
X138067Y-221517D01*
X137667Y-221883D01*
X137400Y-222525D01*
X137333Y-223167D01*
X137400Y-223808D01*
X137667Y-224358D01*
X138067Y-224817D01*
X138600Y-225000D01*
X139067Y-224817D01*
X139467Y-224450D01*
G01X142467Y-225000D02*
Y-219500D01*
G01Y-222158D02*
X142800Y-221700D01*
X143133Y-221425D01*
X143667Y-221333D01*
X144067Y-221425D01*
X144533Y-221792D01*
X144733Y-222342D01*
Y-225000D01*
G01X148800Y-221333D02*
Y-225000D01*
G01Y-219867D02*
X148667Y-219775D01*
Y-219592D01*
X148800Y-219500D01*
X148933Y-219592D01*
Y-219775D01*
X148800Y-219867D01*
G01X153000Y-222525D02*
X155133D01*
X154933Y-221883D01*
X154600Y-221517D01*
X154133Y-221333D01*
X153667Y-221425D01*
X153267Y-221700D01*
X153000Y-222342D01*
X152867Y-222892D01*
Y-223442D01*
X153000Y-223992D01*
X153333Y-224542D01*
X153733Y-224908D01*
X154200Y-225000D01*
X154667Y-224817D01*
X155133Y-224267D01*
G01X158800Y-225000D02*
Y-220325D01*
X158933Y-219867D01*
X159200Y-219592D01*
X159600Y-219500D01*
X160000Y-219683D01*
X160200Y-220142D01*
G01X159400Y-221700D02*
X158067D01*
G01X163400Y-222525D02*
X165533D01*
X165333Y-221883D01*
X165000Y-221517D01*
X164533Y-221333D01*
X164067Y-221425D01*
X163667Y-221700D01*
X163400Y-222342D01*
X163267Y-222892D01*
Y-223442D01*
X163400Y-223992D01*
X163733Y-224542D01*
X164133Y-224908D01*
X164600Y-225000D01*
X165067Y-224817D01*
X165533Y-224267D01*
G01X168667Y-225000D02*
Y-221333D01*
G01Y-222067D02*
X169000Y-221700D01*
X169333Y-221425D01*
X169800Y-221333D01*
X170133Y-221425D01*
X170533Y-221700D01*
G01X173800Y-224358D02*
X174133Y-224725D01*
X174600Y-225000D01*
X175000D01*
X175400Y-224817D01*
X175667Y-224542D01*
X175800Y-224175D01*
X175733Y-223625D01*
X175467Y-223350D01*
X174267Y-222800D01*
X174000Y-222158D01*
X174133Y-221700D01*
X174400Y-221425D01*
X174800Y-221333D01*
X175200Y-221425D01*
X175600Y-221700D01*
G01X180000Y-219500D02*
Y-225000D01*
G01X179067Y-221333D02*
X180933D01*
G01X184200Y-222525D02*
X186333D01*
X186133Y-221883D01*
X185800Y-221517D01*
X185333Y-221333D01*
X184867Y-221425D01*
X184467Y-221700D01*
X184200Y-222342D01*
X184067Y-222892D01*
Y-223442D01*
X184200Y-223992D01*
X184533Y-224542D01*
X184933Y-224908D01*
X185400Y-225000D01*
X185867Y-224817D01*
X186333Y-224267D01*
G01X190400Y-221333D02*
Y-225000D01*
G01Y-219867D02*
X190267Y-219775D01*
Y-219592D01*
X190400Y-219500D01*
X190533Y-219592D01*
Y-219775D01*
X190400Y-219867D01*
G01X194467Y-225000D02*
Y-221333D01*
G01Y-222250D02*
X194733Y-221792D01*
X195133Y-221425D01*
X195667Y-221333D01*
X196133Y-221425D01*
X196533Y-221792D01*
X196733Y-222433D01*
Y-225000D01*
G01X99667Y-200000D02*
Y-194500D01*
X101333D01*
X101867Y-194775D01*
X102200Y-195142D01*
X102333Y-195875D01*
X102200Y-196608D01*
X101800Y-197067D01*
X101333Y-197342D01*
X99667D01*
G01X101333D02*
X102333Y-200000D01*
G01X104667D02*
Y-194500D01*
X107733Y-200000D01*
Y-194500D01*
G01X110067Y-200000D02*
Y-194500D01*
X111733D01*
X112267Y-194775D01*
X112600Y-195142D01*
X112733Y-195875D01*
X112600Y-196608D01*
X112200Y-197067D01*
X111733Y-197342D01*
X110067D01*
G01X111733D02*
X112733Y-200000D01*
G01X114933D02*
X116600Y-194500D01*
X118267Y-200000D01*
G01X117667Y-198075D02*
X115533D01*
G01X120333Y-200000D02*
Y-194500D01*
X121667D01*
X122200Y-194775D01*
X122600Y-195142D01*
X122933Y-195692D01*
X123200Y-196333D01*
X123267Y-197250D01*
X123200Y-198167D01*
X122933Y-198808D01*
X122600Y-199358D01*
X122200Y-199725D01*
X121667Y-200000D01*
X120333D01*
G01X127000D02*
Y-194500D01*
X126200Y-195600D01*
G01Y-200000D02*
X127800D01*
G01X131333Y-198167D02*
X133067D01*
G01X136067Y-200000D02*
Y-194500D01*
X137733D01*
X138267Y-194775D01*
X138600Y-195142D01*
X138733Y-195875D01*
X138600Y-196608D01*
X138200Y-197067D01*
X137733Y-197342D01*
X136067D01*
G01X137733D02*
X138733Y-200000D01*
G01X141333D02*
Y-194500D01*
X143867D01*
G01X142933Y-197158D02*
X141333D01*
G01X146933Y-198167D02*
X148667D01*
G01X154467Y-194958D02*
X154067Y-194683D01*
X153600Y-194500D01*
X153067D01*
X152467Y-194775D01*
X152000Y-195233D01*
X151667Y-195783D01*
X151400Y-196700D01*
X151333Y-197525D01*
X151467Y-198350D01*
X151667Y-198900D01*
X152067Y-199450D01*
X152533Y-199817D01*
X153000Y-200000D01*
X153467D01*
X153933Y-199817D01*
X154333Y-199542D01*
X154667Y-199175D01*
G01X158200Y-200000D02*
X157667Y-199908D01*
X157200Y-199542D01*
X156800Y-198992D01*
X156533Y-198350D01*
X156400Y-197617D01*
Y-196883D01*
X156533Y-196150D01*
X156800Y-195508D01*
X157200Y-194958D01*
X157667Y-194592D01*
X158200Y-194500D01*
X158733Y-194592D01*
X159200Y-194958D01*
X159600Y-195508D01*
X159867Y-196150D01*
X160000Y-196883D01*
Y-197617D01*
X159867Y-198350D01*
X159600Y-198992D01*
X159200Y-199542D01*
X158733Y-199908D01*
X158200Y-200000D01*
G01X161667D02*
Y-194500D01*
X163400Y-199083D01*
X165133Y-194500D01*
Y-200000D01*
G01X169133Y-197067D02*
X169400Y-196792D01*
X169600Y-196333D01*
X169733Y-195692D01*
X169600Y-195142D01*
X169333Y-194775D01*
X168867Y-194500D01*
X167067D01*
Y-200000D01*
X169267D01*
X169733Y-199633D01*
X170000Y-199083D01*
X170133Y-198442D01*
X170000Y-197800D01*
X169600Y-197250D01*
X169133Y-197067D01*
X167067D01*
G01X173800Y-200000D02*
X173267Y-199908D01*
X172800Y-199542D01*
X172400Y-198992D01*
X172133Y-198350D01*
X172000Y-197617D01*
Y-196883D01*
X172133Y-196150D01*
X172400Y-195508D01*
X172800Y-194958D01*
X173267Y-194592D01*
X173800Y-194500D01*
X174333Y-194592D01*
X174800Y-194958D01*
X175200Y-195508D01*
X175467Y-196150D01*
X175600Y-196883D01*
Y-197617D01*
X175467Y-198350D01*
X175200Y-198992D01*
X174800Y-199542D01*
X174333Y-199908D01*
X173800Y-200000D01*
G01X178133Y-198167D02*
X179867D01*
G01X182867Y-200000D02*
Y-194500D01*
X184533D01*
X185067Y-194775D01*
X185400Y-195142D01*
X185533Y-195875D01*
X185400Y-196608D01*
X185000Y-197067D01*
X184533Y-197342D01*
X182867D01*
G01X184533D02*
X185533Y-200000D01*
G01X187933Y-199175D02*
X188333Y-199633D01*
X188800Y-199908D01*
X189400Y-200000D01*
X190000Y-199817D01*
X190467Y-199450D01*
X190800Y-198808D01*
X190867Y-198075D01*
X190733Y-197342D01*
X190400Y-196883D01*
X189933Y-196517D01*
X189467Y-196425D01*
X189000Y-196517D01*
X188400Y-196883D01*
X188600Y-194500D01*
X190400D01*
G01X209541Y-215470D02*
Y-209970D01*
X210875D01*
X211408Y-210245D01*
X211808Y-210612D01*
X212141Y-211162D01*
X212408Y-211803D01*
X212475Y-212720D01*
X212408Y-213637D01*
X212141Y-214278D01*
X211808Y-214828D01*
X211408Y-215195D01*
X210875Y-215470D01*
X209541D01*
G01X215208Y-212995D02*
X217341D01*
X217141Y-212353D01*
X216808Y-211987D01*
X216341Y-211803D01*
X215875Y-211895D01*
X215475Y-212170D01*
X215208Y-212812D01*
X215075Y-213362D01*
Y-213912D01*
X215208Y-214462D01*
X215541Y-215012D01*
X215941Y-215378D01*
X216408Y-215470D01*
X216875Y-215287D01*
X217341Y-214737D01*
G01X220408Y-214828D02*
X220741Y-215195D01*
X221208Y-215470D01*
X221608D01*
X222008Y-215287D01*
X222275Y-215012D01*
X222408Y-214645D01*
X222341Y-214095D01*
X222075Y-213820D01*
X220875Y-213270D01*
X220608Y-212628D01*
X220741Y-212170D01*
X221008Y-211895D01*
X221408Y-211803D01*
X221808Y-211895D01*
X222208Y-212170D01*
G01X226608Y-211803D02*
Y-215470D01*
G01Y-210337D02*
X226475Y-210245D01*
Y-210062D01*
X226608Y-209970D01*
X226741Y-210062D01*
Y-210245D01*
X226608Y-210337D01*
G01X230875Y-216845D02*
X231341Y-217212D01*
X231875Y-217303D01*
X232341Y-217212D01*
X232741Y-216753D01*
X233008Y-216112D01*
Y-211803D01*
G01Y-212537D02*
X232741Y-212170D01*
X232341Y-211895D01*
X231875Y-211803D01*
X231341Y-211987D01*
X231008Y-212353D01*
X230741Y-212995D01*
X230608Y-213637D01*
X230675Y-214187D01*
X230941Y-214828D01*
X231341Y-215287D01*
X231875Y-215470D01*
X232275Y-215378D01*
X232741Y-215012D01*
X233008Y-214645D01*
G01X235875Y-215470D02*
Y-211803D01*
G01Y-212720D02*
X236141Y-212262D01*
X236541Y-211895D01*
X237075Y-211803D01*
X237541Y-211895D01*
X237941Y-212262D01*
X238141Y-212903D01*
Y-215470D01*
G01X246408Y-212995D02*
X248541D01*
X248341Y-212353D01*
X248008Y-211987D01*
X247541Y-211803D01*
X247075Y-211895D01*
X246675Y-212170D01*
X246408Y-212812D01*
X246275Y-213362D01*
Y-213912D01*
X246408Y-214462D01*
X246741Y-215012D01*
X247141Y-215378D01*
X247608Y-215470D01*
X248075Y-215287D01*
X248541Y-214737D01*
G01X251475Y-215470D02*
Y-211803D01*
G01Y-212720D02*
X251741Y-212262D01*
X252141Y-211895D01*
X252675Y-211803D01*
X253141Y-211895D01*
X253541Y-212262D01*
X253741Y-212903D01*
Y-215470D01*
G01X256875Y-216845D02*
X257341Y-217212D01*
X257875Y-217303D01*
X258341Y-217212D01*
X258741Y-216753D01*
X259008Y-216112D01*
Y-211803D01*
G01Y-212537D02*
X258741Y-212170D01*
X258341Y-211895D01*
X257875Y-211803D01*
X257341Y-211987D01*
X257008Y-212353D01*
X256741Y-212995D01*
X256608Y-213637D01*
X256675Y-214187D01*
X256941Y-214828D01*
X257341Y-215287D01*
X257875Y-215470D01*
X258275Y-215378D01*
X258741Y-215012D01*
X259008Y-214645D01*
G01X263008Y-211803D02*
Y-215470D01*
G01Y-210337D02*
X262875Y-210245D01*
Y-210062D01*
X263008Y-209970D01*
X263141Y-210062D01*
Y-210245D01*
X263008Y-210337D01*
G01X267075Y-215470D02*
Y-211803D01*
G01Y-212720D02*
X267341Y-212262D01*
X267741Y-211895D01*
X268275Y-211803D01*
X268741Y-211895D01*
X269141Y-212262D01*
X269341Y-212903D01*
Y-215470D01*
G01X272408Y-212995D02*
X274541D01*
X274341Y-212353D01*
X274008Y-211987D01*
X273541Y-211803D01*
X273075Y-211895D01*
X272675Y-212170D01*
X272408Y-212812D01*
X272275Y-213362D01*
Y-213912D01*
X272408Y-214462D01*
X272741Y-215012D01*
X273141Y-215378D01*
X273608Y-215470D01*
X274075Y-215287D01*
X274541Y-214737D01*
G01X277608Y-212995D02*
X279741D01*
X279541Y-212353D01*
X279208Y-211987D01*
X278741Y-211803D01*
X278275Y-211895D01*
X277875Y-212170D01*
X277608Y-212812D01*
X277475Y-213362D01*
Y-213912D01*
X277608Y-214462D01*
X277941Y-215012D01*
X278341Y-215378D01*
X278808Y-215470D01*
X279275Y-215287D01*
X279741Y-214737D01*
G01X282875Y-215470D02*
Y-211803D01*
G01Y-212537D02*
X283208Y-212170D01*
X283541Y-211895D01*
X284008Y-211803D01*
X284341Y-211895D01*
X284741Y-212170D01*
G01X289008Y-215653D02*
X288875Y-215562D01*
Y-215378D01*
X289008Y-215287D01*
X289141Y-215378D01*
Y-215562D01*
X289008Y-215653D01*
G01Y-213178D02*
X288875Y-213087D01*
Y-212903D01*
X289008Y-212812D01*
X289141Y-212903D01*
Y-213087D01*
X289008Y-213178D01*
G01X207683Y-187474D02*
Y-192974D01*
X210349D01*
G01X215416D02*
Y-189307D01*
G01Y-189949D02*
X215149Y-189582D01*
X214749Y-189399D01*
X214283Y-189307D01*
X213816Y-189491D01*
X213416Y-189857D01*
X213149Y-190407D01*
X213016Y-191141D01*
X213149Y-191874D01*
X213416Y-192424D01*
X213816Y-192791D01*
X214283Y-192974D01*
X214749Y-192882D01*
X215149Y-192607D01*
X215416Y-192241D01*
G01X218016Y-194624D02*
X218416Y-194807D01*
X218949Y-194624D01*
X219283Y-194257D01*
X219549Y-193799D01*
X219949Y-192332D01*
X220816Y-189307D01*
G01X218683D02*
X219949Y-192332D01*
G01X223616Y-190499D02*
X225749D01*
X225549Y-189857D01*
X225216Y-189491D01*
X224749Y-189307D01*
X224283Y-189399D01*
X223883Y-189674D01*
X223616Y-190316D01*
X223483Y-190866D01*
Y-191416D01*
X223616Y-191966D01*
X223949Y-192516D01*
X224349Y-192882D01*
X224816Y-192974D01*
X225283Y-192791D01*
X225749Y-192241D01*
G01X228883Y-192974D02*
Y-189307D01*
G01Y-190041D02*
X229216Y-189674D01*
X229549Y-189399D01*
X230016Y-189307D01*
X230349Y-189399D01*
X230749Y-189674D01*
G01X235016Y-193157D02*
X234883Y-193066D01*
Y-192882D01*
X235016Y-192791D01*
X235149Y-192882D01*
Y-193066D01*
X235016Y-193157D01*
G01Y-190682D02*
X234883Y-190591D01*
Y-190407D01*
X235016Y-190316D01*
X235149Y-190407D01*
Y-190591D01*
X235016Y-190682D01*
G01X213037Y-233060D02*
X213304Y-232785D01*
X213504Y-232326D01*
X213637Y-231685D01*
X213504Y-231135D01*
X213237Y-230768D01*
X212771Y-230493D01*
X210971D01*
Y-235993D01*
X213171D01*
X213637Y-235626D01*
X213904Y-235076D01*
X214037Y-234435D01*
X213904Y-233793D01*
X213504Y-233243D01*
X213037Y-233060D01*
X210971D01*
G01X217704Y-235993D02*
X217304Y-235901D01*
X216904Y-235535D01*
X216637Y-234893D01*
X216504Y-234160D01*
X216637Y-233426D01*
X216904Y-232785D01*
X217304Y-232418D01*
X217704Y-232326D01*
X218104Y-232418D01*
X218504Y-232785D01*
X218771Y-233426D01*
X218837Y-234160D01*
X218771Y-234893D01*
X218504Y-235535D01*
X218104Y-235901D01*
X217704Y-235993D01*
G01X224104D02*
Y-232326D01*
G01Y-232968D02*
X223837Y-232601D01*
X223437Y-232418D01*
X222971Y-232326D01*
X222504Y-232510D01*
X222104Y-232876D01*
X221837Y-233426D01*
X221704Y-234160D01*
X221837Y-234893D01*
X222104Y-235443D01*
X222504Y-235810D01*
X222971Y-235993D01*
X223437Y-235901D01*
X223837Y-235626D01*
X224104Y-235260D01*
G01X227171Y-235993D02*
Y-232326D01*
G01Y-233060D02*
X227504Y-232693D01*
X227837Y-232418D01*
X228304Y-232326D01*
X228637Y-232418D01*
X229037Y-232693D01*
G01X234504Y-230493D02*
Y-235993D01*
G01Y-235168D02*
X234237Y-235626D01*
X233837Y-235901D01*
X233371Y-235993D01*
X232837Y-235810D01*
X232437Y-235351D01*
X232171Y-234801D01*
X232104Y-234160D01*
X232171Y-233518D01*
X232437Y-232968D01*
X232837Y-232510D01*
X233371Y-232326D01*
X233837Y-232418D01*
X234171Y-232601D01*
X234504Y-232968D01*
G01X242571Y-235993D02*
Y-232326D01*
G01Y-233243D02*
X242837Y-232785D01*
X243237Y-232418D01*
X243771Y-232326D01*
X244237Y-232418D01*
X244637Y-232785D01*
X244837Y-233426D01*
Y-235993D01*
G01X250104D02*
Y-232326D01*
G01Y-232968D02*
X249837Y-232601D01*
X249437Y-232418D01*
X248971Y-232326D01*
X248504Y-232510D01*
X248104Y-232876D01*
X247837Y-233426D01*
X247704Y-234160D01*
X247837Y-234893D01*
X248104Y-235443D01*
X248504Y-235810D01*
X248971Y-235993D01*
X249437Y-235901D01*
X249837Y-235626D01*
X250104Y-235260D01*
G01X252104Y-235993D02*
Y-232326D01*
G01Y-233335D02*
X252304Y-232876D01*
X252637Y-232510D01*
X253104Y-232326D01*
X253571Y-232510D01*
X253904Y-232876D01*
X254104Y-233335D01*
Y-235993D01*
G01Y-233335D02*
X254304Y-232876D01*
X254637Y-232510D01*
X255104Y-232326D01*
X255571Y-232510D01*
X255904Y-232876D01*
X256104Y-233426D01*
Y-235993D01*
G01X258304Y-233518D02*
X260437D01*
X260237Y-232876D01*
X259904Y-232510D01*
X259437Y-232326D01*
X258971Y-232418D01*
X258571Y-232693D01*
X258304Y-233335D01*
X258171Y-233885D01*
Y-234435D01*
X258304Y-234985D01*
X258637Y-235535D01*
X259037Y-235901D01*
X259504Y-235993D01*
X259971Y-235810D01*
X260437Y-235260D01*
G01X264504Y-236176D02*
X264371Y-236085D01*
Y-235901D01*
X264504Y-235810D01*
X264637Y-235901D01*
Y-236085D01*
X264504Y-236176D01*
G01Y-233701D02*
X264371Y-233610D01*
Y-233426D01*
X264504Y-233335D01*
X264637Y-233426D01*
Y-233610D01*
X264504Y-233701D01*
G01X213333Y-177811D02*
X214133Y-181478D01*
X215000Y-177811D01*
X215867Y-181478D01*
X216667Y-177811D01*
G01X220200D02*
Y-181478D01*
G01Y-176345D02*
X220067Y-176253D01*
Y-176070D01*
X220200Y-175978D01*
X220333Y-176070D01*
Y-176253D01*
X220200Y-176345D01*
G01X225400Y-175978D02*
Y-181478D01*
G01X224467Y-177811D02*
X226333D01*
G01X229467Y-181478D02*
Y-175978D01*
G01Y-178636D02*
X229800Y-178178D01*
X230133Y-177903D01*
X230667Y-177811D01*
X231067Y-177903D01*
X231533Y-178270D01*
X231733Y-178820D01*
Y-181478D01*
G01X235800D02*
X235400Y-181386D01*
X235000Y-181020D01*
X234733Y-180378D01*
X234600Y-179645D01*
X234733Y-178911D01*
X235000Y-178270D01*
X235400Y-177903D01*
X235800Y-177811D01*
X236200Y-177903D01*
X236600Y-178270D01*
X236867Y-178911D01*
X236933Y-179645D01*
X236867Y-180378D01*
X236600Y-181020D01*
X236200Y-181386D01*
X235800Y-181478D01*
G01X239867Y-177811D02*
Y-180378D01*
X240133Y-181020D01*
X240533Y-181386D01*
X241000Y-181478D01*
X241467Y-181386D01*
X241867Y-181020D01*
X242133Y-180378D01*
G01Y-181478D02*
Y-177811D01*
G01X246200Y-175978D02*
Y-181478D01*
G01X245267Y-177811D02*
X247133D01*
G01X256600Y-175978D02*
Y-181478D01*
G01X255667Y-177811D02*
X257533D01*
G01X260667Y-181478D02*
Y-175978D01*
G01Y-178636D02*
X261000Y-178178D01*
X261333Y-177903D01*
X261867Y-177811D01*
X262267Y-177903D01*
X262733Y-178270D01*
X262933Y-178820D01*
Y-181478D01*
G01X266000Y-179003D02*
X268133D01*
X267933Y-178361D01*
X267600Y-177995D01*
X267133Y-177811D01*
X266667Y-177903D01*
X266267Y-178178D01*
X266000Y-178820D01*
X265867Y-179370D01*
Y-179920D01*
X266000Y-180470D01*
X266333Y-181020D01*
X266733Y-181386D01*
X267200Y-181478D01*
X267667Y-181295D01*
X268133Y-180745D01*
G01X276200Y-183311D02*
Y-177811D01*
G01Y-178636D02*
X276533Y-178178D01*
X276867Y-177903D01*
X277400Y-177811D01*
X277867Y-177903D01*
X278333Y-178361D01*
X278533Y-179003D01*
X278600Y-179645D01*
X278533Y-180286D01*
X278333Y-180928D01*
X277933Y-181295D01*
X277400Y-181478D01*
X276933Y-181386D01*
X276467Y-181111D01*
X276200Y-180745D01*
G01X281667Y-181478D02*
Y-177811D01*
G01Y-178545D02*
X282000Y-178178D01*
X282333Y-177903D01*
X282800Y-177811D01*
X283133Y-177903D01*
X283533Y-178178D01*
G01X287800Y-177811D02*
Y-181478D01*
G01Y-176345D02*
X287667Y-176253D01*
Y-176070D01*
X287800Y-175978D01*
X287933Y-176070D01*
Y-176253D01*
X287800Y-176345D01*
G01X293000Y-181478D02*
X292600Y-181386D01*
X292200Y-181020D01*
X291933Y-180378D01*
X291800Y-179645D01*
X291933Y-178911D01*
X292200Y-178270D01*
X292600Y-177903D01*
X293000Y-177811D01*
X293400Y-177903D01*
X293800Y-178270D01*
X294067Y-178911D01*
X294133Y-179645D01*
X294067Y-180378D01*
X293800Y-181020D01*
X293400Y-181386D01*
X293000Y-181478D01*
G01X297267D02*
Y-177811D01*
G01Y-178545D02*
X297600Y-178178D01*
X297933Y-177903D01*
X298400Y-177811D01*
X298733Y-177903D01*
X299133Y-178178D01*
G01X306933Y-177811D02*
X307733Y-181478D01*
X308600Y-177811D01*
X309467Y-181478D01*
X310267Y-177811D01*
G01X312867Y-181478D02*
Y-177811D01*
G01Y-178545D02*
X313200Y-178178D01*
X313533Y-177903D01*
X314000Y-177811D01*
X314333Y-177903D01*
X314733Y-178178D01*
G01X319000Y-177811D02*
Y-181478D01*
G01Y-176345D02*
X318867Y-176253D01*
Y-176070D01*
X319000Y-175978D01*
X319133Y-176070D01*
Y-176253D01*
X319000Y-176345D01*
G01X324200Y-175978D02*
Y-181478D01*
G01X323267Y-177811D02*
X325133D01*
G01X329400Y-175978D02*
Y-181478D01*
G01X328467Y-177811D02*
X330333D01*
G01X333600Y-179003D02*
X335733D01*
X335533Y-178361D01*
X335200Y-177995D01*
X334733Y-177811D01*
X334267Y-177903D01*
X333867Y-178178D01*
X333600Y-178820D01*
X333467Y-179370D01*
Y-179920D01*
X333600Y-180470D01*
X333933Y-181020D01*
X334333Y-181386D01*
X334800Y-181478D01*
X335267Y-181295D01*
X335733Y-180745D01*
G01X338667Y-181478D02*
Y-177811D01*
G01Y-178728D02*
X338933Y-178270D01*
X339333Y-177903D01*
X339867Y-177811D01*
X340333Y-177903D01*
X340733Y-178270D01*
X340933Y-178911D01*
Y-181478D01*
G01X351267Y-178270D02*
X350800Y-177903D01*
X350400Y-177811D01*
X349867Y-177995D01*
X349467Y-178361D01*
X349200Y-179003D01*
X349133Y-179645D01*
X349200Y-180286D01*
X349467Y-180836D01*
X349867Y-181295D01*
X350400Y-181478D01*
X350867Y-181295D01*
X351267Y-180928D01*
G01X355400Y-181478D02*
X355000Y-181386D01*
X354600Y-181020D01*
X354333Y-180378D01*
X354200Y-179645D01*
X354333Y-178911D01*
X354600Y-178270D01*
X355000Y-177903D01*
X355400Y-177811D01*
X355800Y-177903D01*
X356200Y-178270D01*
X356467Y-178911D01*
X356533Y-179645D01*
X356467Y-180378D01*
X356200Y-181020D01*
X355800Y-181386D01*
X355400Y-181478D01*
G01X359467D02*
Y-177811D01*
G01Y-178728D02*
X359733Y-178270D01*
X360133Y-177903D01*
X360667Y-177811D01*
X361133Y-177903D01*
X361533Y-178270D01*
X361733Y-178911D01*
Y-181478D01*
G01X364800Y-180836D02*
X365133Y-181203D01*
X365600Y-181478D01*
X366000D01*
X366400Y-181295D01*
X366667Y-181020D01*
X366800Y-180653D01*
X366733Y-180103D01*
X366467Y-179828D01*
X365267Y-179278D01*
X365000Y-178636D01*
X365133Y-178178D01*
X365400Y-177903D01*
X365800Y-177811D01*
X366200Y-177903D01*
X366600Y-178178D01*
G01X370000Y-179003D02*
X372133D01*
X371933Y-178361D01*
X371600Y-177995D01*
X371133Y-177811D01*
X370667Y-177903D01*
X370267Y-178178D01*
X370000Y-178820D01*
X369867Y-179370D01*
Y-179920D01*
X370000Y-180470D01*
X370333Y-181020D01*
X370733Y-181386D01*
X371200Y-181478D01*
X371667Y-181295D01*
X372133Y-180745D01*
G01X375067Y-181478D02*
Y-177811D01*
G01Y-178728D02*
X375333Y-178270D01*
X375733Y-177903D01*
X376267Y-177811D01*
X376733Y-177903D01*
X377133Y-178270D01*
X377333Y-178911D01*
Y-181478D01*
G01X381400Y-175978D02*
Y-181478D01*
G01X380467Y-177811D02*
X382333D01*
G01X391800Y-181478D02*
X391400Y-181386D01*
X391000Y-181020D01*
X390733Y-180378D01*
X390600Y-179645D01*
X390733Y-178911D01*
X391000Y-178270D01*
X391400Y-177903D01*
X391800Y-177811D01*
X392200Y-177903D01*
X392600Y-178270D01*
X392867Y-178911D01*
X392933Y-179645D01*
X392867Y-180378D01*
X392600Y-181020D01*
X392200Y-181386D01*
X391800Y-181478D01*
G01X396600D02*
Y-176803D01*
X396733Y-176345D01*
X397000Y-176070D01*
X397400Y-175978D01*
X397800Y-176161D01*
X398000Y-176620D01*
G01X397200Y-178178D02*
X395867D01*
G01X213800Y-168311D02*
Y-162811D01*
G01Y-163636D02*
X214133Y-163178D01*
X214467Y-162903D01*
X215000Y-162811D01*
X215467Y-162903D01*
X215933Y-163361D01*
X216133Y-164003D01*
X216200Y-164645D01*
X216133Y-165286D01*
X215933Y-165928D01*
X215533Y-166295D01*
X215000Y-166478D01*
X214533Y-166386D01*
X214067Y-166111D01*
X213800Y-165745D01*
G01X219267Y-166478D02*
Y-162811D01*
G01Y-163545D02*
X219600Y-163178D01*
X219933Y-162903D01*
X220400Y-162811D01*
X220733Y-162903D01*
X221133Y-163178D01*
G01X225400Y-166478D02*
X225000Y-166386D01*
X224600Y-166020D01*
X224333Y-165378D01*
X224200Y-164645D01*
X224333Y-163911D01*
X224600Y-163270D01*
X225000Y-162903D01*
X225400Y-162811D01*
X225800Y-162903D01*
X226200Y-163270D01*
X226467Y-163911D01*
X226533Y-164645D01*
X226467Y-165378D01*
X226200Y-166020D01*
X225800Y-166386D01*
X225400Y-166478D01*
G01X229400Y-168311D02*
Y-162811D01*
G01Y-163636D02*
X229733Y-163178D01*
X230067Y-162903D01*
X230600Y-162811D01*
X231067Y-162903D01*
X231533Y-163361D01*
X231733Y-164003D01*
X231800Y-164645D01*
X231733Y-165286D01*
X231533Y-165928D01*
X231133Y-166295D01*
X230600Y-166478D01*
X230133Y-166386D01*
X229667Y-166111D01*
X229400Y-165745D01*
G01X234867Y-166478D02*
Y-162811D01*
G01Y-163545D02*
X235200Y-163178D01*
X235533Y-162903D01*
X236000Y-162811D01*
X236333Y-162903D01*
X236733Y-163178D01*
G01X241000Y-162811D02*
Y-166478D01*
G01Y-161345D02*
X240867Y-161253D01*
Y-161070D01*
X241000Y-160978D01*
X241133Y-161070D01*
Y-161253D01*
X241000Y-161345D01*
G01X245200Y-164003D02*
X247333D01*
X247133Y-163361D01*
X246800Y-162995D01*
X246333Y-162811D01*
X245867Y-162903D01*
X245467Y-163178D01*
X245200Y-163820D01*
X245067Y-164370D01*
Y-164920D01*
X245200Y-165470D01*
X245533Y-166020D01*
X245933Y-166386D01*
X246400Y-166478D01*
X246867Y-166295D01*
X247333Y-165745D01*
G01X251400Y-160978D02*
Y-166478D01*
G01X250467Y-162811D02*
X252333D01*
G01X257800Y-166478D02*
Y-162811D01*
G01Y-163453D02*
X257533Y-163086D01*
X257133Y-162903D01*
X256667Y-162811D01*
X256200Y-162995D01*
X255800Y-163361D01*
X255533Y-163911D01*
X255400Y-164645D01*
X255533Y-165378D01*
X255800Y-165928D01*
X256200Y-166295D01*
X256667Y-166478D01*
X257133Y-166386D01*
X257533Y-166111D01*
X257800Y-165745D01*
G01X260867Y-166478D02*
Y-162811D01*
G01Y-163545D02*
X261200Y-163178D01*
X261533Y-162903D01*
X262000Y-162811D01*
X262333Y-162903D01*
X262733Y-163178D01*
G01X265600Y-168128D02*
X266000Y-168311D01*
X266533Y-168128D01*
X266867Y-167761D01*
X267133Y-167303D01*
X267533Y-165836D01*
X268400Y-162811D01*
G01X266267D02*
X267533Y-165836D01*
G01X276200Y-168311D02*
Y-162811D01*
G01Y-163636D02*
X276533Y-163178D01*
X276867Y-162903D01*
X277400Y-162811D01*
X277867Y-162903D01*
X278333Y-163361D01*
X278533Y-164003D01*
X278600Y-164645D01*
X278533Y-165286D01*
X278333Y-165928D01*
X277933Y-166295D01*
X277400Y-166478D01*
X276933Y-166386D01*
X276467Y-166111D01*
X276200Y-165745D01*
G01X281667Y-166478D02*
Y-162811D01*
G01Y-163545D02*
X282000Y-163178D01*
X282333Y-162903D01*
X282800Y-162811D01*
X283133Y-162903D01*
X283533Y-163178D01*
G01X287800Y-166478D02*
X287400Y-166386D01*
X287000Y-166020D01*
X286733Y-165378D01*
X286600Y-164645D01*
X286733Y-163911D01*
X287000Y-163270D01*
X287400Y-162903D01*
X287800Y-162811D01*
X288200Y-162903D01*
X288600Y-163270D01*
X288867Y-163911D01*
X288933Y-164645D01*
X288867Y-165378D01*
X288600Y-166020D01*
X288200Y-166386D01*
X287800Y-166478D01*
G01X291800Y-168311D02*
Y-162811D01*
G01Y-163636D02*
X292133Y-163178D01*
X292467Y-162903D01*
X293000Y-162811D01*
X293467Y-162903D01*
X293933Y-163361D01*
X294133Y-164003D01*
X294200Y-164645D01*
X294133Y-165286D01*
X293933Y-165928D01*
X293533Y-166295D01*
X293000Y-166478D01*
X292533Y-166386D01*
X292067Y-166111D01*
X291800Y-165745D01*
G01X297200Y-164003D02*
X299333D01*
X299133Y-163361D01*
X298800Y-162995D01*
X298333Y-162811D01*
X297867Y-162903D01*
X297467Y-163178D01*
X297200Y-163820D01*
X297067Y-164370D01*
Y-164920D01*
X297200Y-165470D01*
X297533Y-166020D01*
X297933Y-166386D01*
X298400Y-166478D01*
X298867Y-166295D01*
X299333Y-165745D01*
G01X302467Y-166478D02*
Y-162811D01*
G01Y-163545D02*
X302800Y-163178D01*
X303133Y-162903D01*
X303600Y-162811D01*
X303933Y-162903D01*
X304333Y-163178D01*
G01X308600Y-160978D02*
Y-166478D01*
G01X307667Y-162811D02*
X309533D01*
G01X312400Y-168128D02*
X312800Y-168311D01*
X313333Y-168128D01*
X313667Y-167761D01*
X313933Y-167303D01*
X314333Y-165836D01*
X315200Y-162811D01*
G01X313067D02*
X314333Y-165836D01*
G01X324200Y-166478D02*
X323800Y-166386D01*
X323400Y-166020D01*
X323133Y-165378D01*
X323000Y-164645D01*
X323133Y-163911D01*
X323400Y-163270D01*
X323800Y-162903D01*
X324200Y-162811D01*
X324600Y-162903D01*
X325000Y-163270D01*
X325267Y-163911D01*
X325333Y-164645D01*
X325267Y-165378D01*
X325000Y-166020D01*
X324600Y-166386D01*
X324200Y-166478D01*
G01X329000D02*
Y-161803D01*
X329133Y-161345D01*
X329400Y-161070D01*
X329800Y-160978D01*
X330200Y-161161D01*
X330400Y-161620D01*
G01X329600Y-163178D02*
X328267D01*
G01X421467Y-166478D02*
Y-160978D01*
X424533Y-166478D01*
Y-160978D01*
G01X428200Y-166478D02*
X427800Y-166386D01*
X427400Y-166020D01*
X427133Y-165378D01*
X427000Y-164645D01*
X427133Y-163911D01*
X427400Y-163270D01*
X427800Y-162903D01*
X428200Y-162811D01*
X428600Y-162903D01*
X429000Y-163270D01*
X429267Y-163911D01*
X429333Y-164645D01*
X429267Y-165378D01*
X429000Y-166020D01*
X428600Y-166386D01*
X428200Y-166478D01*
G01X437400Y-168311D02*
Y-162811D01*
G01Y-163636D02*
X437733Y-163178D01*
X438067Y-162903D01*
X438600Y-162811D01*
X439067Y-162903D01*
X439533Y-163361D01*
X439733Y-164003D01*
X439800Y-164645D01*
X439733Y-165286D01*
X439533Y-165928D01*
X439133Y-166295D01*
X438600Y-166478D01*
X438133Y-166386D01*
X437667Y-166111D01*
X437400Y-165745D01*
G01X445000Y-166478D02*
Y-162811D01*
G01Y-163453D02*
X444733Y-163086D01*
X444333Y-162903D01*
X443867Y-162811D01*
X443400Y-162995D01*
X443000Y-163361D01*
X442733Y-163911D01*
X442600Y-164645D01*
X442733Y-165378D01*
X443000Y-165928D01*
X443400Y-166295D01*
X443867Y-166478D01*
X444333Y-166386D01*
X444733Y-166111D01*
X445000Y-165745D01*
G01X448067Y-166478D02*
Y-162811D01*
G01Y-163545D02*
X448400Y-163178D01*
X448733Y-162903D01*
X449200Y-162811D01*
X449533Y-162903D01*
X449933Y-163178D01*
G01X454200Y-160978D02*
Y-166478D01*
G01X453267Y-162811D02*
X455133D01*
G01X464600Y-166478D02*
X464200Y-166386D01*
X463800Y-166020D01*
X463533Y-165378D01*
X463400Y-164645D01*
X463533Y-163911D01*
X463800Y-163270D01*
X464200Y-162903D01*
X464600Y-162811D01*
X465000Y-162903D01*
X465400Y-163270D01*
X465667Y-163911D01*
X465733Y-164645D01*
X465667Y-165378D01*
X465400Y-166020D01*
X465000Y-166386D01*
X464600Y-166478D01*
G01X469400D02*
Y-161803D01*
X469533Y-161345D01*
X469800Y-161070D01*
X470200Y-160978D01*
X470600Y-161161D01*
X470800Y-161620D01*
G01X470000Y-163178D02*
X468667D01*
G01X215000Y-168497D02*
Y-173997D01*
G01X214067Y-170330D02*
X215933D01*
G01X219067Y-173997D02*
Y-168497D01*
G01Y-171155D02*
X219400Y-170697D01*
X219733Y-170422D01*
X220267Y-170330D01*
X220667Y-170422D01*
X221133Y-170789D01*
X221333Y-171339D01*
Y-173997D01*
G01X225400Y-170330D02*
Y-173997D01*
G01Y-168864D02*
X225267Y-168772D01*
Y-168589D01*
X225400Y-168497D01*
X225533Y-168589D01*
Y-168772D01*
X225400Y-168864D01*
G01X229600Y-173355D02*
X229933Y-173722D01*
X230400Y-173997D01*
X230800D01*
X231200Y-173814D01*
X231467Y-173539D01*
X231600Y-173172D01*
X231533Y-172622D01*
X231267Y-172347D01*
X230067Y-171797D01*
X229800Y-171155D01*
X229933Y-170697D01*
X230200Y-170422D01*
X230600Y-170330D01*
X231000Y-170422D01*
X231400Y-170697D01*
G01X242200Y-168497D02*
Y-173997D01*
G01Y-173172D02*
X241933Y-173630D01*
X241533Y-173905D01*
X241067Y-173997D01*
X240533Y-173814D01*
X240133Y-173355D01*
X239867Y-172805D01*
X239800Y-172164D01*
X239867Y-171522D01*
X240133Y-170972D01*
X240533Y-170514D01*
X241067Y-170330D01*
X241533Y-170422D01*
X241867Y-170605D01*
X242200Y-170972D01*
G01X246200Y-173997D02*
X245800Y-173905D01*
X245400Y-173539D01*
X245133Y-172897D01*
X245000Y-172164D01*
X245133Y-171430D01*
X245400Y-170789D01*
X245800Y-170422D01*
X246200Y-170330D01*
X246600Y-170422D01*
X247000Y-170789D01*
X247267Y-171430D01*
X247333Y-172164D01*
X247267Y-172897D01*
X247000Y-173539D01*
X246600Y-173905D01*
X246200Y-173997D01*
G01X252467Y-170789D02*
X252000Y-170422D01*
X251600Y-170330D01*
X251067Y-170514D01*
X250667Y-170880D01*
X250400Y-171522D01*
X250333Y-172164D01*
X250400Y-172805D01*
X250667Y-173355D01*
X251067Y-173814D01*
X251600Y-173997D01*
X252067Y-173814D01*
X252467Y-173447D01*
G01X255467Y-170330D02*
Y-172897D01*
X255733Y-173539D01*
X256133Y-173905D01*
X256600Y-173997D01*
X257067Y-173905D01*
X257467Y-173539D01*
X257733Y-172897D01*
G01Y-173997D02*
Y-170330D01*
G01X259800Y-173997D02*
Y-170330D01*
G01Y-171339D02*
X260000Y-170880D01*
X260333Y-170514D01*
X260800Y-170330D01*
X261267Y-170514D01*
X261600Y-170880D01*
X261800Y-171339D01*
Y-173997D01*
G01Y-171339D02*
X262000Y-170880D01*
X262333Y-170514D01*
X262800Y-170330D01*
X263267Y-170514D01*
X263600Y-170880D01*
X263800Y-171430D01*
Y-173997D01*
G01X266000Y-171522D02*
X268133D01*
X267933Y-170880D01*
X267600Y-170514D01*
X267133Y-170330D01*
X266667Y-170422D01*
X266267Y-170697D01*
X266000Y-171339D01*
X265867Y-171889D01*
Y-172439D01*
X266000Y-172989D01*
X266333Y-173539D01*
X266733Y-173905D01*
X267200Y-173997D01*
X267667Y-173814D01*
X268133Y-173264D01*
G01X271067Y-173997D02*
Y-170330D01*
G01Y-171247D02*
X271333Y-170789D01*
X271733Y-170422D01*
X272267Y-170330D01*
X272733Y-170422D01*
X273133Y-170789D01*
X273333Y-171430D01*
Y-173997D01*
G01X277400Y-168497D02*
Y-173997D01*
G01X276467Y-170330D02*
X278333D01*
G01X285800Y-173997D02*
Y-170330D01*
G01Y-171339D02*
X286000Y-170880D01*
X286333Y-170514D01*
X286800Y-170330D01*
X287267Y-170514D01*
X287600Y-170880D01*
X287800Y-171339D01*
Y-173997D01*
G01Y-171339D02*
X288000Y-170880D01*
X288333Y-170514D01*
X288800Y-170330D01*
X289267Y-170514D01*
X289600Y-170880D01*
X289800Y-171430D01*
Y-173997D01*
G01X294200D02*
Y-170330D01*
G01Y-170972D02*
X293933Y-170605D01*
X293533Y-170422D01*
X293067Y-170330D01*
X292600Y-170514D01*
X292200Y-170880D01*
X291933Y-171430D01*
X291800Y-172164D01*
X291933Y-172897D01*
X292200Y-173447D01*
X292600Y-173814D01*
X293067Y-173997D01*
X293533Y-173905D01*
X293933Y-173630D01*
X294200Y-173264D01*
G01X296800Y-175647D02*
X297200Y-175830D01*
X297733Y-175647D01*
X298067Y-175280D01*
X298333Y-174822D01*
X298733Y-173355D01*
X299600Y-170330D01*
G01X297467D02*
X298733Y-173355D01*
G01X307400Y-173997D02*
Y-168497D01*
G01Y-171247D02*
X307733Y-170697D01*
X308133Y-170422D01*
X308533Y-170330D01*
X309133Y-170514D01*
X309533Y-170880D01*
X309800Y-171522D01*
Y-172255D01*
X309667Y-172989D01*
X309400Y-173539D01*
X308933Y-173905D01*
X308533Y-173997D01*
X308133Y-173905D01*
X307733Y-173630D01*
X307400Y-173172D01*
G01X312800Y-171522D02*
X314933D01*
X314733Y-170880D01*
X314400Y-170514D01*
X313933Y-170330D01*
X313467Y-170422D01*
X313067Y-170697D01*
X312800Y-171339D01*
X312667Y-171889D01*
Y-172439D01*
X312800Y-172989D01*
X313133Y-173539D01*
X313533Y-173905D01*
X314000Y-173997D01*
X314467Y-173814D01*
X314933Y-173264D01*
G01X325400Y-168497D02*
Y-173997D01*
G01Y-173172D02*
X325133Y-173630D01*
X324733Y-173905D01*
X324267Y-173997D01*
X323733Y-173814D01*
X323333Y-173355D01*
X323067Y-172805D01*
X323000Y-172164D01*
X323067Y-171522D01*
X323333Y-170972D01*
X323733Y-170514D01*
X324267Y-170330D01*
X324733Y-170422D01*
X325067Y-170605D01*
X325400Y-170972D01*
G01X329400Y-170330D02*
Y-173997D01*
G01Y-168864D02*
X329267Y-168772D01*
Y-168589D01*
X329400Y-168497D01*
X329533Y-168589D01*
Y-168772D01*
X329400Y-168864D01*
G01X333600Y-173355D02*
X333933Y-173722D01*
X334400Y-173997D01*
X334800D01*
X335200Y-173814D01*
X335467Y-173539D01*
X335600Y-173172D01*
X335533Y-172622D01*
X335267Y-172347D01*
X334067Y-171797D01*
X333800Y-171155D01*
X333933Y-170697D01*
X334200Y-170422D01*
X334600Y-170330D01*
X335000Y-170422D01*
X335400Y-170697D01*
G01X340867Y-170789D02*
X340400Y-170422D01*
X340000Y-170330D01*
X339467Y-170514D01*
X339067Y-170880D01*
X338800Y-171522D01*
X338733Y-172164D01*
X338800Y-172805D01*
X339067Y-173355D01*
X339467Y-173814D01*
X340000Y-173997D01*
X340467Y-173814D01*
X340867Y-173447D01*
G01X345000Y-173997D02*
Y-168497D01*
G01X350200Y-173997D02*
X349800Y-173905D01*
X349400Y-173539D01*
X349133Y-172897D01*
X349000Y-172164D01*
X349133Y-171430D01*
X349400Y-170789D01*
X349800Y-170422D01*
X350200Y-170330D01*
X350600Y-170422D01*
X351000Y-170789D01*
X351267Y-171430D01*
X351333Y-172164D01*
X351267Y-172897D01*
X351000Y-173539D01*
X350600Y-173905D01*
X350200Y-173997D01*
G01X354400Y-173355D02*
X354733Y-173722D01*
X355200Y-173997D01*
X355600D01*
X356000Y-173814D01*
X356267Y-173539D01*
X356400Y-173172D01*
X356333Y-172622D01*
X356067Y-172347D01*
X354867Y-171797D01*
X354600Y-171155D01*
X354733Y-170697D01*
X355000Y-170422D01*
X355400Y-170330D01*
X355800Y-170422D01*
X356200Y-170697D01*
G01X359600Y-171522D02*
X361733D01*
X361533Y-170880D01*
X361200Y-170514D01*
X360733Y-170330D01*
X360267Y-170422D01*
X359867Y-170697D01*
X359600Y-171339D01*
X359467Y-171889D01*
Y-172439D01*
X359600Y-172989D01*
X359933Y-173539D01*
X360333Y-173905D01*
X360800Y-173997D01*
X361267Y-173814D01*
X361733Y-173264D01*
G01X367000Y-168497D02*
Y-173997D01*
G01Y-173172D02*
X366733Y-173630D01*
X366333Y-173905D01*
X365867Y-173997D01*
X365333Y-173814D01*
X364933Y-173355D01*
X364667Y-172805D01*
X364600Y-172164D01*
X364667Y-171522D01*
X364933Y-170972D01*
X365333Y-170514D01*
X365867Y-170330D01*
X366333Y-170422D01*
X366667Y-170605D01*
X367000Y-170972D01*
G01X376200Y-168497D02*
Y-173997D01*
G01X375267Y-170330D02*
X377133D01*
G01X381400Y-173997D02*
X381000Y-173905D01*
X380600Y-173539D01*
X380333Y-172897D01*
X380200Y-172164D01*
X380333Y-171430D01*
X380600Y-170789D01*
X381000Y-170422D01*
X381400Y-170330D01*
X381800Y-170422D01*
X382200Y-170789D01*
X382467Y-171430D01*
X382533Y-172164D01*
X382467Y-172897D01*
X382200Y-173539D01*
X381800Y-173905D01*
X381400Y-173997D01*
G01X391800Y-168497D02*
Y-173997D01*
G01X390867Y-170330D02*
X392733D01*
G01X395867Y-173997D02*
Y-168497D01*
G01Y-171155D02*
X396200Y-170697D01*
X396533Y-170422D01*
X397067Y-170330D01*
X397467Y-170422D01*
X397933Y-170789D01*
X398133Y-171339D01*
Y-173997D01*
G01X402200Y-170330D02*
Y-173997D01*
G01Y-168864D02*
X402067Y-168772D01*
Y-168589D01*
X402200Y-168497D01*
X402333Y-168589D01*
Y-168772D01*
X402200Y-168864D01*
G01X406467Y-173997D02*
Y-170330D01*
G01Y-171064D02*
X406800Y-170697D01*
X407133Y-170422D01*
X407600Y-170330D01*
X407933Y-170422D01*
X408333Y-170697D01*
G01X413800Y-168497D02*
Y-173997D01*
G01Y-173172D02*
X413533Y-173630D01*
X413133Y-173905D01*
X412667Y-173997D01*
X412133Y-173814D01*
X411733Y-173355D01*
X411467Y-172805D01*
X411400Y-172164D01*
X411467Y-171522D01*
X411733Y-170972D01*
X412133Y-170514D01*
X412667Y-170330D01*
X413133Y-170422D01*
X413467Y-170605D01*
X413800Y-170972D01*
G01X421800Y-175830D02*
Y-170330D01*
G01Y-171155D02*
X422133Y-170697D01*
X422467Y-170422D01*
X423000Y-170330D01*
X423467Y-170422D01*
X423933Y-170880D01*
X424133Y-171522D01*
X424200Y-172164D01*
X424133Y-172805D01*
X423933Y-173447D01*
X423533Y-173814D01*
X423000Y-173997D01*
X422533Y-173905D01*
X422067Y-173630D01*
X421800Y-173264D01*
G01X429400Y-173997D02*
Y-170330D01*
G01Y-170972D02*
X429133Y-170605D01*
X428733Y-170422D01*
X428267Y-170330D01*
X427800Y-170514D01*
X427400Y-170880D01*
X427133Y-171430D01*
X427000Y-172164D01*
X427133Y-172897D01*
X427400Y-173447D01*
X427800Y-173814D01*
X428267Y-173997D01*
X428733Y-173905D01*
X429133Y-173630D01*
X429400Y-173264D01*
G01X432467Y-173997D02*
Y-170330D01*
G01Y-171064D02*
X432800Y-170697D01*
X433133Y-170422D01*
X433600Y-170330D01*
X433933Y-170422D01*
X434333Y-170697D01*
G01X438600Y-168497D02*
Y-173997D01*
G01X437667Y-170330D02*
X439533D01*
G01X443800D02*
Y-173997D01*
G01Y-168864D02*
X443667Y-168772D01*
Y-168589D01*
X443800Y-168497D01*
X443933Y-168589D01*
Y-168772D01*
X443800Y-168864D01*
G01X448000Y-171522D02*
X450133D01*
X449933Y-170880D01*
X449600Y-170514D01*
X449133Y-170330D01*
X448667Y-170422D01*
X448267Y-170697D01*
X448000Y-171339D01*
X447867Y-171889D01*
Y-172439D01*
X448000Y-172989D01*
X448333Y-173539D01*
X448733Y-173905D01*
X449200Y-173997D01*
X449667Y-173814D01*
X450133Y-173264D01*
G01X453200Y-173355D02*
X453533Y-173722D01*
X454000Y-173997D01*
X454400D01*
X454800Y-173814D01*
X455067Y-173539D01*
X455200Y-173172D01*
X455133Y-172622D01*
X454867Y-172347D01*
X453667Y-171797D01*
X453400Y-171155D01*
X453533Y-170697D01*
X453800Y-170422D01*
X454200Y-170330D01*
X454600Y-170422D01*
X455000Y-170697D01*
G01X215000Y-153497D02*
Y-158997D01*
G01X213467Y-153497D02*
X216533D01*
G01X219067Y-158997D02*
Y-153497D01*
G01Y-156155D02*
X219400Y-155697D01*
X219733Y-155422D01*
X220267Y-155330D01*
X220667Y-155422D01*
X221133Y-155789D01*
X221333Y-156339D01*
Y-158997D01*
G01X225400Y-155330D02*
Y-158997D01*
G01Y-153864D02*
X225267Y-153772D01*
Y-153589D01*
X225400Y-153497D01*
X225533Y-153589D01*
Y-153772D01*
X225400Y-153864D01*
G01X229600Y-158355D02*
X229933Y-158722D01*
X230400Y-158997D01*
X230800D01*
X231200Y-158814D01*
X231467Y-158539D01*
X231600Y-158172D01*
X231533Y-157622D01*
X231267Y-157347D01*
X230067Y-156797D01*
X229800Y-156155D01*
X229933Y-155697D01*
X230200Y-155422D01*
X230600Y-155330D01*
X231000Y-155422D01*
X231400Y-155697D01*
G01X242200Y-153497D02*
Y-158997D01*
G01Y-158172D02*
X241933Y-158630D01*
X241533Y-158905D01*
X241067Y-158997D01*
X240533Y-158814D01*
X240133Y-158355D01*
X239867Y-157805D01*
X239800Y-157164D01*
X239867Y-156522D01*
X240133Y-155972D01*
X240533Y-155514D01*
X241067Y-155330D01*
X241533Y-155422D01*
X241867Y-155605D01*
X242200Y-155972D01*
G01X246200Y-158997D02*
X245800Y-158905D01*
X245400Y-158539D01*
X245133Y-157897D01*
X245000Y-157164D01*
X245133Y-156430D01*
X245400Y-155789D01*
X245800Y-155422D01*
X246200Y-155330D01*
X246600Y-155422D01*
X247000Y-155789D01*
X247267Y-156430D01*
X247333Y-157164D01*
X247267Y-157897D01*
X247000Y-158539D01*
X246600Y-158905D01*
X246200Y-158997D01*
G01X252467Y-155789D02*
X252000Y-155422D01*
X251600Y-155330D01*
X251067Y-155514D01*
X250667Y-155880D01*
X250400Y-156522D01*
X250333Y-157164D01*
X250400Y-157805D01*
X250667Y-158355D01*
X251067Y-158814D01*
X251600Y-158997D01*
X252067Y-158814D01*
X252467Y-158447D01*
G01X255467Y-155330D02*
Y-157897D01*
X255733Y-158539D01*
X256133Y-158905D01*
X256600Y-158997D01*
X257067Y-158905D01*
X257467Y-158539D01*
X257733Y-157897D01*
G01Y-158997D02*
Y-155330D01*
G01X259800Y-158997D02*
Y-155330D01*
G01Y-156339D02*
X260000Y-155880D01*
X260333Y-155514D01*
X260800Y-155330D01*
X261267Y-155514D01*
X261600Y-155880D01*
X261800Y-156339D01*
Y-158997D01*
G01Y-156339D02*
X262000Y-155880D01*
X262333Y-155514D01*
X262800Y-155330D01*
X263267Y-155514D01*
X263600Y-155880D01*
X263800Y-156430D01*
Y-158997D01*
G01X266000Y-156522D02*
X268133D01*
X267933Y-155880D01*
X267600Y-155514D01*
X267133Y-155330D01*
X266667Y-155422D01*
X266267Y-155697D01*
X266000Y-156339D01*
X265867Y-156889D01*
Y-157439D01*
X266000Y-157989D01*
X266333Y-158539D01*
X266733Y-158905D01*
X267200Y-158997D01*
X267667Y-158814D01*
X268133Y-158264D01*
G01X271067Y-158997D02*
Y-155330D01*
G01Y-156247D02*
X271333Y-155789D01*
X271733Y-155422D01*
X272267Y-155330D01*
X272733Y-155422D01*
X273133Y-155789D01*
X273333Y-156430D01*
Y-158997D01*
G01X277400Y-153497D02*
Y-158997D01*
G01X276467Y-155330D02*
X278333D01*
G01X288867Y-155789D02*
X288400Y-155422D01*
X288000Y-155330D01*
X287467Y-155514D01*
X287067Y-155880D01*
X286800Y-156522D01*
X286733Y-157164D01*
X286800Y-157805D01*
X287067Y-158355D01*
X287467Y-158814D01*
X288000Y-158997D01*
X288467Y-158814D01*
X288867Y-158447D01*
G01X293000Y-158997D02*
X292600Y-158905D01*
X292200Y-158539D01*
X291933Y-157897D01*
X291800Y-157164D01*
X291933Y-156430D01*
X292200Y-155789D01*
X292600Y-155422D01*
X293000Y-155330D01*
X293400Y-155422D01*
X293800Y-155789D01*
X294067Y-156430D01*
X294133Y-157164D01*
X294067Y-157897D01*
X293800Y-158539D01*
X293400Y-158905D01*
X293000Y-158997D01*
G01X297067D02*
Y-155330D01*
G01Y-156247D02*
X297333Y-155789D01*
X297733Y-155422D01*
X298267Y-155330D01*
X298733Y-155422D01*
X299133Y-155789D01*
X299333Y-156430D01*
Y-158997D01*
G01X303400Y-153497D02*
Y-158997D01*
G01X302467Y-155330D02*
X304333D01*
G01X309800Y-158997D02*
Y-155330D01*
G01Y-155972D02*
X309533Y-155605D01*
X309133Y-155422D01*
X308667Y-155330D01*
X308200Y-155514D01*
X307800Y-155880D01*
X307533Y-156430D01*
X307400Y-157164D01*
X307533Y-157897D01*
X307800Y-158447D01*
X308200Y-158814D01*
X308667Y-158997D01*
X309133Y-158905D01*
X309533Y-158630D01*
X309800Y-158264D01*
G01X313800Y-155330D02*
Y-158997D01*
G01Y-153864D02*
X313667Y-153772D01*
Y-153589D01*
X313800Y-153497D01*
X313933Y-153589D01*
Y-153772D01*
X313800Y-153864D01*
G01X317867Y-158997D02*
Y-155330D01*
G01Y-156247D02*
X318133Y-155789D01*
X318533Y-155422D01*
X319067Y-155330D01*
X319533Y-155422D01*
X319933Y-155789D01*
X320133Y-156430D01*
Y-158997D01*
G01X323200Y-158355D02*
X323533Y-158722D01*
X324000Y-158997D01*
X324400D01*
X324800Y-158814D01*
X325067Y-158539D01*
X325200Y-158172D01*
X325133Y-157622D01*
X324867Y-157347D01*
X323667Y-156797D01*
X323400Y-156155D01*
X323533Y-155697D01*
X323800Y-155422D01*
X324200Y-155330D01*
X324600Y-155422D01*
X325000Y-155697D01*
G01X334600Y-155330D02*
Y-158997D01*
G01Y-153864D02*
X334467Y-153772D01*
Y-153589D01*
X334600Y-153497D01*
X334733Y-153589D01*
Y-153772D01*
X334600Y-153864D01*
G01X338667Y-158997D02*
Y-155330D01*
G01Y-156247D02*
X338933Y-155789D01*
X339333Y-155422D01*
X339867Y-155330D01*
X340333Y-155422D01*
X340733Y-155789D01*
X340933Y-156430D01*
Y-158997D01*
G01X344600D02*
Y-154322D01*
X344733Y-153864D01*
X345000Y-153589D01*
X345400Y-153497D01*
X345800Y-153680D01*
X346000Y-154139D01*
G01X345200Y-155697D02*
X343867D01*
G01X350200Y-158997D02*
X349800Y-158905D01*
X349400Y-158539D01*
X349133Y-157897D01*
X349000Y-157164D01*
X349133Y-156430D01*
X349400Y-155789D01*
X349800Y-155422D01*
X350200Y-155330D01*
X350600Y-155422D01*
X351000Y-155789D01*
X351267Y-156430D01*
X351333Y-157164D01*
X351267Y-157897D01*
X351000Y-158539D01*
X350600Y-158905D01*
X350200Y-158997D01*
G01X354467D02*
Y-155330D01*
G01Y-156064D02*
X354800Y-155697D01*
X355133Y-155422D01*
X355600Y-155330D01*
X355933Y-155422D01*
X356333Y-155697D01*
G01X358600Y-158997D02*
Y-155330D01*
G01Y-156339D02*
X358800Y-155880D01*
X359133Y-155514D01*
X359600Y-155330D01*
X360067Y-155514D01*
X360400Y-155880D01*
X360600Y-156339D01*
Y-158997D01*
G01Y-156339D02*
X360800Y-155880D01*
X361133Y-155514D01*
X361600Y-155330D01*
X362067Y-155514D01*
X362400Y-155880D01*
X362600Y-156430D01*
Y-158997D01*
G01X367000D02*
Y-155330D01*
G01Y-155972D02*
X366733Y-155605D01*
X366333Y-155422D01*
X365867Y-155330D01*
X365400Y-155514D01*
X365000Y-155880D01*
X364733Y-156430D01*
X364600Y-157164D01*
X364733Y-157897D01*
X365000Y-158447D01*
X365400Y-158814D01*
X365867Y-158997D01*
X366333Y-158905D01*
X366733Y-158630D01*
X367000Y-158264D01*
G01X371000Y-153497D02*
Y-158997D01*
G01X370067Y-155330D02*
X371933D01*
G01X376200D02*
Y-158997D01*
G01Y-153864D02*
X376067Y-153772D01*
Y-153589D01*
X376200Y-153497D01*
X376333Y-153589D01*
Y-153772D01*
X376200Y-153864D01*
G01X381400Y-158997D02*
X381000Y-158905D01*
X380600Y-158539D01*
X380333Y-157897D01*
X380200Y-157164D01*
X380333Y-156430D01*
X380600Y-155789D01*
X381000Y-155422D01*
X381400Y-155330D01*
X381800Y-155422D01*
X382200Y-155789D01*
X382467Y-156430D01*
X382533Y-157164D01*
X382467Y-157897D01*
X382200Y-158539D01*
X381800Y-158905D01*
X381400Y-158997D01*
G01X385467D02*
Y-155330D01*
G01Y-156247D02*
X385733Y-155789D01*
X386133Y-155422D01*
X386667Y-155330D01*
X387133Y-155422D01*
X387533Y-155789D01*
X387733Y-156430D01*
Y-158997D01*
G01X395333Y-155330D02*
X396133Y-158997D01*
X397000Y-155330D01*
X397867Y-158997D01*
X398667Y-155330D01*
G01X401067Y-158997D02*
Y-153497D01*
G01Y-156155D02*
X401400Y-155697D01*
X401733Y-155422D01*
X402267Y-155330D01*
X402667Y-155422D01*
X403133Y-155789D01*
X403333Y-156339D01*
Y-158997D01*
G01X407400Y-155330D02*
Y-158997D01*
G01Y-153864D02*
X407267Y-153772D01*
Y-153589D01*
X407400Y-153497D01*
X407533Y-153589D01*
Y-153772D01*
X407400Y-153864D01*
G01X413667Y-155789D02*
X413200Y-155422D01*
X412800Y-155330D01*
X412267Y-155514D01*
X411867Y-155880D01*
X411600Y-156522D01*
X411533Y-157164D01*
X411600Y-157805D01*
X411867Y-158355D01*
X412267Y-158814D01*
X412800Y-158997D01*
X413267Y-158814D01*
X413667Y-158447D01*
G01X416667Y-158997D02*
Y-153497D01*
G01Y-156155D02*
X417000Y-155697D01*
X417333Y-155422D01*
X417867Y-155330D01*
X418267Y-155422D01*
X418733Y-155789D01*
X418933Y-156339D01*
Y-158997D01*
G01X428200Y-155330D02*
Y-158997D01*
G01Y-153864D02*
X428067Y-153772D01*
Y-153589D01*
X428200Y-153497D01*
X428333Y-153589D01*
Y-153772D01*
X428200Y-153864D01*
G01X432400Y-158355D02*
X432733Y-158722D01*
X433200Y-158997D01*
X433600D01*
X434000Y-158814D01*
X434267Y-158539D01*
X434400Y-158172D01*
X434333Y-157622D01*
X434067Y-157347D01*
X432867Y-156797D01*
X432600Y-156155D01*
X432733Y-155697D01*
X433000Y-155422D01*
X433400Y-155330D01*
X433800Y-155422D01*
X434200Y-155697D01*
G01X443800Y-153497D02*
Y-158997D01*
G01X442867Y-155330D02*
X444733D01*
G01X447867Y-158997D02*
Y-153497D01*
G01Y-156155D02*
X448200Y-155697D01*
X448533Y-155422D01*
X449067Y-155330D01*
X449467Y-155422D01*
X449933Y-155789D01*
X450133Y-156339D01*
Y-158997D01*
G01X453200Y-156522D02*
X455333D01*
X455133Y-155880D01*
X454800Y-155514D01*
X454333Y-155330D01*
X453867Y-155422D01*
X453467Y-155697D01*
X453200Y-156339D01*
X453067Y-156889D01*
Y-157439D01*
X453200Y-157989D01*
X453533Y-158539D01*
X453933Y-158905D01*
X454400Y-158997D01*
X454867Y-158814D01*
X455333Y-158264D01*
G01X250667Y-194500D02*
Y-200000D01*
X253333D01*
G01X257200Y-194500D02*
X256667Y-194683D01*
X256267Y-195142D01*
X256000Y-195692D01*
X255800Y-196425D01*
X255733Y-197250D01*
X255800Y-198075D01*
X256000Y-198808D01*
X256267Y-199358D01*
X256667Y-199817D01*
X257200Y-200000D01*
X257733Y-199817D01*
X258133Y-199358D01*
X258400Y-198808D01*
X258600Y-198075D01*
X258667Y-197250D01*
X258600Y-196425D01*
X258400Y-195692D01*
X258133Y-195142D01*
X257733Y-194683D01*
X257200Y-194500D01*
G01X262400Y-200000D02*
Y-194500D01*
X261600Y-195600D01*
G01Y-200000D02*
X263200D01*
G01X265600Y-201833D02*
X269600D01*
G01X272800Y-194500D02*
Y-200000D01*
G01X271267Y-194500D02*
X274333D01*
G01X278000Y-200000D02*
X277467Y-199908D01*
X277000Y-199542D01*
X276600Y-198992D01*
X276333Y-198350D01*
X276200Y-197617D01*
Y-196883D01*
X276333Y-196150D01*
X276600Y-195508D01*
X277000Y-194958D01*
X277467Y-194592D01*
X278000Y-194500D01*
X278533Y-194592D01*
X279000Y-194958D01*
X279400Y-195508D01*
X279667Y-196150D01*
X279800Y-196883D01*
Y-197617D01*
X279667Y-198350D01*
X279400Y-198992D01*
X279000Y-199542D01*
X278533Y-199908D01*
X278000Y-200000D01*
G01X281867D02*
Y-194500D01*
X283467D01*
X284000Y-194775D01*
X284400Y-195417D01*
X284533Y-196150D01*
X284400Y-196883D01*
X284067Y-197433D01*
X283467Y-197708D01*
X281867D01*
G01X284867Y-245000D02*
Y-239500D01*
X286533D01*
X287067Y-239775D01*
X287400Y-240142D01*
X287533Y-240875D01*
X287400Y-241608D01*
X287000Y-242067D01*
X286533Y-242342D01*
X284867D01*
G01X286533D02*
X287533Y-245000D01*
G01X290133D02*
Y-239500D01*
X292667D01*
G01X291733Y-242158D02*
X290133D01*
G01X295733Y-243167D02*
X297467D01*
G01X303267Y-239958D02*
X302867Y-239683D01*
X302400Y-239500D01*
X301867D01*
X301267Y-239775D01*
X300800Y-240233D01*
X300467Y-240783D01*
X300200Y-241700D01*
X300133Y-242525D01*
X300267Y-243350D01*
X300467Y-243900D01*
X300867Y-244450D01*
X301333Y-244817D01*
X301800Y-245000D01*
X302267D01*
X302733Y-244817D01*
X303133Y-244542D01*
X303467Y-244175D01*
G01X307000Y-245000D02*
X306467Y-244908D01*
X306000Y-244542D01*
X305600Y-243992D01*
X305333Y-243350D01*
X305200Y-242617D01*
Y-241883D01*
X305333Y-241150D01*
X305600Y-240508D01*
X306000Y-239958D01*
X306467Y-239592D01*
X307000Y-239500D01*
X307533Y-239592D01*
X308000Y-239958D01*
X308400Y-240508D01*
X308667Y-241150D01*
X308800Y-241883D01*
Y-242617D01*
X308667Y-243350D01*
X308400Y-243992D01*
X308000Y-244542D01*
X307533Y-244908D01*
X307000Y-245000D01*
G01X310467D02*
Y-239500D01*
X312200Y-244083D01*
X313933Y-239500D01*
Y-245000D01*
G01X317933Y-242067D02*
X318200Y-241792D01*
X318400Y-241333D01*
X318533Y-240692D01*
X318400Y-240142D01*
X318133Y-239775D01*
X317667Y-239500D01*
X315867D01*
Y-245000D01*
X318067D01*
X318533Y-244633D01*
X318800Y-244083D01*
X318933Y-243442D01*
X318800Y-242800D01*
X318400Y-242250D01*
X317933Y-242067D01*
X315867D01*
G01X322600Y-245000D02*
X322067Y-244908D01*
X321600Y-244542D01*
X321200Y-243992D01*
X320933Y-243350D01*
X320800Y-242617D01*
Y-241883D01*
X320933Y-241150D01*
X321200Y-240508D01*
X321600Y-239958D01*
X322067Y-239592D01*
X322600Y-239500D01*
X323133Y-239592D01*
X323600Y-239958D01*
X324000Y-240508D01*
X324267Y-241150D01*
X324400Y-241883D01*
Y-242617D01*
X324267Y-243350D01*
X324000Y-243992D01*
X323600Y-244542D01*
X323133Y-244908D01*
X322600Y-245000D01*
G01X333533Y-242067D02*
X333800Y-241792D01*
X334000Y-241333D01*
X334133Y-240692D01*
X334000Y-240142D01*
X333733Y-239775D01*
X333267Y-239500D01*
X331467D01*
Y-245000D01*
X333667D01*
X334133Y-244633D01*
X334400Y-244083D01*
X334533Y-243442D01*
X334400Y-242800D01*
X334000Y-242250D01*
X333533Y-242067D01*
X331467D01*
G01X338200Y-245000D02*
X337667Y-244908D01*
X337200Y-244542D01*
X336800Y-243992D01*
X336533Y-243350D01*
X336400Y-242617D01*
Y-241883D01*
X336533Y-241150D01*
X336800Y-240508D01*
X337200Y-239958D01*
X337667Y-239592D01*
X338200Y-239500D01*
X338733Y-239592D01*
X339200Y-239958D01*
X339600Y-240508D01*
X339867Y-241150D01*
X340000Y-241883D01*
Y-242617D01*
X339867Y-243350D01*
X339600Y-243992D01*
X339200Y-244542D01*
X338733Y-244908D01*
X338200Y-245000D01*
G01X341733D02*
X343400Y-239500D01*
X345067Y-245000D01*
G01X344467Y-243075D02*
X342333D01*
G01X347267Y-245000D02*
Y-239500D01*
X348933D01*
X349467Y-239775D01*
X349800Y-240142D01*
X349933Y-240875D01*
X349800Y-241608D01*
X349400Y-242067D01*
X348933Y-242342D01*
X347267D01*
G01X348933D02*
X349933Y-245000D01*
G01X352333D02*
Y-239500D01*
X353667D01*
X354200Y-239775D01*
X354600Y-240142D01*
X354933Y-240692D01*
X355200Y-241333D01*
X355267Y-242250D01*
X355200Y-243167D01*
X354933Y-243808D01*
X354600Y-244358D01*
X354200Y-244725D01*
X353667Y-245000D01*
X352333D01*
G01X296600Y-219500D02*
Y-225000D01*
G01X295067Y-219500D02*
X298133D01*
G01X301800Y-225000D02*
X301400Y-224908D01*
X301000Y-224542D01*
X300733Y-223900D01*
X300600Y-223167D01*
X300733Y-222433D01*
X301000Y-221792D01*
X301400Y-221425D01*
X301800Y-221333D01*
X302200Y-221425D01*
X302600Y-221792D01*
X302867Y-222433D01*
X302933Y-223167D01*
X302867Y-223900D01*
X302600Y-224542D01*
X302200Y-224908D01*
X301800Y-225000D01*
G01X305000D02*
Y-221333D01*
G01Y-222342D02*
X305200Y-221883D01*
X305533Y-221517D01*
X306000Y-221333D01*
X306467Y-221517D01*
X306800Y-221883D01*
X307000Y-222342D01*
Y-225000D01*
G01Y-222342D02*
X307200Y-221883D01*
X307533Y-221517D01*
X308000Y-221333D01*
X308467Y-221517D01*
X308800Y-221883D01*
X309000Y-222433D01*
Y-225000D01*
G01X316067D02*
Y-219500D01*
X317733D01*
X318267Y-219775D01*
X318600Y-220142D01*
X318733Y-220875D01*
X318600Y-221608D01*
X318200Y-222067D01*
X317733Y-222342D01*
X316067D01*
G01X317733D02*
X318733Y-225000D01*
G01X322600Y-221333D02*
Y-225000D01*
G01Y-219867D02*
X322467Y-219775D01*
Y-219592D01*
X322600Y-219500D01*
X322733Y-219592D01*
Y-219775D01*
X322600Y-219867D01*
G01X329000Y-219500D02*
Y-225000D01*
G01Y-224175D02*
X328733Y-224633D01*
X328333Y-224908D01*
X327867Y-225000D01*
X327333Y-224817D01*
X326933Y-224358D01*
X326667Y-223808D01*
X326600Y-223167D01*
X326667Y-222525D01*
X326933Y-221975D01*
X327333Y-221517D01*
X327867Y-221333D01*
X328333Y-221425D01*
X328667Y-221608D01*
X329000Y-221975D01*
G01X334200Y-219500D02*
Y-225000D01*
G01Y-224175D02*
X333933Y-224633D01*
X333533Y-224908D01*
X333067Y-225000D01*
X332533Y-224817D01*
X332133Y-224358D01*
X331867Y-223808D01*
X331800Y-223167D01*
X331867Y-222525D01*
X332133Y-221975D01*
X332533Y-221517D01*
X333067Y-221333D01*
X333533Y-221425D01*
X333867Y-221608D01*
X334200Y-221975D01*
G01X338200Y-225000D02*
Y-219500D01*
G01X342400Y-222525D02*
X344533D01*
X344333Y-221883D01*
X344000Y-221517D01*
X343533Y-221333D01*
X343067Y-221425D01*
X342667Y-221700D01*
X342400Y-222342D01*
X342267Y-222892D01*
Y-223442D01*
X342400Y-223992D01*
X342733Y-224542D01*
X343133Y-224908D01*
X343600Y-225000D01*
X344067Y-224817D01*
X344533Y-224267D01*
G01X338067Y-166500D02*
Y-161000D01*
X339733D01*
X340267Y-161275D01*
X340600Y-161642D01*
X340733Y-162375D01*
X340600Y-163108D01*
X340200Y-163567D01*
X339733Y-163842D01*
X338067D01*
G01X339733D02*
X340733Y-166500D01*
G01X345800D02*
Y-162833D01*
G01Y-163475D02*
X345533Y-163108D01*
X345133Y-162925D01*
X344667Y-162833D01*
X344200Y-163017D01*
X343800Y-163383D01*
X343533Y-163933D01*
X343400Y-164667D01*
X343533Y-165400D01*
X343800Y-165950D01*
X344200Y-166317D01*
X344667Y-166500D01*
X345133Y-166408D01*
X345533Y-166133D01*
X345800Y-165767D01*
G01X348667Y-166500D02*
Y-162833D01*
G01Y-163750D02*
X348933Y-163292D01*
X349333Y-162925D01*
X349867Y-162833D01*
X350333Y-162925D01*
X350733Y-163292D01*
X350933Y-163933D01*
Y-166500D01*
G01X354067Y-167875D02*
X354533Y-168242D01*
X355067Y-168333D01*
X355533Y-168242D01*
X355933Y-167783D01*
X356200Y-167142D01*
Y-162833D01*
G01Y-163567D02*
X355933Y-163200D01*
X355533Y-162925D01*
X355067Y-162833D01*
X354533Y-163017D01*
X354200Y-163383D01*
X353933Y-164025D01*
X353800Y-164667D01*
X353867Y-165217D01*
X354133Y-165858D01*
X354533Y-166317D01*
X355067Y-166500D01*
X355467Y-166408D01*
X355933Y-166042D01*
X356200Y-165675D01*
G01X359200Y-164025D02*
X361333D01*
X361133Y-163383D01*
X360800Y-163017D01*
X360333Y-162833D01*
X359867Y-162925D01*
X359467Y-163200D01*
X359200Y-163842D01*
X359067Y-164392D01*
Y-164942D01*
X359200Y-165492D01*
X359533Y-166042D01*
X359933Y-166408D01*
X360400Y-166500D01*
X360867Y-166317D01*
X361333Y-165767D01*
G01X369067Y-166500D02*
Y-161000D01*
X372133Y-166500D01*
Y-161000D01*
G01X374800Y-164025D02*
X376933D01*
X376733Y-163383D01*
X376400Y-163017D01*
X375933Y-162833D01*
X375467Y-162925D01*
X375067Y-163200D01*
X374800Y-163842D01*
X374667Y-164392D01*
Y-164942D01*
X374800Y-165492D01*
X375133Y-166042D01*
X375533Y-166408D01*
X376000Y-166500D01*
X376467Y-166317D01*
X376933Y-165767D01*
G01X381000Y-161000D02*
Y-166500D01*
G01X380067Y-162833D02*
X381933D01*
G01X384533D02*
X385333Y-166500D01*
X386200Y-162833D01*
X387067Y-166500D01*
X387867Y-162833D01*
G01X391400Y-166500D02*
X391000Y-166408D01*
X390600Y-166042D01*
X390333Y-165400D01*
X390200Y-164667D01*
X390333Y-163933D01*
X390600Y-163292D01*
X391000Y-162925D01*
X391400Y-162833D01*
X391800Y-162925D01*
X392200Y-163292D01*
X392467Y-163933D01*
X392533Y-164667D01*
X392467Y-165400D01*
X392200Y-166042D01*
X391800Y-166408D01*
X391400Y-166500D01*
G01X395667D02*
Y-162833D01*
G01Y-163567D02*
X396000Y-163200D01*
X396333Y-162925D01*
X396800Y-162833D01*
X397133Y-162925D01*
X397533Y-163200D01*
G01X400667Y-166500D02*
Y-161000D01*
G01X402800Y-162833D02*
X400667Y-164942D01*
G01X401533Y-164117D02*
X402933Y-166500D01*
G01X406000Y-165858D02*
X406333Y-166225D01*
X406800Y-166500D01*
X407200D01*
X407600Y-166317D01*
X407867Y-166042D01*
X408000Y-165675D01*
X407933Y-165125D01*
X407667Y-164850D01*
X406467Y-164300D01*
X406200Y-163658D01*
X406333Y-163200D01*
X406600Y-162925D01*
X407000Y-162833D01*
X407400Y-162925D01*
X407800Y-163200D01*
G01X412200Y-166683D02*
X412067Y-166592D01*
Y-166408D01*
X412200Y-166317D01*
X412333Y-166408D01*
Y-166592D01*
X412200Y-166683D01*
G01X386119Y-193264D02*
X386652Y-193722D01*
X387252Y-193997D01*
X387786D01*
X388319Y-193722D01*
X388719Y-193264D01*
X388919Y-192622D01*
X388786Y-191980D01*
X388452Y-191430D01*
X387852Y-191064D01*
X387052Y-190880D01*
X386586Y-190514D01*
X386386Y-189872D01*
X386519Y-189230D01*
X386852Y-188772D01*
X387319Y-188497D01*
X387786D01*
X388252Y-188680D01*
X388652Y-189139D01*
G01X391586Y-193997D02*
Y-188497D01*
G01Y-191155D02*
X391919Y-190697D01*
X392252Y-190422D01*
X392786Y-190330D01*
X393186Y-190422D01*
X393652Y-190789D01*
X393852Y-191339D01*
Y-193997D01*
G01X396919Y-191522D02*
X399052D01*
X398852Y-190880D01*
X398519Y-190514D01*
X398052Y-190330D01*
X397586Y-190422D01*
X397186Y-190697D01*
X396919Y-191339D01*
X396786Y-191889D01*
Y-192439D01*
X396919Y-192989D01*
X397252Y-193539D01*
X397652Y-193905D01*
X398119Y-193997D01*
X398586Y-193814D01*
X399052Y-193264D01*
G01X402119Y-191522D02*
X404252D01*
X404052Y-190880D01*
X403719Y-190514D01*
X403252Y-190330D01*
X402786Y-190422D01*
X402386Y-190697D01*
X402119Y-191339D01*
X401986Y-191889D01*
Y-192439D01*
X402119Y-192989D01*
X402452Y-193539D01*
X402852Y-193905D01*
X403319Y-193997D01*
X403786Y-193814D01*
X404252Y-193264D01*
G01X408319Y-188497D02*
Y-193997D01*
G01X407386Y-190330D02*
X409252D01*
G01X413519Y-194180D02*
X413386Y-194089D01*
Y-193905D01*
X413519Y-193814D01*
X413652Y-193905D01*
Y-194089D01*
X413519Y-194180D01*
G01Y-191705D02*
X413386Y-191614D01*
Y-191430D01*
X413519Y-191339D01*
X413652Y-191430D01*
Y-191614D01*
X413519Y-191705D01*
G01X406967Y-181500D02*
Y-176000D01*
X408633D01*
X409167Y-176275D01*
X409500Y-176642D01*
X409633Y-177375D01*
X409500Y-178108D01*
X409100Y-178567D01*
X408633Y-178842D01*
X406967D01*
G01X408633D02*
X409633Y-181500D01*
G01X414700D02*
Y-177833D01*
G01Y-178475D02*
X414433Y-178108D01*
X414033Y-177925D01*
X413567Y-177833D01*
X413100Y-178017D01*
X412700Y-178383D01*
X412433Y-178933D01*
X412300Y-179667D01*
X412433Y-180400D01*
X412700Y-180950D01*
X413100Y-181317D01*
X413567Y-181500D01*
X414033Y-181408D01*
X414433Y-181133D01*
X414700Y-180767D01*
G01X417567Y-181500D02*
Y-177833D01*
G01Y-178750D02*
X417833Y-178292D01*
X418233Y-177925D01*
X418767Y-177833D01*
X419233Y-177925D01*
X419633Y-178292D01*
X419833Y-178933D01*
Y-181500D01*
G01X422967Y-182875D02*
X423433Y-183242D01*
X423967Y-183333D01*
X424433Y-183242D01*
X424833Y-182783D01*
X425100Y-182142D01*
Y-177833D01*
G01Y-178567D02*
X424833Y-178200D01*
X424433Y-177925D01*
X423967Y-177833D01*
X423433Y-178017D01*
X423100Y-178383D01*
X422833Y-179025D01*
X422700Y-179667D01*
X422767Y-180217D01*
X423033Y-180858D01*
X423433Y-181317D01*
X423967Y-181500D01*
X424367Y-181408D01*
X424833Y-181042D01*
X425100Y-180675D01*
G01X428100Y-179025D02*
X430233D01*
X430033Y-178383D01*
X429700Y-178017D01*
X429233Y-177833D01*
X428767Y-177925D01*
X428367Y-178200D01*
X428100Y-178842D01*
X427967Y-179392D01*
Y-179942D01*
X428100Y-180492D01*
X428433Y-181042D01*
X428833Y-181408D01*
X429300Y-181500D01*
X429767Y-181317D01*
X430233Y-180767D01*
G01X437967Y-181500D02*
Y-176000D01*
X441033Y-181500D01*
Y-176000D01*
G01X443700Y-179025D02*
X445833D01*
X445633Y-178383D01*
X445300Y-178017D01*
X444833Y-177833D01*
X444367Y-177925D01*
X443967Y-178200D01*
X443700Y-178842D01*
X443567Y-179392D01*
Y-179942D01*
X443700Y-180492D01*
X444033Y-181042D01*
X444433Y-181408D01*
X444900Y-181500D01*
X445367Y-181317D01*
X445833Y-180767D01*
G01X449900Y-176000D02*
Y-181500D01*
G01X448967Y-177833D02*
X450833D01*
G01X453433D02*
X454233Y-181500D01*
X455100Y-177833D01*
X455967Y-181500D01*
X456767Y-177833D01*
G01X460300Y-181500D02*
X459900Y-181408D01*
X459500Y-181042D01*
X459233Y-180400D01*
X459100Y-179667D01*
X459233Y-178933D01*
X459500Y-178292D01*
X459900Y-177925D01*
X460300Y-177833D01*
X460700Y-177925D01*
X461100Y-178292D01*
X461367Y-178933D01*
X461433Y-179667D01*
X461367Y-180400D01*
X461100Y-181042D01*
X460700Y-181408D01*
X460300Y-181500D01*
G01X464567D02*
Y-177833D01*
G01Y-178567D02*
X464900Y-178200D01*
X465233Y-177925D01*
X465700Y-177833D01*
X466033Y-177925D01*
X466433Y-178200D01*
G01X469567Y-181500D02*
Y-176000D01*
G01X471700Y-177833D02*
X469567Y-179942D01*
G01X470433Y-179117D02*
X471833Y-181500D01*
G01X474900Y-180858D02*
X475233Y-181225D01*
X475700Y-181500D01*
X476100D01*
X476500Y-181317D01*
X476767Y-181042D01*
X476900Y-180675D01*
X476833Y-180125D01*
X476567Y-179850D01*
X475367Y-179300D01*
X475100Y-178658D01*
X475233Y-178200D01*
X475500Y-177925D01*
X475900Y-177833D01*
X476300Y-177925D01*
X476700Y-178200D01*
G01X481100Y-181683D02*
X480967Y-181592D01*
Y-181408D01*
X481100Y-181317D01*
X481233Y-181408D01*
Y-181592D01*
X481100Y-181683D01*
G01X426167Y-234900D02*
X426500Y-235450D01*
X426900Y-235817D01*
X427367Y-236000D01*
X427900Y-235817D01*
X428300Y-235450D01*
X428700Y-234900D01*
X428833Y-234167D01*
Y-230500D01*
G01X432700Y-236000D02*
X432300Y-235908D01*
X431900Y-235542D01*
X431633Y-234900D01*
X431500Y-234167D01*
X431633Y-233433D01*
X431900Y-232792D01*
X432300Y-232425D01*
X432700Y-232333D01*
X433100Y-232425D01*
X433500Y-232792D01*
X433767Y-233433D01*
X433833Y-234167D01*
X433767Y-234900D01*
X433500Y-235542D01*
X433100Y-235908D01*
X432700Y-236000D01*
G01X436700D02*
Y-230500D01*
G01Y-233250D02*
X437033Y-232700D01*
X437433Y-232425D01*
X437833Y-232333D01*
X438433Y-232517D01*
X438833Y-232883D01*
X439100Y-233525D01*
Y-234258D01*
X438967Y-234992D01*
X438700Y-235542D01*
X438233Y-235908D01*
X437833Y-236000D01*
X437433Y-235908D01*
X437033Y-235633D01*
X436700Y-235175D01*
G01X443100Y-236183D02*
X442967Y-236092D01*
Y-235908D01*
X443100Y-235817D01*
X443233Y-235908D01*
Y-236092D01*
X443100Y-236183D01*
G01Y-233708D02*
X442967Y-233617D01*
Y-233433D01*
X443100Y-233342D01*
X443233Y-233433D01*
Y-233617D01*
X443100Y-233708D01*
G01X437319Y-219993D02*
X436786Y-220176D01*
X436386Y-220635D01*
X436119Y-221185D01*
X435919Y-221918D01*
X435852Y-222743D01*
X435919Y-223568D01*
X436119Y-224301D01*
X436386Y-224851D01*
X436786Y-225310D01*
X437319Y-225493D01*
X437852Y-225310D01*
X438252Y-224851D01*
X438519Y-224301D01*
X438719Y-223568D01*
X438786Y-222743D01*
X438719Y-221918D01*
X438519Y-221185D01*
X438252Y-220635D01*
X437852Y-220176D01*
X437319Y-219993D01*
G01X441052Y-224393D02*
X441452Y-225035D01*
X441986Y-225401D01*
X442586Y-225493D01*
X443119Y-225401D01*
X443652Y-224943D01*
X443986Y-224393D01*
X444052Y-223843D01*
X443919Y-223201D01*
X443452Y-222743D01*
X442986Y-222560D01*
X442386D01*
G01X442986D02*
X443386Y-222285D01*
X443719Y-221826D01*
X443852Y-221276D01*
X443719Y-220726D01*
X443386Y-220268D01*
X442786Y-219993D01*
X442186Y-220085D01*
X441586Y-220451D01*
G01X446519Y-225676D02*
X448919Y-219993D01*
G01X451652Y-220910D02*
X452052Y-220360D01*
X452519Y-220085D01*
X453052Y-219993D01*
X453719Y-220176D01*
X454186Y-220635D01*
X454319Y-221185D01*
X454252Y-221735D01*
X453986Y-222193D01*
X452652Y-223110D01*
X452052Y-223751D01*
X451652Y-224668D01*
X451519Y-225493D01*
X454319D01*
G01X456852Y-220910D02*
X457252Y-220360D01*
X457719Y-220085D01*
X458252Y-219993D01*
X458919Y-220176D01*
X459386Y-220635D01*
X459519Y-221185D01*
X459452Y-221735D01*
X459186Y-222193D01*
X457852Y-223110D01*
X457252Y-223751D01*
X456852Y-224668D01*
X456719Y-225493D01*
X459519D01*
G01X462119Y-225676D02*
X464519Y-219993D01*
G01X468519Y-225493D02*
Y-219993D01*
X467719Y-221093D01*
G01Y-225493D02*
X469319D01*
G01X472452Y-220910D02*
X472852Y-220360D01*
X473319Y-220085D01*
X473852Y-219993D01*
X474519Y-220176D01*
X474986Y-220635D01*
X475119Y-221185D01*
X475052Y-221735D01*
X474786Y-222193D01*
X473452Y-223110D01*
X472852Y-223751D01*
X472452Y-224668D01*
X472319Y-225493D01*
X475119D01*
G01X426052Y-215493D02*
Y-209993D01*
X427386D01*
X427919Y-210268D01*
X428319Y-210635D01*
X428652Y-211185D01*
X428919Y-211826D01*
X428986Y-212743D01*
X428919Y-213660D01*
X428652Y-214301D01*
X428319Y-214851D01*
X427919Y-215218D01*
X427386Y-215493D01*
X426052D01*
G01X433919D02*
Y-211826D01*
G01Y-212468D02*
X433652Y-212101D01*
X433252Y-211918D01*
X432786Y-211826D01*
X432319Y-212010D01*
X431919Y-212376D01*
X431652Y-212926D01*
X431519Y-213660D01*
X431652Y-214393D01*
X431919Y-214943D01*
X432319Y-215310D01*
X432786Y-215493D01*
X433252Y-215401D01*
X433652Y-215126D01*
X433919Y-214760D01*
G01X437919Y-209993D02*
Y-215493D01*
G01X436986Y-211826D02*
X438852D01*
G01X442119Y-213018D02*
X444252D01*
X444052Y-212376D01*
X443719Y-212010D01*
X443252Y-211826D01*
X442786Y-211918D01*
X442386Y-212193D01*
X442119Y-212835D01*
X441986Y-213385D01*
Y-213935D01*
X442119Y-214485D01*
X442452Y-215035D01*
X442852Y-215401D01*
X443319Y-215493D01*
X443786Y-215310D01*
X444252Y-214760D01*
G01X448319Y-215676D02*
X448186Y-215585D01*
Y-215401D01*
X448319Y-215310D01*
X448452Y-215401D01*
Y-215585D01*
X448319Y-215676D01*
G01Y-213201D02*
X448186Y-213110D01*
Y-212926D01*
X448319Y-212835D01*
X448452Y-212926D01*
Y-213110D01*
X448319Y-213201D01*
G01X449016Y-193997D02*
X448616Y-193905D01*
X448216Y-193539D01*
X447949Y-192897D01*
X447816Y-192164D01*
X447949Y-191430D01*
X448216Y-190789D01*
X448616Y-190422D01*
X449016Y-190330D01*
X449416Y-190422D01*
X449816Y-190789D01*
X450083Y-191430D01*
X450149Y-192164D01*
X450083Y-192897D01*
X449816Y-193539D01*
X449416Y-193905D01*
X449016Y-193997D01*
G01X453816D02*
Y-189322D01*
X453949Y-188864D01*
X454216Y-188589D01*
X454616Y-188497D01*
X455016Y-188680D01*
X455216Y-189139D01*
G01X454416Y-190697D02*
X453083D01*
G01X459416Y-194180D02*
X459283Y-194089D01*
Y-193905D01*
X459416Y-193814D01*
X459549Y-193905D01*
Y-194089D01*
X459416Y-194180D01*
G01Y-191705D02*
X459283Y-191614D01*
Y-191430D01*
X459416Y-191339D01*
X459549Y-191430D01*
Y-191614D01*
X459416Y-191705D01*
G54D44*
G01X168953Y64823D02*
Y61453D01*
X168500Y61000D01*
G01X177550Y69499D02*
X177201D01*
X177153Y69547D01*
X173677D01*
G01Y77421D02*
X175521D01*
X177400Y79300D01*
G01X223800Y200600D02*
X225779Y198621D01*
Y197177D01*
G01X238377Y192453D02*
X241747D01*
X242200Y192000D01*
G01X233653Y197177D02*
Y199500D01*
X232700Y200453D01*
Y201000D01*
G54D26*
X149250Y79000D03*
X138750D03*
X187750Y217500D03*
X177250D03*
X187750Y228500D03*
X177250D03*
X187750Y261500D03*
X177250D03*
X187750Y272500D03*
X177250D03*
X223450Y171000D03*
X212950D03*
X427150Y281800D03*
X437650D03*
G54D17*
X29500Y49400D03*
X21000D03*
X29500Y55600D03*
X21000D03*
X56000Y241400D03*
Y247600D03*
X69500Y49400D03*
Y55600D03*
X67000Y241400D03*
Y247600D03*
X80500Y49400D03*
Y55600D03*
X108300Y118900D03*
Y112700D03*
X109500Y257600D03*
Y251400D03*
X118000Y257600D03*
Y251400D03*
X197000Y219900D03*
Y226100D03*
Y270100D03*
Y263900D03*
X267000Y47900D03*
Y31900D03*
Y38100D03*
Y54100D03*
X266000Y93400D03*
Y99600D03*
Y115600D03*
Y109400D03*
X288000Y56900D03*
Y63100D03*
X279400Y258800D03*
Y265000D03*
X404500Y36900D03*
Y43100D03*
X445900Y262300D03*
Y268500D03*
G54D35*
X291897Y252197D03*
X295503Y255803D03*
X320403Y64603D03*
X316797Y60997D03*
X374803Y256103D03*
X371197Y252497D03*
X393897Y48897D03*
X397503Y52503D03*
G54D54*
G01X47500Y145267D02*
X36767D01*
X32000Y140500D01*
X24500D01*
X17500Y133500D01*
G01X47500Y148416D02*
X37084D01*
X31000Y154500D01*
X23500D01*
X17500Y148500D01*
G01X47500Y151566D02*
X37434D01*
X32000Y157000D01*
X24000D01*
X17500Y163500D01*
G01X55500Y110500D02*
X42500D01*
X39000Y114000D01*
X27500D01*
G01X43500Y132550D02*
X43382Y132668D01*
X33500D01*
G01X64800Y124500D02*
X54000D01*
G01X43500Y127450D02*
X47500Y123450D01*
Y123400D01*
G01X56000Y142117D02*
X57617Y140500D01*
X74000D01*
X76500Y138000D01*
Y123500D01*
X80500Y119500D01*
X85800D01*
G01X47467Y138967D02*
X50500Y135934D01*
Y132000D01*
X53000Y129500D01*
X64800D01*
G01X63883Y147043D02*
X56543D01*
X53500Y144000D01*
Y140000D01*
X56000Y137500D01*
Y135000D01*
X53500Y132500D01*
G01X63883Y149602D02*
X55602D01*
X51500Y145500D01*
Y138000D01*
X53500Y136000D01*
G01X63883Y154720D02*
X47505D01*
X47500Y154715D01*
G01X63883Y157280D02*
X50585D01*
X50000Y157865D01*
X47500D01*
G01X63883Y159839D02*
X56161D01*
X56000Y160000D01*
G01X63883Y162398D02*
X48868D01*
X47485Y161015D01*
G01X45600Y265750D02*
Y269500D01*
G01X85800Y114500D02*
X83050D01*
X78950Y118600D01*
X76900D01*
X74500Y121000D01*
Y136500D01*
X73000Y138000D01*
G01X220000Y120900D02*
X217600Y118500D01*
X153000D01*
X140800Y106300D01*
X117300D01*
X114500Y109100D01*
X83900D01*
X80348Y112652D01*
Y114452D01*
X77800Y117000D01*
X73500D01*
G01Y113000D02*
X77400D01*
X84200Y106200D01*
X113000D01*
X115900Y103300D01*
X141900D01*
X153600Y115000D01*
X217700D01*
X217800Y115100D01*
X220000D01*
G01X77500Y157000D02*
X75000Y159500D01*
Y168500D01*
X65500Y178000D01*
Y212500D01*
X73500Y220500D01*
Y237000D01*
G01X70000Y153000D02*
X69161Y152161D01*
X63883D01*
G01X69865Y157865D02*
X75000Y152730D01*
Y147000D01*
X81500Y140500D01*
X92500D01*
G01X63883Y164957D02*
X69007D01*
X69800Y164164D01*
G01X74000Y202000D02*
X70000D01*
X69960Y201960D01*
G01X90900Y31250D02*
X95000D01*
X97500Y33750D01*
Y37000D01*
X96000Y38500D01*
Y62000D01*
X82000Y76000D01*
Y80000D01*
G01X85800Y119500D02*
X93750D01*
X94750Y120500D01*
G01X85800Y114500D02*
X93750D01*
X94750Y113500D01*
G01X86717Y144484D02*
X92784D01*
G01X86717Y159839D02*
X94589D01*
X96750Y162000D01*
G01X86717Y157280D02*
X94970D01*
X96750Y155500D01*
G01X86717Y152161D02*
X82339D01*
X77500Y157000D01*
G01Y150500D02*
X78398Y149602D01*
X86717D01*
G01Y154720D02*
X93000D01*
G01X86717Y147043D02*
X81843D01*
X80800Y146000D01*
G01X100000Y192500D02*
X93500Y186000D01*
Y165000D01*
X90898Y162398D01*
X86717D01*
G01X101850Y162000D02*
X105500D01*
X109500Y158000D01*
Y130000D01*
G01X101850Y149000D02*
X105500Y145350D01*
Y130000D01*
G01X96750Y162000D02*
Y168500D01*
G01Y155500D02*
Y149000D01*
G01X105500Y156500D02*
X104500Y155500D01*
X101850D01*
G01Y168500D02*
X105500D01*
G01X158323Y75453D02*
X156000D01*
X154953Y76500D01*
X151000D01*
X149250Y78250D01*
Y79000D01*
G01X158323Y71516D02*
X156016D01*
X155500Y71000D01*
X152550D01*
X151050Y69500D01*
G01X145950D02*
X142500D01*
G01X156450Y219500D02*
X150550D01*
G01X156450Y263500D02*
X150550D01*
G01X170921Y64823D02*
Y62079D01*
X172000Y61000D01*
G01X157000Y63000D02*
X158823Y64823D01*
X161079D01*
G01X158323Y67579D02*
X157079D01*
X155000Y65500D01*
X154500D01*
G01X161500Y61000D02*
X163047Y62547D01*
Y64823D01*
G01X170921Y80177D02*
Y83921D01*
X171000Y84000D01*
G01D02*
Y87450D01*
G01X161079Y80177D02*
Y86029D01*
X162500Y87450D01*
G01X158323Y77421D02*
Y80000D01*
X156000Y82323D01*
Y87450D01*
G01X158323Y69547D02*
X156547D01*
X155500Y68500D01*
X154500D01*
G01X156450Y226500D02*
Y219500D01*
G01Y270500D02*
Y263500D01*
G01X172000Y47050D02*
Y52450D01*
G01Y57550D02*
Y61000D01*
G01X178500Y57550D02*
X172000D01*
G01X215750Y181000D02*
X222377D01*
X223200Y181823D01*
X225779D01*
G01X223023Y194421D02*
X219279D01*
X219200Y194500D01*
G01X215750Y194000D02*
X216250Y194500D01*
X219200D01*
G01X215750Y187500D02*
X218671Y184579D01*
X223023D01*
G01X232200Y168450D02*
X236150D01*
X236277Y168577D01*
G01X232200Y173550D02*
Y179000D01*
X231684Y179516D01*
Y181823D01*
G01X243200Y180500D02*
X239121Y184579D01*
X238377D01*
G01X238200Y177500D02*
Y178000D01*
X235621Y180579D01*
Y181823D01*
G01X233653D02*
Y180047D01*
X234700Y179000D01*
Y178000D01*
G01X238377Y194421D02*
X241121D01*
X242200Y195500D01*
G01X245650D02*
X242200D01*
G01X245650Y202000D02*
Y195500D01*
G01X246200Y184500D02*
X242700D01*
X240653Y186547D01*
X238377D01*
G01X235657Y236583D02*
X235740Y236500D01*
X238457D01*
G01X256150Y195500D02*
X250750D01*
G54D45*
G01X264200Y259126D02*
Y264500D01*
G01Y253800D02*
Y259126D01*
G01X415900Y261300D02*
Y255826D01*
G01D02*
Y250700D01*
G54D27*
X170921Y64823D03*
X168953D03*
X166984D03*
X165016D03*
X163047D03*
X161079D03*
Y80177D03*
X163047D03*
X165016D03*
X166984D03*
X168953D03*
X170921D03*
X227747Y181823D03*
X225779D03*
Y197177D03*
X227747D03*
X235621Y181823D03*
X233653D03*
X231684D03*
X229716D03*
Y197177D03*
X231684D03*
X233653D03*
X235621D03*
G54D18*
X21000Y68550D03*
Y63450D03*
X29500Y68550D03*
Y63450D03*
X35500Y241950D03*
Y247050D03*
X40500Y61550D03*
Y56450D03*
X49500Y61550D03*
Y56450D03*
X43500Y127450D03*
Y132550D03*
X56000Y228450D03*
Y233550D03*
X45500Y241950D03*
Y247050D03*
X69500Y68550D03*
Y63450D03*
X67000Y228450D03*
Y233550D03*
X91000Y49950D03*
Y55050D03*
X80500Y68550D03*
Y63450D03*
X88500Y235450D03*
Y240550D03*
X101000Y49950D03*
Y55050D03*
X97500Y235450D03*
Y240550D03*
X109500Y238450D03*
Y243550D03*
X118000Y238450D03*
Y243550D03*
X172000Y41950D03*
Y47050D03*
Y52450D03*
Y57550D03*
X165000Y52450D03*
Y57550D03*
X171000Y87450D03*
X156000D03*
X162500D03*
X171000Y92550D03*
X156000D03*
X162500D03*
X169000Y220450D03*
Y225550D03*
Y269550D03*
Y264450D03*
X185000Y47450D03*
Y52550D03*
X178500Y52450D03*
Y57550D03*
X208000Y47450D03*
Y52550D03*
X203000Y76550D03*
Y71450D03*
X204500Y220450D03*
Y225550D03*
Y264450D03*
Y269550D03*
X227500Y47450D03*
X221000D03*
X214500D03*
X227500Y52550D03*
X221000D03*
X214500D03*
X226500Y100550D03*
Y95450D03*
X220000D03*
Y100550D03*
X213500Y95450D03*
Y100550D03*
X225700Y204450D03*
Y209550D03*
Y214950D03*
Y220050D03*
X219200Y204450D03*
Y209550D03*
X227200Y269450D03*
Y274550D03*
X221200D03*
Y269450D03*
X247000Y47450D03*
X240500D03*
X234100D03*
X248000Y36550D03*
Y31450D03*
X247000Y52550D03*
X240500D03*
X234100D03*
X239500Y100550D03*
Y95450D03*
X246000Y100550D03*
Y95450D03*
X233000Y100550D03*
Y95450D03*
X247000Y110950D03*
Y116050D03*
X232200Y173550D03*
Y168450D03*
Y204450D03*
Y209550D03*
Y214950D03*
Y220050D03*
X238700Y204450D03*
Y209550D03*
X240200Y223450D03*
Y228550D03*
X243200Y252950D03*
Y258050D03*
Y268550D03*
Y263450D03*
X257000Y49450D03*
Y54550D03*
X265500Y72950D03*
Y78050D03*
X251500Y72950D03*
Y78050D03*
X256000Y92950D03*
Y98050D03*
X249700Y259450D03*
Y264550D03*
X274500Y48450D03*
Y53550D03*
X280500Y72950D03*
Y78050D03*
X273500Y99050D03*
Y93950D03*
X300000Y260350D03*
Y265450D03*
X290100Y272150D03*
Y277250D03*
X296300D03*
Y272150D03*
X383000Y39050D03*
Y33950D03*
X381000Y75550D03*
Y70450D03*
X391800Y240850D03*
Y245950D03*
Y256050D03*
Y250950D03*
X429900Y255850D03*
Y250750D03*
X445900Y251050D03*
Y256150D03*
X444900Y286150D03*
Y281050D03*
X451000Y286150D03*
Y281050D03*
X472000Y255850D03*
Y250750D03*
G54D36*
X291397Y252303D03*
X295003Y248697D03*
X316697Y60803D03*
X320303Y57197D03*
X374803Y256397D03*
X371197Y260003D03*
X397303Y52697D03*
X393697Y56303D03*
G54D46*
G01X223450Y171000D02*
X225200Y172750D01*
Y176953D01*
X227747Y179500D01*
Y181823D01*
G54D37*
X324845Y221800D03*
X335645Y35000D03*
X366355D03*
X355555Y221800D03*
G54D28*
X158323Y67579D03*
Y69547D03*
Y71516D03*
Y73484D03*
Y75453D03*
Y77421D03*
X173677Y67579D03*
Y77421D03*
Y75453D03*
Y73484D03*
Y71516D03*
Y69547D03*
X223023Y184579D03*
Y186547D03*
Y188516D03*
Y190484D03*
Y192453D03*
Y194421D03*
X238377D03*
Y192453D03*
Y190484D03*
Y188516D03*
Y186547D03*
Y184579D03*
G54D19*
X35400Y258250D03*
Y265750D03*
X45600Y258250D03*
Y265750D03*
Y262000D03*
X90900Y31250D03*
Y35000D03*
Y38750D03*
X101100D03*
Y31250D03*
G54D47*
G01X213500Y100550D02*
Y103900D01*
X211500Y105900D01*
X208000D01*
X204700Y102600D01*
Y91800D01*
X201285Y88385D01*
X181315D01*
X177000Y92700D01*
Y102800D01*
X173900Y105900D01*
X160000D01*
X145100Y91000D01*
X132100D01*
X129200Y88100D01*
Y73200D01*
X124800Y68800D01*
X116500D01*
X90800Y94500D01*
X83900D01*
X74078Y104322D01*
X70000D01*
G01X214500Y47450D02*
X215100Y46850D01*
Y28100D01*
X210900Y23900D01*
X195431D01*
X188831Y30500D01*
X184031D01*
X177431Y23900D01*
X168100D01*
X151700Y40300D01*
Y58300D01*
X146000Y64000D01*
X114100D01*
X89400Y88700D01*
X83600D01*
X74278Y98022D01*
X70000D01*
G01X221000Y47450D02*
Y44100D01*
X220200Y43300D01*
Y25900D01*
X213500Y19200D01*
X166300D01*
X146000Y39500D01*
Y52400D01*
X140100Y58300D01*
X111400D01*
X85600Y84100D01*
X82000D01*
X71227Y94873D01*
X70000D01*
G01Y107471D02*
X77129D01*
X85300Y99300D01*
X93900D01*
X116900Y76300D01*
X120800D01*
X124200Y79700D01*
Y90900D01*
X129300Y96000D01*
X142500D01*
X157200Y110700D01*
X177100D01*
X181700Y106100D01*
Y97900D01*
X186400Y93200D01*
X194800D01*
X199600Y98000D01*
Y104800D01*
X205500Y110700D01*
X213200D01*
X220000Y103900D01*
Y100550D01*
G01X70000Y183062D02*
X84062D01*
X101000Y200000D01*
X134600D01*
X139700Y205100D01*
X147518D01*
X155918Y196700D01*
X164900D01*
X169400Y201200D01*
Y208100D01*
X161550Y215950D01*
Y219500D01*
G01X70000Y192511D02*
X78011D01*
X96800Y211300D01*
X112900D01*
X120500Y218900D01*
X124800D01*
X130150Y224250D01*
Y228550D01*
X134500Y232900D01*
Y238500D01*
X138050Y242050D01*
X143650D01*
X146300Y244700D01*
Y250000D01*
X148950Y252650D01*
X159700D01*
X161550Y254500D01*
Y263500D01*
G01Y270500D02*
Y273050D01*
X160500Y274100D01*
X147500D01*
X133900Y260500D01*
Y247300D01*
X104600Y218000D01*
X96500D01*
X75500Y197000D01*
X73000D01*
X71660Y195660D01*
X70000D01*
G01Y186211D02*
X71945Y188156D01*
X81156D01*
X98500Y205500D01*
X118000D01*
X123400Y210900D01*
X134000D01*
X138600Y215500D01*
Y227700D01*
X152500Y241600D01*
X158700D01*
X161550Y238750D01*
Y226500D01*
G01X169000Y220450D02*
X162500D01*
X161550Y219500D01*
G01X169000Y220450D02*
X174300D01*
X177250Y217500D01*
G01X169000Y225550D02*
X162500D01*
X161550Y226500D01*
G01X169000Y225550D02*
X174300D01*
X177250Y228500D01*
G01X161550Y263500D02*
X168050D01*
X169000Y264450D01*
G01X177250Y261500D02*
X171950D01*
X169000Y264450D01*
G01X161550Y270500D02*
X168050D01*
X169000Y269550D01*
G01X177250Y272500D02*
X171950D01*
X169000Y269550D01*
G01X187750Y217500D02*
X194600D01*
X197000Y219900D01*
G01X187750Y228500D02*
X194600D01*
X197000Y226100D01*
G01Y270100D02*
X190150D01*
X187750Y272500D01*
G01X197000Y263900D02*
X190150D01*
X187750Y261500D01*
G01X197000Y219900D02*
X203950D01*
X204500Y220450D01*
G01X219100Y230400D02*
X209150Y220450D01*
X204500D01*
G01X197000Y226100D02*
X203950D01*
X204500Y225550D01*
G01X214930Y231070D02*
X209410Y225550D01*
X204500D01*
G01X217459Y266960D02*
X214869Y269550D01*
X204500D01*
G01D02*
X197550D01*
X197000Y270100D01*
G01X204500Y264450D02*
X197550D01*
X197000Y263900D01*
G01X215410Y264450D02*
X204500D01*
G54D38*
X317750Y262527D03*
X328550Y75727D03*
X362632Y262527D03*
X373432Y75727D03*
G54D29*
X166000Y72500D03*
X230700Y189500D03*
G54D48*
G01X17348Y49400D02*
X21000D01*
G01X18348Y68550D02*
X21000D01*
G01X29500Y29750D02*
Y25000D01*
G01X25198Y29750D02*
X29500D01*
G01D02*
X33802D01*
G01X21000Y49400D02*
Y45000D01*
G01Y49400D02*
X24652D01*
G01X21000Y68550D02*
Y72000D01*
G01X29500Y68550D02*
Y72000D01*
G01X26848Y68550D02*
X29500D01*
G01D02*
X32152D01*
G01X21000D02*
X23652D01*
G01X35500Y241950D02*
Y238500D01*
G01X35400Y258250D02*
X31000D01*
G01X35500Y247050D02*
X35400Y247150D01*
Y252000D01*
G01D02*
Y258250D01*
G01X25000Y252000D02*
Y256750D01*
G01X31000Y258250D02*
X26500D01*
X25000Y256750D01*
G01X32848Y241950D02*
X35500D01*
G01D02*
X38152D01*
G01X25000Y267250D02*
Y272000D01*
G01X20698Y267250D02*
X25000D01*
G01D02*
X29302D01*
G01X55153Y45705D02*
X58555D01*
G01X49500Y61550D02*
Y64002D01*
G01X46848Y61550D02*
X49500D01*
G01D02*
X52152D01*
G01X40500D02*
Y64002D01*
G01X37848Y61550D02*
X40500D01*
G01D02*
X43152D01*
G01X47500Y135818D02*
Y130000D01*
X50500Y127000D01*
Y123500D01*
X54500Y119500D01*
X64800D01*
G01Y114500D02*
X55500D01*
G01X56000Y237000D02*
Y233550D01*
G01Y241400D02*
Y237000D01*
G01X45500Y241950D02*
Y238500D01*
G01X56000Y228450D02*
Y225000D01*
G01X53348Y228450D02*
X56000D01*
G01D02*
X58652D01*
G01X56000Y247600D02*
X46050D01*
X45500Y247050D01*
G01X56000Y247600D02*
Y256750D01*
G01D02*
X54500Y258250D01*
X45600D01*
G01X42848Y241950D02*
X45500D01*
G01D02*
X48152D01*
G01X45600Y262000D02*
X41500D01*
G01X45600D02*
X50000D01*
G01X56000Y267250D02*
X50500D01*
G01X56000D02*
Y270552D01*
G01Y267250D02*
X60302D01*
G01X69500Y29750D02*
X64000D01*
G01X69500Y26448D02*
Y29750D01*
G01D02*
X73802D01*
G01X58555Y40303D02*
Y45705D01*
G01D02*
Y51107D01*
G01Y45705D02*
X61957D01*
G01X69500Y40250D02*
Y45000D01*
G01Y49400D02*
X74400D01*
G01X69500Y55600D02*
Y60000D01*
G01Y63450D02*
Y60000D01*
G01Y68550D02*
Y72000D01*
G01X66848Y68550D02*
X69500D01*
G01D02*
X72152D01*
G01X70000Y135818D02*
X71500Y134318D01*
Y121000D01*
X70000Y119500D01*
X64800D01*
G01X63883Y144484D02*
X70000D01*
G01X63883Y167516D02*
X72500D01*
G01X67000Y237000D02*
Y233550D01*
G01Y241400D02*
Y237000D01*
G01Y228450D02*
Y225000D01*
G01X64348Y228450D02*
X67000D01*
G01D02*
X69652D01*
G01X67000Y256750D02*
Y252000D01*
G01Y247600D02*
X62100D01*
G01X67000Y267250D02*
X72500D01*
G01X67000D02*
Y270552D01*
G01X62698Y267250D02*
X67000D01*
G01X80500Y29750D02*
X86000D01*
G01X80500Y26448D02*
Y29750D01*
G01X76198D02*
X80500D01*
G01X90900Y35000D02*
X95000D01*
G01X90900D02*
X86500D01*
G01X80500Y49400D02*
X90450D01*
X91000Y49950D01*
G01X80500Y49400D02*
Y40250D01*
G01D02*
X82000Y38750D01*
X90900D01*
G01X91000Y55050D02*
Y58500D01*
G01X88348Y55050D02*
X91000D01*
G01D02*
X93652D01*
G01X80500Y55600D02*
Y60000D01*
G01Y63450D02*
Y60000D01*
G01Y68550D02*
Y72000D01*
G01X77848Y68550D02*
X80500D01*
G01D02*
X83152D01*
G01X85800Y124500D02*
X79500D01*
G01X85800Y129500D02*
X79500D01*
G01X85800D02*
X93050D01*
X93300Y129750D01*
X98800D01*
G01X80500Y164500D02*
X80957Y164957D01*
X86717D01*
G01X80500Y164500D02*
X80000D01*
X76950Y167550D01*
Y174500D01*
G01X82050D02*
Y171050D01*
X80500Y169500D01*
Y167516D01*
G01X86717D02*
X80500D01*
G01X88500Y232998D02*
Y235450D01*
G01X85848D02*
X88500D01*
G01D02*
X91152D01*
G01X94848D02*
X97500D01*
G01X79445Y245893D02*
Y251295D01*
G01D02*
Y256697D01*
G01X76043Y251295D02*
X79445D01*
G01D02*
X82847D01*
G01X111500Y29750D02*
Y25000D01*
G01X107198Y29750D02*
X111500D01*
G01D02*
X115802D01*
G01X101100Y38750D02*
Y45000D01*
G01D02*
Y49850D01*
X101000Y49950D01*
G01X111500Y45000D02*
Y40250D01*
G01D02*
X110000Y38750D01*
X105500D01*
G01D02*
X101100D01*
G01X99500Y58850D02*
X101000Y57350D01*
G01D02*
Y55050D01*
G01X98348D02*
X101000D01*
G01D02*
X103652D01*
G01X99850Y120500D02*
Y113500D01*
G01X98800Y129750D02*
X99850Y128700D01*
Y120500D01*
G01X108300Y112700D02*
X103600D01*
X102800Y113500D01*
X99850D01*
G01X103700Y118500D02*
X104100Y118900D01*
X108300D01*
G01X98800Y140250D02*
Y144500D01*
G01X118000Y238450D02*
X114000D01*
G01X109500Y235998D02*
Y238450D01*
G01X106848D02*
X109500D01*
G01X97500Y232998D02*
Y235450D01*
G01D02*
X100152D01*
G01X109500Y277250D02*
Y282000D01*
G01X105198Y277250D02*
X109500D01*
G01D02*
X113802D01*
G01X118000Y257600D02*
Y260602D01*
G01X114348Y257600D02*
X118000D01*
G01D02*
X121652D01*
G01X138750Y79000D02*
X135750Y82000D01*
X134500D01*
G01X145450Y223500D02*
Y219500D01*
G01Y263500D02*
Y259900D01*
G01X169348Y41950D02*
X172000D01*
G01X165000Y52450D02*
X161000D01*
G01X165000Y49998D02*
Y52450D01*
G01D02*
X167652D01*
G01X162500Y92550D02*
Y96000D01*
G01X156000Y92550D02*
Y96000D01*
G01X171000Y92550D02*
Y93500D01*
X168500Y96000D01*
G01X159848Y92550D02*
X162500D01*
G01D02*
X165152D01*
G01X185000Y47450D02*
Y44000D01*
G01X178500Y52450D02*
Y49000D01*
G01X172000Y41950D02*
X175700D01*
G01X182348Y47450D02*
X185000D01*
G01D02*
X187652D01*
G01X172000Y39498D02*
Y41950D01*
G01X188450Y35000D02*
X185000D01*
G01X175848Y52450D02*
X178500D01*
G01D02*
X181152D01*
G01X192750Y52600D02*
X189100D01*
G01X185000Y52550D02*
X189050D01*
X189100Y52600D01*
G01X186050Y64500D02*
X191000D01*
G01X186050Y84000D02*
X189500D01*
G01X207200Y32000D02*
X208200Y31000D01*
Y29600D01*
X207100Y28500D01*
X204550D01*
G01X196500Y42400D02*
Y38000D01*
G01X208000Y47450D02*
Y45000D01*
X207000Y44000D01*
G01X204550Y32348D02*
Y35000D01*
G01D02*
Y37652D01*
G01Y35000D02*
X207002D01*
G01X211366Y68406D02*
Y62632D01*
G01X211300Y79226D02*
Y80252D01*
X211366Y80318D01*
Y85368D01*
G01X210650Y181000D02*
X207200D01*
G01X210650Y187500D02*
X207200D01*
G01X210650Y194000D02*
X207200D01*
G01X220302Y236583D02*
Y231602D01*
X219100Y230400D01*
G01X217743Y236583D02*
Y233883D01*
X214930Y231070D01*
G01X220302Y259417D02*
Y264117D01*
X217459Y266960D01*
G01X217743Y259417D02*
Y262117D01*
X215410Y264450D01*
G01X227500Y29250D02*
X234200D01*
X236450Y31500D01*
G01Y39500D02*
X227750D01*
X227500Y39750D01*
G01Y47450D02*
Y39750D01*
G01X224161Y62632D02*
Y69839D01*
X223500Y70500D01*
G01X226000Y56500D02*
X226720Y57220D01*
G01D02*
Y62632D01*
G01X213925D02*
Y57425D01*
X213000Y56500D01*
G01X221500Y91500D02*
X221602Y91398D01*
Y85368D01*
G01X213925D02*
Y90575D01*
X213000Y91500D01*
G01X223450Y77500D02*
X224161Y78211D01*
G01D02*
Y85368D01*
G01X229280D02*
Y78230D01*
X228550Y77500D01*
G01X226500Y100550D02*
Y108250D01*
G01Y118750D02*
X232700D01*
X235450Y116000D01*
G01Y108000D02*
X226750D01*
X226500Y108250D01*
G01X212950Y171000D02*
Y176600D01*
G01X210650Y178348D02*
Y181000D01*
G01D02*
Y183652D01*
G01Y191348D02*
Y194000D01*
G01D02*
Y196652D01*
G01Y184848D02*
Y187500D01*
G01D02*
Y190152D01*
G01X219200Y209550D02*
Y213000D01*
G01X225420Y236583D02*
Y243220D01*
G01X222861Y236583D02*
Y243339D01*
G01X227980Y236583D02*
Y232200D01*
X226650Y230870D01*
G01X227980Y259417D02*
Y263720D01*
X226200Y265500D01*
X225134D01*
X225007Y265627D01*
G01X225420Y259417D02*
Y251500D01*
G01X222861Y259417D02*
Y252161D01*
G01X225420Y243220D02*
X226200Y244000D01*
G01X222861Y243339D02*
X222200Y244000D01*
G01X222861Y252161D02*
X222200Y251500D01*
G01X227200Y269450D02*
Y268000D01*
X225007Y265807D01*
Y265627D01*
G01D02*
X223073D01*
X221200Y267500D01*
Y269450D01*
G01Y277300D02*
Y274550D01*
G01X227200D02*
Y277002D01*
G01X224548Y274550D02*
X227200D01*
G01D02*
X229852D01*
G01X248000Y31450D02*
X256700D01*
X257000Y31750D01*
G01X241550Y31500D02*
X247950D01*
X248000Y31450D01*
G01X241550Y39500D02*
Y31500D01*
G01X248000Y36550D02*
Y40000D01*
G01X240500Y47450D02*
Y44000D01*
G01X247000Y47450D02*
X250950D01*
G01X234000Y44000D02*
X234100Y44100D01*
G01D02*
Y47450D01*
G01X231448D02*
X234100D01*
G01D02*
X236752D01*
G01X237848D02*
X240500D01*
G01D02*
X243152D01*
G01X247000Y44998D02*
Y47450D01*
G01X244348D02*
X247000D01*
G01X244634Y62632D02*
Y57866D01*
X246000Y56500D01*
G01X247000Y52550D02*
Y55500D01*
X246000Y56500D01*
G01X231839Y62632D02*
Y56661D01*
G01D02*
X232000Y56500D01*
G01X239516Y62632D02*
Y57516D01*
X238500Y56500D01*
G01X236957Y62632D02*
Y68957D01*
G01X233500Y77500D02*
X231839Y79161D01*
Y85368D01*
G01X236000Y91500D02*
X236957Y90543D01*
Y85368D01*
G01X239500Y100550D02*
Y104000D01*
G01X246000Y100550D02*
X250000D01*
G01X246000D02*
Y103002D01*
G01X243348Y100550D02*
X246000D01*
G01X236848D02*
X239500D01*
G01D02*
X242152D01*
G01X247000Y116050D02*
X255700D01*
X256000Y115750D01*
G01X240550Y116000D02*
X246950D01*
X247000Y116050D01*
G01X240550Y108000D02*
Y116000D01*
G01X247000Y110950D02*
Y107500D01*
G01X238700Y209550D02*
Y215000D01*
G01X240200Y220998D02*
Y223450D01*
G01Y228550D02*
X236550Y229050D01*
X235200Y230400D01*
G01X233098Y236583D02*
Y232502D01*
X235200Y230400D01*
G01X240200Y223450D02*
X242852D01*
G01X230539Y236583D02*
Y231000D01*
X231750Y229789D01*
G01X230539Y259417D02*
Y264339D01*
X232650Y266450D01*
Y268000D01*
G01X243200Y252950D02*
Y249700D01*
G01X233098Y259417D02*
Y251700D01*
G01X235657Y259417D02*
Y253043D01*
G01D02*
X236300Y252400D01*
G01X267000Y31900D02*
X257150D01*
X257000Y31750D01*
G01Y42250D02*
Y49450D01*
G01X267000Y47900D02*
Y43000D01*
G01D02*
Y38100D01*
G01Y54100D02*
Y58500D01*
G01X257000Y54550D02*
Y58000D01*
G01X265500Y78050D02*
Y82000D01*
G01X251500Y78050D02*
Y82000D01*
G01X256000Y105250D02*
Y98050D01*
G01X266000Y93400D02*
Y89000D01*
G01X256000Y92950D02*
X252000D01*
G01X266000Y104500D02*
Y109400D01*
G01Y99600D02*
Y104500D01*
G01Y115600D02*
X256150D01*
X256000Y115750D01*
G01X261250Y195500D02*
X264700D01*
G01X250750Y202000D02*
Y206000D01*
G01X254585Y187900D02*
X253485Y189000D01*
G01D02*
X250750D01*
G01X261250Y192848D02*
Y195500D01*
G01D02*
Y198152D01*
G01X250750Y199348D02*
Y202000D01*
G01D02*
X253202D01*
G01X250750Y186348D02*
Y189000D01*
G01D02*
Y191652D01*
G01X288000Y34000D02*
X287000D01*
X285500Y32500D01*
Y29500D01*
G01X274500Y48450D02*
Y45000D01*
G01Y53550D02*
Y57000D01*
G01X280500Y78050D02*
Y82000D01*
G01X273500Y93950D02*
Y90500D01*
G01Y99050D02*
Y102500D01*
G01X284450Y271500D02*
X289450D01*
X290100Y272150D01*
G01X284450Y271500D02*
Y276350D01*
G01X290500Y29500D02*
Y32500D01*
X289000Y34000D01*
X288000D01*
G01X301050Y42848D02*
Y45500D01*
G01D02*
Y48152D01*
G01Y45500D02*
X303502D01*
G01X288000Y45000D02*
Y56900D01*
G01X295950Y45500D02*
X288500D01*
X288000Y45000D01*
G01X298000Y61365D02*
Y58500D01*
X298500Y58000D01*
G01X294000Y57000D02*
X295440Y58440D01*
Y61365D01*
G01X298550Y50348D02*
Y53000D01*
G01D02*
X301002D01*
G01X302900Y61500D02*
X300560Y61365D01*
G01X293450Y53000D02*
X291900D01*
X288000Y56900D01*
G01X295440Y68635D02*
X293000Y68600D01*
X292200Y68500D01*
G01X302000Y73000D02*
X300560Y71560D01*
Y68635D01*
G01X297500Y72000D02*
X298000Y71500D01*
Y68635D01*
G01X290500Y240000D02*
X290600Y240100D01*
G01D02*
X294150D01*
G01X296300Y272150D02*
X290100D01*
G01X296300D02*
X303100D01*
X304800Y273850D01*
G01X300000Y265450D02*
Y268500D01*
G01X296300Y277250D02*
Y279702D01*
G01X293648Y277250D02*
X296300D01*
G01D02*
X298952D01*
G01X290100D02*
Y279702D01*
G01X287448Y277250D02*
X290100D01*
G01D02*
X292752D01*
G01X300498Y284350D02*
X304800D01*
G01D02*
X309102D01*
G01X381000Y70450D02*
X379500Y69950D01*
Y66500D01*
G01X383000Y33950D02*
X383600Y33350D01*
Y30150D01*
G01X388000Y21000D02*
Y24000D01*
G01D02*
Y26500D01*
G01X394000Y24000D02*
X388000D01*
G01X393000Y33000D02*
X392950Y33050D01*
G01D02*
Y37000D01*
G01X398050D02*
X404400D01*
X404500Y36900D01*
G01X391800Y240850D02*
Y237300D01*
G01D02*
X391500Y237000D01*
G01X416050Y21348D02*
Y24000D01*
G01D02*
Y26652D01*
G01Y24000D02*
X418502D01*
G01X405000D02*
Y32900D01*
X404500Y33400D01*
Y36900D01*
G01X410950Y24000D02*
X405000D01*
G01X415118Y43339D02*
X408889D01*
X408650Y43100D01*
X404500D01*
G01X429900Y250750D02*
Y247600D01*
G01X427248Y250750D02*
X429900D01*
G01D02*
X432552D01*
G01X437650Y281800D02*
X437555Y281705D01*
Y276945D01*
X439500Y275000D01*
G01X427150Y277498D02*
Y281800D01*
G01D02*
Y286102D01*
G01X423848Y281800D02*
X427150D01*
G01X445900Y251050D02*
Y248100D01*
G01X444900Y281050D02*
Y276800D01*
G01X451000Y281050D02*
Y277400D01*
G01X445900Y268500D02*
Y272450D01*
G01X453150Y268600D02*
X450200D01*
X450100Y268500D01*
X445900D01*
G01X458250Y265948D02*
Y268600D01*
G01D02*
Y271252D01*
G01Y268600D02*
X460702D01*
G01X448348Y286150D02*
X451000D01*
G01D02*
X453652D01*
G01X442248D02*
X444900D01*
G01D02*
X447552D01*
G01X472000Y250750D02*
Y247500D01*
G54D39*
X394000Y24000D03*
X405000D03*
G54D49*
G01X29500Y40250D02*
Y49400D01*
G01X40445Y45705D02*
X38650Y47500D01*
X36000D01*
X34100Y49400D01*
X29500D01*
G01X21000Y55600D02*
Y60000D01*
G01Y63450D02*
Y60000D01*
G01X29500Y55600D02*
Y60000D01*
G01Y63450D02*
Y60000D01*
G01X40445Y45705D02*
Y56395D01*
X40500Y56450D01*
G01X49500Y45705D02*
Y52500D01*
G01X88500Y251295D02*
Y244500D01*
G01X97500Y240550D02*
Y251240D01*
X97555Y251295D01*
G01X109500Y266750D02*
Y257600D01*
G01X97555Y251295D02*
Y252555D01*
X102600Y257600D01*
X109500D01*
G01Y251400D02*
Y247000D01*
G01D02*
Y243550D01*
G01X118000Y251400D02*
Y247000D01*
G01D02*
Y243550D01*
G01X180950Y71000D02*
Y64500D01*
G01X186050Y77500D02*
X191450D01*
G01X180950D02*
Y84000D01*
G01X186050Y71000D02*
X191450D01*
G01X203000Y71450D02*
X208322D01*
X211366Y68406D01*
G01X203000Y71450D02*
X202550Y71000D01*
X196550D01*
G01X203000Y76550D02*
X202050Y77500D01*
X196550D01*
G01X203000Y76550D02*
X207700Y76600D01*
X208747D01*
X211300Y79226D01*
G01X225700Y209550D02*
Y214950D01*
G01Y204450D02*
X219200D01*
G01X226650Y226500D02*
X225700Y225550D01*
Y220050D01*
G01X226650Y230870D02*
Y226500D01*
G01X236957Y68957D02*
X241000Y73000D01*
X247650D01*
X247700Y72950D01*
X251500D01*
G01X232200Y209550D02*
Y214950D01*
G01Y204450D02*
X238700D01*
G01X232200Y220050D02*
Y226050D01*
X231750Y226500D01*
G01Y229789D02*
Y226500D01*
G01X243200Y263450D02*
Y258050D01*
G01X261050Y73000D02*
X265450D01*
X265500Y72950D01*
G01X269950Y73000D02*
X265550D01*
X265500Y72950D01*
G01X255950Y73000D02*
X251550D01*
X251500Y72950D01*
G01X280500D02*
X283450Y70000D01*
Y68500D01*
G01X280500Y72950D02*
X280450Y73000D01*
X275050D01*
G01X279750Y252300D02*
Y258450D01*
X279400Y258800D01*
G01X270106Y259126D02*
X270432Y258800D01*
X279400D01*
G01X284850Y252300D02*
X291394D01*
X291397Y252303D01*
G01X279350Y271500D02*
Y265050D01*
X279400Y265000D01*
G01X305450Y61500D02*
X302900D01*
G01X288000Y63100D02*
Y65900D01*
X288550Y66450D01*
Y68500D01*
G01X292200D02*
X288550D01*
G01X299250Y240100D02*
G03X296174Y247526I-10502J0D01*
G01X295003Y248697D01*
G01X299250Y240100D02*
G03X304518Y227382I17986J0D01*
G01X305900Y226000D01*
X305950D01*
X309950Y222000D01*
Y221800D01*
G01X300000Y260350D02*
X304900D01*
X305450Y260900D01*
G01X300000Y260350D02*
Y260300D01*
X295503Y255803D01*
G01X335645Y35000D02*
X325000D01*
X320162Y39838D01*
Y57056D01*
X320303Y57197D01*
G01X316797Y60997D02*
X316597Y61197D01*
X312500Y61200D01*
X310853Y61197D01*
X310550Y61500D01*
G01X328550Y75727D02*
X328323Y75500D01*
X324000D01*
X320303Y71803D01*
Y64703D01*
X320403Y64603D01*
G01X315050Y221800D02*
X324845D01*
G01X317750Y262527D02*
X316123Y260900D01*
X310550D01*
G01X356100Y263350D02*
X324400D01*
G01X366600Y76450D02*
X334900D01*
G01X355555Y221800D02*
X366000D01*
X371338Y227138D01*
Y252356D01*
X371197Y252497D01*
G01X362632Y262527D02*
X368673D01*
X371197Y260003D01*
G01X366355Y35000D02*
X375300D01*
X379350Y39050D01*
X383000D01*
G01X393697Y56303D02*
X388000Y62000D01*
Y71350D01*
X383800Y75550D01*
X381000D01*
G01D02*
X379823Y75727D01*
X373432D01*
G01X381250Y255900D02*
X375006D01*
X374803Y256103D01*
G01X393897Y48897D02*
X384050Y39050D01*
X383000D01*
G01X397303Y52697D02*
X398000Y52000D01*
X402950D01*
G01X397250Y255900D02*
X397100Y256050D01*
X391800D01*
G01X386350Y255900D02*
X386500Y256050D01*
X391800D01*
G01Y250950D02*
Y245950D01*
G01X415118Y60661D02*
X422401D01*
G01X415118Y52000D02*
X408050D01*
G01X409994Y255826D02*
X406394D01*
X406320Y255900D01*
X402350D01*
G01X422401Y60661D02*
X423189Y61449D01*
G01X440450Y255900D02*
X440600Y256050D01*
X441600D01*
X445900Y256150D01*
G01X421806Y255826D02*
X426182Y255850D01*
X429900D01*
G01D02*
X435300D01*
X435350Y255900D01*
G01X454882Y43339D02*
X442875D01*
G01D02*
X442087Y42551D01*
G01X454882Y60661D02*
X447599D01*
G01D02*
X446811Y61449D01*
G01X463450Y52000D02*
X454882D01*
G01X445900Y256150D02*
Y262300D01*
G01Y256150D02*
X446550Y256000D01*
X451250D01*
X451350Y255900D01*
G01X461450D02*
X456450D01*
G01X468550Y52000D02*
X475500D01*
G01X472000Y255850D02*
X466800D01*
X466550Y255900D01*
G01X477450Y256000D02*
X477300Y255850D01*
X472000D01*
G01X482550Y256000D02*
X485950D01*
M02*
