G04 ================== begin FILE IDENTIFICATION RECORD ==================*
G04 Layout Name:  X:/range_0193/RNRAD1-RF-COMBO-R5.brd*
G04 Film Name:    solder_bot*
G04 File Format:  Gerber RS274X*
G04 File Origin:  Cadence Allegro 16.3-S042*
G04 Origin Date:  Thu Mar 22 10:00:05 2012*
G04 *
G04 Layer:  VIA CLASS/SOLDERMASK_BOTTOM*
G04 Layer:  PIN/SOLDERMASK_BOTTOM*
G04 Layer:  PACKAGE GEOMETRY/SOLDERMASK_BOTTOM*
G04 Layer:  DRAWING FORMAT/SOLDER_BOT*
G04 Layer:  DRAWING FORMAT/FILM_BLOCK_CHANGE*
G04 Layer:  DRAWING FORMAT/FILM_TITLE_BLOCK*
G04 Layer:  BOARD GEOMETRY/OUTLINE*
G04 Layer:  BOARD GEOMETRY/SOLDERMASK_BOTTOM*
G04 *
G04 Offset:    (0.00 0.00)*
G04 Mirror:    No*
G04 Mode:      Positive*
G04 Rotation:  0*
G04 FullContactRelief:  No*
G04 UndefLineWidth:     6.00*
G04 ================== end FILE IDENTIFICATION RECORD ====================*
%FSLAX25Y25*MOIN*%
%IR0*IPPOS*OFA0.00000B0.00000*MIA0B0*SFA1.00000B1.00000*%
%ADD15C,.02*%
%ADD14C,.06*%
%ADD12C,.024*%
%ADD17C,.07*%
%ADD24C,.08*%
%ADD13C,.09*%
%ADD10C,.2*%
%ADD19R,.028X.032*%
%ADD18R,.032X.028*%
%ADD16R,.09X.016*%
%ADD11C,.125*%
%ADD21R,.052X.039*%
%ADD23R,.065X.045*%
%ADD20R,.039X.052*%
%ADD22R,.045X.065*%
%ADD25C,.01*%
%ADD26C,.004*%
%ADD27C,.005*%
%ADD28C,.006*%
G75*
%LPD*%
G75*
G54D10*
X0Y0D03*
Y300000D03*
X520000Y0D03*
Y300000D03*
G54D20*
X186600Y63000D03*
X180400D03*
G54D11*
X20700Y19700D03*
X20800Y281100D03*
X470000Y280000D03*
G54D21*
X239700Y210600D03*
Y204400D03*
G54D12*
X15000Y27500D03*
Y41300D03*
Y52500D03*
Y65000D03*
Y77500D03*
Y90000D03*
Y102500D03*
Y116800D03*
Y127500D03*
Y170000D03*
Y182500D03*
Y195000D03*
Y207500D03*
Y220000D03*
Y232500D03*
Y245000D03*
Y257500D03*
Y270000D03*
X27500Y15000D03*
X33500Y91723D03*
Y98022D03*
Y104322D03*
Y110621D03*
Y116920D03*
Y129519D03*
Y164164D03*
Y183062D03*
Y170500D03*
Y189361D03*
Y195660D03*
Y201960D03*
X31000Y258250D03*
X30000Y272500D03*
X22500Y291000D03*
X30000Y285000D03*
X22500Y308500D03*
X39500Y15000D03*
X44500Y28000D03*
X54500D03*
X49500Y31500D03*
X44500Y34500D03*
X54500D03*
X49500Y38500D03*
X40500Y66500D03*
X49500D03*
Y52500D03*
X47500Y94873D03*
Y101172D03*
Y107471D03*
Y88574D03*
X56000D03*
X47500Y113771D03*
Y120070D03*
X55500Y114500D03*
X47300Y179912D03*
X56000D03*
Y170463D03*
Y175500D03*
X47500Y173613D03*
Y167314D03*
X47300Y186211D03*
Y192511D03*
Y198810D03*
X55800D03*
Y189361D03*
X42500Y272500D03*
X44500Y291000D03*
X42500Y285000D03*
X55000D03*
X44500Y308500D03*
X75000Y15000D03*
X59500D03*
X58500Y53500D03*
X72500Y77500D03*
X70000Y91723D03*
Y101172D03*
Y110621D03*
Y135818D03*
Y144484D03*
X63500Y291000D03*
X67500Y285000D03*
X63500Y308500D03*
X93800Y15000D03*
X88500Y230500D03*
X95000D03*
X87500Y222500D03*
X88500Y259000D03*
Y244500D03*
X79500Y243500D03*
X88500Y265500D03*
X83000Y268500D03*
X94000D03*
Y262500D03*
X83000D03*
X82000Y291000D03*
X92100Y283800D03*
X80000Y285000D03*
X82000Y308500D03*
X115000Y15000D03*
X102500D03*
X105500Y38750D03*
X114600Y100300D03*
X109000Y124000D03*
X115000Y117500D03*
Y145000D03*
Y196000D03*
Y187500D03*
X111000Y291000D03*
X105000Y285000D03*
X111000Y308500D03*
X124600Y100100D03*
X127500Y196000D03*
X125500Y257500D03*
X123500Y249500D03*
X123000Y275500D03*
X127500Y266000D03*
X117500Y265000D03*
X130000Y291000D03*
Y285000D03*
X117500D03*
X130000Y308500D03*
X145000Y15000D03*
X136500Y100100D03*
X145000Y117500D03*
Y130000D03*
Y174500D03*
Y189500D03*
X143000Y196000D03*
X135000Y274000D03*
X147000Y291000D03*
X142500Y285000D03*
X147000Y308500D03*
X170000Y15000D03*
X157500D03*
X162500Y135000D03*
X159000Y174500D03*
X162500Y187500D03*
X170500Y234500D03*
X170000Y253000D03*
Y242000D03*
X165500Y246500D03*
X167000Y279500D03*
X165500Y291000D03*
X167500Y285000D03*
X155000D03*
X165500Y308500D03*
X182500Y15000D03*
X175000Y135000D03*
X187500D03*
Y174500D03*
X174500D03*
X183000Y202500D03*
X190000Y195500D03*
X176000D03*
X187500Y189500D03*
X175000D03*
X188500Y209000D03*
X178000D03*
X188000Y241000D03*
X177000D03*
X182500Y235500D03*
X188000Y249000D03*
X177000D03*
X182500Y255000D03*
Y279000D03*
X182000Y291000D03*
X180000Y285000D03*
X182000Y308500D03*
X207500Y15000D03*
X195000D03*
X200000Y135000D03*
X195500Y192500D03*
X202000Y199000D03*
X193000Y202500D03*
X208500Y205500D03*
X206500Y211500D03*
X198000Y209000D03*
X195000Y241500D03*
X203000D03*
X198000Y237000D03*
X206500Y234500D03*
X207000Y249000D03*
X198000D03*
X202000Y256000D03*
X193500Y255500D03*
X210500Y256000D03*
X194000Y278500D03*
X203500Y278000D03*
X205000Y291000D03*
Y285000D03*
X195300Y285300D03*
X205000Y308500D03*
X222600Y15300D03*
X212500Y135000D03*
X225000D03*
X211000Y241500D03*
X228100Y247900D03*
X228900Y251300D03*
X224200Y247600D03*
X220000Y247700D03*
X217500Y251000D03*
Y245000D03*
X217000Y278000D03*
X217500Y291000D03*
X227000Y285500D03*
X217500Y285000D03*
Y308500D03*
X231900Y23800D03*
X245000Y15000D03*
X232500D03*
X237500Y135000D03*
X245500Y210000D03*
X241500Y217500D03*
X236300Y252400D03*
X235100Y246800D03*
X231800Y248000D03*
X230300Y244600D03*
X248500Y251100D03*
X240000Y246500D03*
X235500Y243500D03*
X242000Y278200D03*
X242500Y291000D03*
X230000D03*
X236000Y285000D03*
X249000Y280500D03*
X242500Y285000D03*
Y308500D03*
X230000D03*
X261800Y26100D03*
X252700D03*
X257500Y15000D03*
X265500Y85000D03*
X262900Y123000D03*
X250000Y135000D03*
X262500D03*
Y165000D03*
X261500Y178000D03*
X256000Y200500D03*
X263000Y207500D03*
X256000Y236000D03*
X250500Y226000D03*
X262500Y227500D03*
X264500Y246000D03*
X261000Y243000D03*
X267500Y250000D03*
X261000D03*
X267500Y242500D03*
X255800Y252900D03*
X264200Y253800D03*
Y268200D03*
X266500Y271500D03*
X259500Y275000D03*
X257500Y279000D03*
X262000Y271500D03*
X264200Y275000D03*
Y264500D03*
X265500Y281500D03*
X262500Y285000D03*
X267500Y291000D03*
X255000D03*
Y285000D03*
X267500Y308500D03*
X255000D03*
X275000Y27500D03*
X282500Y15000D03*
X270000D03*
X275000Y40000D03*
X276800Y82000D03*
X275000Y107500D03*
X275200Y112500D03*
X275400Y123000D03*
X275000Y135000D03*
Y165000D03*
Y177500D03*
X274000Y201000D03*
X275000Y190000D03*
Y215000D03*
X277000Y235000D03*
X281500Y226500D03*
X270500Y246000D03*
X277500Y244000D03*
X274000Y253000D03*
X269000Y275000D03*
X283000Y279500D03*
X275000D03*
X269500D03*
X285000Y285000D03*
X278000D03*
X270500D03*
X280000Y291000D03*
Y308500D03*
X295000Y15000D03*
X305100Y71100D03*
X291500Y83100D03*
X288600Y88700D03*
X287500Y97500D03*
X300200Y112500D03*
X287700D03*
X300400Y123000D03*
X287900D03*
X287500Y135000D03*
X300000D03*
X287500Y165000D03*
X300000D03*
X287500Y177500D03*
X300000D03*
X287500Y202500D03*
X300000D03*
X287500Y190000D03*
X300000D03*
X299000Y220500D03*
X287500Y215000D03*
X300000D03*
X294000Y226500D03*
X290500Y235500D03*
X304000Y251500D03*
X288000Y243500D03*
X296000Y268000D03*
X288500D03*
Y262000D03*
X295800Y284500D03*
X305000Y291000D03*
X290300Y283600D03*
X292500Y308500D03*
X305000D03*
X307500Y27500D03*
X320000Y15000D03*
X307500D03*
X311500Y45000D03*
X307500Y87500D03*
X324800Y102300D03*
Y112500D03*
X312700D03*
X312500Y122500D03*
X325000D03*
X312500Y135000D03*
X325000D03*
X312500Y165000D03*
X325000D03*
X312500Y177500D03*
X325000D03*
Y202500D03*
X312500D03*
Y190000D03*
X325000D03*
X324500Y213000D03*
X312500Y213500D03*
X308000Y238500D03*
X314000Y230500D03*
X317000Y242000D03*
X307500Y245000D03*
X312000Y252000D03*
X319500D03*
X318500Y271500D03*
X310500Y269500D03*
X312300Y284500D03*
X317500Y291000D03*
X320700Y284500D03*
X317500Y308500D03*
X335000Y23600D03*
X332500Y15000D03*
X331300Y96300D03*
X344000Y96100D03*
X337300Y102300D03*
Y112500D03*
X337500Y122500D03*
Y135000D03*
Y165000D03*
Y177500D03*
Y202500D03*
Y190000D03*
X340500Y211000D03*
X331500Y216000D03*
X341000Y227000D03*
X340500Y237000D03*
X326000Y236000D03*
X329500Y229500D03*
X333500Y247000D03*
X328500Y255000D03*
X336500Y278000D03*
X326000D03*
X342500Y291000D03*
X330000D03*
X342500Y285000D03*
X330000D03*
X342500Y308500D03*
X330000D03*
X345200Y23800D03*
X356300Y23400D03*
X357500Y15000D03*
X345000D03*
X348200Y49500D03*
X356300Y96100D03*
X362300Y102300D03*
X349800D03*
X362300Y112500D03*
X349800D03*
X350000Y122500D03*
X362500D03*
X350000Y135000D03*
X362500D03*
X350000Y165000D03*
X362500D03*
X350000Y177500D03*
X362500D03*
X350000Y202500D03*
X361500D03*
X350000Y190000D03*
X362500D03*
X360500Y213000D03*
X349500Y215500D03*
X354000Y237000D03*
X351000Y229500D03*
X362500Y230500D03*
Y237500D03*
X350000Y245500D03*
X362500D03*
Y254000D03*
X362000Y271500D03*
X349500Y278000D03*
X355000Y291000D03*
Y285000D03*
Y308500D03*
X369500Y23400D03*
X382500Y15000D03*
X370000D03*
X364800Y49500D03*
X380500Y48000D03*
X367200Y63400D03*
X379500Y58500D03*
Y66500D03*
X369000Y96300D03*
X375700Y101900D03*
X381000Y90500D03*
X375700Y112100D03*
X375000Y122500D03*
Y135000D03*
Y165000D03*
Y177500D03*
Y202500D03*
Y190000D03*
Y215000D03*
X380000Y228000D03*
Y247000D03*
X378500Y265000D03*
X372500Y271500D03*
X380000Y291000D03*
X367500D03*
X380000Y285000D03*
X367500D03*
X380000Y308500D03*
X367500D03*
X395000Y15000D03*
X389750Y32450D03*
X385050Y52550D03*
X401400Y71300D03*
X400000Y85000D03*
X387500D03*
X400000Y97500D03*
X387500D03*
X400000Y110000D03*
X387500D03*
X400000Y122500D03*
X387500D03*
Y135000D03*
X400000D03*
X387500Y165000D03*
X400000D03*
Y177500D03*
X387500D03*
X400000Y202500D03*
X387500D03*
X400000Y190000D03*
X387500D03*
X400000Y215000D03*
X387500D03*
X385000Y240500D03*
X391500Y237000D03*
X400000Y227500D03*
X387500D03*
X400500Y247500D03*
X391500Y265000D03*
X400500Y272500D03*
X386200Y275500D03*
X398400Y290800D03*
X395100Y285300D03*
X397000Y308500D03*
X420000Y24000D03*
Y27500D03*
X417500Y19000D03*
X420000Y15000D03*
X407500D03*
X420200Y79200D03*
X407200Y78700D03*
X412500Y85000D03*
Y97500D03*
Y110000D03*
Y122500D03*
Y135000D03*
Y165000D03*
Y177500D03*
Y202500D03*
Y190000D03*
Y215000D03*
X405800Y237100D03*
X412500Y227500D03*
X415900Y250700D03*
X412700Y246900D03*
X419200D03*
X416200Y242900D03*
X409700D03*
X415900Y271800D03*
X420700D03*
X413700Y268300D03*
X418200D03*
X415900Y261300D03*
Y265000D03*
X411200Y271800D03*
X415000Y291000D03*
X421200Y285000D03*
X413000D03*
X404000D03*
X415000Y308500D03*
X432500Y27500D03*
Y15000D03*
X432200Y78000D03*
X437500Y85000D03*
X425000D03*
X437500Y97500D03*
X425000D03*
X437500Y110000D03*
X425000D03*
X437500Y122500D03*
X425000D03*
Y135000D03*
X437500D03*
X425000Y165000D03*
X437500D03*
Y177500D03*
X425000D03*
X437500Y202500D03*
X425000D03*
X437500Y190000D03*
X425000D03*
X437500Y215000D03*
X425000D03*
X437500Y240000D03*
X428200Y235100D03*
X437500Y227500D03*
X425000D03*
X422200Y242900D03*
X439500Y275000D03*
X427500Y274500D03*
X434000Y291000D03*
Y308500D03*
X457500Y27500D03*
X445000D03*
X457500Y15000D03*
X445000D03*
X455200Y79900D03*
X444700Y78900D03*
X450000Y85000D03*
Y97500D03*
Y110000D03*
Y122500D03*
Y135000D03*
Y165000D03*
Y177500D03*
Y202500D03*
Y190000D03*
Y215000D03*
Y240000D03*
Y227500D03*
X442000Y247500D03*
X452500Y291000D03*
Y308500D03*
X470000Y27500D03*
X475000Y20000D03*
X470000Y15000D03*
X462500Y43500D03*
X468600Y38200D03*
X475000Y32500D03*
X474900Y43650D03*
X462500Y61000D03*
X469600Y66300D03*
X474900Y60650D03*
X469100Y77300D03*
X462500Y85000D03*
X475000Y72500D03*
Y85000D03*
X462500Y97500D03*
X475000D03*
X462500Y110000D03*
Y122500D03*
X475000Y110000D03*
Y122500D03*
X462500Y135000D03*
X475000D03*
X462500Y165000D03*
X475000D03*
X462500Y177500D03*
X475000D03*
X462500Y202500D03*
Y190000D03*
X475000D03*
Y202500D03*
X462500Y215000D03*
X475000D03*
X462500Y227500D03*
X475000D03*
Y240000D03*
X460950Y247150D03*
X462500Y271500D03*
X472000Y265500D03*
X475000Y272500D03*
X467000Y264900D03*
X471000Y291000D03*
X460500Y284100D03*
X471000Y308500D03*
X487500Y291000D03*
Y308500D03*
X505500Y291000D03*
Y308500D03*
G54D22*
X245350Y245700D03*
X255850D03*
G54D13*
X8000Y37500D03*
Y112500D03*
Y187500D03*
Y262500D03*
X90000Y8000D03*
Y292000D03*
X130000Y112500D03*
Y187500D03*
X190000Y8000D03*
Y150000D03*
Y292000D03*
X290000Y8000D03*
Y150000D03*
Y292000D03*
X390000Y8000D03*
Y150000D03*
Y292000D03*
X490000Y37500D03*
Y112500D03*
Y187500D03*
Y269500D03*
G54D23*
X241300Y263250D03*
Y273750D03*
G54D14*
X17500Y133500D03*
Y148500D03*
Y163500D03*
X27500Y114000D03*
Y133500D03*
Y148500D03*
Y163500D03*
G54D24*
X515000Y52000D03*
X505000Y42000D03*
Y62000D03*
Y245829D03*
X515000Y255829D03*
X505000Y265829D03*
X525000Y42000D03*
Y62000D03*
Y245829D03*
Y265829D03*
G54D15*
X29500Y25000D03*
X21000Y45000D03*
Y60000D03*
X29500D03*
Y72000D03*
X21000D03*
X33500Y132668D03*
X35500Y238500D03*
X25000Y252000D03*
X35400D03*
X25000Y272000D03*
X54000Y124500D03*
X55500Y110500D03*
X47500Y123400D03*
X56000Y142117D03*
X47467Y138967D03*
X53500Y132500D03*
X47500Y135818D03*
Y145267D03*
X53500Y136000D03*
X47500Y148416D03*
Y151566D03*
Y154715D03*
Y157865D03*
X56000Y160000D03*
X47485Y161015D03*
X56000Y237000D03*
Y225000D03*
X45500Y238500D03*
X45600Y269500D03*
X50500Y267250D03*
X41500Y262000D03*
X50000D03*
X64000Y29750D03*
X74400Y49400D03*
X69500Y45000D03*
Y60000D03*
Y72000D03*
X70000Y107471D03*
Y104322D03*
Y98022D03*
Y94873D03*
X73500Y117000D03*
Y113000D03*
X73000Y138000D03*
X70000Y153000D03*
X69865Y157865D03*
X69800Y164164D03*
X72500Y167516D03*
X70000Y183062D03*
X69960Y201960D03*
X70000Y192511D03*
Y195660D03*
Y186211D03*
X67000Y237000D03*
X73500D03*
X67000Y225000D03*
Y252000D03*
X62100Y247600D03*
X72500Y267250D03*
X86000Y29750D03*
X95000Y35000D03*
X86500D03*
X91000Y58500D03*
X80500Y60000D03*
Y72000D03*
X82000Y80000D03*
X79500Y124500D03*
Y129500D03*
X92500Y140500D03*
X92784Y144484D03*
X77500Y157000D03*
Y150500D03*
X80500Y164500D03*
X93000Y154720D03*
X80800Y146000D03*
X80500Y167516D03*
X111500Y25000D03*
X101100Y45000D03*
X111500D03*
X99500Y58850D03*
X103700Y118500D03*
X98800Y144500D03*
X109500Y130000D03*
X105500D03*
Y156500D03*
X97500Y172450D03*
X105500Y168500D03*
X100000Y192500D03*
X114000Y238450D03*
X109500Y247000D03*
Y282000D03*
X118000Y247000D03*
X151050Y65500D03*
X142500Y69500D03*
X134500Y82000D03*
X145450Y223500D03*
Y259900D03*
X167500Y49000D03*
X172000Y61000D03*
X161000Y52450D03*
X157000Y63000D03*
X154500Y65500D03*
Y68500D03*
X161500Y61000D03*
X165016D03*
X168500D03*
X171000Y84000D03*
X154516Y73484D03*
X166000Y84000D03*
X168500Y96000D03*
X162500D03*
X156000D03*
X175700Y41950D03*
X178500Y49000D03*
X185000Y44000D03*
Y35000D03*
X189000Y42400D03*
X176100Y65097D03*
X186600Y58000D03*
X189100Y52600D03*
X191000Y64500D03*
X189500Y84000D03*
X177400Y79300D03*
X177550Y69499D03*
X203500Y47000D03*
X204000Y41500D03*
X207000Y39000D03*
X196500Y38000D03*
X207000Y44000D03*
X204000Y52600D03*
X207200Y181000D03*
Y187500D03*
Y194000D03*
X228000Y68500D03*
X226000Y56500D03*
X222000D03*
X213000D03*
X223500Y70500D03*
X227000Y72500D03*
X219000Y71500D03*
X223450Y77500D03*
X228550D03*
X221500Y91500D03*
X213000D03*
X220000Y120900D03*
Y115100D03*
X212950Y176600D03*
X229716Y178016D03*
X228200Y173550D03*
X223800Y200600D03*
X219200Y189500D03*
Y194500D03*
Y213000D03*
X214000Y211000D03*
X222200Y251500D03*
X225420D03*
X226200Y244000D03*
X222200D03*
X225007Y265627D03*
X248000Y40000D03*
X240500Y44000D03*
X234000D03*
X246000Y56500D03*
X247500Y64500D03*
X232000Y56500D03*
X238500D03*
X233500Y77500D03*
X248000Y81500D03*
X247000Y107500D03*
X236000Y91500D03*
X239500Y104000D03*
X239516Y91500D03*
X233000Y104000D03*
X232500Y91500D03*
X245500D03*
X236277Y168577D03*
X243200Y180500D03*
X238200Y177500D03*
X234700Y178000D03*
X242200Y188516D03*
Y192000D03*
X232700Y201000D03*
X235621D03*
X242200Y195500D03*
X246200Y184500D03*
X238700Y215000D03*
X235200Y230400D03*
X245350Y238650D03*
X238457Y236500D03*
X233098Y251700D03*
X237500Y249400D03*
X235500Y277000D03*
X267000Y43000D03*
X250950Y47450D03*
X267000Y58500D03*
X257000Y58000D03*
X258500Y65000D03*
X251000Y53000D03*
X258500Y81500D03*
X266000Y89000D03*
X252000Y92950D03*
X266000Y104500D03*
X250000Y100550D03*
X254585Y187900D03*
X264700Y195500D03*
X256800Y191600D03*
X250750Y206000D03*
X254500Y217100D03*
X253500Y275000D03*
X285500Y29500D03*
X274500Y45000D03*
X284500Y50000D03*
X274500Y57000D03*
X279500Y61000D03*
X272500Y65000D03*
Y81500D03*
X273500Y90500D03*
Y102500D03*
X284450Y276350D03*
X272500Y276500D03*
X290500Y29500D03*
X294000Y57000D03*
X298500Y58000D03*
X303552Y53052D03*
X288500Y77500D03*
X302000Y73000D03*
X297500Y72000D03*
X321300Y26600D03*
X311950Y35500D03*
X311550Y52800D03*
X317150Y80950D03*
X311550Y70200D03*
X331800Y26600D03*
X340250Y28050D03*
X344000Y35900D03*
X339950Y42800D03*
X330650Y43750D03*
X328850Y51350D03*
X328250Y60950D03*
X333300Y68350D03*
X341500Y60000D03*
X329350Y84550D03*
X337400Y90950D03*
X333500Y222500D03*
X338500Y255000D03*
X363350Y26500D03*
X360600Y41700D03*
X358150Y32750D03*
X348600Y68250D03*
X360600Y68150D03*
X355000Y60000D03*
X351750Y91050D03*
X347000Y222500D03*
X350500Y255000D03*
X370900Y26250D03*
X378800Y26550D03*
X371700Y43850D03*
X371100Y67550D03*
X382000Y84500D03*
X372500D03*
X370300Y91050D03*
X383600Y30150D03*
X388000Y26500D03*
Y21000D03*
X396500Y65500D03*
X395000Y76500D03*
X407500Y60500D03*
X407200Y247200D03*
X434000Y247500D03*
X424700Y247100D03*
X436700Y264200D03*
X438000Y270950D03*
X431500Y269500D03*
X456500Y241000D03*
X451500Y247500D03*
X445900Y272450D03*
X444900Y276800D03*
X451000Y277400D03*
X471900Y46900D03*
X468500Y59000D03*
X475500Y52000D03*
X467500Y241000D03*
X475500Y247500D03*
X460500Y279500D03*
X489700Y47400D03*
X480000Y47200D03*
X489200Y57200D03*
X480500Y57000D03*
X497600Y260600D03*
X497700Y251600D03*
X490700Y251500D03*
X490300Y260600D03*
X483000Y252200D03*
X482600Y259900D03*
X485950Y256000D03*
X497600Y268100D03*
X515000Y44500D03*
X508750Y47500D03*
X510000Y35000D03*
X502500D03*
X498400Y39900D03*
Y47400D03*
X515000Y59500D03*
X509000Y56500D03*
X510000Y69000D03*
X502500D03*
X497900Y64700D03*
Y57200D03*
X510000Y238500D03*
X503000D03*
X508750Y251500D03*
X509000Y260500D03*
X515000Y248250D03*
X497750Y244000D03*
X515000Y263500D03*
X510000Y273250D03*
X502500D03*
X522000Y49000D03*
X525000Y35000D03*
X517500D03*
X522000Y55000D03*
X525000Y69000D03*
X517500D03*
X525000Y238500D03*
X517500D03*
X522000Y253000D03*
Y259000D03*
X525000Y273250D03*
X517500D03*
G54D25*
G01X58000Y-171000D02*
X175500D01*
G01X58000Y-168000D02*
X175500D01*
G54D16*
X40303Y104322D03*
Y101172D03*
Y98022D03*
Y94873D03*
Y91723D03*
Y88574D03*
Y123219D03*
Y120070D03*
Y116920D03*
Y113771D03*
Y110621D03*
Y107471D03*
Y142117D03*
Y138967D03*
Y135818D03*
Y132668D03*
Y129519D03*
Y126369D03*
Y164164D03*
Y161015D03*
Y157865D03*
Y154715D03*
Y151566D03*
Y148416D03*
Y145267D03*
Y183062D03*
Y179912D03*
Y176763D03*
Y173613D03*
Y170463D03*
Y167314D03*
Y201960D03*
Y198810D03*
Y195660D03*
Y192511D03*
Y189361D03*
Y186211D03*
Y211408D03*
Y208259D03*
Y205109D03*
X62855Y104322D03*
Y101172D03*
Y98022D03*
Y94873D03*
Y91723D03*
Y88574D03*
Y123219D03*
Y120070D03*
Y116920D03*
Y113771D03*
Y110621D03*
Y107471D03*
Y142117D03*
Y138967D03*
Y135818D03*
Y132668D03*
Y129519D03*
Y126369D03*
Y164164D03*
Y161015D03*
Y157865D03*
Y154715D03*
Y151566D03*
Y148416D03*
Y145267D03*
Y183062D03*
Y179912D03*
Y176763D03*
Y173613D03*
Y170463D03*
Y167314D03*
Y201960D03*
Y198810D03*
Y195660D03*
Y192511D03*
Y189361D03*
Y186211D03*
Y211408D03*
Y208259D03*
Y205109D03*
G54D26*
G01X88690Y-174900D02*
X89610D01*
G01X89150D02*
Y-178000D01*
G01X88690D02*
X89610D01*
G01X92250Y-174900D02*
Y-178000D01*
G01X91368Y-174900D02*
X93132D01*
G01X97990D02*
X98910D01*
G01X98450D02*
Y-178000D01*
G01X97990D02*
X98910D01*
G01X100745Y-177587D02*
X101052Y-177845D01*
X101397Y-178000D01*
X101703D01*
X102010Y-177845D01*
X102240Y-177587D01*
X102355Y-177225D01*
X102278Y-176863D01*
X102087Y-176553D01*
X101742Y-176347D01*
X101282Y-176243D01*
X101013Y-176037D01*
X100898Y-175675D01*
X100975Y-175313D01*
X101167Y-175055D01*
X101435Y-174900D01*
X101703D01*
X101972Y-175003D01*
X102202Y-175262D01*
G01X106983Y-178000D02*
Y-174900D01*
X107942D01*
X108248Y-175055D01*
X108440Y-175262D01*
X108517Y-175675D01*
X108440Y-176088D01*
X108210Y-176347D01*
X107942Y-176502D01*
X106983D01*
G01X107942D02*
X108517Y-178000D01*
G01X110850D02*
X110543Y-177948D01*
X110275Y-177742D01*
X110045Y-177432D01*
X109892Y-177070D01*
X109815Y-176657D01*
Y-176243D01*
X109892Y-175830D01*
X110045Y-175468D01*
X110275Y-175158D01*
X110543Y-174952D01*
X110850Y-174900D01*
X111157Y-174952D01*
X111425Y-175158D01*
X111655Y-175468D01*
X111808Y-175830D01*
X111885Y-176243D01*
Y-176657D01*
X111808Y-177070D01*
X111655Y-177432D01*
X111425Y-177742D01*
X111157Y-177948D01*
X110850Y-178000D01*
G01X114793Y-175158D02*
X114563Y-175003D01*
X114295Y-174900D01*
X113988D01*
X113643Y-175055D01*
X113375Y-175313D01*
X113183Y-175623D01*
X113030Y-176140D01*
X112992Y-176605D01*
X113068Y-177070D01*
X113183Y-177380D01*
X113413Y-177690D01*
X113682Y-177897D01*
X113950Y-178000D01*
X114218D01*
X114487Y-177897D01*
X114717Y-177742D01*
X114908Y-177535D01*
G01X116207Y-178000D02*
Y-174900D01*
G01X117663D02*
X116207Y-176812D01*
G01X117893Y-178000D02*
X116858Y-175933D01*
G01X120917Y-178000D02*
X119383D01*
Y-174900D01*
X120917D01*
G01X120303Y-176398D02*
X119383D01*
G01X123250Y-174900D02*
Y-178000D01*
G01X122368Y-174900D02*
X124132D01*
G01X128645Y-177587D02*
X128952Y-177845D01*
X129297Y-178000D01*
X129603D01*
X129910Y-177845D01*
X130140Y-177587D01*
X130255Y-177225D01*
X130178Y-176863D01*
X129987Y-176553D01*
X129642Y-176347D01*
X129182Y-176243D01*
X128913Y-176037D01*
X128798Y-175675D01*
X128875Y-175313D01*
X129067Y-175055D01*
X129335Y-174900D01*
X129603D01*
X129872Y-175003D01*
X130102Y-175262D01*
G01X133393Y-175158D02*
X133163Y-175003D01*
X132895Y-174900D01*
X132588D01*
X132243Y-175055D01*
X131975Y-175313D01*
X131783Y-175623D01*
X131630Y-176140D01*
X131592Y-176605D01*
X131668Y-177070D01*
X131783Y-177380D01*
X132013Y-177690D01*
X132282Y-177897D01*
X132550Y-178000D01*
X132818D01*
X133087Y-177897D01*
X133317Y-177742D01*
X133508Y-177535D01*
G01X135190Y-174900D02*
X136110D01*
G01X135650D02*
Y-178000D01*
G01X135190D02*
X136110D01*
G01X139517D02*
X137983D01*
Y-174900D01*
X139517D01*
G01X138903Y-176398D02*
X137983D01*
G01X140968Y-178000D02*
Y-174900D01*
X142732Y-178000D01*
Y-174900D01*
G01X145793Y-175158D02*
X145563Y-175003D01*
X145295Y-174900D01*
X144988D01*
X144643Y-175055D01*
X144375Y-175313D01*
X144183Y-175623D01*
X144030Y-176140D01*
X143992Y-176605D01*
X144068Y-177070D01*
X144183Y-177380D01*
X144413Y-177690D01*
X144682Y-177897D01*
X144950Y-178000D01*
X145218D01*
X145487Y-177897D01*
X145717Y-177742D01*
X145908Y-177535D01*
G01X148817Y-178000D02*
X147283D01*
Y-174900D01*
X148817D01*
G01X148203Y-176398D02*
X147283D01*
G54D17*
X62091Y78875D03*
Y221107D03*
G54D27*
G01X28000Y-185500D02*
X485519Y-185493D01*
G54D18*
X75500Y124450D03*
Y129550D03*
X101500Y172450D03*
Y177550D03*
X168000Y52450D03*
Y57550D03*
X174000Y52450D03*
Y57550D03*
X173500Y75050D03*
Y69950D03*
X196500Y44950D03*
Y50050D03*
X225400Y209350D03*
Y204250D03*
X218900Y209350D03*
Y204250D03*
X233700Y220250D03*
X232800Y209550D03*
Y204450D03*
X233700Y225350D03*
G54D28*
G01X-11000Y311000D02*
X531000D01*
Y-11000D01*
X-11000D01*
Y311000D01*
G01X28000Y-248000D02*
X485519Y-247974D01*
Y-207974D01*
X28000Y-208000D01*
Y-248000D01*
G01Y-228000D02*
X485519Y-227974D01*
G01X28000Y-205500D02*
X485519Y-205493D01*
Y-144982D01*
X28000Y-145000D01*
Y-205500D01*
G01X38000Y-247974D02*
X485519D01*
G01X59550Y-165000D02*
Y-152500D01*
X63425D01*
X64665Y-153125D01*
X65440Y-153958D01*
X65750Y-155625D01*
X65440Y-157292D01*
X64510Y-158333D01*
X63425Y-158958D01*
X59550D01*
G01X63425D02*
X65750Y-165000D01*
G01X75050D02*
X74120Y-164792D01*
X73190Y-163959D01*
X72570Y-162500D01*
X72260Y-160833D01*
X72570Y-159167D01*
X73190Y-157708D01*
X74120Y-156875D01*
X75050Y-156667D01*
X75980Y-156875D01*
X76910Y-157708D01*
X77530Y-159167D01*
X77685Y-160833D01*
X77530Y-162500D01*
X76910Y-163959D01*
X75980Y-164792D01*
X75050Y-165000D01*
G01X89930Y-157708D02*
X88845Y-156875D01*
X87915Y-156667D01*
X86675Y-157083D01*
X85745Y-157917D01*
X85125Y-159375D01*
X84970Y-160833D01*
X85125Y-162292D01*
X85745Y-163542D01*
X86675Y-164583D01*
X87915Y-165000D01*
X89000Y-164583D01*
X89930Y-163750D01*
G01X97215Y-165000D02*
Y-152500D01*
G01X102175Y-156667D02*
X97215Y-161458D01*
G01X99230Y-159583D02*
X102485Y-165000D01*
G01X109925Y-159375D02*
X114885D01*
X114420Y-157917D01*
X113645Y-157083D01*
X112560Y-156667D01*
X111475Y-156875D01*
X110545Y-157500D01*
X109925Y-158958D01*
X109615Y-160209D01*
Y-161458D01*
X109925Y-162708D01*
X110700Y-163959D01*
X111630Y-164792D01*
X112715Y-165000D01*
X113800Y-164583D01*
X114885Y-163334D01*
G01X124650Y-152500D02*
Y-165000D01*
G01X122480Y-156667D02*
X126820D01*
G01X152550Y-165000D02*
X146350D01*
Y-152500D01*
X152550D01*
G01X150070Y-158542D02*
X146350D01*
G01X157820Y-165000D02*
Y-152500D01*
X161850Y-162917D01*
X165880Y-152500D01*
Y-165000D01*
G01X170995Y-163334D02*
X172235Y-164375D01*
X173630Y-165000D01*
X174870D01*
X176110Y-164375D01*
X177040Y-163334D01*
X177505Y-161875D01*
X177195Y-160417D01*
X176420Y-159167D01*
X175025Y-158333D01*
X173165Y-157917D01*
X172080Y-157083D01*
X171615Y-155625D01*
X171925Y-154167D01*
X172700Y-153125D01*
X173785Y-152500D01*
X174870D01*
X175955Y-152917D01*
X176885Y-153958D01*
G01X203000Y-207974D02*
Y-247974D01*
G01Y-185493D02*
Y-205493D01*
G01Y-144982D02*
Y-185493D01*
G01X423000Y-207974D02*
Y-248000D01*
G01X32667Y-198500D02*
Y-193000D01*
X34267D01*
X34800Y-193275D01*
X35200Y-193917D01*
X35333Y-194650D01*
X35200Y-195383D01*
X34867Y-195933D01*
X34267Y-196208D01*
X32667D01*
G01X40400Y-198500D02*
Y-194833D01*
G01Y-195475D02*
X40133Y-195108D01*
X39733Y-194925D01*
X39267Y-194833D01*
X38800Y-195017D01*
X38400Y-195383D01*
X38133Y-195933D01*
X38000Y-196667D01*
X38133Y-197400D01*
X38400Y-197950D01*
X38800Y-198317D01*
X39267Y-198500D01*
X39733Y-198408D01*
X40133Y-198133D01*
X40400Y-197767D01*
G01X43467Y-198500D02*
Y-194833D01*
G01Y-195567D02*
X43800Y-195200D01*
X44133Y-194925D01*
X44600Y-194833D01*
X44933Y-194925D01*
X45333Y-195200D01*
G01X49600Y-193000D02*
Y-198500D01*
G01X48667Y-194833D02*
X50533D01*
G01X58867Y-198500D02*
Y-194833D01*
G01Y-195750D02*
X59133Y-195292D01*
X59533Y-194925D01*
X60067Y-194833D01*
X60533Y-194925D01*
X60933Y-195292D01*
X61133Y-195933D01*
Y-198500D01*
G01X64067Y-194833D02*
Y-197400D01*
X64333Y-198042D01*
X64733Y-198408D01*
X65200Y-198500D01*
X65667Y-198408D01*
X66067Y-198042D01*
X66333Y-197400D01*
G01Y-198500D02*
Y-194833D01*
G01X68400Y-198500D02*
Y-194833D01*
G01Y-195842D02*
X68600Y-195383D01*
X68933Y-195017D01*
X69400Y-194833D01*
X69867Y-195017D01*
X70200Y-195383D01*
X70400Y-195842D01*
Y-198500D01*
G01Y-195842D02*
X70600Y-195383D01*
X70933Y-195017D01*
X71400Y-194833D01*
X71867Y-195017D01*
X72200Y-195383D01*
X72400Y-195933D01*
Y-198500D01*
G01X74400D02*
Y-193000D01*
G01Y-195750D02*
X74733Y-195200D01*
X75133Y-194925D01*
X75533Y-194833D01*
X76133Y-195017D01*
X76533Y-195383D01*
X76800Y-196025D01*
Y-196758D01*
X76667Y-197492D01*
X76400Y-198042D01*
X75933Y-198408D01*
X75533Y-198500D01*
X75133Y-198408D01*
X74733Y-198133D01*
X74400Y-197675D01*
G01X79800Y-196025D02*
X81933D01*
X81733Y-195383D01*
X81400Y-195017D01*
X80933Y-194833D01*
X80467Y-194925D01*
X80067Y-195200D01*
X79800Y-195842D01*
X79667Y-196392D01*
Y-196942D01*
X79800Y-197492D01*
X80133Y-198042D01*
X80533Y-198408D01*
X81000Y-198500D01*
X81467Y-198317D01*
X81933Y-197767D01*
G01X85067Y-198500D02*
Y-194833D01*
G01Y-195567D02*
X85400Y-195200D01*
X85733Y-194925D01*
X86200Y-194833D01*
X86533Y-194925D01*
X86933Y-195200D01*
G01X91200Y-198683D02*
X91067Y-198592D01*
Y-198408D01*
X91200Y-198317D01*
X91333Y-198408D01*
Y-198592D01*
X91200Y-198683D01*
G01Y-196208D02*
X91067Y-196117D01*
Y-195933D01*
X91200Y-195842D01*
X91333Y-195933D01*
Y-196117D01*
X91200Y-196208D01*
G01X41119Y-234760D02*
X41652Y-235218D01*
X42252Y-235493D01*
X42786D01*
X43319Y-235218D01*
X43719Y-234760D01*
X43919Y-234118D01*
X43786Y-233476D01*
X43452Y-232926D01*
X42852Y-232560D01*
X42052Y-232376D01*
X41586Y-232010D01*
X41386Y-231368D01*
X41519Y-230726D01*
X41852Y-230268D01*
X42319Y-229993D01*
X42786D01*
X43252Y-230176D01*
X43652Y-230635D01*
G01X48919Y-235493D02*
Y-231826D01*
G01Y-232468D02*
X48652Y-232101D01*
X48252Y-231918D01*
X47786Y-231826D01*
X47319Y-232010D01*
X46919Y-232376D01*
X46652Y-232926D01*
X46519Y-233660D01*
X46652Y-234393D01*
X46919Y-234943D01*
X47319Y-235310D01*
X47786Y-235493D01*
X48252Y-235401D01*
X48652Y-235126D01*
X48919Y-234760D01*
G01X52919Y-235493D02*
Y-229993D01*
G01X57119Y-233018D02*
X59252D01*
X59052Y-232376D01*
X58719Y-232010D01*
X58252Y-231826D01*
X57786Y-231918D01*
X57386Y-232193D01*
X57119Y-232835D01*
X56986Y-233385D01*
Y-233935D01*
X57119Y-234485D01*
X57452Y-235035D01*
X57852Y-235401D01*
X58319Y-235493D01*
X58786Y-235310D01*
X59252Y-234760D01*
G01X62319Y-234851D02*
X62652Y-235218D01*
X63119Y-235493D01*
X63519D01*
X63919Y-235310D01*
X64186Y-235035D01*
X64319Y-234668D01*
X64252Y-234118D01*
X63986Y-233843D01*
X62786Y-233293D01*
X62519Y-232651D01*
X62652Y-232193D01*
X62919Y-231918D01*
X63319Y-231826D01*
X63719Y-231918D01*
X64119Y-232193D01*
G01X74786Y-232285D02*
X74319Y-231918D01*
X73919Y-231826D01*
X73386Y-232010D01*
X72986Y-232376D01*
X72719Y-233018D01*
X72652Y-233660D01*
X72719Y-234301D01*
X72986Y-234851D01*
X73386Y-235310D01*
X73919Y-235493D01*
X74386Y-235310D01*
X74786Y-234943D01*
G01X78919Y-235493D02*
X78519Y-235401D01*
X78119Y-235035D01*
X77852Y-234393D01*
X77719Y-233660D01*
X77852Y-232926D01*
X78119Y-232285D01*
X78519Y-231918D01*
X78919Y-231826D01*
X79319Y-231918D01*
X79719Y-232285D01*
X79986Y-232926D01*
X80052Y-233660D01*
X79986Y-234393D01*
X79719Y-235035D01*
X79319Y-235401D01*
X78919Y-235493D01*
G01X82986D02*
Y-231826D01*
G01Y-232743D02*
X83252Y-232285D01*
X83652Y-231918D01*
X84186Y-231826D01*
X84652Y-231918D01*
X85052Y-232285D01*
X85252Y-232926D01*
Y-235493D01*
G01X89319Y-229993D02*
Y-235493D01*
G01X88386Y-231826D02*
X90252D01*
G01X95719Y-235493D02*
Y-231826D01*
G01Y-232468D02*
X95452Y-232101D01*
X95052Y-231918D01*
X94586Y-231826D01*
X94119Y-232010D01*
X93719Y-232376D01*
X93452Y-232926D01*
X93319Y-233660D01*
X93452Y-234393D01*
X93719Y-234943D01*
X94119Y-235310D01*
X94586Y-235493D01*
X95052Y-235401D01*
X95452Y-235126D01*
X95719Y-234760D01*
G01X100786Y-232285D02*
X100319Y-231918D01*
X99919Y-231826D01*
X99386Y-232010D01*
X98986Y-232376D01*
X98719Y-233018D01*
X98652Y-233660D01*
X98719Y-234301D01*
X98986Y-234851D01*
X99386Y-235310D01*
X99919Y-235493D01*
X100386Y-235310D01*
X100786Y-234943D01*
G01X104919Y-229993D02*
Y-235493D01*
G01X103986Y-231826D02*
X105852D01*
G01X110119Y-235676D02*
X109986Y-235585D01*
Y-235401D01*
X110119Y-235310D01*
X110252Y-235401D01*
Y-235585D01*
X110119Y-235676D01*
G01Y-233201D02*
X109986Y-233110D01*
Y-232926D01*
X110119Y-232835D01*
X110252Y-232926D01*
Y-233110D01*
X110119Y-233201D01*
G01X41186Y-209993D02*
Y-215493D01*
X43852D01*
G01X48919D02*
Y-211826D01*
G01Y-212468D02*
X48652Y-212101D01*
X48252Y-211918D01*
X47786Y-211826D01*
X47319Y-212010D01*
X46919Y-212376D01*
X46652Y-212926D01*
X46519Y-213660D01*
X46652Y-214393D01*
X46919Y-214943D01*
X47319Y-215310D01*
X47786Y-215493D01*
X48252Y-215401D01*
X48652Y-215126D01*
X48919Y-214760D01*
G01X51519Y-217143D02*
X51919Y-217326D01*
X52452Y-217143D01*
X52786Y-216776D01*
X53052Y-216318D01*
X53452Y-214851D01*
X54319Y-211826D01*
G01X52186D02*
X53452Y-214851D01*
G01X58119Y-215493D02*
X57719Y-215401D01*
X57319Y-215035D01*
X57052Y-214393D01*
X56919Y-213660D01*
X57052Y-212926D01*
X57319Y-212285D01*
X57719Y-211918D01*
X58119Y-211826D01*
X58519Y-211918D01*
X58919Y-212285D01*
X59186Y-212926D01*
X59252Y-213660D01*
X59186Y-214393D01*
X58919Y-215035D01*
X58519Y-215401D01*
X58119Y-215493D01*
G01X62186Y-211826D02*
Y-214393D01*
X62452Y-215035D01*
X62852Y-215401D01*
X63319Y-215493D01*
X63786Y-215401D01*
X64186Y-215035D01*
X64452Y-214393D01*
G01Y-215493D02*
Y-211826D01*
G01X68519Y-209993D02*
Y-215493D01*
G01X67586Y-211826D02*
X69452D01*
G01X80119Y-209993D02*
Y-215493D01*
G01Y-214668D02*
X79852Y-215126D01*
X79452Y-215401D01*
X78986Y-215493D01*
X78452Y-215310D01*
X78052Y-214851D01*
X77786Y-214301D01*
X77719Y-213660D01*
X77786Y-213018D01*
X78052Y-212468D01*
X78452Y-212010D01*
X78986Y-211826D01*
X79452Y-211918D01*
X79786Y-212101D01*
X80119Y-212468D01*
G01X83119Y-213018D02*
X85252D01*
X85052Y-212376D01*
X84719Y-212010D01*
X84252Y-211826D01*
X83786Y-211918D01*
X83386Y-212193D01*
X83119Y-212835D01*
X82986Y-213385D01*
Y-213935D01*
X83119Y-214485D01*
X83452Y-215035D01*
X83852Y-215401D01*
X84319Y-215493D01*
X84786Y-215310D01*
X85252Y-214760D01*
G01X88319Y-214851D02*
X88652Y-215218D01*
X89119Y-215493D01*
X89519D01*
X89919Y-215310D01*
X90186Y-215035D01*
X90319Y-214668D01*
X90252Y-214118D01*
X89986Y-213843D01*
X88786Y-213293D01*
X88519Y-212651D01*
X88652Y-212193D01*
X88919Y-211918D01*
X89319Y-211826D01*
X89719Y-211918D01*
X90119Y-212193D01*
G01X94519Y-211826D02*
Y-215493D01*
G01Y-210360D02*
X94386Y-210268D01*
Y-210085D01*
X94519Y-209993D01*
X94652Y-210085D01*
Y-210268D01*
X94519Y-210360D01*
G01X98786Y-216868D02*
X99252Y-217235D01*
X99786Y-217326D01*
X100252Y-217235D01*
X100652Y-216776D01*
X100919Y-216135D01*
Y-211826D01*
G01Y-212560D02*
X100652Y-212193D01*
X100252Y-211918D01*
X99786Y-211826D01*
X99252Y-212010D01*
X98919Y-212376D01*
X98652Y-213018D01*
X98519Y-213660D01*
X98586Y-214210D01*
X98852Y-214851D01*
X99252Y-215310D01*
X99786Y-215493D01*
X100186Y-215401D01*
X100652Y-215035D01*
X100919Y-214668D01*
G01X103786Y-215493D02*
Y-211826D01*
G01Y-212743D02*
X104052Y-212285D01*
X104452Y-211918D01*
X104986Y-211826D01*
X105452Y-211918D01*
X105852Y-212285D01*
X106052Y-212926D01*
Y-215493D01*
G01X109119Y-213018D02*
X111252D01*
X111052Y-212376D01*
X110719Y-212010D01*
X110252Y-211826D01*
X109786Y-211918D01*
X109386Y-212193D01*
X109119Y-212835D01*
X108986Y-213385D01*
Y-213935D01*
X109119Y-214485D01*
X109452Y-215035D01*
X109852Y-215401D01*
X110319Y-215493D01*
X110786Y-215310D01*
X111252Y-214760D01*
G01X114386Y-215493D02*
Y-211826D01*
G01Y-212560D02*
X114719Y-212193D01*
X115052Y-211918D01*
X115519Y-211826D01*
X115852Y-211918D01*
X116252Y-212193D01*
G01X120519Y-215676D02*
X120386Y-215585D01*
Y-215401D01*
X120519Y-215310D01*
X120652Y-215401D01*
Y-215585D01*
X120519Y-215676D01*
G01Y-213201D02*
X120386Y-213110D01*
Y-212926D01*
X120519Y-212835D01*
X120652Y-212926D01*
Y-213110D01*
X120519Y-213201D01*
G01X109533Y-245000D02*
Y-239500D01*
X110867D01*
X111400Y-239775D01*
X111800Y-240142D01*
X112133Y-240692D01*
X112400Y-241333D01*
X112467Y-242250D01*
X112400Y-243167D01*
X112133Y-243808D01*
X111800Y-244358D01*
X111400Y-244725D01*
X110867Y-245000D01*
X109533D01*
G01X117400D02*
Y-241333D01*
G01Y-241975D02*
X117133Y-241608D01*
X116733Y-241425D01*
X116267Y-241333D01*
X115800Y-241517D01*
X115400Y-241883D01*
X115133Y-242433D01*
X115000Y-243167D01*
X115133Y-243900D01*
X115400Y-244450D01*
X115800Y-244817D01*
X116267Y-245000D01*
X116733Y-244908D01*
X117133Y-244633D01*
X117400Y-244267D01*
G01X120267Y-245000D02*
Y-241333D01*
G01Y-242250D02*
X120533Y-241792D01*
X120933Y-241425D01*
X121467Y-241333D01*
X121933Y-241425D01*
X122333Y-241792D01*
X122533Y-242433D01*
Y-245000D01*
G01X126600Y-241333D02*
Y-245000D01*
G01Y-239867D02*
X126467Y-239775D01*
Y-239592D01*
X126600Y-239500D01*
X126733Y-239592D01*
Y-239775D01*
X126600Y-239867D01*
G01X130800Y-242525D02*
X132933D01*
X132733Y-241883D01*
X132400Y-241517D01*
X131933Y-241333D01*
X131467Y-241425D01*
X131067Y-241700D01*
X130800Y-242342D01*
X130667Y-242892D01*
Y-243442D01*
X130800Y-243992D01*
X131133Y-244542D01*
X131533Y-244908D01*
X132000Y-245000D01*
X132467Y-244817D01*
X132933Y-244267D01*
G01X137000Y-245000D02*
Y-239500D01*
G01X145933Y-245000D02*
Y-239500D01*
G01X148467D02*
X145933Y-242892D01*
G01X148867Y-245000D02*
X147067Y-241333D01*
G01X152600Y-245000D02*
X152200Y-244908D01*
X151800Y-244542D01*
X151533Y-243900D01*
X151400Y-243167D01*
X151533Y-242433D01*
X151800Y-241792D01*
X152200Y-241425D01*
X152600Y-241333D01*
X153000Y-241425D01*
X153400Y-241792D01*
X153667Y-242433D01*
X153733Y-243167D01*
X153667Y-243900D01*
X153400Y-244542D01*
X153000Y-244908D01*
X152600Y-245000D01*
G01X156867D02*
Y-241333D01*
G01Y-242067D02*
X157200Y-241700D01*
X157533Y-241425D01*
X158000Y-241333D01*
X158333Y-241425D01*
X158733Y-241700D01*
G01X162000Y-244358D02*
X162333Y-244725D01*
X162800Y-245000D01*
X163200D01*
X163600Y-244817D01*
X163867Y-244542D01*
X164000Y-244175D01*
X163933Y-243625D01*
X163667Y-243350D01*
X162467Y-242800D01*
X162200Y-242158D01*
X162333Y-241700D01*
X162600Y-241425D01*
X163000Y-241333D01*
X163400Y-241425D01*
X163800Y-241700D01*
G01X167067Y-241333D02*
Y-243900D01*
X167333Y-244542D01*
X167733Y-244908D01*
X168200Y-245000D01*
X168667Y-244908D01*
X169067Y-244542D01*
X169333Y-243900D01*
G01Y-245000D02*
Y-241333D01*
G01X172267Y-245000D02*
Y-241333D01*
G01Y-242250D02*
X172533Y-241792D01*
X172933Y-241425D01*
X173467Y-241333D01*
X173933Y-241425D01*
X174333Y-241792D01*
X174533Y-242433D01*
Y-245000D01*
G01X177600Y-244358D02*
X177933Y-244725D01*
X178400Y-245000D01*
X178800D01*
X179200Y-244817D01*
X179467Y-244542D01*
X179600Y-244175D01*
X179533Y-243625D01*
X179267Y-243350D01*
X178067Y-242800D01*
X177800Y-242158D01*
X177933Y-241700D01*
X178200Y-241425D01*
X178600Y-241333D01*
X179000Y-241425D01*
X179400Y-241700D01*
G01X182667Y-245000D02*
Y-239500D01*
G01X184800Y-241333D02*
X182667Y-243442D01*
G01X183533Y-242617D02*
X184933Y-245000D01*
G01X187600Y-246650D02*
X188000Y-246833D01*
X188533Y-246650D01*
X188867Y-246283D01*
X189133Y-245825D01*
X189533Y-244358D01*
X190400Y-241333D01*
G01X188267D02*
X189533Y-244358D01*
G01X103467Y-219958D02*
X103067Y-219683D01*
X102600Y-219500D01*
X102067D01*
X101467Y-219775D01*
X101000Y-220233D01*
X100667Y-220783D01*
X100400Y-221700D01*
X100333Y-222525D01*
X100467Y-223350D01*
X100667Y-223900D01*
X101067Y-224450D01*
X101533Y-224817D01*
X102000Y-225000D01*
X102467D01*
X102933Y-224817D01*
X103333Y-224542D01*
X103667Y-224175D01*
G01X106267Y-225000D02*
Y-221333D01*
G01Y-222067D02*
X106600Y-221700D01*
X106933Y-221425D01*
X107400Y-221333D01*
X107733Y-221425D01*
X108133Y-221700D01*
G01X113600Y-225000D02*
Y-221333D01*
G01Y-221975D02*
X113333Y-221608D01*
X112933Y-221425D01*
X112467Y-221333D01*
X112000Y-221517D01*
X111600Y-221883D01*
X111333Y-222433D01*
X111200Y-223167D01*
X111333Y-223900D01*
X111600Y-224450D01*
X112000Y-224817D01*
X112467Y-225000D01*
X112933Y-224908D01*
X113333Y-224633D01*
X113600Y-224267D01*
G01X117600Y-221333D02*
Y-225000D01*
G01Y-219867D02*
X117467Y-219775D01*
Y-219592D01*
X117600Y-219500D01*
X117733Y-219592D01*
Y-219775D01*
X117600Y-219867D01*
G01X121867Y-226375D02*
X122333Y-226742D01*
X122867Y-226833D01*
X123333Y-226742D01*
X123733Y-226283D01*
X124000Y-225642D01*
Y-221333D01*
G01Y-222067D02*
X123733Y-221700D01*
X123333Y-221425D01*
X122867Y-221333D01*
X122333Y-221517D01*
X122000Y-221883D01*
X121733Y-222525D01*
X121600Y-223167D01*
X121667Y-223717D01*
X121933Y-224358D01*
X122333Y-224817D01*
X122867Y-225000D01*
X123267Y-224908D01*
X123733Y-224542D01*
X124000Y-224175D01*
G01X131800Y-224267D02*
X132333Y-224725D01*
X132933Y-225000D01*
X133467D01*
X134000Y-224725D01*
X134400Y-224267D01*
X134600Y-223625D01*
X134467Y-222983D01*
X134133Y-222433D01*
X133533Y-222067D01*
X132733Y-221883D01*
X132267Y-221517D01*
X132067Y-220875D01*
X132200Y-220233D01*
X132533Y-219775D01*
X133000Y-219500D01*
X133467D01*
X133933Y-219683D01*
X134333Y-220142D01*
G01X139467Y-221792D02*
X139000Y-221425D01*
X138600Y-221333D01*
X138067Y-221517D01*
X137667Y-221883D01*
X137400Y-222525D01*
X137333Y-223167D01*
X137400Y-223808D01*
X137667Y-224358D01*
X138067Y-224817D01*
X138600Y-225000D01*
X139067Y-224817D01*
X139467Y-224450D01*
G01X142467Y-225000D02*
Y-219500D01*
G01Y-222158D02*
X142800Y-221700D01*
X143133Y-221425D01*
X143667Y-221333D01*
X144067Y-221425D01*
X144533Y-221792D01*
X144733Y-222342D01*
Y-225000D01*
G01X148800Y-221333D02*
Y-225000D01*
G01Y-219867D02*
X148667Y-219775D01*
Y-219592D01*
X148800Y-219500D01*
X148933Y-219592D01*
Y-219775D01*
X148800Y-219867D01*
G01X153000Y-222525D02*
X155133D01*
X154933Y-221883D01*
X154600Y-221517D01*
X154133Y-221333D01*
X153667Y-221425D01*
X153267Y-221700D01*
X153000Y-222342D01*
X152867Y-222892D01*
Y-223442D01*
X153000Y-223992D01*
X153333Y-224542D01*
X153733Y-224908D01*
X154200Y-225000D01*
X154667Y-224817D01*
X155133Y-224267D01*
G01X158800Y-225000D02*
Y-220325D01*
X158933Y-219867D01*
X159200Y-219592D01*
X159600Y-219500D01*
X160000Y-219683D01*
X160200Y-220142D01*
G01X159400Y-221700D02*
X158067D01*
G01X163400Y-222525D02*
X165533D01*
X165333Y-221883D01*
X165000Y-221517D01*
X164533Y-221333D01*
X164067Y-221425D01*
X163667Y-221700D01*
X163400Y-222342D01*
X163267Y-222892D01*
Y-223442D01*
X163400Y-223992D01*
X163733Y-224542D01*
X164133Y-224908D01*
X164600Y-225000D01*
X165067Y-224817D01*
X165533Y-224267D01*
G01X168667Y-225000D02*
Y-221333D01*
G01Y-222067D02*
X169000Y-221700D01*
X169333Y-221425D01*
X169800Y-221333D01*
X170133Y-221425D01*
X170533Y-221700D01*
G01X173800Y-224358D02*
X174133Y-224725D01*
X174600Y-225000D01*
X175000D01*
X175400Y-224817D01*
X175667Y-224542D01*
X175800Y-224175D01*
X175733Y-223625D01*
X175467Y-223350D01*
X174267Y-222800D01*
X174000Y-222158D01*
X174133Y-221700D01*
X174400Y-221425D01*
X174800Y-221333D01*
X175200Y-221425D01*
X175600Y-221700D01*
G01X180000Y-219500D02*
Y-225000D01*
G01X179067Y-221333D02*
X180933D01*
G01X184200Y-222525D02*
X186333D01*
X186133Y-221883D01*
X185800Y-221517D01*
X185333Y-221333D01*
X184867Y-221425D01*
X184467Y-221700D01*
X184200Y-222342D01*
X184067Y-222892D01*
Y-223442D01*
X184200Y-223992D01*
X184533Y-224542D01*
X184933Y-224908D01*
X185400Y-225000D01*
X185867Y-224817D01*
X186333Y-224267D01*
G01X190400Y-221333D02*
Y-225000D01*
G01Y-219867D02*
X190267Y-219775D01*
Y-219592D01*
X190400Y-219500D01*
X190533Y-219592D01*
Y-219775D01*
X190400Y-219867D01*
G01X194467Y-225000D02*
Y-221333D01*
G01Y-222250D02*
X194733Y-221792D01*
X195133Y-221425D01*
X195667Y-221333D01*
X196133Y-221425D01*
X196533Y-221792D01*
X196733Y-222433D01*
Y-225000D01*
G01X99667Y-200000D02*
Y-194500D01*
X101333D01*
X101867Y-194775D01*
X102200Y-195142D01*
X102333Y-195875D01*
X102200Y-196608D01*
X101800Y-197067D01*
X101333Y-197342D01*
X99667D01*
G01X101333D02*
X102333Y-200000D01*
G01X104667D02*
Y-194500D01*
X107733Y-200000D01*
Y-194500D01*
G01X110067Y-200000D02*
Y-194500D01*
X111733D01*
X112267Y-194775D01*
X112600Y-195142D01*
X112733Y-195875D01*
X112600Y-196608D01*
X112200Y-197067D01*
X111733Y-197342D01*
X110067D01*
G01X111733D02*
X112733Y-200000D01*
G01X114933D02*
X116600Y-194500D01*
X118267Y-200000D01*
G01X117667Y-198075D02*
X115533D01*
G01X120333Y-200000D02*
Y-194500D01*
X121667D01*
X122200Y-194775D01*
X122600Y-195142D01*
X122933Y-195692D01*
X123200Y-196333D01*
X123267Y-197250D01*
X123200Y-198167D01*
X122933Y-198808D01*
X122600Y-199358D01*
X122200Y-199725D01*
X121667Y-200000D01*
X120333D01*
G01X127000D02*
Y-194500D01*
X126200Y-195600D01*
G01Y-200000D02*
X127800D01*
G01X131333Y-198167D02*
X133067D01*
G01X136067Y-200000D02*
Y-194500D01*
X137733D01*
X138267Y-194775D01*
X138600Y-195142D01*
X138733Y-195875D01*
X138600Y-196608D01*
X138200Y-197067D01*
X137733Y-197342D01*
X136067D01*
G01X137733D02*
X138733Y-200000D01*
G01X141333D02*
Y-194500D01*
X143867D01*
G01X142933Y-197158D02*
X141333D01*
G01X146933Y-198167D02*
X148667D01*
G01X154467Y-194958D02*
X154067Y-194683D01*
X153600Y-194500D01*
X153067D01*
X152467Y-194775D01*
X152000Y-195233D01*
X151667Y-195783D01*
X151400Y-196700D01*
X151333Y-197525D01*
X151467Y-198350D01*
X151667Y-198900D01*
X152067Y-199450D01*
X152533Y-199817D01*
X153000Y-200000D01*
X153467D01*
X153933Y-199817D01*
X154333Y-199542D01*
X154667Y-199175D01*
G01X158200Y-200000D02*
X157667Y-199908D01*
X157200Y-199542D01*
X156800Y-198992D01*
X156533Y-198350D01*
X156400Y-197617D01*
Y-196883D01*
X156533Y-196150D01*
X156800Y-195508D01*
X157200Y-194958D01*
X157667Y-194592D01*
X158200Y-194500D01*
X158733Y-194592D01*
X159200Y-194958D01*
X159600Y-195508D01*
X159867Y-196150D01*
X160000Y-196883D01*
Y-197617D01*
X159867Y-198350D01*
X159600Y-198992D01*
X159200Y-199542D01*
X158733Y-199908D01*
X158200Y-200000D01*
G01X161667D02*
Y-194500D01*
X163400Y-199083D01*
X165133Y-194500D01*
Y-200000D01*
G01X169133Y-197067D02*
X169400Y-196792D01*
X169600Y-196333D01*
X169733Y-195692D01*
X169600Y-195142D01*
X169333Y-194775D01*
X168867Y-194500D01*
X167067D01*
Y-200000D01*
X169267D01*
X169733Y-199633D01*
X170000Y-199083D01*
X170133Y-198442D01*
X170000Y-197800D01*
X169600Y-197250D01*
X169133Y-197067D01*
X167067D01*
G01X173800Y-200000D02*
X173267Y-199908D01*
X172800Y-199542D01*
X172400Y-198992D01*
X172133Y-198350D01*
X172000Y-197617D01*
Y-196883D01*
X172133Y-196150D01*
X172400Y-195508D01*
X172800Y-194958D01*
X173267Y-194592D01*
X173800Y-194500D01*
X174333Y-194592D01*
X174800Y-194958D01*
X175200Y-195508D01*
X175467Y-196150D01*
X175600Y-196883D01*
Y-197617D01*
X175467Y-198350D01*
X175200Y-198992D01*
X174800Y-199542D01*
X174333Y-199908D01*
X173800Y-200000D01*
G01X178133Y-198167D02*
X179867D01*
G01X182867Y-200000D02*
Y-194500D01*
X184533D01*
X185067Y-194775D01*
X185400Y-195142D01*
X185533Y-195875D01*
X185400Y-196608D01*
X185000Y-197067D01*
X184533Y-197342D01*
X182867D01*
G01X184533D02*
X185533Y-200000D01*
G01X187933Y-199175D02*
X188333Y-199633D01*
X188800Y-199908D01*
X189400Y-200000D01*
X190000Y-199817D01*
X190467Y-199450D01*
X190800Y-198808D01*
X190867Y-198075D01*
X190733Y-197342D01*
X190400Y-196883D01*
X189933Y-196517D01*
X189467Y-196425D01*
X189000Y-196517D01*
X188400Y-196883D01*
X188600Y-194500D01*
X190400D01*
G01X209541Y-215470D02*
Y-209970D01*
X210875D01*
X211408Y-210245D01*
X211808Y-210612D01*
X212141Y-211162D01*
X212408Y-211803D01*
X212475Y-212720D01*
X212408Y-213637D01*
X212141Y-214278D01*
X211808Y-214828D01*
X211408Y-215195D01*
X210875Y-215470D01*
X209541D01*
G01X215208Y-212995D02*
X217341D01*
X217141Y-212353D01*
X216808Y-211987D01*
X216341Y-211803D01*
X215875Y-211895D01*
X215475Y-212170D01*
X215208Y-212812D01*
X215075Y-213362D01*
Y-213912D01*
X215208Y-214462D01*
X215541Y-215012D01*
X215941Y-215378D01*
X216408Y-215470D01*
X216875Y-215287D01*
X217341Y-214737D01*
G01X220408Y-214828D02*
X220741Y-215195D01*
X221208Y-215470D01*
X221608D01*
X222008Y-215287D01*
X222275Y-215012D01*
X222408Y-214645D01*
X222341Y-214095D01*
X222075Y-213820D01*
X220875Y-213270D01*
X220608Y-212628D01*
X220741Y-212170D01*
X221008Y-211895D01*
X221408Y-211803D01*
X221808Y-211895D01*
X222208Y-212170D01*
G01X226608Y-211803D02*
Y-215470D01*
G01Y-210337D02*
X226475Y-210245D01*
Y-210062D01*
X226608Y-209970D01*
X226741Y-210062D01*
Y-210245D01*
X226608Y-210337D01*
G01X230875Y-216845D02*
X231341Y-217212D01*
X231875Y-217303D01*
X232341Y-217212D01*
X232741Y-216753D01*
X233008Y-216112D01*
Y-211803D01*
G01Y-212537D02*
X232741Y-212170D01*
X232341Y-211895D01*
X231875Y-211803D01*
X231341Y-211987D01*
X231008Y-212353D01*
X230741Y-212995D01*
X230608Y-213637D01*
X230675Y-214187D01*
X230941Y-214828D01*
X231341Y-215287D01*
X231875Y-215470D01*
X232275Y-215378D01*
X232741Y-215012D01*
X233008Y-214645D01*
G01X235875Y-215470D02*
Y-211803D01*
G01Y-212720D02*
X236141Y-212262D01*
X236541Y-211895D01*
X237075Y-211803D01*
X237541Y-211895D01*
X237941Y-212262D01*
X238141Y-212903D01*
Y-215470D01*
G01X246408Y-212995D02*
X248541D01*
X248341Y-212353D01*
X248008Y-211987D01*
X247541Y-211803D01*
X247075Y-211895D01*
X246675Y-212170D01*
X246408Y-212812D01*
X246275Y-213362D01*
Y-213912D01*
X246408Y-214462D01*
X246741Y-215012D01*
X247141Y-215378D01*
X247608Y-215470D01*
X248075Y-215287D01*
X248541Y-214737D01*
G01X251475Y-215470D02*
Y-211803D01*
G01Y-212720D02*
X251741Y-212262D01*
X252141Y-211895D01*
X252675Y-211803D01*
X253141Y-211895D01*
X253541Y-212262D01*
X253741Y-212903D01*
Y-215470D01*
G01X256875Y-216845D02*
X257341Y-217212D01*
X257875Y-217303D01*
X258341Y-217212D01*
X258741Y-216753D01*
X259008Y-216112D01*
Y-211803D01*
G01Y-212537D02*
X258741Y-212170D01*
X258341Y-211895D01*
X257875Y-211803D01*
X257341Y-211987D01*
X257008Y-212353D01*
X256741Y-212995D01*
X256608Y-213637D01*
X256675Y-214187D01*
X256941Y-214828D01*
X257341Y-215287D01*
X257875Y-215470D01*
X258275Y-215378D01*
X258741Y-215012D01*
X259008Y-214645D01*
G01X263008Y-211803D02*
Y-215470D01*
G01Y-210337D02*
X262875Y-210245D01*
Y-210062D01*
X263008Y-209970D01*
X263141Y-210062D01*
Y-210245D01*
X263008Y-210337D01*
G01X267075Y-215470D02*
Y-211803D01*
G01Y-212720D02*
X267341Y-212262D01*
X267741Y-211895D01*
X268275Y-211803D01*
X268741Y-211895D01*
X269141Y-212262D01*
X269341Y-212903D01*
Y-215470D01*
G01X272408Y-212995D02*
X274541D01*
X274341Y-212353D01*
X274008Y-211987D01*
X273541Y-211803D01*
X273075Y-211895D01*
X272675Y-212170D01*
X272408Y-212812D01*
X272275Y-213362D01*
Y-213912D01*
X272408Y-214462D01*
X272741Y-215012D01*
X273141Y-215378D01*
X273608Y-215470D01*
X274075Y-215287D01*
X274541Y-214737D01*
G01X277608Y-212995D02*
X279741D01*
X279541Y-212353D01*
X279208Y-211987D01*
X278741Y-211803D01*
X278275Y-211895D01*
X277875Y-212170D01*
X277608Y-212812D01*
X277475Y-213362D01*
Y-213912D01*
X277608Y-214462D01*
X277941Y-215012D01*
X278341Y-215378D01*
X278808Y-215470D01*
X279275Y-215287D01*
X279741Y-214737D01*
G01X282875Y-215470D02*
Y-211803D01*
G01Y-212537D02*
X283208Y-212170D01*
X283541Y-211895D01*
X284008Y-211803D01*
X284341Y-211895D01*
X284741Y-212170D01*
G01X289008Y-215653D02*
X288875Y-215562D01*
Y-215378D01*
X289008Y-215287D01*
X289141Y-215378D01*
Y-215562D01*
X289008Y-215653D01*
G01Y-213178D02*
X288875Y-213087D01*
Y-212903D01*
X289008Y-212812D01*
X289141Y-212903D01*
Y-213087D01*
X289008Y-213178D01*
G01X207683Y-187474D02*
Y-192974D01*
X210349D01*
G01X215416D02*
Y-189307D01*
G01Y-189949D02*
X215149Y-189582D01*
X214749Y-189399D01*
X214283Y-189307D01*
X213816Y-189491D01*
X213416Y-189857D01*
X213149Y-190407D01*
X213016Y-191141D01*
X213149Y-191874D01*
X213416Y-192424D01*
X213816Y-192791D01*
X214283Y-192974D01*
X214749Y-192882D01*
X215149Y-192607D01*
X215416Y-192241D01*
G01X218016Y-194624D02*
X218416Y-194807D01*
X218949Y-194624D01*
X219283Y-194257D01*
X219549Y-193799D01*
X219949Y-192332D01*
X220816Y-189307D01*
G01X218683D02*
X219949Y-192332D01*
G01X223616Y-190499D02*
X225749D01*
X225549Y-189857D01*
X225216Y-189491D01*
X224749Y-189307D01*
X224283Y-189399D01*
X223883Y-189674D01*
X223616Y-190316D01*
X223483Y-190866D01*
Y-191416D01*
X223616Y-191966D01*
X223949Y-192516D01*
X224349Y-192882D01*
X224816Y-192974D01*
X225283Y-192791D01*
X225749Y-192241D01*
G01X228883Y-192974D02*
Y-189307D01*
G01Y-190041D02*
X229216Y-189674D01*
X229549Y-189399D01*
X230016Y-189307D01*
X230349Y-189399D01*
X230749Y-189674D01*
G01X235016Y-193157D02*
X234883Y-193066D01*
Y-192882D01*
X235016Y-192791D01*
X235149Y-192882D01*
Y-193066D01*
X235016Y-193157D01*
G01Y-190682D02*
X234883Y-190591D01*
Y-190407D01*
X235016Y-190316D01*
X235149Y-190407D01*
Y-190591D01*
X235016Y-190682D01*
G01X213037Y-233060D02*
X213304Y-232785D01*
X213504Y-232326D01*
X213637Y-231685D01*
X213504Y-231135D01*
X213237Y-230768D01*
X212771Y-230493D01*
X210971D01*
Y-235993D01*
X213171D01*
X213637Y-235626D01*
X213904Y-235076D01*
X214037Y-234435D01*
X213904Y-233793D01*
X213504Y-233243D01*
X213037Y-233060D01*
X210971D01*
G01X217704Y-235993D02*
X217304Y-235901D01*
X216904Y-235535D01*
X216637Y-234893D01*
X216504Y-234160D01*
X216637Y-233426D01*
X216904Y-232785D01*
X217304Y-232418D01*
X217704Y-232326D01*
X218104Y-232418D01*
X218504Y-232785D01*
X218771Y-233426D01*
X218837Y-234160D01*
X218771Y-234893D01*
X218504Y-235535D01*
X218104Y-235901D01*
X217704Y-235993D01*
G01X224104D02*
Y-232326D01*
G01Y-232968D02*
X223837Y-232601D01*
X223437Y-232418D01*
X222971Y-232326D01*
X222504Y-232510D01*
X222104Y-232876D01*
X221837Y-233426D01*
X221704Y-234160D01*
X221837Y-234893D01*
X222104Y-235443D01*
X222504Y-235810D01*
X222971Y-235993D01*
X223437Y-235901D01*
X223837Y-235626D01*
X224104Y-235260D01*
G01X227171Y-235993D02*
Y-232326D01*
G01Y-233060D02*
X227504Y-232693D01*
X227837Y-232418D01*
X228304Y-232326D01*
X228637Y-232418D01*
X229037Y-232693D01*
G01X234504Y-230493D02*
Y-235993D01*
G01Y-235168D02*
X234237Y-235626D01*
X233837Y-235901D01*
X233371Y-235993D01*
X232837Y-235810D01*
X232437Y-235351D01*
X232171Y-234801D01*
X232104Y-234160D01*
X232171Y-233518D01*
X232437Y-232968D01*
X232837Y-232510D01*
X233371Y-232326D01*
X233837Y-232418D01*
X234171Y-232601D01*
X234504Y-232968D01*
G01X242571Y-235993D02*
Y-232326D01*
G01Y-233243D02*
X242837Y-232785D01*
X243237Y-232418D01*
X243771Y-232326D01*
X244237Y-232418D01*
X244637Y-232785D01*
X244837Y-233426D01*
Y-235993D01*
G01X250104D02*
Y-232326D01*
G01Y-232968D02*
X249837Y-232601D01*
X249437Y-232418D01*
X248971Y-232326D01*
X248504Y-232510D01*
X248104Y-232876D01*
X247837Y-233426D01*
X247704Y-234160D01*
X247837Y-234893D01*
X248104Y-235443D01*
X248504Y-235810D01*
X248971Y-235993D01*
X249437Y-235901D01*
X249837Y-235626D01*
X250104Y-235260D01*
G01X252104Y-235993D02*
Y-232326D01*
G01Y-233335D02*
X252304Y-232876D01*
X252637Y-232510D01*
X253104Y-232326D01*
X253571Y-232510D01*
X253904Y-232876D01*
X254104Y-233335D01*
Y-235993D01*
G01Y-233335D02*
X254304Y-232876D01*
X254637Y-232510D01*
X255104Y-232326D01*
X255571Y-232510D01*
X255904Y-232876D01*
X256104Y-233426D01*
Y-235993D01*
G01X258304Y-233518D02*
X260437D01*
X260237Y-232876D01*
X259904Y-232510D01*
X259437Y-232326D01*
X258971Y-232418D01*
X258571Y-232693D01*
X258304Y-233335D01*
X258171Y-233885D01*
Y-234435D01*
X258304Y-234985D01*
X258637Y-235535D01*
X259037Y-235901D01*
X259504Y-235993D01*
X259971Y-235810D01*
X260437Y-235260D01*
G01X264504Y-236176D02*
X264371Y-236085D01*
Y-235901D01*
X264504Y-235810D01*
X264637Y-235901D01*
Y-236085D01*
X264504Y-236176D01*
G01Y-233701D02*
X264371Y-233610D01*
Y-233426D01*
X264504Y-233335D01*
X264637Y-233426D01*
Y-233610D01*
X264504Y-233701D01*
G01X213333Y-177811D02*
X214133Y-181478D01*
X215000Y-177811D01*
X215867Y-181478D01*
X216667Y-177811D01*
G01X220200D02*
Y-181478D01*
G01Y-176345D02*
X220067Y-176253D01*
Y-176070D01*
X220200Y-175978D01*
X220333Y-176070D01*
Y-176253D01*
X220200Y-176345D01*
G01X225400Y-175978D02*
Y-181478D01*
G01X224467Y-177811D02*
X226333D01*
G01X229467Y-181478D02*
Y-175978D01*
G01Y-178636D02*
X229800Y-178178D01*
X230133Y-177903D01*
X230667Y-177811D01*
X231067Y-177903D01*
X231533Y-178270D01*
X231733Y-178820D01*
Y-181478D01*
G01X235800D02*
X235400Y-181386D01*
X235000Y-181020D01*
X234733Y-180378D01*
X234600Y-179645D01*
X234733Y-178911D01*
X235000Y-178270D01*
X235400Y-177903D01*
X235800Y-177811D01*
X236200Y-177903D01*
X236600Y-178270D01*
X236867Y-178911D01*
X236933Y-179645D01*
X236867Y-180378D01*
X236600Y-181020D01*
X236200Y-181386D01*
X235800Y-181478D01*
G01X239867Y-177811D02*
Y-180378D01*
X240133Y-181020D01*
X240533Y-181386D01*
X241000Y-181478D01*
X241467Y-181386D01*
X241867Y-181020D01*
X242133Y-180378D01*
G01Y-181478D02*
Y-177811D01*
G01X246200Y-175978D02*
Y-181478D01*
G01X245267Y-177811D02*
X247133D01*
G01X256600Y-175978D02*
Y-181478D01*
G01X255667Y-177811D02*
X257533D01*
G01X260667Y-181478D02*
Y-175978D01*
G01Y-178636D02*
X261000Y-178178D01*
X261333Y-177903D01*
X261867Y-177811D01*
X262267Y-177903D01*
X262733Y-178270D01*
X262933Y-178820D01*
Y-181478D01*
G01X266000Y-179003D02*
X268133D01*
X267933Y-178361D01*
X267600Y-177995D01*
X267133Y-177811D01*
X266667Y-177903D01*
X266267Y-178178D01*
X266000Y-178820D01*
X265867Y-179370D01*
Y-179920D01*
X266000Y-180470D01*
X266333Y-181020D01*
X266733Y-181386D01*
X267200Y-181478D01*
X267667Y-181295D01*
X268133Y-180745D01*
G01X276200Y-183311D02*
Y-177811D01*
G01Y-178636D02*
X276533Y-178178D01*
X276867Y-177903D01*
X277400Y-177811D01*
X277867Y-177903D01*
X278333Y-178361D01*
X278533Y-179003D01*
X278600Y-179645D01*
X278533Y-180286D01*
X278333Y-180928D01*
X277933Y-181295D01*
X277400Y-181478D01*
X276933Y-181386D01*
X276467Y-181111D01*
X276200Y-180745D01*
G01X281667Y-181478D02*
Y-177811D01*
G01Y-178545D02*
X282000Y-178178D01*
X282333Y-177903D01*
X282800Y-177811D01*
X283133Y-177903D01*
X283533Y-178178D01*
G01X287800Y-177811D02*
Y-181478D01*
G01Y-176345D02*
X287667Y-176253D01*
Y-176070D01*
X287800Y-175978D01*
X287933Y-176070D01*
Y-176253D01*
X287800Y-176345D01*
G01X293000Y-181478D02*
X292600Y-181386D01*
X292200Y-181020D01*
X291933Y-180378D01*
X291800Y-179645D01*
X291933Y-178911D01*
X292200Y-178270D01*
X292600Y-177903D01*
X293000Y-177811D01*
X293400Y-177903D01*
X293800Y-178270D01*
X294067Y-178911D01*
X294133Y-179645D01*
X294067Y-180378D01*
X293800Y-181020D01*
X293400Y-181386D01*
X293000Y-181478D01*
G01X297267D02*
Y-177811D01*
G01Y-178545D02*
X297600Y-178178D01*
X297933Y-177903D01*
X298400Y-177811D01*
X298733Y-177903D01*
X299133Y-178178D01*
G01X306933Y-177811D02*
X307733Y-181478D01*
X308600Y-177811D01*
X309467Y-181478D01*
X310267Y-177811D01*
G01X312867Y-181478D02*
Y-177811D01*
G01Y-178545D02*
X313200Y-178178D01*
X313533Y-177903D01*
X314000Y-177811D01*
X314333Y-177903D01*
X314733Y-178178D01*
G01X319000Y-177811D02*
Y-181478D01*
G01Y-176345D02*
X318867Y-176253D01*
Y-176070D01*
X319000Y-175978D01*
X319133Y-176070D01*
Y-176253D01*
X319000Y-176345D01*
G01X324200Y-175978D02*
Y-181478D01*
G01X323267Y-177811D02*
X325133D01*
G01X329400Y-175978D02*
Y-181478D01*
G01X328467Y-177811D02*
X330333D01*
G01X333600Y-179003D02*
X335733D01*
X335533Y-178361D01*
X335200Y-177995D01*
X334733Y-177811D01*
X334267Y-177903D01*
X333867Y-178178D01*
X333600Y-178820D01*
X333467Y-179370D01*
Y-179920D01*
X333600Y-180470D01*
X333933Y-181020D01*
X334333Y-181386D01*
X334800Y-181478D01*
X335267Y-181295D01*
X335733Y-180745D01*
G01X338667Y-181478D02*
Y-177811D01*
G01Y-178728D02*
X338933Y-178270D01*
X339333Y-177903D01*
X339867Y-177811D01*
X340333Y-177903D01*
X340733Y-178270D01*
X340933Y-178911D01*
Y-181478D01*
G01X351267Y-178270D02*
X350800Y-177903D01*
X350400Y-177811D01*
X349867Y-177995D01*
X349467Y-178361D01*
X349200Y-179003D01*
X349133Y-179645D01*
X349200Y-180286D01*
X349467Y-180836D01*
X349867Y-181295D01*
X350400Y-181478D01*
X350867Y-181295D01*
X351267Y-180928D01*
G01X355400Y-181478D02*
X355000Y-181386D01*
X354600Y-181020D01*
X354333Y-180378D01*
X354200Y-179645D01*
X354333Y-178911D01*
X354600Y-178270D01*
X355000Y-177903D01*
X355400Y-177811D01*
X355800Y-177903D01*
X356200Y-178270D01*
X356467Y-178911D01*
X356533Y-179645D01*
X356467Y-180378D01*
X356200Y-181020D01*
X355800Y-181386D01*
X355400Y-181478D01*
G01X359467D02*
Y-177811D01*
G01Y-178728D02*
X359733Y-178270D01*
X360133Y-177903D01*
X360667Y-177811D01*
X361133Y-177903D01*
X361533Y-178270D01*
X361733Y-178911D01*
Y-181478D01*
G01X364800Y-180836D02*
X365133Y-181203D01*
X365600Y-181478D01*
X366000D01*
X366400Y-181295D01*
X366667Y-181020D01*
X366800Y-180653D01*
X366733Y-180103D01*
X366467Y-179828D01*
X365267Y-179278D01*
X365000Y-178636D01*
X365133Y-178178D01*
X365400Y-177903D01*
X365800Y-177811D01*
X366200Y-177903D01*
X366600Y-178178D01*
G01X370000Y-179003D02*
X372133D01*
X371933Y-178361D01*
X371600Y-177995D01*
X371133Y-177811D01*
X370667Y-177903D01*
X370267Y-178178D01*
X370000Y-178820D01*
X369867Y-179370D01*
Y-179920D01*
X370000Y-180470D01*
X370333Y-181020D01*
X370733Y-181386D01*
X371200Y-181478D01*
X371667Y-181295D01*
X372133Y-180745D01*
G01X375067Y-181478D02*
Y-177811D01*
G01Y-178728D02*
X375333Y-178270D01*
X375733Y-177903D01*
X376267Y-177811D01*
X376733Y-177903D01*
X377133Y-178270D01*
X377333Y-178911D01*
Y-181478D01*
G01X381400Y-175978D02*
Y-181478D01*
G01X380467Y-177811D02*
X382333D01*
G01X391800Y-181478D02*
X391400Y-181386D01*
X391000Y-181020D01*
X390733Y-180378D01*
X390600Y-179645D01*
X390733Y-178911D01*
X391000Y-178270D01*
X391400Y-177903D01*
X391800Y-177811D01*
X392200Y-177903D01*
X392600Y-178270D01*
X392867Y-178911D01*
X392933Y-179645D01*
X392867Y-180378D01*
X392600Y-181020D01*
X392200Y-181386D01*
X391800Y-181478D01*
G01X396600D02*
Y-176803D01*
X396733Y-176345D01*
X397000Y-176070D01*
X397400Y-175978D01*
X397800Y-176161D01*
X398000Y-176620D01*
G01X397200Y-178178D02*
X395867D01*
G01X213800Y-168311D02*
Y-162811D01*
G01Y-163636D02*
X214133Y-163178D01*
X214467Y-162903D01*
X215000Y-162811D01*
X215467Y-162903D01*
X215933Y-163361D01*
X216133Y-164003D01*
X216200Y-164645D01*
X216133Y-165286D01*
X215933Y-165928D01*
X215533Y-166295D01*
X215000Y-166478D01*
X214533Y-166386D01*
X214067Y-166111D01*
X213800Y-165745D01*
G01X219267Y-166478D02*
Y-162811D01*
G01Y-163545D02*
X219600Y-163178D01*
X219933Y-162903D01*
X220400Y-162811D01*
X220733Y-162903D01*
X221133Y-163178D01*
G01X225400Y-166478D02*
X225000Y-166386D01*
X224600Y-166020D01*
X224333Y-165378D01*
X224200Y-164645D01*
X224333Y-163911D01*
X224600Y-163270D01*
X225000Y-162903D01*
X225400Y-162811D01*
X225800Y-162903D01*
X226200Y-163270D01*
X226467Y-163911D01*
X226533Y-164645D01*
X226467Y-165378D01*
X226200Y-166020D01*
X225800Y-166386D01*
X225400Y-166478D01*
G01X229400Y-168311D02*
Y-162811D01*
G01Y-163636D02*
X229733Y-163178D01*
X230067Y-162903D01*
X230600Y-162811D01*
X231067Y-162903D01*
X231533Y-163361D01*
X231733Y-164003D01*
X231800Y-164645D01*
X231733Y-165286D01*
X231533Y-165928D01*
X231133Y-166295D01*
X230600Y-166478D01*
X230133Y-166386D01*
X229667Y-166111D01*
X229400Y-165745D01*
G01X234867Y-166478D02*
Y-162811D01*
G01Y-163545D02*
X235200Y-163178D01*
X235533Y-162903D01*
X236000Y-162811D01*
X236333Y-162903D01*
X236733Y-163178D01*
G01X241000Y-162811D02*
Y-166478D01*
G01Y-161345D02*
X240867Y-161253D01*
Y-161070D01*
X241000Y-160978D01*
X241133Y-161070D01*
Y-161253D01*
X241000Y-161345D01*
G01X245200Y-164003D02*
X247333D01*
X247133Y-163361D01*
X246800Y-162995D01*
X246333Y-162811D01*
X245867Y-162903D01*
X245467Y-163178D01*
X245200Y-163820D01*
X245067Y-164370D01*
Y-164920D01*
X245200Y-165470D01*
X245533Y-166020D01*
X245933Y-166386D01*
X246400Y-166478D01*
X246867Y-166295D01*
X247333Y-165745D01*
G01X251400Y-160978D02*
Y-166478D01*
G01X250467Y-162811D02*
X252333D01*
G01X257800Y-166478D02*
Y-162811D01*
G01Y-163453D02*
X257533Y-163086D01*
X257133Y-162903D01*
X256667Y-162811D01*
X256200Y-162995D01*
X255800Y-163361D01*
X255533Y-163911D01*
X255400Y-164645D01*
X255533Y-165378D01*
X255800Y-165928D01*
X256200Y-166295D01*
X256667Y-166478D01*
X257133Y-166386D01*
X257533Y-166111D01*
X257800Y-165745D01*
G01X260867Y-166478D02*
Y-162811D01*
G01Y-163545D02*
X261200Y-163178D01*
X261533Y-162903D01*
X262000Y-162811D01*
X262333Y-162903D01*
X262733Y-163178D01*
G01X265600Y-168128D02*
X266000Y-168311D01*
X266533Y-168128D01*
X266867Y-167761D01*
X267133Y-167303D01*
X267533Y-165836D01*
X268400Y-162811D01*
G01X266267D02*
X267533Y-165836D01*
G01X276200Y-168311D02*
Y-162811D01*
G01Y-163636D02*
X276533Y-163178D01*
X276867Y-162903D01*
X277400Y-162811D01*
X277867Y-162903D01*
X278333Y-163361D01*
X278533Y-164003D01*
X278600Y-164645D01*
X278533Y-165286D01*
X278333Y-165928D01*
X277933Y-166295D01*
X277400Y-166478D01*
X276933Y-166386D01*
X276467Y-166111D01*
X276200Y-165745D01*
G01X281667Y-166478D02*
Y-162811D01*
G01Y-163545D02*
X282000Y-163178D01*
X282333Y-162903D01*
X282800Y-162811D01*
X283133Y-162903D01*
X283533Y-163178D01*
G01X287800Y-166478D02*
X287400Y-166386D01*
X287000Y-166020D01*
X286733Y-165378D01*
X286600Y-164645D01*
X286733Y-163911D01*
X287000Y-163270D01*
X287400Y-162903D01*
X287800Y-162811D01*
X288200Y-162903D01*
X288600Y-163270D01*
X288867Y-163911D01*
X288933Y-164645D01*
X288867Y-165378D01*
X288600Y-166020D01*
X288200Y-166386D01*
X287800Y-166478D01*
G01X291800Y-168311D02*
Y-162811D01*
G01Y-163636D02*
X292133Y-163178D01*
X292467Y-162903D01*
X293000Y-162811D01*
X293467Y-162903D01*
X293933Y-163361D01*
X294133Y-164003D01*
X294200Y-164645D01*
X294133Y-165286D01*
X293933Y-165928D01*
X293533Y-166295D01*
X293000Y-166478D01*
X292533Y-166386D01*
X292067Y-166111D01*
X291800Y-165745D01*
G01X297200Y-164003D02*
X299333D01*
X299133Y-163361D01*
X298800Y-162995D01*
X298333Y-162811D01*
X297867Y-162903D01*
X297467Y-163178D01*
X297200Y-163820D01*
X297067Y-164370D01*
Y-164920D01*
X297200Y-165470D01*
X297533Y-166020D01*
X297933Y-166386D01*
X298400Y-166478D01*
X298867Y-166295D01*
X299333Y-165745D01*
G01X302467Y-166478D02*
Y-162811D01*
G01Y-163545D02*
X302800Y-163178D01*
X303133Y-162903D01*
X303600Y-162811D01*
X303933Y-162903D01*
X304333Y-163178D01*
G01X308600Y-160978D02*
Y-166478D01*
G01X307667Y-162811D02*
X309533D01*
G01X312400Y-168128D02*
X312800Y-168311D01*
X313333Y-168128D01*
X313667Y-167761D01*
X313933Y-167303D01*
X314333Y-165836D01*
X315200Y-162811D01*
G01X313067D02*
X314333Y-165836D01*
G01X324200Y-166478D02*
X323800Y-166386D01*
X323400Y-166020D01*
X323133Y-165378D01*
X323000Y-164645D01*
X323133Y-163911D01*
X323400Y-163270D01*
X323800Y-162903D01*
X324200Y-162811D01*
X324600Y-162903D01*
X325000Y-163270D01*
X325267Y-163911D01*
X325333Y-164645D01*
X325267Y-165378D01*
X325000Y-166020D01*
X324600Y-166386D01*
X324200Y-166478D01*
G01X329000D02*
Y-161803D01*
X329133Y-161345D01*
X329400Y-161070D01*
X329800Y-160978D01*
X330200Y-161161D01*
X330400Y-161620D01*
G01X329600Y-163178D02*
X328267D01*
G01X421467Y-166478D02*
Y-160978D01*
X424533Y-166478D01*
Y-160978D01*
G01X428200Y-166478D02*
X427800Y-166386D01*
X427400Y-166020D01*
X427133Y-165378D01*
X427000Y-164645D01*
X427133Y-163911D01*
X427400Y-163270D01*
X427800Y-162903D01*
X428200Y-162811D01*
X428600Y-162903D01*
X429000Y-163270D01*
X429267Y-163911D01*
X429333Y-164645D01*
X429267Y-165378D01*
X429000Y-166020D01*
X428600Y-166386D01*
X428200Y-166478D01*
G01X437400Y-168311D02*
Y-162811D01*
G01Y-163636D02*
X437733Y-163178D01*
X438067Y-162903D01*
X438600Y-162811D01*
X439067Y-162903D01*
X439533Y-163361D01*
X439733Y-164003D01*
X439800Y-164645D01*
X439733Y-165286D01*
X439533Y-165928D01*
X439133Y-166295D01*
X438600Y-166478D01*
X438133Y-166386D01*
X437667Y-166111D01*
X437400Y-165745D01*
G01X445000Y-166478D02*
Y-162811D01*
G01Y-163453D02*
X444733Y-163086D01*
X444333Y-162903D01*
X443867Y-162811D01*
X443400Y-162995D01*
X443000Y-163361D01*
X442733Y-163911D01*
X442600Y-164645D01*
X442733Y-165378D01*
X443000Y-165928D01*
X443400Y-166295D01*
X443867Y-166478D01*
X444333Y-166386D01*
X444733Y-166111D01*
X445000Y-165745D01*
G01X448067Y-166478D02*
Y-162811D01*
G01Y-163545D02*
X448400Y-163178D01*
X448733Y-162903D01*
X449200Y-162811D01*
X449533Y-162903D01*
X449933Y-163178D01*
G01X454200Y-160978D02*
Y-166478D01*
G01X453267Y-162811D02*
X455133D01*
G01X464600Y-166478D02*
X464200Y-166386D01*
X463800Y-166020D01*
X463533Y-165378D01*
X463400Y-164645D01*
X463533Y-163911D01*
X463800Y-163270D01*
X464200Y-162903D01*
X464600Y-162811D01*
X465000Y-162903D01*
X465400Y-163270D01*
X465667Y-163911D01*
X465733Y-164645D01*
X465667Y-165378D01*
X465400Y-166020D01*
X465000Y-166386D01*
X464600Y-166478D01*
G01X469400D02*
Y-161803D01*
X469533Y-161345D01*
X469800Y-161070D01*
X470200Y-160978D01*
X470600Y-161161D01*
X470800Y-161620D01*
G01X470000Y-163178D02*
X468667D01*
G01X215000Y-168497D02*
Y-173997D01*
G01X214067Y-170330D02*
X215933D01*
G01X219067Y-173997D02*
Y-168497D01*
G01Y-171155D02*
X219400Y-170697D01*
X219733Y-170422D01*
X220267Y-170330D01*
X220667Y-170422D01*
X221133Y-170789D01*
X221333Y-171339D01*
Y-173997D01*
G01X225400Y-170330D02*
Y-173997D01*
G01Y-168864D02*
X225267Y-168772D01*
Y-168589D01*
X225400Y-168497D01*
X225533Y-168589D01*
Y-168772D01*
X225400Y-168864D01*
G01X229600Y-173355D02*
X229933Y-173722D01*
X230400Y-173997D01*
X230800D01*
X231200Y-173814D01*
X231467Y-173539D01*
X231600Y-173172D01*
X231533Y-172622D01*
X231267Y-172347D01*
X230067Y-171797D01*
X229800Y-171155D01*
X229933Y-170697D01*
X230200Y-170422D01*
X230600Y-170330D01*
X231000Y-170422D01*
X231400Y-170697D01*
G01X242200Y-168497D02*
Y-173997D01*
G01Y-173172D02*
X241933Y-173630D01*
X241533Y-173905D01*
X241067Y-173997D01*
X240533Y-173814D01*
X240133Y-173355D01*
X239867Y-172805D01*
X239800Y-172164D01*
X239867Y-171522D01*
X240133Y-170972D01*
X240533Y-170514D01*
X241067Y-170330D01*
X241533Y-170422D01*
X241867Y-170605D01*
X242200Y-170972D01*
G01X246200Y-173997D02*
X245800Y-173905D01*
X245400Y-173539D01*
X245133Y-172897D01*
X245000Y-172164D01*
X245133Y-171430D01*
X245400Y-170789D01*
X245800Y-170422D01*
X246200Y-170330D01*
X246600Y-170422D01*
X247000Y-170789D01*
X247267Y-171430D01*
X247333Y-172164D01*
X247267Y-172897D01*
X247000Y-173539D01*
X246600Y-173905D01*
X246200Y-173997D01*
G01X252467Y-170789D02*
X252000Y-170422D01*
X251600Y-170330D01*
X251067Y-170514D01*
X250667Y-170880D01*
X250400Y-171522D01*
X250333Y-172164D01*
X250400Y-172805D01*
X250667Y-173355D01*
X251067Y-173814D01*
X251600Y-173997D01*
X252067Y-173814D01*
X252467Y-173447D01*
G01X255467Y-170330D02*
Y-172897D01*
X255733Y-173539D01*
X256133Y-173905D01*
X256600Y-173997D01*
X257067Y-173905D01*
X257467Y-173539D01*
X257733Y-172897D01*
G01Y-173997D02*
Y-170330D01*
G01X259800Y-173997D02*
Y-170330D01*
G01Y-171339D02*
X260000Y-170880D01*
X260333Y-170514D01*
X260800Y-170330D01*
X261267Y-170514D01*
X261600Y-170880D01*
X261800Y-171339D01*
Y-173997D01*
G01Y-171339D02*
X262000Y-170880D01*
X262333Y-170514D01*
X262800Y-170330D01*
X263267Y-170514D01*
X263600Y-170880D01*
X263800Y-171430D01*
Y-173997D01*
G01X266000Y-171522D02*
X268133D01*
X267933Y-170880D01*
X267600Y-170514D01*
X267133Y-170330D01*
X266667Y-170422D01*
X266267Y-170697D01*
X266000Y-171339D01*
X265867Y-171889D01*
Y-172439D01*
X266000Y-172989D01*
X266333Y-173539D01*
X266733Y-173905D01*
X267200Y-173997D01*
X267667Y-173814D01*
X268133Y-173264D01*
G01X271067Y-173997D02*
Y-170330D01*
G01Y-171247D02*
X271333Y-170789D01*
X271733Y-170422D01*
X272267Y-170330D01*
X272733Y-170422D01*
X273133Y-170789D01*
X273333Y-171430D01*
Y-173997D01*
G01X277400Y-168497D02*
Y-173997D01*
G01X276467Y-170330D02*
X278333D01*
G01X285800Y-173997D02*
Y-170330D01*
G01Y-171339D02*
X286000Y-170880D01*
X286333Y-170514D01*
X286800Y-170330D01*
X287267Y-170514D01*
X287600Y-170880D01*
X287800Y-171339D01*
Y-173997D01*
G01Y-171339D02*
X288000Y-170880D01*
X288333Y-170514D01*
X288800Y-170330D01*
X289267Y-170514D01*
X289600Y-170880D01*
X289800Y-171430D01*
Y-173997D01*
G01X294200D02*
Y-170330D01*
G01Y-170972D02*
X293933Y-170605D01*
X293533Y-170422D01*
X293067Y-170330D01*
X292600Y-170514D01*
X292200Y-170880D01*
X291933Y-171430D01*
X291800Y-172164D01*
X291933Y-172897D01*
X292200Y-173447D01*
X292600Y-173814D01*
X293067Y-173997D01*
X293533Y-173905D01*
X293933Y-173630D01*
X294200Y-173264D01*
G01X296800Y-175647D02*
X297200Y-175830D01*
X297733Y-175647D01*
X298067Y-175280D01*
X298333Y-174822D01*
X298733Y-173355D01*
X299600Y-170330D01*
G01X297467D02*
X298733Y-173355D01*
G01X307400Y-173997D02*
Y-168497D01*
G01Y-171247D02*
X307733Y-170697D01*
X308133Y-170422D01*
X308533Y-170330D01*
X309133Y-170514D01*
X309533Y-170880D01*
X309800Y-171522D01*
Y-172255D01*
X309667Y-172989D01*
X309400Y-173539D01*
X308933Y-173905D01*
X308533Y-173997D01*
X308133Y-173905D01*
X307733Y-173630D01*
X307400Y-173172D01*
G01X312800Y-171522D02*
X314933D01*
X314733Y-170880D01*
X314400Y-170514D01*
X313933Y-170330D01*
X313467Y-170422D01*
X313067Y-170697D01*
X312800Y-171339D01*
X312667Y-171889D01*
Y-172439D01*
X312800Y-172989D01*
X313133Y-173539D01*
X313533Y-173905D01*
X314000Y-173997D01*
X314467Y-173814D01*
X314933Y-173264D01*
G01X325400Y-168497D02*
Y-173997D01*
G01Y-173172D02*
X325133Y-173630D01*
X324733Y-173905D01*
X324267Y-173997D01*
X323733Y-173814D01*
X323333Y-173355D01*
X323067Y-172805D01*
X323000Y-172164D01*
X323067Y-171522D01*
X323333Y-170972D01*
X323733Y-170514D01*
X324267Y-170330D01*
X324733Y-170422D01*
X325067Y-170605D01*
X325400Y-170972D01*
G01X329400Y-170330D02*
Y-173997D01*
G01Y-168864D02*
X329267Y-168772D01*
Y-168589D01*
X329400Y-168497D01*
X329533Y-168589D01*
Y-168772D01*
X329400Y-168864D01*
G01X333600Y-173355D02*
X333933Y-173722D01*
X334400Y-173997D01*
X334800D01*
X335200Y-173814D01*
X335467Y-173539D01*
X335600Y-173172D01*
X335533Y-172622D01*
X335267Y-172347D01*
X334067Y-171797D01*
X333800Y-171155D01*
X333933Y-170697D01*
X334200Y-170422D01*
X334600Y-170330D01*
X335000Y-170422D01*
X335400Y-170697D01*
G01X340867Y-170789D02*
X340400Y-170422D01*
X340000Y-170330D01*
X339467Y-170514D01*
X339067Y-170880D01*
X338800Y-171522D01*
X338733Y-172164D01*
X338800Y-172805D01*
X339067Y-173355D01*
X339467Y-173814D01*
X340000Y-173997D01*
X340467Y-173814D01*
X340867Y-173447D01*
G01X345000Y-173997D02*
Y-168497D01*
G01X350200Y-173997D02*
X349800Y-173905D01*
X349400Y-173539D01*
X349133Y-172897D01*
X349000Y-172164D01*
X349133Y-171430D01*
X349400Y-170789D01*
X349800Y-170422D01*
X350200Y-170330D01*
X350600Y-170422D01*
X351000Y-170789D01*
X351267Y-171430D01*
X351333Y-172164D01*
X351267Y-172897D01*
X351000Y-173539D01*
X350600Y-173905D01*
X350200Y-173997D01*
G01X354400Y-173355D02*
X354733Y-173722D01*
X355200Y-173997D01*
X355600D01*
X356000Y-173814D01*
X356267Y-173539D01*
X356400Y-173172D01*
X356333Y-172622D01*
X356067Y-172347D01*
X354867Y-171797D01*
X354600Y-171155D01*
X354733Y-170697D01*
X355000Y-170422D01*
X355400Y-170330D01*
X355800Y-170422D01*
X356200Y-170697D01*
G01X359600Y-171522D02*
X361733D01*
X361533Y-170880D01*
X361200Y-170514D01*
X360733Y-170330D01*
X360267Y-170422D01*
X359867Y-170697D01*
X359600Y-171339D01*
X359467Y-171889D01*
Y-172439D01*
X359600Y-172989D01*
X359933Y-173539D01*
X360333Y-173905D01*
X360800Y-173997D01*
X361267Y-173814D01*
X361733Y-173264D01*
G01X367000Y-168497D02*
Y-173997D01*
G01Y-173172D02*
X366733Y-173630D01*
X366333Y-173905D01*
X365867Y-173997D01*
X365333Y-173814D01*
X364933Y-173355D01*
X364667Y-172805D01*
X364600Y-172164D01*
X364667Y-171522D01*
X364933Y-170972D01*
X365333Y-170514D01*
X365867Y-170330D01*
X366333Y-170422D01*
X366667Y-170605D01*
X367000Y-170972D01*
G01X376200Y-168497D02*
Y-173997D01*
G01X375267Y-170330D02*
X377133D01*
G01X381400Y-173997D02*
X381000Y-173905D01*
X380600Y-173539D01*
X380333Y-172897D01*
X380200Y-172164D01*
X380333Y-171430D01*
X380600Y-170789D01*
X381000Y-170422D01*
X381400Y-170330D01*
X381800Y-170422D01*
X382200Y-170789D01*
X382467Y-171430D01*
X382533Y-172164D01*
X382467Y-172897D01*
X382200Y-173539D01*
X381800Y-173905D01*
X381400Y-173997D01*
G01X391800Y-168497D02*
Y-173997D01*
G01X390867Y-170330D02*
X392733D01*
G01X395867Y-173997D02*
Y-168497D01*
G01Y-171155D02*
X396200Y-170697D01*
X396533Y-170422D01*
X397067Y-170330D01*
X397467Y-170422D01*
X397933Y-170789D01*
X398133Y-171339D01*
Y-173997D01*
G01X402200Y-170330D02*
Y-173997D01*
G01Y-168864D02*
X402067Y-168772D01*
Y-168589D01*
X402200Y-168497D01*
X402333Y-168589D01*
Y-168772D01*
X402200Y-168864D01*
G01X406467Y-173997D02*
Y-170330D01*
G01Y-171064D02*
X406800Y-170697D01*
X407133Y-170422D01*
X407600Y-170330D01*
X407933Y-170422D01*
X408333Y-170697D01*
G01X413800Y-168497D02*
Y-173997D01*
G01Y-173172D02*
X413533Y-173630D01*
X413133Y-173905D01*
X412667Y-173997D01*
X412133Y-173814D01*
X411733Y-173355D01*
X411467Y-172805D01*
X411400Y-172164D01*
X411467Y-171522D01*
X411733Y-170972D01*
X412133Y-170514D01*
X412667Y-170330D01*
X413133Y-170422D01*
X413467Y-170605D01*
X413800Y-170972D01*
G01X421800Y-175830D02*
Y-170330D01*
G01Y-171155D02*
X422133Y-170697D01*
X422467Y-170422D01*
X423000Y-170330D01*
X423467Y-170422D01*
X423933Y-170880D01*
X424133Y-171522D01*
X424200Y-172164D01*
X424133Y-172805D01*
X423933Y-173447D01*
X423533Y-173814D01*
X423000Y-173997D01*
X422533Y-173905D01*
X422067Y-173630D01*
X421800Y-173264D01*
G01X429400Y-173997D02*
Y-170330D01*
G01Y-170972D02*
X429133Y-170605D01*
X428733Y-170422D01*
X428267Y-170330D01*
X427800Y-170514D01*
X427400Y-170880D01*
X427133Y-171430D01*
X427000Y-172164D01*
X427133Y-172897D01*
X427400Y-173447D01*
X427800Y-173814D01*
X428267Y-173997D01*
X428733Y-173905D01*
X429133Y-173630D01*
X429400Y-173264D01*
G01X432467Y-173997D02*
Y-170330D01*
G01Y-171064D02*
X432800Y-170697D01*
X433133Y-170422D01*
X433600Y-170330D01*
X433933Y-170422D01*
X434333Y-170697D01*
G01X438600Y-168497D02*
Y-173997D01*
G01X437667Y-170330D02*
X439533D01*
G01X443800D02*
Y-173997D01*
G01Y-168864D02*
X443667Y-168772D01*
Y-168589D01*
X443800Y-168497D01*
X443933Y-168589D01*
Y-168772D01*
X443800Y-168864D01*
G01X448000Y-171522D02*
X450133D01*
X449933Y-170880D01*
X449600Y-170514D01*
X449133Y-170330D01*
X448667Y-170422D01*
X448267Y-170697D01*
X448000Y-171339D01*
X447867Y-171889D01*
Y-172439D01*
X448000Y-172989D01*
X448333Y-173539D01*
X448733Y-173905D01*
X449200Y-173997D01*
X449667Y-173814D01*
X450133Y-173264D01*
G01X453200Y-173355D02*
X453533Y-173722D01*
X454000Y-173997D01*
X454400D01*
X454800Y-173814D01*
X455067Y-173539D01*
X455200Y-173172D01*
X455133Y-172622D01*
X454867Y-172347D01*
X453667Y-171797D01*
X453400Y-171155D01*
X453533Y-170697D01*
X453800Y-170422D01*
X454200Y-170330D01*
X454600Y-170422D01*
X455000Y-170697D01*
G01X215000Y-153497D02*
Y-158997D01*
G01X213467Y-153497D02*
X216533D01*
G01X219067Y-158997D02*
Y-153497D01*
G01Y-156155D02*
X219400Y-155697D01*
X219733Y-155422D01*
X220267Y-155330D01*
X220667Y-155422D01*
X221133Y-155789D01*
X221333Y-156339D01*
Y-158997D01*
G01X225400Y-155330D02*
Y-158997D01*
G01Y-153864D02*
X225267Y-153772D01*
Y-153589D01*
X225400Y-153497D01*
X225533Y-153589D01*
Y-153772D01*
X225400Y-153864D01*
G01X229600Y-158355D02*
X229933Y-158722D01*
X230400Y-158997D01*
X230800D01*
X231200Y-158814D01*
X231467Y-158539D01*
X231600Y-158172D01*
X231533Y-157622D01*
X231267Y-157347D01*
X230067Y-156797D01*
X229800Y-156155D01*
X229933Y-155697D01*
X230200Y-155422D01*
X230600Y-155330D01*
X231000Y-155422D01*
X231400Y-155697D01*
G01X242200Y-153497D02*
Y-158997D01*
G01Y-158172D02*
X241933Y-158630D01*
X241533Y-158905D01*
X241067Y-158997D01*
X240533Y-158814D01*
X240133Y-158355D01*
X239867Y-157805D01*
X239800Y-157164D01*
X239867Y-156522D01*
X240133Y-155972D01*
X240533Y-155514D01*
X241067Y-155330D01*
X241533Y-155422D01*
X241867Y-155605D01*
X242200Y-155972D01*
G01X246200Y-158997D02*
X245800Y-158905D01*
X245400Y-158539D01*
X245133Y-157897D01*
X245000Y-157164D01*
X245133Y-156430D01*
X245400Y-155789D01*
X245800Y-155422D01*
X246200Y-155330D01*
X246600Y-155422D01*
X247000Y-155789D01*
X247267Y-156430D01*
X247333Y-157164D01*
X247267Y-157897D01*
X247000Y-158539D01*
X246600Y-158905D01*
X246200Y-158997D01*
G01X252467Y-155789D02*
X252000Y-155422D01*
X251600Y-155330D01*
X251067Y-155514D01*
X250667Y-155880D01*
X250400Y-156522D01*
X250333Y-157164D01*
X250400Y-157805D01*
X250667Y-158355D01*
X251067Y-158814D01*
X251600Y-158997D01*
X252067Y-158814D01*
X252467Y-158447D01*
G01X255467Y-155330D02*
Y-157897D01*
X255733Y-158539D01*
X256133Y-158905D01*
X256600Y-158997D01*
X257067Y-158905D01*
X257467Y-158539D01*
X257733Y-157897D01*
G01Y-158997D02*
Y-155330D01*
G01X259800Y-158997D02*
Y-155330D01*
G01Y-156339D02*
X260000Y-155880D01*
X260333Y-155514D01*
X260800Y-155330D01*
X261267Y-155514D01*
X261600Y-155880D01*
X261800Y-156339D01*
Y-158997D01*
G01Y-156339D02*
X262000Y-155880D01*
X262333Y-155514D01*
X262800Y-155330D01*
X263267Y-155514D01*
X263600Y-155880D01*
X263800Y-156430D01*
Y-158997D01*
G01X266000Y-156522D02*
X268133D01*
X267933Y-155880D01*
X267600Y-155514D01*
X267133Y-155330D01*
X266667Y-155422D01*
X266267Y-155697D01*
X266000Y-156339D01*
X265867Y-156889D01*
Y-157439D01*
X266000Y-157989D01*
X266333Y-158539D01*
X266733Y-158905D01*
X267200Y-158997D01*
X267667Y-158814D01*
X268133Y-158264D01*
G01X271067Y-158997D02*
Y-155330D01*
G01Y-156247D02*
X271333Y-155789D01*
X271733Y-155422D01*
X272267Y-155330D01*
X272733Y-155422D01*
X273133Y-155789D01*
X273333Y-156430D01*
Y-158997D01*
G01X277400Y-153497D02*
Y-158997D01*
G01X276467Y-155330D02*
X278333D01*
G01X288867Y-155789D02*
X288400Y-155422D01*
X288000Y-155330D01*
X287467Y-155514D01*
X287067Y-155880D01*
X286800Y-156522D01*
X286733Y-157164D01*
X286800Y-157805D01*
X287067Y-158355D01*
X287467Y-158814D01*
X288000Y-158997D01*
X288467Y-158814D01*
X288867Y-158447D01*
G01X293000Y-158997D02*
X292600Y-158905D01*
X292200Y-158539D01*
X291933Y-157897D01*
X291800Y-157164D01*
X291933Y-156430D01*
X292200Y-155789D01*
X292600Y-155422D01*
X293000Y-155330D01*
X293400Y-155422D01*
X293800Y-155789D01*
X294067Y-156430D01*
X294133Y-157164D01*
X294067Y-157897D01*
X293800Y-158539D01*
X293400Y-158905D01*
X293000Y-158997D01*
G01X297067D02*
Y-155330D01*
G01Y-156247D02*
X297333Y-155789D01*
X297733Y-155422D01*
X298267Y-155330D01*
X298733Y-155422D01*
X299133Y-155789D01*
X299333Y-156430D01*
Y-158997D01*
G01X303400Y-153497D02*
Y-158997D01*
G01X302467Y-155330D02*
X304333D01*
G01X309800Y-158997D02*
Y-155330D01*
G01Y-155972D02*
X309533Y-155605D01*
X309133Y-155422D01*
X308667Y-155330D01*
X308200Y-155514D01*
X307800Y-155880D01*
X307533Y-156430D01*
X307400Y-157164D01*
X307533Y-157897D01*
X307800Y-158447D01*
X308200Y-158814D01*
X308667Y-158997D01*
X309133Y-158905D01*
X309533Y-158630D01*
X309800Y-158264D01*
G01X313800Y-155330D02*
Y-158997D01*
G01Y-153864D02*
X313667Y-153772D01*
Y-153589D01*
X313800Y-153497D01*
X313933Y-153589D01*
Y-153772D01*
X313800Y-153864D01*
G01X317867Y-158997D02*
Y-155330D01*
G01Y-156247D02*
X318133Y-155789D01*
X318533Y-155422D01*
X319067Y-155330D01*
X319533Y-155422D01*
X319933Y-155789D01*
X320133Y-156430D01*
Y-158997D01*
G01X323200Y-158355D02*
X323533Y-158722D01*
X324000Y-158997D01*
X324400D01*
X324800Y-158814D01*
X325067Y-158539D01*
X325200Y-158172D01*
X325133Y-157622D01*
X324867Y-157347D01*
X323667Y-156797D01*
X323400Y-156155D01*
X323533Y-155697D01*
X323800Y-155422D01*
X324200Y-155330D01*
X324600Y-155422D01*
X325000Y-155697D01*
G01X334600Y-155330D02*
Y-158997D01*
G01Y-153864D02*
X334467Y-153772D01*
Y-153589D01*
X334600Y-153497D01*
X334733Y-153589D01*
Y-153772D01*
X334600Y-153864D01*
G01X338667Y-158997D02*
Y-155330D01*
G01Y-156247D02*
X338933Y-155789D01*
X339333Y-155422D01*
X339867Y-155330D01*
X340333Y-155422D01*
X340733Y-155789D01*
X340933Y-156430D01*
Y-158997D01*
G01X344600D02*
Y-154322D01*
X344733Y-153864D01*
X345000Y-153589D01*
X345400Y-153497D01*
X345800Y-153680D01*
X346000Y-154139D01*
G01X345200Y-155697D02*
X343867D01*
G01X350200Y-158997D02*
X349800Y-158905D01*
X349400Y-158539D01*
X349133Y-157897D01*
X349000Y-157164D01*
X349133Y-156430D01*
X349400Y-155789D01*
X349800Y-155422D01*
X350200Y-155330D01*
X350600Y-155422D01*
X351000Y-155789D01*
X351267Y-156430D01*
X351333Y-157164D01*
X351267Y-157897D01*
X351000Y-158539D01*
X350600Y-158905D01*
X350200Y-158997D01*
G01X354467D02*
Y-155330D01*
G01Y-156064D02*
X354800Y-155697D01*
X355133Y-155422D01*
X355600Y-155330D01*
X355933Y-155422D01*
X356333Y-155697D01*
G01X358600Y-158997D02*
Y-155330D01*
G01Y-156339D02*
X358800Y-155880D01*
X359133Y-155514D01*
X359600Y-155330D01*
X360067Y-155514D01*
X360400Y-155880D01*
X360600Y-156339D01*
Y-158997D01*
G01Y-156339D02*
X360800Y-155880D01*
X361133Y-155514D01*
X361600Y-155330D01*
X362067Y-155514D01*
X362400Y-155880D01*
X362600Y-156430D01*
Y-158997D01*
G01X367000D02*
Y-155330D01*
G01Y-155972D02*
X366733Y-155605D01*
X366333Y-155422D01*
X365867Y-155330D01*
X365400Y-155514D01*
X365000Y-155880D01*
X364733Y-156430D01*
X364600Y-157164D01*
X364733Y-157897D01*
X365000Y-158447D01*
X365400Y-158814D01*
X365867Y-158997D01*
X366333Y-158905D01*
X366733Y-158630D01*
X367000Y-158264D01*
G01X371000Y-153497D02*
Y-158997D01*
G01X370067Y-155330D02*
X371933D01*
G01X376200D02*
Y-158997D01*
G01Y-153864D02*
X376067Y-153772D01*
Y-153589D01*
X376200Y-153497D01*
X376333Y-153589D01*
Y-153772D01*
X376200Y-153864D01*
G01X381400Y-158997D02*
X381000Y-158905D01*
X380600Y-158539D01*
X380333Y-157897D01*
X380200Y-157164D01*
X380333Y-156430D01*
X380600Y-155789D01*
X381000Y-155422D01*
X381400Y-155330D01*
X381800Y-155422D01*
X382200Y-155789D01*
X382467Y-156430D01*
X382533Y-157164D01*
X382467Y-157897D01*
X382200Y-158539D01*
X381800Y-158905D01*
X381400Y-158997D01*
G01X385467D02*
Y-155330D01*
G01Y-156247D02*
X385733Y-155789D01*
X386133Y-155422D01*
X386667Y-155330D01*
X387133Y-155422D01*
X387533Y-155789D01*
X387733Y-156430D01*
Y-158997D01*
G01X395333Y-155330D02*
X396133Y-158997D01*
X397000Y-155330D01*
X397867Y-158997D01*
X398667Y-155330D01*
G01X401067Y-158997D02*
Y-153497D01*
G01Y-156155D02*
X401400Y-155697D01*
X401733Y-155422D01*
X402267Y-155330D01*
X402667Y-155422D01*
X403133Y-155789D01*
X403333Y-156339D01*
Y-158997D01*
G01X407400Y-155330D02*
Y-158997D01*
G01Y-153864D02*
X407267Y-153772D01*
Y-153589D01*
X407400Y-153497D01*
X407533Y-153589D01*
Y-153772D01*
X407400Y-153864D01*
G01X413667Y-155789D02*
X413200Y-155422D01*
X412800Y-155330D01*
X412267Y-155514D01*
X411867Y-155880D01*
X411600Y-156522D01*
X411533Y-157164D01*
X411600Y-157805D01*
X411867Y-158355D01*
X412267Y-158814D01*
X412800Y-158997D01*
X413267Y-158814D01*
X413667Y-158447D01*
G01X416667Y-158997D02*
Y-153497D01*
G01Y-156155D02*
X417000Y-155697D01*
X417333Y-155422D01*
X417867Y-155330D01*
X418267Y-155422D01*
X418733Y-155789D01*
X418933Y-156339D01*
Y-158997D01*
G01X428200Y-155330D02*
Y-158997D01*
G01Y-153864D02*
X428067Y-153772D01*
Y-153589D01*
X428200Y-153497D01*
X428333Y-153589D01*
Y-153772D01*
X428200Y-153864D01*
G01X432400Y-158355D02*
X432733Y-158722D01*
X433200Y-158997D01*
X433600D01*
X434000Y-158814D01*
X434267Y-158539D01*
X434400Y-158172D01*
X434333Y-157622D01*
X434067Y-157347D01*
X432867Y-156797D01*
X432600Y-156155D01*
X432733Y-155697D01*
X433000Y-155422D01*
X433400Y-155330D01*
X433800Y-155422D01*
X434200Y-155697D01*
G01X443800Y-153497D02*
Y-158997D01*
G01X442867Y-155330D02*
X444733D01*
G01X447867Y-158997D02*
Y-153497D01*
G01Y-156155D02*
X448200Y-155697D01*
X448533Y-155422D01*
X449067Y-155330D01*
X449467Y-155422D01*
X449933Y-155789D01*
X450133Y-156339D01*
Y-158997D01*
G01X453200Y-156522D02*
X455333D01*
X455133Y-155880D01*
X454800Y-155514D01*
X454333Y-155330D01*
X453867Y-155422D01*
X453467Y-155697D01*
X453200Y-156339D01*
X453067Y-156889D01*
Y-157439D01*
X453200Y-157989D01*
X453533Y-158539D01*
X453933Y-158905D01*
X454400Y-158997D01*
X454867Y-158814D01*
X455333Y-158264D01*
G01X258020Y-197774D02*
X258553Y-198232D01*
X259153Y-198507D01*
X259687D01*
X260220Y-198232D01*
X260620Y-197774D01*
X260820Y-197132D01*
X260687Y-196490D01*
X260353Y-195940D01*
X259753Y-195574D01*
X258953Y-195390D01*
X258487Y-195024D01*
X258287Y-194382D01*
X258420Y-193740D01*
X258753Y-193282D01*
X259220Y-193007D01*
X259687D01*
X260153Y-193190D01*
X260553Y-193649D01*
G01X264620Y-198507D02*
X264087Y-198415D01*
X263620Y-198049D01*
X263220Y-197499D01*
X262953Y-196857D01*
X262820Y-196124D01*
Y-195390D01*
X262953Y-194657D01*
X263220Y-194015D01*
X263620Y-193465D01*
X264087Y-193099D01*
X264620Y-193007D01*
X265153Y-193099D01*
X265620Y-193465D01*
X266020Y-194015D01*
X266287Y-194657D01*
X266420Y-195390D01*
Y-196124D01*
X266287Y-196857D01*
X266020Y-197499D01*
X265620Y-198049D01*
X265153Y-198415D01*
X264620Y-198507D01*
G01X268487Y-193007D02*
Y-198507D01*
X271153D01*
G01X273553D02*
Y-193007D01*
X274887D01*
X275420Y-193282D01*
X275820Y-193649D01*
X276153Y-194199D01*
X276420Y-194840D01*
X276487Y-195757D01*
X276420Y-196674D01*
X276153Y-197315D01*
X275820Y-197865D01*
X275420Y-198232D01*
X274887Y-198507D01*
X273553D01*
G01X281553D02*
X278887D01*
Y-193007D01*
X281553D01*
G01X280487Y-195665D02*
X278887D01*
G01X284087Y-198507D02*
Y-193007D01*
X285753D01*
X286287Y-193282D01*
X286620Y-193649D01*
X286753Y-194382D01*
X286620Y-195115D01*
X286220Y-195574D01*
X285753Y-195849D01*
X284087D01*
G01X285753D02*
X286753Y-198507D01*
G01X296353Y-195574D02*
X296620Y-195299D01*
X296820Y-194840D01*
X296953Y-194199D01*
X296820Y-193649D01*
X296553Y-193282D01*
X296087Y-193007D01*
X294287D01*
Y-198507D01*
X296487D01*
X296953Y-198140D01*
X297220Y-197590D01*
X297353Y-196949D01*
X297220Y-196307D01*
X296820Y-195757D01*
X296353Y-195574D01*
X294287D01*
G01X301020Y-198507D02*
X300487Y-198415D01*
X300020Y-198049D01*
X299620Y-197499D01*
X299353Y-196857D01*
X299220Y-196124D01*
Y-195390D01*
X299353Y-194657D01*
X299620Y-194015D01*
X300020Y-193465D01*
X300487Y-193099D01*
X301020Y-193007D01*
X301553Y-193099D01*
X302020Y-193465D01*
X302420Y-194015D01*
X302687Y-194657D01*
X302820Y-195390D01*
Y-196124D01*
X302687Y-196857D01*
X302420Y-197499D01*
X302020Y-198049D01*
X301553Y-198415D01*
X301020Y-198507D01*
G01X306220Y-193007D02*
Y-198507D01*
G01X304687Y-193007D02*
X307753D01*
G01X311420D02*
Y-198507D01*
G01X309887Y-193007D02*
X312953D01*
G01X316620Y-198507D02*
X316087Y-198415D01*
X315620Y-198049D01*
X315220Y-197499D01*
X314953Y-196857D01*
X314820Y-196124D01*
Y-195390D01*
X314953Y-194657D01*
X315220Y-194015D01*
X315620Y-193465D01*
X316087Y-193099D01*
X316620Y-193007D01*
X317153Y-193099D01*
X317620Y-193465D01*
X318020Y-194015D01*
X318287Y-194657D01*
X318420Y-195390D01*
Y-196124D01*
X318287Y-196857D01*
X318020Y-197499D01*
X317620Y-198049D01*
X317153Y-198415D01*
X316620Y-198507D01*
G01X320087D02*
Y-193007D01*
X321820Y-197590D01*
X323553Y-193007D01*
Y-198507D01*
G01X284867Y-245000D02*
Y-239500D01*
X286533D01*
X287067Y-239775D01*
X287400Y-240142D01*
X287533Y-240875D01*
X287400Y-241608D01*
X287000Y-242067D01*
X286533Y-242342D01*
X284867D01*
G01X286533D02*
X287533Y-245000D01*
G01X290133D02*
Y-239500D01*
X292667D01*
G01X291733Y-242158D02*
X290133D01*
G01X295733Y-243167D02*
X297467D01*
G01X303267Y-239958D02*
X302867Y-239683D01*
X302400Y-239500D01*
X301867D01*
X301267Y-239775D01*
X300800Y-240233D01*
X300467Y-240783D01*
X300200Y-241700D01*
X300133Y-242525D01*
X300267Y-243350D01*
X300467Y-243900D01*
X300867Y-244450D01*
X301333Y-244817D01*
X301800Y-245000D01*
X302267D01*
X302733Y-244817D01*
X303133Y-244542D01*
X303467Y-244175D01*
G01X307000Y-245000D02*
X306467Y-244908D01*
X306000Y-244542D01*
X305600Y-243992D01*
X305333Y-243350D01*
X305200Y-242617D01*
Y-241883D01*
X305333Y-241150D01*
X305600Y-240508D01*
X306000Y-239958D01*
X306467Y-239592D01*
X307000Y-239500D01*
X307533Y-239592D01*
X308000Y-239958D01*
X308400Y-240508D01*
X308667Y-241150D01*
X308800Y-241883D01*
Y-242617D01*
X308667Y-243350D01*
X308400Y-243992D01*
X308000Y-244542D01*
X307533Y-244908D01*
X307000Y-245000D01*
G01X310467D02*
Y-239500D01*
X312200Y-244083D01*
X313933Y-239500D01*
Y-245000D01*
G01X317933Y-242067D02*
X318200Y-241792D01*
X318400Y-241333D01*
X318533Y-240692D01*
X318400Y-240142D01*
X318133Y-239775D01*
X317667Y-239500D01*
X315867D01*
Y-245000D01*
X318067D01*
X318533Y-244633D01*
X318800Y-244083D01*
X318933Y-243442D01*
X318800Y-242800D01*
X318400Y-242250D01*
X317933Y-242067D01*
X315867D01*
G01X322600Y-245000D02*
X322067Y-244908D01*
X321600Y-244542D01*
X321200Y-243992D01*
X320933Y-243350D01*
X320800Y-242617D01*
Y-241883D01*
X320933Y-241150D01*
X321200Y-240508D01*
X321600Y-239958D01*
X322067Y-239592D01*
X322600Y-239500D01*
X323133Y-239592D01*
X323600Y-239958D01*
X324000Y-240508D01*
X324267Y-241150D01*
X324400Y-241883D01*
Y-242617D01*
X324267Y-243350D01*
X324000Y-243992D01*
X323600Y-244542D01*
X323133Y-244908D01*
X322600Y-245000D01*
G01X333533Y-242067D02*
X333800Y-241792D01*
X334000Y-241333D01*
X334133Y-240692D01*
X334000Y-240142D01*
X333733Y-239775D01*
X333267Y-239500D01*
X331467D01*
Y-245000D01*
X333667D01*
X334133Y-244633D01*
X334400Y-244083D01*
X334533Y-243442D01*
X334400Y-242800D01*
X334000Y-242250D01*
X333533Y-242067D01*
X331467D01*
G01X338200Y-245000D02*
X337667Y-244908D01*
X337200Y-244542D01*
X336800Y-243992D01*
X336533Y-243350D01*
X336400Y-242617D01*
Y-241883D01*
X336533Y-241150D01*
X336800Y-240508D01*
X337200Y-239958D01*
X337667Y-239592D01*
X338200Y-239500D01*
X338733Y-239592D01*
X339200Y-239958D01*
X339600Y-240508D01*
X339867Y-241150D01*
X340000Y-241883D01*
Y-242617D01*
X339867Y-243350D01*
X339600Y-243992D01*
X339200Y-244542D01*
X338733Y-244908D01*
X338200Y-245000D01*
G01X341733D02*
X343400Y-239500D01*
X345067Y-245000D01*
G01X344467Y-243075D02*
X342333D01*
G01X347267Y-245000D02*
Y-239500D01*
X348933D01*
X349467Y-239775D01*
X349800Y-240142D01*
X349933Y-240875D01*
X349800Y-241608D01*
X349400Y-242067D01*
X348933Y-242342D01*
X347267D01*
G01X348933D02*
X349933Y-245000D01*
G01X352333D02*
Y-239500D01*
X353667D01*
X354200Y-239775D01*
X354600Y-240142D01*
X354933Y-240692D01*
X355200Y-241333D01*
X355267Y-242250D01*
X355200Y-243167D01*
X354933Y-243808D01*
X354600Y-244358D01*
X354200Y-244725D01*
X353667Y-245000D01*
X352333D01*
G01X296600Y-219500D02*
Y-225000D01*
G01X295067Y-219500D02*
X298133D01*
G01X301800Y-225000D02*
X301400Y-224908D01*
X301000Y-224542D01*
X300733Y-223900D01*
X300600Y-223167D01*
X300733Y-222433D01*
X301000Y-221792D01*
X301400Y-221425D01*
X301800Y-221333D01*
X302200Y-221425D01*
X302600Y-221792D01*
X302867Y-222433D01*
X302933Y-223167D01*
X302867Y-223900D01*
X302600Y-224542D01*
X302200Y-224908D01*
X301800Y-225000D01*
G01X305000D02*
Y-221333D01*
G01Y-222342D02*
X305200Y-221883D01*
X305533Y-221517D01*
X306000Y-221333D01*
X306467Y-221517D01*
X306800Y-221883D01*
X307000Y-222342D01*
Y-225000D01*
G01Y-222342D02*
X307200Y-221883D01*
X307533Y-221517D01*
X308000Y-221333D01*
X308467Y-221517D01*
X308800Y-221883D01*
X309000Y-222433D01*
Y-225000D01*
G01X316067D02*
Y-219500D01*
X317733D01*
X318267Y-219775D01*
X318600Y-220142D01*
X318733Y-220875D01*
X318600Y-221608D01*
X318200Y-222067D01*
X317733Y-222342D01*
X316067D01*
G01X317733D02*
X318733Y-225000D01*
G01X322600Y-221333D02*
Y-225000D01*
G01Y-219867D02*
X322467Y-219775D01*
Y-219592D01*
X322600Y-219500D01*
X322733Y-219592D01*
Y-219775D01*
X322600Y-219867D01*
G01X329000Y-219500D02*
Y-225000D01*
G01Y-224175D02*
X328733Y-224633D01*
X328333Y-224908D01*
X327867Y-225000D01*
X327333Y-224817D01*
X326933Y-224358D01*
X326667Y-223808D01*
X326600Y-223167D01*
X326667Y-222525D01*
X326933Y-221975D01*
X327333Y-221517D01*
X327867Y-221333D01*
X328333Y-221425D01*
X328667Y-221608D01*
X329000Y-221975D01*
G01X334200Y-219500D02*
Y-225000D01*
G01Y-224175D02*
X333933Y-224633D01*
X333533Y-224908D01*
X333067Y-225000D01*
X332533Y-224817D01*
X332133Y-224358D01*
X331867Y-223808D01*
X331800Y-223167D01*
X331867Y-222525D01*
X332133Y-221975D01*
X332533Y-221517D01*
X333067Y-221333D01*
X333533Y-221425D01*
X333867Y-221608D01*
X334200Y-221975D01*
G01X338200Y-225000D02*
Y-219500D01*
G01X342400Y-222525D02*
X344533D01*
X344333Y-221883D01*
X344000Y-221517D01*
X343533Y-221333D01*
X343067Y-221425D01*
X342667Y-221700D01*
X342400Y-222342D01*
X342267Y-222892D01*
Y-223442D01*
X342400Y-223992D01*
X342733Y-224542D01*
X343133Y-224908D01*
X343600Y-225000D01*
X344067Y-224817D01*
X344533Y-224267D01*
G01X338067Y-166500D02*
Y-161000D01*
X339733D01*
X340267Y-161275D01*
X340600Y-161642D01*
X340733Y-162375D01*
X340600Y-163108D01*
X340200Y-163567D01*
X339733Y-163842D01*
X338067D01*
G01X339733D02*
X340733Y-166500D01*
G01X345800D02*
Y-162833D01*
G01Y-163475D02*
X345533Y-163108D01*
X345133Y-162925D01*
X344667Y-162833D01*
X344200Y-163017D01*
X343800Y-163383D01*
X343533Y-163933D01*
X343400Y-164667D01*
X343533Y-165400D01*
X343800Y-165950D01*
X344200Y-166317D01*
X344667Y-166500D01*
X345133Y-166408D01*
X345533Y-166133D01*
X345800Y-165767D01*
G01X348667Y-166500D02*
Y-162833D01*
G01Y-163750D02*
X348933Y-163292D01*
X349333Y-162925D01*
X349867Y-162833D01*
X350333Y-162925D01*
X350733Y-163292D01*
X350933Y-163933D01*
Y-166500D01*
G01X354067Y-167875D02*
X354533Y-168242D01*
X355067Y-168333D01*
X355533Y-168242D01*
X355933Y-167783D01*
X356200Y-167142D01*
Y-162833D01*
G01Y-163567D02*
X355933Y-163200D01*
X355533Y-162925D01*
X355067Y-162833D01*
X354533Y-163017D01*
X354200Y-163383D01*
X353933Y-164025D01*
X353800Y-164667D01*
X353867Y-165217D01*
X354133Y-165858D01*
X354533Y-166317D01*
X355067Y-166500D01*
X355467Y-166408D01*
X355933Y-166042D01*
X356200Y-165675D01*
G01X359200Y-164025D02*
X361333D01*
X361133Y-163383D01*
X360800Y-163017D01*
X360333Y-162833D01*
X359867Y-162925D01*
X359467Y-163200D01*
X359200Y-163842D01*
X359067Y-164392D01*
Y-164942D01*
X359200Y-165492D01*
X359533Y-166042D01*
X359933Y-166408D01*
X360400Y-166500D01*
X360867Y-166317D01*
X361333Y-165767D01*
G01X369067Y-166500D02*
Y-161000D01*
X372133Y-166500D01*
Y-161000D01*
G01X374800Y-164025D02*
X376933D01*
X376733Y-163383D01*
X376400Y-163017D01*
X375933Y-162833D01*
X375467Y-162925D01*
X375067Y-163200D01*
X374800Y-163842D01*
X374667Y-164392D01*
Y-164942D01*
X374800Y-165492D01*
X375133Y-166042D01*
X375533Y-166408D01*
X376000Y-166500D01*
X376467Y-166317D01*
X376933Y-165767D01*
G01X381000Y-161000D02*
Y-166500D01*
G01X380067Y-162833D02*
X381933D01*
G01X384533D02*
X385333Y-166500D01*
X386200Y-162833D01*
X387067Y-166500D01*
X387867Y-162833D01*
G01X391400Y-166500D02*
X391000Y-166408D01*
X390600Y-166042D01*
X390333Y-165400D01*
X390200Y-164667D01*
X390333Y-163933D01*
X390600Y-163292D01*
X391000Y-162925D01*
X391400Y-162833D01*
X391800Y-162925D01*
X392200Y-163292D01*
X392467Y-163933D01*
X392533Y-164667D01*
X392467Y-165400D01*
X392200Y-166042D01*
X391800Y-166408D01*
X391400Y-166500D01*
G01X395667D02*
Y-162833D01*
G01Y-163567D02*
X396000Y-163200D01*
X396333Y-162925D01*
X396800Y-162833D01*
X397133Y-162925D01*
X397533Y-163200D01*
G01X400667Y-166500D02*
Y-161000D01*
G01X402800Y-162833D02*
X400667Y-164942D01*
G01X401533Y-164117D02*
X402933Y-166500D01*
G01X406000Y-165858D02*
X406333Y-166225D01*
X406800Y-166500D01*
X407200D01*
X407600Y-166317D01*
X407867Y-166042D01*
X408000Y-165675D01*
X407933Y-165125D01*
X407667Y-164850D01*
X406467Y-164300D01*
X406200Y-163658D01*
X406333Y-163200D01*
X406600Y-162925D01*
X407000Y-162833D01*
X407400Y-162925D01*
X407800Y-163200D01*
G01X412200Y-166683D02*
X412067Y-166592D01*
Y-166408D01*
X412200Y-166317D01*
X412333Y-166408D01*
Y-166592D01*
X412200Y-166683D01*
G01X386119Y-193264D02*
X386652Y-193722D01*
X387252Y-193997D01*
X387786D01*
X388319Y-193722D01*
X388719Y-193264D01*
X388919Y-192622D01*
X388786Y-191980D01*
X388452Y-191430D01*
X387852Y-191064D01*
X387052Y-190880D01*
X386586Y-190514D01*
X386386Y-189872D01*
X386519Y-189230D01*
X386852Y-188772D01*
X387319Y-188497D01*
X387786D01*
X388252Y-188680D01*
X388652Y-189139D01*
G01X391586Y-193997D02*
Y-188497D01*
G01Y-191155D02*
X391919Y-190697D01*
X392252Y-190422D01*
X392786Y-190330D01*
X393186Y-190422D01*
X393652Y-190789D01*
X393852Y-191339D01*
Y-193997D01*
G01X396919Y-191522D02*
X399052D01*
X398852Y-190880D01*
X398519Y-190514D01*
X398052Y-190330D01*
X397586Y-190422D01*
X397186Y-190697D01*
X396919Y-191339D01*
X396786Y-191889D01*
Y-192439D01*
X396919Y-192989D01*
X397252Y-193539D01*
X397652Y-193905D01*
X398119Y-193997D01*
X398586Y-193814D01*
X399052Y-193264D01*
G01X402119Y-191522D02*
X404252D01*
X404052Y-190880D01*
X403719Y-190514D01*
X403252Y-190330D01*
X402786Y-190422D01*
X402386Y-190697D01*
X402119Y-191339D01*
X401986Y-191889D01*
Y-192439D01*
X402119Y-192989D01*
X402452Y-193539D01*
X402852Y-193905D01*
X403319Y-193997D01*
X403786Y-193814D01*
X404252Y-193264D01*
G01X408319Y-188497D02*
Y-193997D01*
G01X407386Y-190330D02*
X409252D01*
G01X413519Y-194180D02*
X413386Y-194089D01*
Y-193905D01*
X413519Y-193814D01*
X413652Y-193905D01*
Y-194089D01*
X413519Y-194180D01*
G01Y-191705D02*
X413386Y-191614D01*
Y-191430D01*
X413519Y-191339D01*
X413652Y-191430D01*
Y-191614D01*
X413519Y-191705D01*
G01X406967Y-181500D02*
Y-176000D01*
X408633D01*
X409167Y-176275D01*
X409500Y-176642D01*
X409633Y-177375D01*
X409500Y-178108D01*
X409100Y-178567D01*
X408633Y-178842D01*
X406967D01*
G01X408633D02*
X409633Y-181500D01*
G01X414700D02*
Y-177833D01*
G01Y-178475D02*
X414433Y-178108D01*
X414033Y-177925D01*
X413567Y-177833D01*
X413100Y-178017D01*
X412700Y-178383D01*
X412433Y-178933D01*
X412300Y-179667D01*
X412433Y-180400D01*
X412700Y-180950D01*
X413100Y-181317D01*
X413567Y-181500D01*
X414033Y-181408D01*
X414433Y-181133D01*
X414700Y-180767D01*
G01X417567Y-181500D02*
Y-177833D01*
G01Y-178750D02*
X417833Y-178292D01*
X418233Y-177925D01*
X418767Y-177833D01*
X419233Y-177925D01*
X419633Y-178292D01*
X419833Y-178933D01*
Y-181500D01*
G01X422967Y-182875D02*
X423433Y-183242D01*
X423967Y-183333D01*
X424433Y-183242D01*
X424833Y-182783D01*
X425100Y-182142D01*
Y-177833D01*
G01Y-178567D02*
X424833Y-178200D01*
X424433Y-177925D01*
X423967Y-177833D01*
X423433Y-178017D01*
X423100Y-178383D01*
X422833Y-179025D01*
X422700Y-179667D01*
X422767Y-180217D01*
X423033Y-180858D01*
X423433Y-181317D01*
X423967Y-181500D01*
X424367Y-181408D01*
X424833Y-181042D01*
X425100Y-180675D01*
G01X428100Y-179025D02*
X430233D01*
X430033Y-178383D01*
X429700Y-178017D01*
X429233Y-177833D01*
X428767Y-177925D01*
X428367Y-178200D01*
X428100Y-178842D01*
X427967Y-179392D01*
Y-179942D01*
X428100Y-180492D01*
X428433Y-181042D01*
X428833Y-181408D01*
X429300Y-181500D01*
X429767Y-181317D01*
X430233Y-180767D01*
G01X437967Y-181500D02*
Y-176000D01*
X441033Y-181500D01*
Y-176000D01*
G01X443700Y-179025D02*
X445833D01*
X445633Y-178383D01*
X445300Y-178017D01*
X444833Y-177833D01*
X444367Y-177925D01*
X443967Y-178200D01*
X443700Y-178842D01*
X443567Y-179392D01*
Y-179942D01*
X443700Y-180492D01*
X444033Y-181042D01*
X444433Y-181408D01*
X444900Y-181500D01*
X445367Y-181317D01*
X445833Y-180767D01*
G01X449900Y-176000D02*
Y-181500D01*
G01X448967Y-177833D02*
X450833D01*
G01X453433D02*
X454233Y-181500D01*
X455100Y-177833D01*
X455967Y-181500D01*
X456767Y-177833D01*
G01X460300Y-181500D02*
X459900Y-181408D01*
X459500Y-181042D01*
X459233Y-180400D01*
X459100Y-179667D01*
X459233Y-178933D01*
X459500Y-178292D01*
X459900Y-177925D01*
X460300Y-177833D01*
X460700Y-177925D01*
X461100Y-178292D01*
X461367Y-178933D01*
X461433Y-179667D01*
X461367Y-180400D01*
X461100Y-181042D01*
X460700Y-181408D01*
X460300Y-181500D01*
G01X464567D02*
Y-177833D01*
G01Y-178567D02*
X464900Y-178200D01*
X465233Y-177925D01*
X465700Y-177833D01*
X466033Y-177925D01*
X466433Y-178200D01*
G01X469567Y-181500D02*
Y-176000D01*
G01X471700Y-177833D02*
X469567Y-179942D01*
G01X470433Y-179117D02*
X471833Y-181500D01*
G01X474900Y-180858D02*
X475233Y-181225D01*
X475700Y-181500D01*
X476100D01*
X476500Y-181317D01*
X476767Y-181042D01*
X476900Y-180675D01*
X476833Y-180125D01*
X476567Y-179850D01*
X475367Y-179300D01*
X475100Y-178658D01*
X475233Y-178200D01*
X475500Y-177925D01*
X475900Y-177833D01*
X476300Y-177925D01*
X476700Y-178200D01*
G01X481100Y-181683D02*
X480967Y-181592D01*
Y-181408D01*
X481100Y-181317D01*
X481233Y-181408D01*
Y-181592D01*
X481100Y-181683D01*
G01X426167Y-234900D02*
X426500Y-235450D01*
X426900Y-235817D01*
X427367Y-236000D01*
X427900Y-235817D01*
X428300Y-235450D01*
X428700Y-234900D01*
X428833Y-234167D01*
Y-230500D01*
G01X432700Y-236000D02*
X432300Y-235908D01*
X431900Y-235542D01*
X431633Y-234900D01*
X431500Y-234167D01*
X431633Y-233433D01*
X431900Y-232792D01*
X432300Y-232425D01*
X432700Y-232333D01*
X433100Y-232425D01*
X433500Y-232792D01*
X433767Y-233433D01*
X433833Y-234167D01*
X433767Y-234900D01*
X433500Y-235542D01*
X433100Y-235908D01*
X432700Y-236000D01*
G01X436700D02*
Y-230500D01*
G01Y-233250D02*
X437033Y-232700D01*
X437433Y-232425D01*
X437833Y-232333D01*
X438433Y-232517D01*
X438833Y-232883D01*
X439100Y-233525D01*
Y-234258D01*
X438967Y-234992D01*
X438700Y-235542D01*
X438233Y-235908D01*
X437833Y-236000D01*
X437433Y-235908D01*
X437033Y-235633D01*
X436700Y-235175D01*
G01X443100Y-236183D02*
X442967Y-236092D01*
Y-235908D01*
X443100Y-235817D01*
X443233Y-235908D01*
Y-236092D01*
X443100Y-236183D01*
G01Y-233708D02*
X442967Y-233617D01*
Y-233433D01*
X443100Y-233342D01*
X443233Y-233433D01*
Y-233617D01*
X443100Y-233708D01*
G01X437319Y-219993D02*
X436786Y-220176D01*
X436386Y-220635D01*
X436119Y-221185D01*
X435919Y-221918D01*
X435852Y-222743D01*
X435919Y-223568D01*
X436119Y-224301D01*
X436386Y-224851D01*
X436786Y-225310D01*
X437319Y-225493D01*
X437852Y-225310D01*
X438252Y-224851D01*
X438519Y-224301D01*
X438719Y-223568D01*
X438786Y-222743D01*
X438719Y-221918D01*
X438519Y-221185D01*
X438252Y-220635D01*
X437852Y-220176D01*
X437319Y-219993D01*
G01X441052Y-224393D02*
X441452Y-225035D01*
X441986Y-225401D01*
X442586Y-225493D01*
X443119Y-225401D01*
X443652Y-224943D01*
X443986Y-224393D01*
X444052Y-223843D01*
X443919Y-223201D01*
X443452Y-222743D01*
X442986Y-222560D01*
X442386D01*
G01X442986D02*
X443386Y-222285D01*
X443719Y-221826D01*
X443852Y-221276D01*
X443719Y-220726D01*
X443386Y-220268D01*
X442786Y-219993D01*
X442186Y-220085D01*
X441586Y-220451D01*
G01X446519Y-225676D02*
X448919Y-219993D01*
G01X451652Y-220910D02*
X452052Y-220360D01*
X452519Y-220085D01*
X453052Y-219993D01*
X453719Y-220176D01*
X454186Y-220635D01*
X454319Y-221185D01*
X454252Y-221735D01*
X453986Y-222193D01*
X452652Y-223110D01*
X452052Y-223751D01*
X451652Y-224668D01*
X451519Y-225493D01*
X454319D01*
G01X456852Y-220910D02*
X457252Y-220360D01*
X457719Y-220085D01*
X458252Y-219993D01*
X458919Y-220176D01*
X459386Y-220635D01*
X459519Y-221185D01*
X459452Y-221735D01*
X459186Y-222193D01*
X457852Y-223110D01*
X457252Y-223751D01*
X456852Y-224668D01*
X456719Y-225493D01*
X459519D01*
G01X462119Y-225676D02*
X464519Y-219993D01*
G01X468519Y-225493D02*
Y-219993D01*
X467719Y-221093D01*
G01Y-225493D02*
X469319D01*
G01X472452Y-220910D02*
X472852Y-220360D01*
X473319Y-220085D01*
X473852Y-219993D01*
X474519Y-220176D01*
X474986Y-220635D01*
X475119Y-221185D01*
X475052Y-221735D01*
X474786Y-222193D01*
X473452Y-223110D01*
X472852Y-223751D01*
X472452Y-224668D01*
X472319Y-225493D01*
X475119D01*
G01X426052Y-215493D02*
Y-209993D01*
X427386D01*
X427919Y-210268D01*
X428319Y-210635D01*
X428652Y-211185D01*
X428919Y-211826D01*
X428986Y-212743D01*
X428919Y-213660D01*
X428652Y-214301D01*
X428319Y-214851D01*
X427919Y-215218D01*
X427386Y-215493D01*
X426052D01*
G01X433919D02*
Y-211826D01*
G01Y-212468D02*
X433652Y-212101D01*
X433252Y-211918D01*
X432786Y-211826D01*
X432319Y-212010D01*
X431919Y-212376D01*
X431652Y-212926D01*
X431519Y-213660D01*
X431652Y-214393D01*
X431919Y-214943D01*
X432319Y-215310D01*
X432786Y-215493D01*
X433252Y-215401D01*
X433652Y-215126D01*
X433919Y-214760D01*
G01X437919Y-209993D02*
Y-215493D01*
G01X436986Y-211826D02*
X438852D01*
G01X442119Y-213018D02*
X444252D01*
X444052Y-212376D01*
X443719Y-212010D01*
X443252Y-211826D01*
X442786Y-211918D01*
X442386Y-212193D01*
X442119Y-212835D01*
X441986Y-213385D01*
Y-213935D01*
X442119Y-214485D01*
X442452Y-215035D01*
X442852Y-215401D01*
X443319Y-215493D01*
X443786Y-215310D01*
X444252Y-214760D01*
G01X448319Y-215676D02*
X448186Y-215585D01*
Y-215401D01*
X448319Y-215310D01*
X448452Y-215401D01*
Y-215585D01*
X448319Y-215676D01*
G01Y-213201D02*
X448186Y-213110D01*
Y-212926D01*
X448319Y-212835D01*
X448452Y-212926D01*
Y-213110D01*
X448319Y-213201D01*
G01X449016Y-193997D02*
X448616Y-193905D01*
X448216Y-193539D01*
X447949Y-192897D01*
X447816Y-192164D01*
X447949Y-191430D01*
X448216Y-190789D01*
X448616Y-190422D01*
X449016Y-190330D01*
X449416Y-190422D01*
X449816Y-190789D01*
X450083Y-191430D01*
X450149Y-192164D01*
X450083Y-192897D01*
X449816Y-193539D01*
X449416Y-193905D01*
X449016Y-193997D01*
G01X453816D02*
Y-189322D01*
X453949Y-188864D01*
X454216Y-188589D01*
X454616Y-188497D01*
X455016Y-188680D01*
X455216Y-189139D01*
G01X454416Y-190697D02*
X453083D01*
G01X459416Y-194180D02*
X459283Y-194089D01*
Y-193905D01*
X459416Y-193814D01*
X459549Y-193905D01*
Y-194089D01*
X459416Y-194180D01*
G01Y-191705D02*
X459283Y-191614D01*
Y-191430D01*
X459416Y-191339D01*
X459549Y-191430D01*
Y-191614D01*
X459416Y-191705D01*
G54D19*
X84950Y164500D03*
X90050D03*
X80950Y150500D03*
X86050D03*
X80950Y157000D03*
X86050D03*
X94050Y171500D03*
X88950D03*
X94050Y178000D03*
X88950D03*
X83550Y171500D03*
X78450D03*
X83550Y178000D03*
X78450D03*
X102050Y140500D03*
X96950D03*
X186050Y84000D03*
X180950D03*
X186050Y77500D03*
X180950D03*
X186050Y71000D03*
X180950D03*
X218050Y60500D03*
X212950D03*
X218050Y66500D03*
X212950D03*
X223450Y81500D03*
X228550D03*
X223450Y87500D03*
X228550D03*
X228150Y196300D03*
X225050Y270100D03*
X225150Y260900D03*
X233450Y60500D03*
X238550D03*
X233450Y66500D03*
X238550D03*
X238650Y87000D03*
X233550D03*
X246750Y198500D03*
Y192000D03*
X233250Y196300D03*
X244550Y231000D03*
X239450D03*
X230150Y270100D03*
X230250Y260900D03*
X251850Y198500D03*
Y192000D03*
M02*
